<?xml version="1.0" encoding="UTF-8" standalone="no" ?>
<!DOCTYPE svg PUBLIC "-//W3C//DTD SVG 1.1//EN" "http://www.w3.org/Graphics/SVG/1.1/DTD/svg11.dtd">
<svg xmlns="http://www.w3.org/2000/svg" xmlns:xlink="http://www.w3.org/1999/xlink" version="1.1" width="168.91242776033772" height="99.41855957395285" viewBox="-208.72385569057658 671.5998842717172 168.91242776033772 99.41855957395285" xml:space="preserve">
<desc>Created with Fabric.js 4.6.0</desc>
<defs>
</defs>
<g transform="matrix(1 0 0 1 -178.8 743.03)" id="cX-t1LUdVbQmsZiyVbRUz"  >
<path style="stroke: none; stroke-width: 1; stroke-dasharray: none; stroke-linecap: butt; stroke-dashoffset: 0; stroke-linejoin: miter; stroke-miterlimit: 4; fill: none; fill-rule: nonzero; opacity: 1;" vector-effect="non-scaling-stroke"  transform=" translate(-119.95, -1143.35)" d="M 120.3 1144.8 C 120.3 1143.5 120.39999999999999 1142.2 120.5 1140.8999999999999 C 120.1 1142.3999999999999 119.7 1143.8999999999999 119.4 1145.4999999999998 C 119.60000000000001 1145.5999999999997 119.80000000000001 1145.6999999999998 120 1145.7999999999997 C 120.1 1145.5 120.2 1145.1 120.3 1144.8 z" stroke-linecap="round" />
</g>
<g transform="matrix(1 0 0 1 -111.3 686.03)" id="ufX2k_nrNKPhUO5VCQleZ"  >
<path style="stroke: none; stroke-width: 1; stroke-dasharray: none; stroke-linecap: butt; stroke-dashoffset: 0; stroke-linejoin: miter; stroke-miterlimit: 4; fill: none; fill-rule: nonzero; opacity: 1;" vector-effect="non-scaling-stroke"  transform=" translate(-187.45, -1086.35)" d="M 187.5 1086.4 C 187.5 1086.4 187.5 1086.3000000000002 187.4 1086.3000000000002 L 187.4 1086.3000000000002 L 187.5 1086.4 z" stroke-linecap="round" />
</g>
<g transform="matrix(1 0 0 1 -179.85 748.83)" id="9RllIeP8GacXhlOdmTK6h"  >
<path style="stroke: none; stroke-width: 1; stroke-dasharray: none; stroke-linecap: butt; stroke-dashoffset: 0; stroke-linejoin: miter; stroke-miterlimit: 4; fill: none; fill-rule: nonzero; opacity: 1;" vector-effect="non-scaling-stroke"  transform=" translate(-118.9, -1149.15)" d="M 118.2 1151.7 C 118.60000000000001 1150.1000000000001 119.10000000000001 1148.5 119.60000000000001 1146.9 C 119.4 1146.8000000000002 119.30000000000001 1146.7 119.10000000000001 1146.6000000000001 C 118.8 1148.4 118.5 1150 118.2 1151.7 z" stroke-linecap="round" />
</g>
<g transform="matrix(1 0 0 1 -83.9 705.83)" id="s3D_cnb26Ta7-LzYJfGAd"  >
<path style="stroke: none; stroke-width: 1; stroke-dasharray: none; stroke-linecap: butt; stroke-dashoffset: 0; stroke-linejoin: miter; stroke-miterlimit: 4; fill: none; fill-rule: nonzero; opacity: 1;" vector-effect="non-scaling-stroke"  transform=" translate(-214.85, -1106.15)" d="M 215 1106.4 C 215.1 1106.5 215.1 1106.5 215.2 1106.6000000000001 C 215.1 1106.3000000000002 214.79999999999998 1106.0000000000002 214.5 1105.7 C 214.7 1106 214.8 1106.2 215 1106.4 z" stroke-linecap="round" />
</g>
<g transform="matrix(1 0 0 1 -154.55 680.81)" id="G3v-rKePn3n8BmatDx8Sg"  >
<path style="stroke: none; stroke-width: 1; stroke-dasharray: none; stroke-linecap: butt; stroke-dashoffset: 0; stroke-linejoin: miter; stroke-miterlimit: 4; fill: none; fill-rule: nonzero; opacity: 1;" vector-effect="non-scaling-stroke"  transform=" translate(-144.2, -1081.13)" d="M 144.1 1081.1 L 144.2 1081.1999999999998 C 144.2 1081.1 144.2 1081.1 144.29999999999998 1081.1 C 144.2 1081 144.2 1081.1 144.1 1081.1 z" stroke-linecap="round" />
</g>
<g transform="matrix(1 0 0 1 -164.2 716.38)" id="_65ai9EtxFpk07GBqg00i"  >
<path style="stroke: none; stroke-width: 1; stroke-dasharray: none; stroke-linecap: butt; stroke-dashoffset: 0; stroke-linejoin: miter; stroke-miterlimit: 4; fill: none; fill-rule: nonzero; opacity: 1;" vector-effect="non-scaling-stroke"  transform=" translate(-134.55, -1116.7)" d="M 131.5 1119.5 L 131.5 1119.5 C 132.9 1118.4 134.3 1117.3 135.8 1116.4 C 136.20000000000002 1115.9 136.70000000000002 1115.4 137.10000000000002 1114.9 C 137.3 1114.7 137.40000000000003 1114.6000000000001 137.60000000000002 1114.4 C 137.50000000000003 1114.2 137.40000000000003 1114.1000000000001 137.3 1113.9 C 135.2 1115.5 133.3 1117.4 131.5 1119.5 z" stroke-linecap="round" />
</g>
<g transform="matrix(1 0 0 1 -172.82 691.48)" id="4UTaJo7kVBrl3YpCGgXx4"  >
<path style="stroke: none; stroke-width: 1; stroke-dasharray: none; stroke-linecap: butt; stroke-dashoffset: 0; stroke-linejoin: miter; stroke-miterlimit: 4; fill: none; fill-rule: nonzero; opacity: 1;" vector-effect="non-scaling-stroke"  transform=" translate(-125.93, -1091.8)" d="M 125.7 1091.7 C 125.7 1091.8 125.8 1091.9 125.8 1092 C 125.89999999999999 1092 125.89999999999999 1092 126 1092 L 126.1 1091.9 L 126.1 1091.9 C 126.3 1091.6 125.9 1091.5 125.7 1091.7 z" stroke-linecap="round" />
</g>
<g transform="matrix(1 0 0 1 -157 710.88)" id="HHfjEfJhB4lN3YpldZBpS"  >
<path style="stroke: none; stroke-width: 1; stroke-dasharray: none; stroke-linecap: butt; stroke-dashoffset: 0; stroke-linejoin: miter; stroke-miterlimit: 4; fill: none; fill-rule: nonzero; opacity: 1;" vector-effect="non-scaling-stroke"  transform=" translate(-141.75, -1111.2)" d="M 145.2 1109.4 C 145.1 1109.3000000000002 145.1 1109.1000000000001 145.1 1109 C 142.7 1110.1 140.5 1111.5 138.29999999999998 1113 C 138.39999999999998 1113.1 138.39999999999998 1113.3 138.49999999999997 1113.4 C 140.4 1111.8 142.7 1110.3 145.2 1109.4 z" stroke-linecap="round" />
</g>
<g transform="matrix(1 0 0 1 -96 689.12)" id="CX7pWWZiyeCRVRGYnCa7G"  >
<path style="stroke: none; stroke-width: 1; stroke-dasharray: none; stroke-linecap: butt; stroke-dashoffset: 0; stroke-linejoin: miter; stroke-miterlimit: 4; fill: none; fill-rule: nonzero; opacity: 1;" vector-effect="non-scaling-stroke"  transform=" translate(-202.75, -1089.43)" d="M 202.5 1089.3 C 202.5 1089.3999999999999 202.5 1089.5 202.5 1089.6 L 202.6 1089.6 C 202.7 1089.6 203 1089.6999999999998 203 1089.6 C 203 1089.5 202.7 1089.3 202.5 1089.3 C 202.5 1089.2 202.5 1089.2 202.5 1089.3 z" stroke-linecap="round" />
</g>
<g transform="matrix(1 0 0 1 -140.01 676.65)" id="dW1IMGJ2A1c1VIGLk2ts8"  >
<path style="stroke: none; stroke-width: 1; stroke-dasharray: none; stroke-linecap: butt; stroke-dashoffset: 0; stroke-linejoin: miter; stroke-miterlimit: 4; fill: none; fill-rule: nonzero; opacity: 1;" vector-effect="non-scaling-stroke"  transform=" translate(-158.74, -1076.96)" d="M 158.6 1076.9 C 158.6 1077 158.5 1077 158.5 1077.1000000000001 C 158.6 1077.1000000000001 158.7 1077.1000000000001 158.8 1077.1000000000001 C 158.8 1077.1000000000001 158.8 1077.1000000000001 158.9 1077.1000000000001 C 159 1077.0000000000002 159 1077.0000000000002 158.9 1076.9 C 158.8 1076.8 158.6 1076.8 158.6 1076.9 z" stroke-linecap="round" />
</g>
<g transform="matrix(1 0 0 1 -85.2 765.28)" id="fkoxm-PkDXrXpQgGUikqh"  >
<path style="stroke: none; stroke-width: 1; stroke-dasharray: none; stroke-linecap: butt; stroke-dashoffset: 0; stroke-linejoin: miter; stroke-miterlimit: 4; fill: none; fill-rule: nonzero; opacity: 1;" vector-effect="non-scaling-stroke"  transform=" translate(-213.55, -1165.6)" d="M 213.7 1165.5 C 213.6 1165.6 213.39999999999998 1165.6 213.29999999999998 1165.7 C 213.49999999999997 1165.7 213.6 1165.7 213.79999999999998 1165.7 C 213.8 1165.6 213.7 1165.5 213.7 1165.5 z" stroke-linecap="round" />
</g>
<g transform="matrix(1 0 0 1 -127.34 673.57)" id="Gq-lnMOqHH2vPEoqsAOfo"  >
<path style="stroke: none; stroke-width: 1; stroke-dasharray: none; stroke-linecap: butt; stroke-dashoffset: 0; stroke-linejoin: miter; stroke-miterlimit: 4; fill: none; fill-rule: nonzero; opacity: 1;" vector-effect="non-scaling-stroke"  transform=" translate(-171.41, -1073.88)" d="M 171.1 1073.6 C 171.4 1073.6999999999998 171.6 1073.8999999999999 171.6 1074.1999999999998 C 171.7 1074.1 171.7 1074.1 171.7 1073.9999999999998 C 171.8 1073.6 171.4 1073.5 171.1 1073.6 L 171.1 1073.6 z" stroke-linecap="round" />
</g>
<g transform="matrix(1 0 0 1 -42.2 761.73)" id="iTO7AOBEfm50KSHSX6JxX"  >
<path style="stroke: none; stroke-width: 1; stroke-dasharray: none; stroke-linecap: butt; stroke-dashoffset: 0; stroke-linejoin: miter; stroke-miterlimit: 4; fill: none; fill-rule: nonzero; opacity: 1;" vector-effect="non-scaling-stroke"  transform=" translate(-256.55, -1162.05)" d="M 256.4 1161.5 C 256.4 1161.5 256.29999999999995 1161.6 256.2 1161.6 C 256.4 1161.8999999999999 256.59999999999997 1162.3 256.9 1162.6 C 256.9 1162.5 256.79999999999995 1162.3999999999999 256.79999999999995 1162.1999999999998 C 256.7 1162 256.6 1161.8 256.4 1161.5 C 256.5 1161.6 256.5 1161.5 256.4 1161.5 z" stroke-linecap="round" />
</g>
<g transform="matrix(1 0 0 1 -107 714.28)" id="UHAEv31bMfJj0z0iBSKQT"  >
<path style="stroke: none; stroke-width: 1; stroke-dasharray: none; stroke-linecap: butt; stroke-dashoffset: 0; stroke-linejoin: miter; stroke-miterlimit: 4; fill: none; fill-rule: nonzero; opacity: 1;" vector-effect="non-scaling-stroke"  transform=" translate(-191.75, -1114.6)" d="M 190.8 1113.8 C 190.8 1114 190.70000000000002 1114.2 190.60000000000002 1114.5 C 191.40000000000003 1114.8 192.10000000000002 1115.1 192.90000000000003 1115.4 C 192.2 1114.8 191.5 1114.3 190.8 1113.8 z" stroke-linecap="round" />
</g>
<g transform="matrix(1 0 0 1 -167.1 747.38)" id="0JLVm67jYJPh7RJf5QjNT"  >
<path style="stroke: none; stroke-width: 1; stroke-dasharray: none; stroke-linecap: butt; stroke-dashoffset: 0; stroke-linejoin: miter; stroke-miterlimit: 4; fill: none; fill-rule: nonzero; opacity: 1;" vector-effect="non-scaling-stroke"  transform=" translate(-131.65, -1147.7)" d="M 132.5 1147.7 C 131.7 1147.6000000000001 130.9 1147.4 130.2 1146.9 C 130.2 1147.2 130.29999999999998 1147.4 130.39999999999998 1147.6000000000001 C 130.59999999999997 1147.7 130.79999999999998 1147.7 131.2 1147.9 C 131.79999999999998 1148.1000000000001 132.5 1148.3000000000002 133.1 1148.5 C 132.8 1148.3 132.6 1148 132.5 1147.7 z" stroke-linecap="round" />
</g>
<g transform="matrix(1 0 0 1 -133.05 732.68)" id="oNFzUj8IU9B8s4D6b6eWD"  >
<path style="stroke: none; stroke-width: 1; stroke-dasharray: none; stroke-linecap: butt; stroke-dashoffset: 0; stroke-linejoin: miter; stroke-miterlimit: 4; fill: rgb(182,89,51); fill-rule: nonzero; opacity: 1;" vector-effect="non-scaling-stroke"  transform=" translate(-165.7, -1133)" d="M 209 1163.9 C 210.2 1165.1000000000001 211.2 1166.5 211.8 1168.2 C 212.10000000000002 1168.9 210.9 1169.3 210.60000000000002 1168.5 C 209.60000000000002 1165.3 206.70000000000002 1163.4 204.00000000000003 1161.6 C 203.30000000000004 1161.1 204.00000000000003 1160 204.60000000000002 1160.5 C 205.70000000000002 1161.2 206.8 1162 207.8 1162.8 L 207.8 1162.8 C 213.10000000000002 1162.3 218.3 1161.8999999999999 223.60000000000002 1161.5 C 223.90000000000003 1157.9 223.90000000000003 1154.3 223.50000000000003 1150.8 C 213.40000000000003 1153.3 203.30000000000004 1155.8999999999999 193.20000000000002 1158.3999999999999 C 193.70000000000002 1158.9999999999998 194.10000000000002 1159.6 194.50000000000003 1160.3 C 194.90000000000003 1161 193.80000000000004 1161.6 193.40000000000003 1160.8999999999999 C 192.60000000000002 1159.4999999999998 191.60000000000002 1158.3 190.30000000000004 1157.3999999999999 C 189.60000000000005 1156.8999999999999 190.30000000000004 1155.8 190.90000000000003 1156.3999999999999 C 191.40000000000003 1156.6999999999998 191.80000000000004 1156.9999999999998 192.20000000000005 1157.3999999999999 L 192.20000000000005 1157.3999999999999 C 202.60000000000005 1154.8 213.00000000000006 1152.1999999999998 223.40000000000003 1149.6 C 223.10000000000002 1147.3 222.70000000000005 1145 222.20000000000005 1142.6999999999998 C 222.10000000000005 1142.1 222.00000000000006 1141.4999999999998 221.90000000000003 1140.9999999999998 C 215.80000000000004 1143.4999999999998 209.60000000000002 1145.8999999999999 203.50000000000003 1148.3999999999999 C 203.60000000000002 1148.6999999999998 203.70000000000002 1148.8999999999999 203.80000000000004 1149.1999999999998 C 204.00000000000003 1149.9999999999998 202.80000000000004 1150.2999999999997 202.60000000000005 1149.4999999999998 C 202.40000000000006 1148.7999999999997 202.10000000000005 1148.0999999999997 201.60000000000005 1147.5999999999997 C 201.10000000000005 1146.9999999999998 202.00000000000006 1146.0999999999997 202.50000000000006 1146.7999999999997 C 202.70000000000005 1146.9999999999998 202.80000000000007 1147.0999999999997 203.00000000000006 1147.2999999999997 C 209.20000000000005 1144.7999999999997 215.50000000000006 1142.2999999999997 221.70000000000005 1139.7999999999997 C 220.80000000000004 1135.3999999999996 219.60000000000005 1131.0999999999997 217.90000000000003 1126.9999999999998 C 211.20000000000005 1131.2999999999997 204.70000000000005 1135.7999999999997 198.50000000000003 1140.6999999999998 C 198.90000000000003 1141.1 199.20000000000002 1141.6999999999998 199.40000000000003 1142.1999999999998 C 199.70000000000005 1142.8999999999999 198.60000000000002 1143.4999999999998 198.30000000000004 1142.7999999999997 C 197.70000000000005 1141.4999999999998 196.70000000000005 1140.4999999999998 195.40000000000003 1139.9999999999998 C 194.70000000000005 1139.6999999999998 195.00000000000003 1138.4999999999998 195.80000000000004 1138.8999999999999 C 196.40000000000003 1139.1 197.00000000000003 1139.3999999999999 197.50000000000003 1139.8 C 203.90000000000003 1134.8999999999999 210.50000000000003 1130.2 217.30000000000004 1125.8999999999999 C 215.20000000000005 1121.1999999999998 212.50000000000003 1116.8 209.00000000000003 1112.9999999999998 C 200.00000000000003 1122.3999999999999 191.40000000000003 1132.2999999999997 183.30000000000004 1142.4999999999998 C 184.60000000000005 1142.8999999999999 185.80000000000004 1143.4999999999998 186.80000000000004 1144.4999999999998 C 187.40000000000003 1145.0999999999997 186.50000000000003 1145.9999999999998 185.90000000000003 1145.3999999999999 C 184.90000000000003 1144.4999999999998 183.70000000000005 1143.8999999999999 182.40000000000003 1143.6 C 182.30000000000004 1143.6999999999998 182.20000000000005 1143.8 182.20000000000005 1143.8999999999999 C 181.80000000000004 1144.3999999999999 181.20000000000005 1143.8999999999999 181.20000000000005 1143.3999999999999 C 180.70000000000005 1143.3999999999999 180.20000000000005 1143.3999999999999 179.60000000000005 1143.6 C 178.80000000000004 1143.8 178.50000000000006 1142.6 179.30000000000004 1142.3 C 180.20000000000005 1142.1 181.10000000000005 1142.1 181.90000000000003 1142.2 C 190.20000000000005 1131.8 198.90000000000003 1121.7 208.10000000000002 1112.1000000000001 C 206.8 1110.7 205.40000000000003 1109.4 203.90000000000003 1108.2 C 201.30000000000004 1106.1000000000001 198.50000000000003 1104.3 195.60000000000002 1103 C 191.40000000000003 1111.2 187.10000000000002 1119.3 182.90000000000003 1127.5 C 182.50000000000003 1128.2 181.40000000000003 1127.6 181.80000000000004 1126.9 C 186.00000000000003 1118.7 190.20000000000005 1110.6000000000001 194.50000000000003 1102.4 C 191.00000000000003 1100.9 187.40000000000003 1099.8000000000002 183.60000000000002 1099.2 C 183.00000000000003 1099 182.3 1098.7 181.70000000000002 1098.5 C 179.60000000000002 1103.5 178.00000000000003 1108.8 177.00000000000003 1114.2 C 177.00000000000003 1114.3 177.00000000000003 1114.4 176.90000000000003 1114.4 C 177.70000000000005 1114.7 178.50000000000003 1115 179.30000000000004 1115.4 C 180.10000000000005 1115.8000000000002 179.40000000000003 1116.9 178.70000000000005 1116.5 C 176.90000000000003 1115.6 174.90000000000003 1115.1 172.90000000000003 1114.9 C 172.10000000000002 1114.8000000000002 172.10000000000002 1113.6000000000001 172.90000000000003 1113.6000000000001 C 173.90000000000003 1113.7 174.80000000000004 1113.9 175.80000000000004 1114.1000000000001 C 175.80000000000004 1114.0000000000002 175.80000000000004 1114.0000000000002 175.80000000000004 1113.9 C 176.90000000000003 1108.5 178.50000000000003 1103.2 180.60000000000005 1098.1000000000001 C 176.90000000000006 1096.9 173.10000000000005 1096.1000000000001 169.10000000000005 1095.6000000000001 C 168.00000000000006 1105.8000000000002 167.20000000000005 1116.0000000000002 166.70000000000005 1126.1000000000001 C 166.70000000000005 1126.3000000000002 166.60000000000005 1126.5000000000002 166.40000000000003 1126.6000000000001 C 167.40000000000003 1126.6000000000001 168.50000000000003 1126.8000000000002 169.50000000000003 1127.1000000000001 C 170.30000000000004 1127.4 170.00000000000003 1128.6000000000001 169.20000000000002 1128.3000000000002 C 167.3 1127.7000000000003 165.4 1127.7000000000003 163.50000000000003 1128.4 C 162.80000000000004 1128.7 162.40000000000003 1127.4 163.10000000000002 1127.2 C 164.00000000000003 1126.9 164.90000000000003 1126.7 165.8 1126.6000000000001 C 165.60000000000002 1126.5000000000002 165.5 1126.3000000000002 165.5 1126.1000000000001 C 166 1115.9 166.9 1105.6000000000001 168 1095.4 C 167.9 1095.4 167.9 1095.4 167.8 1095.4 C 164.8 1095.1000000000001 161.9 1095.1000000000001 159 1095.3000000000002 C 158.8 1100.5000000000002 158.6 1105.6000000000001 158.4 1110.8000000000002 C 158.4 1111.6000000000001 157.20000000000002 1111.6000000000001 157.20000000000002 1110.8000000000002 C 157.4 1105.6000000000001 157.60000000000002 1100.5000000000002 157.8 1095.4 C 154.3 1095.7 151 1096.4 147.70000000000002 1097.4 C 148.60000000000002 1101.9 149.50000000000003 1106.4 150.50000000000003 1110.9 C 154.10000000000002 1109.8000000000002 158.10000000000002 1111 160.50000000000003 1114.5 C 160.90000000000003 1115.1 159.90000000000003 1115.8 159.40000000000003 1115.1 C 157.30000000000004 1112.1 153.80000000000004 1111 150.70000000000005 1112 C 150.60000000000005 1112.5 150.10000000000005 1112.7 149.70000000000005 1112.4 C 149.00000000000006 1112.8000000000002 148.30000000000004 1113.2 147.70000000000005 1113.8000000000002 C 147.10000000000005 1114.3000000000002 146.20000000000005 1113.4 146.90000000000003 1113.0000000000002 C 147.70000000000005 1112.3000000000002 148.50000000000003 1111.7000000000003 149.30000000000004 1111.3000000000002 C 148.40000000000003 1106.8000000000002 147.40000000000003 1102.3000000000002 146.50000000000003 1097.7000000000003 C 141.90000000000003 1099.2000000000003 137.50000000000003 1101.4000000000003 133.50000000000003 1104.2000000000003 C 135.10000000000002 1107.1000000000004 136.70000000000002 1110.1000000000004 138.30000000000004 1113.0000000000002 C 140.40000000000003 1111.4000000000003 142.70000000000005 1110.1000000000001 145.10000000000005 1109.0000000000002 C 145.10000000000005 1109.2000000000003 145.20000000000005 1109.3000000000002 145.20000000000005 1109.4000000000003 C 142.70000000000005 1110.2000000000003 140.40000000000003 1111.7000000000003 138.50000000000006 1113.4000000000003 C 140.90000000000006 1117.8000000000004 143.30000000000007 1122.2000000000003 145.70000000000005 1126.6000000000004 C 147.10000000000005 1126.5000000000005 148.40000000000003 1126.8000000000004 149.70000000000005 1127.9000000000003 C 150.30000000000004 1128.4000000000003 149.40000000000003 1129.3000000000004 148.80000000000004 1128.8000000000004 C 147.90000000000003 1128.0000000000005 146.90000000000003 1127.7000000000005 145.90000000000003 1127.8000000000004 C 145.70000000000005 1128.0000000000005 145.40000000000003 1128.1000000000004 145.10000000000002 1127.9000000000003 C 143.3 1128.3000000000004 141.60000000000002 1129.5000000000002 140.3 1130.6000000000004 C 139.60000000000002 1131.1000000000004 139 1130.0000000000005 139.70000000000002 1129.5000000000005 C 141.10000000000002 1128.4000000000005 142.8 1127.4000000000005 144.4 1126.9000000000005 C 142.1 1122.7000000000005 139.8 1118.5000000000005 137.5 1114.3000000000006 C 137.3 1114.5000000000007 137.2 1114.6000000000006 137 1114.8000000000006 C 136.5 1115.3000000000006 136.1 1115.8000000000006 135.7 1116.3000000000006 C 134.2 1117.2000000000007 132.79999999999998 1118.3000000000006 131.39999999999998 1119.5000000000007 C 131.59999999999997 1119.8000000000006 131.7 1120.0000000000007 131.89999999999998 1120.3000000000006 C 133.2 1119.3000000000006 134.7 1118.2000000000007 136.29999999999998 1118.8000000000006 C 137.1 1119.1000000000006 136.79999999999998 1120.3000000000006 135.99999999999997 1120.0000000000007 C 134.69999999999996 1119.5000000000007 133.29999999999998 1120.7000000000007 132.39999999999998 1121.5000000000007 C 132.29999999999998 1121.7000000000007 132.2 1121.8000000000006 131.99999999999997 1121.9000000000008 C 131.19999999999996 1122.6000000000008 130.49999999999997 1123.5000000000007 130.19999999999996 1124.5000000000007 C 129.89999999999995 1125.3000000000006 128.69999999999996 1125.0000000000007 128.89999999999995 1124.2000000000007 C 129.29999999999995 1122.9000000000008 130.09999999999994 1121.9000000000008 130.99999999999994 1121.1000000000008 C 129.09999999999994 1117.9000000000008 127.09999999999994 1114.8000000000009 124.99999999999994 1111.7000000000007 C 124.59999999999994 1112.2000000000007 124.09999999999994 1112.7000000000007 123.69999999999995 1113.2000000000007 C 120.99999999999994 1116.5000000000007 118.59999999999995 1120.0000000000007 116.69999999999995 1123.7000000000007 C 124.19999999999995 1130.6000000000008 131.39999999999995 1137.7000000000007 138.29999999999995 1145.1000000000008 C 138.29999999999995 1145.1000000000008 138.29999999999995 1145.2000000000007 138.39999999999995 1145.2000000000007 C 138.99999999999994 1144.8000000000006 139.69999999999996 1144.5000000000007 140.39999999999995 1144.2000000000007 C 141.09999999999994 1143.9000000000008 141.49999999999994 1145.1000000000008 140.69999999999996 1145.4000000000008 C 138.99999999999997 1145.9000000000008 137.59999999999997 1147.0000000000007 136.59999999999997 1148.5000000000007 C 136.19999999999996 1149.1000000000006 135.09999999999997 1148.5000000000007 135.59999999999997 1147.9000000000008 C 136.09999999999997 1147.1000000000008 136.69999999999996 1146.5000000000007 137.29999999999995 1145.9000000000008 C 130.39999999999995 1138.6000000000008 123.39999999999995 1131.6000000000008 116.09999999999995 1124.8000000000009 C 113.59999999999995 1129.700000000001 111.69999999999995 1134.9000000000008 110.39999999999995 1140.3000000000009 C 113.39999999999995 1142.000000000001 116.39999999999995 1143.700000000001 119.39999999999995 1145.4000000000008 C 119.69999999999995 1143.9000000000008 120.09999999999995 1142.3000000000009 120.49999999999994 1140.8000000000009 C 120.29999999999994 1142.1000000000008 120.29999999999994 1143.500000000001 120.29999999999994 1144.700000000001 C 120.19999999999995 1145.000000000001 120.09999999999994 1145.3000000000009 119.99999999999994 1145.700000000001 C 125.59999999999994 1148.8000000000009 131.29999999999995 1151.900000000001 136.99999999999994 1154.900000000001 C 138.69999999999993 1153.100000000001 140.99999999999994 1151.800000000001 143.29999999999995 1150.700000000001 C 143.99999999999994 1150.400000000001 144.59999999999997 1151.500000000001 143.89999999999995 1151.8000000000009 C 140.49999999999994 1153.4000000000008 136.69999999999996 1155.4000000000008 135.99999999999994 1159.4000000000008 C 135.89999999999995 1160.2000000000007 134.69999999999993 1159.8000000000009 134.89999999999995 1159.0000000000007 C 135.09999999999994 1157.8000000000006 135.59999999999994 1156.8000000000006 136.19999999999996 1155.9000000000008 C 130.69999999999996 1152.9000000000008 125.09999999999997 1149.9000000000008 119.59999999999997 1146.9000000000008 C 119.09999999999997 1148.5000000000007 118.59999999999997 1150.1000000000008 118.19999999999996 1151.7000000000007 C 118.49999999999996 1150.0000000000007 118.79999999999995 1148.3000000000006 119.09999999999997 1146.7000000000007 C 116.09999999999997 1145.0000000000007 113.09999999999997 1143.3000000000006 109.99999999999997 1141.6000000000008 C 108.69999999999997 1147.2000000000007 107.79999999999997 1152.9000000000008 107.29999999999997 1158.7000000000007 C 109.59999999999997 1159.3000000000006 111.79999999999997 1160.0000000000007 114.09999999999997 1160.6000000000008 C 114.89999999999996 1160.8000000000009 114.59999999999997 1162.000000000001 113.79999999999997 1161.8000000000009 C 111.59999999999997 1161.200000000001 109.39999999999996 1160.500000000001 107.19999999999997 1159.9000000000008 C 107.09999999999998 1160.8000000000009 107.09999999999998 1161.7000000000007 106.99999999999997 1162.7000000000007 C 106.79999999999997 1165.7000000000007 108.79999999999997 1167.3000000000006 111.09999999999997 1167.5000000000007 C 111.39999999999996 1167.6000000000006 111.69999999999996 1167.7000000000007 111.99999999999997 1167.8000000000006 C 148.59999999999997 1170.5000000000007 185.29999999999995 1171.4000000000005 221.99999999999997 1170.5000000000007 C 224.99999999999997 1170.4000000000008 225.19999999999996 1166.1000000000006 222.59999999999997 1165.5000000000007 C 222.99999999999997 1164.9000000000008 223.19999999999996 1164.2000000000007 223.29999999999995 1163.4000000000008 C 223.29999999999995 1163.2000000000007 223.29999999999995 1163.0000000000007 223.39999999999995 1162.8000000000009 C 218.6 1163.1 213.8 1163.5 209 1163.9 z M 190.8 1113.8 C 191.5 1114.3 192.20000000000002 1114.8 192.9 1115.3 C 192.1 1115 191.4 1114.7 190.6 1114.3999999999999 C 190.7 1114.2 190.7 1114 190.8 1113.8 z M 183.4 1129.6 C 183.9 1130.1999999999998 182.8 1130.8 182.3 1130.1999999999998 C 181.20000000000002 1128.6999999999998 179.70000000000002 1127.4999999999998 178.10000000000002 1126.6 C 177.40000000000003 1126.1999999999998 178.00000000000003 1125.1 178.8 1125.6 C 180.6 1126.6 182.1 1127.9 183.4 1129.6 z M 130.3 1147.6 C 130.20000000000002 1147.3999999999999 130.20000000000002 1147.1 130.10000000000002 1146.8999999999999 C 130.8 1147.3 131.60000000000002 1147.6 132.40000000000003 1147.6999999999998 C 132.60000000000002 1147.9999999999998 132.80000000000004 1148.1999999999998 133.00000000000003 1148.4999999999998 C 132.30000000000004 1148.2999999999997 131.70000000000002 1148.0999999999997 131.10000000000002 1147.8999999999999 C 130.8 1147.8 130.5 1147.7 130.3 1147.6 z M 119.8 1158.5 C 118.1 1159.7 116 1161.3 116.39999999999999 1163.7 C 116.49999999999999 1164.5 115.3 1164.8 115.19999999999999 1164 C 114.79999999999998 1161 116.99999999999999 1159 119.19999999999999 1157.4 C 119.8 1156.9 120.4 1158 119.8 1158.5 z M 213.7 1165.5 C 213.7 1165.6 213.7 1165.6 213.79999999999998 1165.7 C 213.6 1165.7 213.49999999999997 1165.7 213.29999999999998 1165.7 C 213.4 1165.6 213.6 1165.5 213.7 1165.5 z" stroke-linecap="round" />
</g>
<g transform="matrix(1 0 0 1 -167.2 711.83)" id="aT8ISZQ9ylQYUlRGYZlxV"  >
<path style="stroke: none; stroke-width: 1; stroke-dasharray: none; stroke-linecap: butt; stroke-dashoffset: 0; stroke-linejoin: miter; stroke-miterlimit: 4; fill: rgb(182,89,51); fill-rule: nonzero; opacity: 1;" vector-effect="non-scaling-stroke"  transform=" translate(-131.55, -1112.15)" d="M 137.3 1113.8 C 135.70000000000002 1110.8 134.10000000000002 1107.8999999999999 132.4 1104.8999999999999 C 130.1 1106.6 127.9 1108.6 125.80000000000001 1110.6999999999998 C 127.80000000000001 1113.4999999999998 129.60000000000002 1116.3999999999999 131.4 1119.3999999999999 C 133.3 1117.4 135.2 1115.5 137.3 1113.8 z" stroke-linecap="round" />
</g>
<g transform="matrix(1 0 0 1 -163.58 707.82)" id="1BIOBd8uZNNmgVPAhuIlL"  >
<path style="stroke: none; stroke-width: 1; stroke-dasharray: none; stroke-linecap: butt; stroke-dashoffset: 0; stroke-linejoin: miter; stroke-miterlimit: 4; fill: rgb(186,164,149); fill-rule: nonzero; opacity: 1;" vector-effect="non-scaling-stroke"  transform=" translate(-135.17, -1108.14)" d="M 137.6 1114.3 C 139.9 1118.5 142.2 1122.7 144.5 1126.8999999999999 C 144.9 1126.8 145.4 1126.6999999999998 145.8 1126.6 C 143.4 1122.1999999999998 141 1117.8 138.60000000000002 1113.3999999999999 C 138.50000000000003 1113.3 138.50000000000003 1113.1 138.40000000000003 1112.9999999999998 C 136.80000000000004 1109.9999999999998 135.20000000000005 1107.0999999999997 133.60000000000002 1104.1999999999998 C 131.50000000000003 1100.2999999999997 129.40000000000003 1096.4999999999998 127.30000000000003 1092.6 C 127.90000000000002 1091.6 127.90000000000002 1090 126.80000000000003 1089.5 C 125.30000000000003 1088.8 124.10000000000002 1091.1 124.70000000000003 1092.3 C 124.70000000000003 1092.3 124.70000000000003 1092.3 124.80000000000003 1092.3999999999999 C 124.80000000000003 1092.6999999999998 125.00000000000003 1092.8999999999999 125.20000000000003 1093.1 C 125.50000000000003 1093.3999999999999 126.00000000000003 1093.3999999999999 126.30000000000003 1093.3 C 128.40000000000003 1097.1 130.50000000000003 1101 132.60000000000002 1104.8 C 134.20000000000002 1107.8 135.8 1110.7 137.50000000000003 1113.7 C 137.4 1114 137.5 1114.1 137.6 1114.3 z M 126 1092 C 125.9 1092 125.9 1092 125.8 1092 C 125.8 1091.9 125.8 1091.8 125.7 1091.7 C 125.8 1091.5 126.3 1091.6000000000001 126.10000000000001 1091.9 L 126.10000000000001 1091.9 C 126 1091.9 126 1092 126 1092 z" stroke-linecap="round" />
</g>
<g transform="matrix(1 0 0 1 -153.25 727.59)" id="jSL67087xHBc2-lOL6bo1"  >
<path style="stroke: none; stroke-width: 1; stroke-dasharray: none; stroke-linecap: butt; stroke-dashoffset: 0; stroke-linejoin: miter; stroke-miterlimit: 4; fill: rgb(186,164,149); fill-rule: nonzero; opacity: 1;" vector-effect="non-scaling-stroke"  transform=" translate(-145.5, -1127.9)" d="M 145.1 1127.9 C 145.4 1128.1000000000001 145.7 1128 145.9 1127.8000000000002 C 145.6 1127.8 145.4 1127.9 145.1 1127.9 z" stroke-linecap="round" />
</g>
<g transform="matrix(1 0 0 1 -129.58 699.19)" id="fCr8BnHK1_SScW73j6v2X"  >
<path style="stroke: none; stroke-width: 1; stroke-dasharray: none; stroke-linecap: butt; stroke-dashoffset: 0; stroke-linejoin: miter; stroke-miterlimit: 4; fill: rgb(186,164,149); fill-rule: nonzero; opacity: 1;" vector-effect="non-scaling-stroke"  transform=" translate(-169.17, -1099.51)" d="M 165.5 1126.1 C 165.5 1126.3999999999999 165.6 1126.5 165.8 1126.6 C 166 1126.6 166.20000000000002 1126.6 166.4 1126.6 C 166.5 1126.5 166.70000000000002 1126.3 166.70000000000002 1126.1 C 167.20000000000002 1115.8999999999999 168.10000000000002 1105.6999999999998 169.10000000000002 1095.6 C 169.8 1089 170.60000000000002 1082.3999999999999 171.50000000000003 1075.8 L 171.50000000000003 1075.7 C 171.80000000000004 1075.6000000000001 172.00000000000003 1075.5 172.20000000000002 1075.3 C 173.20000000000002 1074.5 173.00000000000003 1073.1 171.9 1072.6 C 170.6 1072 169.5 1073 168.9 1074.1 C 168.70000000000002 1074.3999999999999 168.8 1074.6999999999998 169 1074.8 C 169 1074.8999999999999 169 1075 169.1 1075.1 C 169.4 1075.6 169.79999999999998 1075.8 170.4 1075.8999999999999 C 169.5 1082.3999999999999 168.70000000000002 1088.8999999999999 168 1095.4999999999998 C 166.9 1105.6 166 1115.9 165.5 1126.1 z M 171.7 1074 C 171.7 1074.1 171.6 1074.1 171.6 1074.2 C 171.6 1074 171.5 1073.7 171.1 1073.6000000000001 L 171.1 1073.6000000000001 C 171.4 1073.5 171.8 1073.6 171.7 1074 z" stroke-linecap="round" />
</g>
<g transform="matrix(1 0 0 1 -105.75 707.44)" id="FYlKIjeClFB73X125WQkE"  >
<path style="stroke: none; stroke-width: 1; stroke-dasharray: none; stroke-linecap: butt; stroke-dashoffset: 0; stroke-linejoin: miter; stroke-miterlimit: 4; fill: rgb(186,164,149); fill-rule: nonzero; opacity: 1;" vector-effect="non-scaling-stroke"  transform=" translate(-193, -1107.75)" d="M 181.8 1126.8 C 181.4 1127.5 182.5 1128.1 182.9 1127.3999999999999 C 187.1 1119.1999999999998 191.4 1110.9999999999998 195.6 1102.8999999999999 C 197.7 1098.8 199.79999999999998 1094.6999999999998 201.9 1090.6999999999998 C 202.6 1090.9999999999998 203.5 1090.9999999999998 204 1090.3999999999999 C 204.8 1089.3999999999999 203.8 1088.3 202.9 1087.9999999999998 C 202.4 1087.7999999999997 201.8 1087.6999999999998 201.20000000000002 1087.8999999999999 C 200.70000000000002 1088.1999999999998 200.4 1088.6999999999998 200.60000000000002 1089.3 C 200.70000000000002 1089.5 200.8 1089.6 200.90000000000003 1089.7 L 200.90000000000003 1089.8 C 198.70000000000005 1094 196.60000000000002 1098.2 194.40000000000003 1102.3999999999999 C 190.2 1110.5 186 1118.6 181.8 1126.8 z M 203 1089.6 C 203 1089.6999999999998 202.7 1089.6 202.6 1089.6 L 202.5 1089.6 C 202.5 1089.5 202.5 1089.3999999999999 202.5 1089.3 L 202.6 1089.2 C 202.7 1089.3 203 1089.5 203 1089.6 z" stroke-linecap="round" />
</g>
<g transform="matrix(1 0 0 1 -153.3 695.03)" id="mmtFRnn00p-1huJxriVki"  >
<path style="stroke: none; stroke-width: 1; stroke-dasharray: none; stroke-linecap: butt; stroke-dashoffset: 0; stroke-linejoin: miter; stroke-miterlimit: 4; fill: rgb(186,164,149); fill-rule: nonzero; opacity: 1;" vector-effect="non-scaling-stroke"  transform=" translate(-145.45, -1095.35)" d="M 149.2 1111.3 C 149.6 1111.1 150 1111 150.39999999999998 1110.8 C 149.49999999999997 1106.3 148.59999999999997 1101.8 147.59999999999997 1097.3 C 146.59999999999997 1092.3 145.59999999999997 1087.3999999999999 144.49999999999997 1082.5 C 144.99999999999997 1081.9 145.29999999999998 1081.2 145.29999999999998 1080.6 C 145.2 1079.6999999999998 144.39999999999998 1079.5 143.6 1079.3999999999999 C 142.7 1079.3999999999999 141.79999999999998 1079.3999999999999 141.1 1079.8999999999999 C 140.5 1080.3999999999999 140.2 1081.3 140.9 1081.8999999999999 C 141.20000000000002 1082.1 141.5 1082.1999999999998 141.8 1082.3 C 141.9 1082.6 142 1082.8 142.3 1083 C 142.70000000000002 1083.3 143 1083.3 143.4 1083.2 C 144.4 1088 145.4 1092.9 146.4 1097.7 C 147.4 1102.2 148.3 1106.8 149.2 1111.3 z M 144.1 1081.1 C 144.2 1081.1 144.2 1081.1 144.29999999999998 1081 C 144.3 1081 144.3 1081.1 144.1 1081.1 C 144.2 1081.1 144.2 1081.1 144.1 1081.1 z" stroke-linecap="round" />
</g>
<g transform="matrix(1 0 0 1 -148.65 711.86)" id="1awOwi2kfl23l7l9Hp9tO"  >
<path style="stroke: none; stroke-width: 1; stroke-dasharray: none; stroke-linecap: butt; stroke-dashoffset: 0; stroke-linejoin: miter; stroke-miterlimit: 4; fill: rgb(186,164,149); fill-rule: nonzero; opacity: 1;" vector-effect="non-scaling-stroke"  transform=" translate(-150.1, -1112.17)" d="M 150.6 1111.9 C 150.29999999999998 1112 149.9 1112.1000000000001 149.6 1112.3000000000002 C 150 1112.6 150.6 1112.4 150.6 1111.9 z" stroke-linecap="round" />
</g>
<g transform="matrix(1 0 0 1 -176.22 730.43)" id="LUmePtan3HzoTIsumt7tW"  >
<path style="stroke: none; stroke-width: 1; stroke-dasharray: none; stroke-linecap: butt; stroke-dashoffset: 0; stroke-linejoin: miter; stroke-miterlimit: 4; fill: rgb(186,164,149); fill-rule: nonzero; opacity: 1;" vector-effect="non-scaling-stroke"  transform=" translate(-122.53, -1130.75)" d="M 137.3 1145.9 C 137.60000000000002 1145.6000000000001 138 1145.4 138.3 1145.2 C 138.3 1145.2 138.3 1145.1000000000001 138.20000000000002 1145.1000000000001 C 131.3 1137.7 124.10000000000002 1130.6000000000001 116.60000000000002 1123.7 C 114.30000000000003 1121.6000000000001 112.00000000000003 1119.5 109.60000000000002 1117.4 C 109.70000000000002 1116.9 109.60000000000002 1116.4 109.40000000000002 1115.9 C 109.20000000000002 1115.6000000000001 108.90000000000002 1115.5 108.60000000000002 1115.7 C 108.30000000000003 1115.7 108.00000000000003 1115.7 107.70000000000002 1115.9 C 107.30000000000001 1116.2 107.20000000000002 1116.6000000000001 107.20000000000002 1117 C 106.40000000000002 1117.5 106.80000000000001 1118.8 107.70000000000002 1118.9 C 108.00000000000001 1119 108.20000000000002 1118.9 108.40000000000002 1118.8000000000002 C 108.60000000000002 1118.8000000000002 108.70000000000002 1118.7000000000003 108.90000000000002 1118.6000000000001 C 108.90000000000002 1118.6000000000001 108.90000000000002 1118.6000000000001 109.00000000000001 1118.5000000000002 C 111.40000000000002 1120.6000000000001 113.70000000000002 1122.7000000000003 116.00000000000001 1124.8000000000002 C 123.4 1131.6 130.5 1138.7 137.3 1145.9 z" stroke-linecap="round" />
</g>
<g transform="matrix(1 0 0 1 -85.55 729.58)" id="uOXeQHxPvegC06wDd3MyQ"  >
<path style="stroke: none; stroke-width: 1; stroke-dasharray: none; stroke-linecap: butt; stroke-dashoffset: 0; stroke-linejoin: miter; stroke-miterlimit: 4; fill: rgb(186,164,149); fill-rule: nonzero; opacity: 1;" vector-effect="non-scaling-stroke"  transform=" translate(-213.2, -1129.89)" d="M 197.4 1139.8 C 197.70000000000002 1140.1 198 1140.3999999999999 198.3 1140.7 C 204.5 1135.9 211 1131.3 217.70000000000002 1127 C 220.70000000000002 1125.1 223.70000000000002 1123.3 226.70000000000002 1121.5 C 227.20000000000002 1121.9 227.70000000000002 1122.1 228.4 1122.2 C 228.70000000000002 1122.2 229 1121.9 229 1121.6000000000001 C 228.9 1120.4 228.1 1119.3000000000002 226.9 1119.1000000000001 C 226.4 1119.0000000000002 226.1 1119.5000000000002 226.20000000000002 1119.9 C 226.00000000000003 1120.1000000000001 226.00000000000003 1120.3000000000002 226.00000000000003 1120.5 C 223.00000000000003 1122.2 220.10000000000002 1124 217.20000000000002 1125.9 C 210.5 1130.2 203.9 1134.9 197.4 1139.8 z" stroke-linecap="round" />
</g>
<g transform="matrix(1 0 0 1 -99.53 722.98)" id="JJ2Dm3KIpK0qKBoxmy5Gv"  >
<path style="stroke: none; stroke-width: 1; stroke-dasharray: none; stroke-linecap: butt; stroke-dashoffset: 0; stroke-linejoin: miter; stroke-miterlimit: 4; fill: rgb(186,164,149); fill-rule: nonzero; opacity: 1;" vector-effect="non-scaling-stroke"  transform=" translate(-199.22, -1123.3)" d="M 181.9 1142.1 C 182.4 1142.1999999999998 182.8 1142.1999999999998 183.3 1142.3999999999999 C 191.4 1132.1999999999998 200 1122.3 209 1112.8999999999999 C 210.7 1111.1 212.5 1109.3 214.3 1107.4999999999998 C 214.5 1107.6999999999998 214.60000000000002 1107.8999999999999 214.8 1108.0999999999997 C 215.5 1108.5999999999997 216.4 1108.2999999999997 216.5 1107.3999999999996 C 216.8 1105.6999999999996 215 1104.3999999999996 213.6 1104.1999999999996 C 213.29999999999998 1104.1999999999996 213 1104.4999999999995 213 1104.7999999999995 C 213 1104.9999999999995 213.1 1105.1999999999996 213.1 1105.3999999999994 C 213 1105.5999999999995 213.1 1105.6999999999994 213.2 1105.8999999999994 C 213.29999999999998 1106.0999999999995 213.39999999999998 1106.2999999999995 213.5 1106.4999999999993 C 211.7 1108.2999999999993 209.9 1110.1999999999994 208.1 1111.9999999999993 C 198.9 1121.7 190.2 1131.7 181.9 1142.1 z M 215.2 1106.6 C 215.1 1106.5 215 1106.3999999999999 215 1106.3999999999999 C 214.8 1106.1999999999998 214.7 1105.9999999999998 214.6 1105.8 C 214.9 1106 215.1 1106.3 215.2 1106.6 z" stroke-linecap="round" />
</g>
<g transform="matrix(1 0 0 1 -116.95 743.32)" id="fly-vgb9sZbOAHojGOxb7"  >
<path style="stroke: none; stroke-width: 1; stroke-dasharray: none; stroke-linecap: butt; stroke-dashoffset: 0; stroke-linejoin: miter; stroke-miterlimit: 4; fill: rgb(186,164,149); fill-rule: nonzero; opacity: 1;" vector-effect="non-scaling-stroke"  transform=" translate(-181.8, -1143.63)" d="M 181.2 1143.3 C 181.2 1143.8 181.89999999999998 1144.2 182.2 1143.8 C 182.29999999999998 1143.7 182.39999999999998 1143.6 182.39999999999998 1143.5 C 182 1143.4 181.6 1143.4 181.2 1143.3 z" stroke-linecap="round" />
</g>
<g transform="matrix(1 0 0 1 -86.75 752.3)" id="jfsF9oOcc9Czj25wr4S9_"  >
<path style="stroke: none; stroke-width: 1; stroke-dasharray: none; stroke-linecap: butt; stroke-dashoffset: 0; stroke-linejoin: miter; stroke-miterlimit: 4; fill: rgb(186,164,149); fill-rule: nonzero; opacity: 1;" vector-effect="non-scaling-stroke"  transform=" translate(-212, -1152.62)" d="M 192.2 1157.5 L 192.2 1157.5 C 192.5 1157.8 192.89999999999998 1158.2 193.2 1158.5 C 203.29999999999998 1156 213.39999999999998 1153.4 223.5 1150.9 C 225.6 1150.4 227.7 1149.8000000000002 229.8 1149.3000000000002 C 229.9 1149.5000000000002 230.10000000000002 1149.7000000000003 230.20000000000002 1149.9 C 230.4 1150.1000000000001 230.70000000000002 1150.2 231.00000000000003 1150 C 231.90000000000003 1149.4 232.10000000000002 1148 231.30000000000004 1147.2 C 231.20000000000005 1146.9 230.80000000000004 1146.6000000000001 230.40000000000003 1146.8 C 230.10000000000002 1146.8 229.70000000000005 1146.8999999999999 229.40000000000003 1147.1 C 229.10000000000002 1147.3999999999999 229.00000000000003 1147.8 229.20000000000005 1148.1999999999998 C 227.30000000000004 1148.6999999999998 225.30000000000004 1149.1999999999998 223.40000000000003 1149.6999999999998 C 213 1152.3 202.6 1154.9 192.2 1157.5 z" stroke-linecap="round" />
</g>
<g transform="matrix(1 0 0 1 -179.81 744.93)" id="y-Dq1lkMStpaS_zIiB30I"  >
<path style="stroke: none; stroke-width: 1; stroke-dasharray: none; stroke-linecap: butt; stroke-dashoffset: 0; stroke-linejoin: miter; stroke-miterlimit: 4; fill: rgb(186,164,149); fill-rule: nonzero; opacity: 1;" vector-effect="non-scaling-stroke"  transform=" translate(-118.94, -1145.25)" d="M 119.6 1147 C 125.1 1150.1 130.7 1153.1 136.2 1156 C 136.39999999999998 1155.7 136.7 1155.3 137 1155 C 131.3 1152 125.6 1148.9 120 1145.8 C 119.8 1145.7 119.6 1145.6 119.4 1145.5 C 116.4 1143.8 113.4 1142.1 110.4 1140.4 C 108.30000000000001 1139.2 106.2 1138 104.2 1136.8000000000002 C 104.8 1135.8000000000002 103.8 1134.5000000000002 102.60000000000001 1134.5000000000002 C 101.10000000000001 1134.6000000000001 100.30000000000001 1136.4000000000003 101.4 1137.5000000000002 C 102 1138.1000000000001 102.80000000000001 1138.0000000000002 103.30000000000001 1137.7000000000003 C 105.60000000000001 1139.0000000000002 107.9 1140.3000000000002 110.20000000000002 1141.6000000000004 C 113.20000000000002 1143.3000000000004 116.20000000000002 1145.0000000000005 119.30000000000001 1146.7000000000003 C 119.3 1146.8 119.5 1146.9 119.6 1147 z" stroke-linecap="round" />
</g>
<g transform="matrix(1 0 0 1 -166.55 721.38)" id="D9ns1HUpHaOVTiBsLZcQc"  >
<path style="stroke: none; stroke-width: 1; stroke-dasharray: none; stroke-linecap: butt; stroke-dashoffset: 0; stroke-linejoin: miter; stroke-miterlimit: 4; fill: rgb(186,164,149); fill-rule: nonzero; opacity: 1;" vector-effect="non-scaling-stroke"  transform=" translate(-132.2, -1121.7)" d="M 132 1121.9 C 132.2 1121.8000000000002 132.4 1121.7 132.4 1121.5 C 132.3 1121.5 132.3 1121.6 132.20000000000002 1121.6 C 132.2 1121.7 132.1 1121.8 132 1121.9 z" stroke-linecap="round" />
</g>
<g transform="matrix(1 0 0 1 -177 707.33)" id="7IqFsbF7EiYPvMfbiMDLa"  >
<path style="stroke: none; stroke-width: 1; stroke-dasharray: none; stroke-linecap: butt; stroke-dashoffset: 0; stroke-linejoin: miter; stroke-miterlimit: 4; fill: rgb(186,164,149); fill-rule: nonzero; opacity: 1;" vector-effect="non-scaling-stroke"  transform=" translate(-121.75, -1107.65)" d="M 131 1121.1 C 131.3 1120.8999999999999 131.5 1120.6 131.8 1120.3999999999999 C 131.9 1120.3999999999999 131.9 1120.3 132 1120.3 C 131.8 1120 131.7 1119.8 131.5 1119.5 L 131.5 1119.5 C 129.7 1116.5 127.8 1113.6 125.9 1110.8 C 122.5 1105.8999999999999 118.7 1101.1 114.80000000000001 1096.6 C 115.00000000000001 1096.1 115.00000000000001 1095.3999999999999 114.70000000000002 1094.8999999999999 C 114.00000000000001 1093.8999999999999 112.40000000000002 1093.9999999999998 111.80000000000001 1094.9999999999998 C 111.50000000000001 1095.4999999999998 111.4 1096.0999999999997 111.60000000000001 1096.5999999999997 C 111.9 1097.0999999999997 112.30000000000001 1097.2999999999997 112.9 1097.0999999999997 C 113.10000000000001 1097.2999999999997 113.30000000000001 1097.4999999999998 113.60000000000001 1097.4999999999998 C 113.7 1097.4999999999998 113.80000000000001 1097.4999999999998 113.9 1097.3999999999999 C 117.9 1101.9999999999998 121.7 1106.6999999999998 125.10000000000001 1111.6999999999998 C 127.1 1114.8 129.1 1117.9 131 1121.1 z" stroke-linecap="round" />
</g>
<g transform="matrix(1 0 0 1 -116.43 699.26)" id="g_q1niXWIlRdx7qjqJ50I"  >
<path style="stroke: none; stroke-width: 1; stroke-dasharray: none; stroke-linecap: butt; stroke-dashoffset: 0; stroke-linejoin: miter; stroke-miterlimit: 4; fill: rgb(186,164,149); fill-rule: nonzero; opacity: 1;" vector-effect="non-scaling-stroke"  transform=" translate(-182.32, -1099.58)" d="M 175.8 1113.8 C 175.8 1113.8999999999999 175.8 1113.8999999999999 175.8 1114 C 176.20000000000002 1114.1 176.5 1114.2 176.9 1114.3 C 176.9 1114.2 177 1114.2 177 1114.1 C 178.1 1108.6999999999998 179.6 1103.3999999999999 181.7 1098.3999999999999 C 183.1 1094.8999999999999 184.79999999999998 1091.4999999999998 186.7 1088.3 C 187.6 1088.5 188.5 1088 188.79999999999998 1087.1 C 189.1 1085.8999999999999 187.99999999999997 1084.6 186.7 1084.8999999999999 C 186.1 1085.1 185.79999999999998 1085.4999999999998 185.79999999999998 1085.9999999999998 C 185.6 1086.4999999999998 185.49999999999997 1086.9999999999998 185.79999999999998 1087.4999999999998 C 183.79999999999998 1090.8999999999999 182.1 1094.3999999999999 180.7 1097.9999999999998 C 178.5 1103.1 176.9 1108.4 175.8 1113.8 z M 187.5 1086.4 C 187.5 1086.4 187.5 1086.3000000000002 187.4 1086.3000000000002 L 187.4 1086.3000000000002 L 187.5 1086.4 z" stroke-linecap="round" />
</g>
<g transform="matrix(1 0 0 1 -139.89 692.92)" id="e8HxfXY6JroBCR7T4WLtF"  >
<path style="stroke: none; stroke-width: 1; stroke-dasharray: none; stroke-linecap: butt; stroke-dashoffset: 0; stroke-linejoin: miter; stroke-miterlimit: 4; fill: rgb(186,164,149); fill-rule: nonzero; opacity: 1;" vector-effect="non-scaling-stroke"  transform=" translate(-158.86, -1093.23)" d="M 157.2 1110.8 C 157.2 1111.6 158.39999999999998 1111.6 158.39999999999998 1110.8 C 158.59999999999997 1105.6 158.79999999999998 1100.5 158.99999999999997 1095.3 C 159.19999999999996 1089.6 159.39999999999998 1084 159.59999999999997 1078.3 C 159.79999999999995 1078.2 159.99999999999997 1078.2 160.19999999999996 1078.1 C 160.79999999999995 1077.8 161.19999999999996 1077.1 160.99999999999997 1076.3999999999999 C 160.79999999999998 1075.6999999999998 160.09999999999997 1075.3999999999999 159.49999999999997 1075.1999999999998 C 158.89999999999998 1074.9999999999998 157.99999999999997 1074.9999999999998 157.39999999999998 1075.2999999999997 C 156.7 1075.6999999999998 156.49999999999997 1076.5999999999997 156.79999999999998 1077.2999999999997 C 157.1 1077.9999999999998 157.7 1078.3999999999996 158.39999999999998 1078.4999999999998 C 158.2 1084.0999999999997 157.99999999999997 1089.7999999999997 157.79999999999998 1095.3999999999999 C 157.6 1100.5 157.4 1105.6 157.2 1110.8 z M 158.9 1077.1 C 158.8 1077.1 158.8 1077.1 158.9 1077.1 C 158.70000000000002 1077.1 158.6 1077.1 158.6 1077.1 C 158.6 1077 158.7 1077 158.7 1076.8999999999999 C 158.7 1076.7999999999997 158.89999999999998 1076.8 159 1076.8999999999999 C 158.9 1076.9 158.9 1077 158.9 1077.1 z" stroke-linecap="round" />
</g>
<g transform="matrix(1 0 0 1 -77.02 739.68)" id="rQZEJ-TKSctpdWZx14EoN"  >
<path style="stroke: none; stroke-width: 1; stroke-dasharray: none; stroke-linecap: butt; stroke-dashoffset: 0; stroke-linejoin: miter; stroke-miterlimit: 4; fill: rgb(186,164,149); fill-rule: nonzero; opacity: 1;" vector-effect="non-scaling-stroke"  transform=" translate(-221.73, -1140)" d="M 202.9 1147.3 C 203.1 1147.6 203.3 1148 203.5 1148.3999999999999 C 209.6 1145.8999999999999 215.8 1143.4999999999998 221.9 1140.9999999999998 C 227.5 1138.6999999999998 233.20000000000002 1136.4999999999998 238.8 1134.1999999999998 C 239.10000000000002 1134.4999999999998 239.5 1134.6999999999998 239.9 1134.7999999999997 C 240.20000000000002 1134.7999999999997 240.4 1134.5999999999997 240.5 1134.2999999999997 C 240.8 1132.9999999999998 239.9 1131.7999999999997 238.6 1131.5999999999997 C 238.4 1131.5999999999997 238.2 1131.6999999999996 238.1 1131.8999999999996 C 237.9 1132.2999999999997 237.79999999999998 1132.7999999999997 237.9 1133.1999999999996 C 232.5 1135.3999999999996 227 1137.5999999999997 221.6 1139.7999999999995 C 215.3 1142.3 209.1 1144.8 202.9 1147.3 z" stroke-linecap="round" />
</g>
<g transform="matrix(1 0 0 1 -196.15 757.25)" id="Lsy1N2qOuI70hgN7Sc9Kj"  >
<path style="stroke: none; stroke-width: 1; stroke-dasharray: none; stroke-linecap: butt; stroke-dashoffset: 0; stroke-linejoin: miter; stroke-miterlimit: 4; fill: rgb(186,164,149); fill-rule: nonzero; opacity: 1;" vector-effect="non-scaling-stroke"  transform=" translate(-102.6, -1157.57)" d="M 113.9 1161.8 C 114.7 1162 115 1160.8 114.2 1160.6 C 111.9 1159.8999999999999 109.7 1159.3 107.4 1158.6999999999998 C 102.9 1157.3999999999999 98.4 1156.1999999999998 93.9 1154.8999999999999 C 93.9 1154.6 93.80000000000001 1154.3 93.60000000000001 1154.1 C 93.10000000000001 1153.3 91.80000000000001 1153 91.10000000000001 1153.6999999999998 C 90.30000000000001 1154.3999999999999 90.30000000000001 1155.6999999999998 91.30000000000001 1156.1999999999998 C 91.50000000000001 1156.2999999999997 91.70000000000002 1156.2999999999997 92.00000000000001 1156.2999999999997 L 92.00000000000001 1156.3999999999996 C 92.20000000000002 1156.6999999999996 92.60000000000001 1156.7999999999997 92.90000000000002 1156.5999999999997 C 93.10000000000002 1156.4999999999998 93.30000000000003 1156.2999999999997 93.50000000000001 1156.0999999999997 C 98.10000000000001 1157.3999999999996 102.70000000000002 1158.6999999999996 107.30000000000001 1159.9999999999998 C 109.5 1160.5 111.7 1161.2 113.9 1161.8 z" stroke-linecap="round" />
</g>
<g transform="matrix(1 0 0 1 -65.68 761.36)" id="lXAIVQTxSiaZqdTBXlX1U"  >
<path style="stroke: none; stroke-width: 1; stroke-dasharray: none; stroke-linecap: butt; stroke-dashoffset: 0; stroke-linejoin: miter; stroke-miterlimit: 4; fill: rgb(186,164,149); fill-rule: nonzero; opacity: 1;" vector-effect="non-scaling-stroke"  transform=" translate(-233.07, -1161.68)" d="M 257.6 1160.7 C 257.40000000000003 1160.4 257 1160.1000000000001 256.5 1160 C 256.4 1159.8 256.3 1159.5 256.2 1159.3 C 256 1159 255.7 1159 255.5 1159 C 255.2 1158.7 254.5 1159 254.6 1159.7 L 254.6 1159.8 C 244.2 1160.2 233.9 1160.8 223.5 1161.5 C 218.2 1161.9 213 1162.3 207.7 1162.8 L 207.7 1162.8 C 208.1 1163.1 208.5 1163.5 208.89999999999998 1163.8999999999999 C 213.7 1163.4999999999998 218.49999999999997 1163.1 223.39999999999998 1162.8 C 233.89999999999998 1162 244.39999999999998 1161.3999999999999 254.79999999999998 1161 L 254.79999999999998 1161 C 255.2 1162.3 255.99999999999997 1163.4 257.09999999999997 1164.3 C 257.4 1164.5 257.9 1164.6 258.09999999999997 1164.2 C 258.8 1163 258.3 1161.8 257.6 1160.7 z M 256.9 1162.6 C 256.59999999999997 1162.3 256.4 1162 256.2 1161.6 C 256.3 1161.6 256.3 1161.5 256.4 1161.5 C 256.4 1161.5 256.4 1161.6 256.5 1161.6 C 256.6 1161.8 256.7 1162 256.8 1162.1999999999998 C 256.9 1162.3 256.9 1162.4 256.9 1162.6 z" stroke-linecap="round" />
</g>
<g transform="matrix(1 0 0 1 -159.21 755.03)" id="aPcnNbW-MNs4NnKlEi67k"  >
<path style="stroke: none; stroke-width: 1; stroke-dasharray: none; stroke-linecap: butt; stroke-dashoffset: 0; stroke-linejoin: miter; stroke-miterlimit: 4; fill: rgb(158,71,40); fill-rule: nonzero; opacity: 1;" vector-effect="non-scaling-stroke"  transform=" translate(-139.54, -1155.34)" d="M 134.9 1159.1 C 134.70000000000002 1159.8999999999999 135.9 1160.3 136 1159.5 C 136.7 1155.5 140.5 1153.5 143.9 1151.9 C 144.6 1151.6000000000001 144 1150.5 143.3 1150.8000000000002 C 141 1151.9 138.70000000000002 1153.2000000000003 137 1155.0000000000002 C 136.7 1155.3000000000002 136.5 1155.6000000000001 136.2 1156.0000000000002 C 135.6 1156.9 135.1 1157.9 134.9 1159.1 z" stroke-linecap="round" />
</g>
<g transform="matrix(1 0 0 1 -181.15 760.56)" id="IVMujzzS7Ncx5Q1uclwDn"  >
<path style="stroke: none; stroke-width: 1; stroke-dasharray: none; stroke-linecap: butt; stroke-dashoffset: 0; stroke-linejoin: miter; stroke-miterlimit: 4; fill: rgb(158,71,40); fill-rule: nonzero; opacity: 1;" vector-effect="non-scaling-stroke"  transform=" translate(-117.6, -1160.87)" d="M 119.2 1157.4 C 117 1159 114.8 1161 115.2 1164 C 115.3 1164.8 116.5 1164.5 116.4 1163.7 C 116 1161.3 118.10000000000001 1159.7 119.80000000000001 1158.5 C 120.4 1158 119.8 1156.9 119.2 1157.4 z" stroke-linecap="round" />
</g>
<g transform="matrix(1 0 0 1 -160.44 746.14)" id="CbVQjzLtnI6y7Z-z03ByX"  >
<path style="stroke: none; stroke-width: 1; stroke-dasharray: none; stroke-linecap: butt; stroke-dashoffset: 0; stroke-linejoin: miter; stroke-miterlimit: 4; fill: rgb(158,71,40); fill-rule: nonzero; opacity: 1;" vector-effect="non-scaling-stroke"  transform=" translate(-138.31, -1146.45)" d="M 135.6 1147.9 C 135.1 1148.5 136.2 1149.1000000000001 136.6 1148.5 C 137.6 1147 139 1145.9 140.7 1145.4 C 141.5 1145.1000000000001 141.1 1143.9 140.39999999999998 1144.2 C 139.69999999999996 1144.5 138.99999999999997 1144.8 138.39999999999998 1145.2 C 137.99999999999997 1145.4 137.7 1145.7 137.39999999999998 1145.9 C 136.7 1146.5 136.1 1147.1 135.6 1147.9 z" stroke-linecap="round" />
</g>
<g transform="matrix(1 0 0 1 -165.88 721.48)" id="JeTBiiTc9vmGn7Ab9ECvh"  >
<path style="stroke: none; stroke-width: 1; stroke-dasharray: none; stroke-linecap: butt; stroke-dashoffset: 0; stroke-linejoin: miter; stroke-miterlimit: 4; fill: rgb(158,71,40); fill-rule: nonzero; opacity: 1;" vector-effect="non-scaling-stroke"  transform=" translate(-132.87, -1121.8)" d="M 131 1121.1 C 130.1 1121.8999999999999 129.3 1122.8999999999999 128.9 1124.1999999999998 C 128.70000000000002 1124.9999999999998 129.9 1125.2999999999997 130.20000000000002 1124.4999999999998 C 130.60000000000002 1123.3999999999999 131.20000000000002 1122.5999999999997 132.00000000000003 1121.8999999999999 C 132.10000000000002 1121.8 132.20000000000002 1121.6999999999998 132.30000000000004 1121.6 C 132.30000000000004 1121.6 132.40000000000003 1121.5 132.50000000000003 1121.5 C 133.50000000000003 1120.7 134.80000000000004 1119.6 136.10000000000002 1120 C 136.90000000000003 1120.3 137.20000000000002 1119.1 136.40000000000003 1118.8 C 134.80000000000004 1118.2 133.20000000000005 1119.3 132.00000000000003 1120.3 C 131.90000000000003 1120.3 131.90000000000003 1120.3999999999999 131.80000000000004 1120.3999999999999 C 131.5 1120.6 131.2 1120.8 131 1121.1 z" stroke-linecap="round" />
</g>
<g transform="matrix(1 0 0 1 -154.11 728.34)" id="AW-JZF24-z7rEtEdTjC1t"  >
<path style="stroke: none; stroke-width: 1; stroke-dasharray: none; stroke-linecap: butt; stroke-dashoffset: 0; stroke-linejoin: miter; stroke-miterlimit: 4; fill: rgb(158,71,40); fill-rule: nonzero; opacity: 1;" vector-effect="non-scaling-stroke"  transform=" translate(-144.64, -1128.65)" d="M 139.7 1129.5 C 139 1130 139.6 1131.1 140.29999999999998 1130.6 C 141.6 1129.6 143.39999999999998 1128.3 145.1 1127.8999999999999 C 145.4 1127.8 145.6 1127.8 145.9 1127.8 C 146.9 1127.7 147.9 1128 148.8 1128.8 C 149.4 1129.3 150.3 1128.3999999999999 149.70000000000002 1127.8999999999999 C 148.50000000000003 1126.8 147.10000000000002 1126.4999999999998 145.70000000000002 1126.6 C 145.3 1126.6 144.8 1126.6999999999998 144.4 1126.8999999999999 C 142.8 1127.4 141.1 1128.4 139.7 1129.5 z" stroke-linecap="round" />
</g>
<g transform="matrix(1 0 0 1 -145.23 712.63)" id="xn4C20MvkFKgsfq-YNT5r"  >
<path style="stroke: none; stroke-width: 1; stroke-dasharray: none; stroke-linecap: butt; stroke-dashoffset: 0; stroke-linejoin: miter; stroke-miterlimit: 4; fill: rgb(158,71,40); fill-rule: nonzero; opacity: 1;" vector-effect="non-scaling-stroke"  transform=" translate(-153.52, -1112.95)" d="M 146.8 1113 C 146.10000000000002 1113.4 147 1114.3 147.60000000000002 1113.8 C 148.20000000000002 1113.2 148.90000000000003 1112.7 149.60000000000002 1112.3999999999999 C 149.90000000000003 1112.1999999999998 150.20000000000002 1112.1 150.60000000000002 1111.9999999999998 C 153.70000000000002 1110.9999999999998 157.20000000000002 1111.9999999999998 159.3 1115.0999999999997 C 159.8 1115.7999999999997 160.8 1115.0999999999997 160.4 1114.4999999999998 C 158 1110.9999999999998 154 1109.7999999999997 150.4 1110.8999999999999 C 150 1110.9999999999998 149.6 1111.1999999999998 149.20000000000002 1111.3999999999999 C 148.4 1111.7 147.6 1112.3 146.8 1113 z" stroke-linecap="round" />
</g>
<g transform="matrix(1 0 0 1 -115.79 743.4)" id="fvedSejUbY9PC1g2P-Xts"  >
<path style="stroke: none; stroke-width: 1; stroke-dasharray: none; stroke-linecap: butt; stroke-dashoffset: 0; stroke-linejoin: miter; stroke-miterlimit: 4; fill: rgb(158,71,40); fill-rule: nonzero; opacity: 1;" vector-effect="non-scaling-stroke"  transform=" translate(-182.96, -1143.72)" d="M 181.9 1142.1 C 181 1142 180.20000000000002 1142 179.3 1142.1999999999998 C 178.5 1142.4999999999998 178.8 1143.6999999999998 179.60000000000002 1143.4999999999998 C 180.10000000000002 1143.3999999999999 180.60000000000002 1143.2999999999997 181.20000000000002 1143.2999999999997 C 181.60000000000002 1143.2999999999997 182.10000000000002 1143.3999999999996 182.50000000000003 1143.3999999999996 C 183.80000000000004 1143.6999999999996 185.00000000000003 1144.2999999999997 186.00000000000003 1145.1999999999996 C 186.60000000000002 1145.7999999999995 187.50000000000003 1144.8999999999996 186.90000000000003 1144.2999999999995 C 185.90000000000003 1143.3999999999994 184.70000000000005 1142.6999999999996 183.40000000000003 1142.2999999999995 C 182.9 1142.3 182.4 1142.2 181.9 1142.1 z" stroke-linecap="round" />
</g>
<g transform="matrix(1 0 0 1 -101.62 740.65)" id="kV5-T-mkJggrUd0oBxrAh"  >
<path style="stroke: none; stroke-width: 1; stroke-dasharray: none; stroke-linecap: butt; stroke-dashoffset: 0; stroke-linejoin: miter; stroke-miterlimit: 4; fill: rgb(158,71,40); fill-rule: nonzero; opacity: 1;" vector-effect="non-scaling-stroke"  transform=" translate(-197.13, -1140.97)" d="M 197.4 1139.8 C 196.9 1139.3999999999999 196.3 1139.1 195.70000000000002 1138.8999999999999 C 194.9 1138.4999999999998 194.60000000000002 1139.6999999999998 195.3 1139.9999999999998 C 196.60000000000002 1140.4999999999998 197.60000000000002 1141.4999999999998 198.20000000000002 1142.7999999999997 C 198.50000000000003 1143.4999999999998 199.60000000000002 1142.8999999999996 199.3 1142.1999999999998 C 199.10000000000002 1141.6 198.70000000000002 1141.1 198.4 1140.6999999999998 C 198.1 1140.4 197.8 1140.1 197.4 1139.8 z" stroke-linecap="round" />
</g>
<g transform="matrix(1 0 0 1 -96.21 747.94)" id="ISrkOrOL2oAwNbMxvLYaQ"  >
<path style="stroke: none; stroke-width: 1; stroke-dasharray: none; stroke-linecap: butt; stroke-dashoffset: 0; stroke-linejoin: miter; stroke-miterlimit: 4; fill: rgb(158,71,40); fill-rule: nonzero; opacity: 1;" vector-effect="non-scaling-stroke"  transform=" translate(-202.54, -1148.26)" d="M 202.9 1147.3 C 202.8 1147.1 202.6 1146.8999999999999 202.4 1146.8 C 201.9 1146.1 201 1147 201.5 1147.6 C 202 1148.1 202.3 1148.8 202.5 1149.5 C 202.7 1150.3 203.9 1150 203.7 1149.2 C 203.6 1148.9 203.6 1148.7 203.39999999999998 1148.4 C 203.3 1148 203.1 1147.7 202.9 1147.3 z" stroke-linecap="round" />
</g>
<g transform="matrix(1 0 0 1 -106.45 758.5)" id="yDSLFRFw0FH6CSqrrM0b6"  >
<path style="stroke: none; stroke-width: 1; stroke-dasharray: none; stroke-linecap: butt; stroke-dashoffset: 0; stroke-linejoin: miter; stroke-miterlimit: 4; fill: rgb(158,71,40); fill-rule: nonzero; opacity: 1;" vector-effect="non-scaling-stroke"  transform=" translate(-192.3, -1158.82)" d="M 192.2 1157.5 C 191.79999999999998 1157.1 191.39999999999998 1156.8 190.89999999999998 1156.5 C 190.29999999999998 1155.9 189.59999999999997 1157 190.29999999999998 1157.5 C 191.6 1158.4 192.6 1159.6 193.39999999999998 1161 C 193.79999999999998 1161.7 194.89999999999998 1161.1 194.49999999999997 1160.4 C 194.09999999999997 1159.7000000000003 193.69999999999996 1159.1000000000001 193.19999999999996 1158.5 C 192.9 1158.2 192.5 1157.8 192.2 1157.5 z" stroke-linecap="round" />
</g>
<g transform="matrix(1 0 0 1 -90.97 764.34)" id="4BdJjUwOmPeKgX3ZdLONi"  >
<path style="stroke: none; stroke-width: 1; stroke-dasharray: none; stroke-linecap: butt; stroke-dashoffset: 0; stroke-linejoin: miter; stroke-miterlimit: 4; fill: rgb(158,71,40); fill-rule: nonzero; opacity: 1;" vector-effect="non-scaling-stroke"  transform=" translate(-207.78, -1164.66)" d="M 204.6 1160.5 C 204 1160 203.29999999999998 1161.1 204 1161.6 C 206.7 1163.3999999999999 209.6 1165.3 210.6 1168.5 C 210.9 1169.3 212.1 1168.9 211.79999999999998 1168.2 C 211.2 1166.5 210.2 1165.1000000000001 208.99999999999997 1163.9 C 208.59999999999997 1163.5 208.19999999999996 1163.2 207.79999999999998 1162.8000000000002 C 206.8 1162 205.7 1161.2 204.6 1160.5 z" stroke-linecap="round" />
</g>
<g transform="matrix(1 0 0 1 -132.4 727.21)" id="KLb4-ne089KvvzAiXNcfI"  >
<path style="stroke: none; stroke-width: 1; stroke-dasharray: none; stroke-linecap: butt; stroke-dashoffset: 0; stroke-linejoin: miter; stroke-miterlimit: 4; fill: rgb(158,71,40); fill-rule: nonzero; opacity: 1;" vector-effect="non-scaling-stroke"  transform=" translate(-166.35, -1127.52)" d="M 165.8 1126.6 C 164.9 1126.6999999999998 164 1126.8 163.10000000000002 1127.1999999999998 C 162.40000000000003 1127.3999999999999 162.8 1128.6999999999998 163.50000000000003 1128.3999999999999 C 165.40000000000003 1127.6999999999998 167.30000000000004 1127.6999999999998 169.20000000000002 1128.3 C 170.00000000000003 1128.6 170.3 1127.3999999999999 169.50000000000003 1127.1 C 168.50000000000003 1126.8 167.50000000000003 1126.6 166.40000000000003 1126.6 C 166.2 1126.6 166 1126.6 165.8 1126.6 z" stroke-linecap="round" />
</g>
<g transform="matrix(1 0 0 1 -122.77 714.68)" id="ZG9vpOTL8lwKISO_riv5d"  >
<path style="stroke: none; stroke-width: 1; stroke-dasharray: none; stroke-linecap: butt; stroke-dashoffset: 0; stroke-linejoin: miter; stroke-miterlimit: 4; fill: rgb(158,71,40); fill-rule: nonzero; opacity: 1;" vector-effect="non-scaling-stroke"  transform=" translate(-175.98, -1114.99)" d="M 172.9 1113.5 C 172.1 1113.5 172.1 1114.7 172.9 1114.8 C 174.9 1115 176.9 1115.5 178.70000000000002 1116.3999999999999 C 179.4 1116.8 180.10000000000002 1115.6999999999998 179.3 1115.3 C 178.5 1114.8999999999999 177.70000000000002 1114.6 176.9 1114.3 C 176.5 1114.2 176.20000000000002 1114.1 175.8 1114 C 174.8 1113.8 173.9 1113.6 172.9 1113.5 z" stroke-linecap="round" />
</g>
<g transform="matrix(1 0 0 1 -118.09 727.65)" id="-xwFSh19Lujn0jnkpD-p8"  >
<path style="stroke: none; stroke-width: 1; stroke-dasharray: none; stroke-linecap: butt; stroke-dashoffset: 0; stroke-linejoin: miter; stroke-miterlimit: 4; fill: rgb(158,71,40); fill-rule: nonzero; opacity: 1;" vector-effect="non-scaling-stroke"  transform=" translate(-180.66, -1127.96)" d="M 178.1 1126.6 C 179.7 1127.5 181.2 1128.6999999999998 182.29999999999998 1130.1999999999998 C 182.79999999999998 1130.7999999999997 183.89999999999998 1130.1999999999998 183.39999999999998 1129.6 C 182.09999999999997 1127.8999999999999 180.59999999999997 1126.6 178.79999999999998 1125.6 C 178 1125.1 177.4 1126.2 178.1 1126.6 z" stroke-linecap="round" />
</g>
</svg>