<?xml version="1.0" encoding="UTF-8" standalone="no" ?>
<!DOCTYPE svg PUBLIC "-//W3C//DTD SVG 1.1//EN" "http://www.w3.org/Graphics/SVG/1.1/DTD/svg11.dtd">
<svg xmlns="http://www.w3.org/2000/svg" xmlns:xlink="http://www.w3.org/1999/xlink" version="1.1" width="346.3245639200991" height="145.49334346394878" viewBox="-124.45146059984008 -323.5154932124296 346.3245639200991 145.49334346394878" xml:space="preserve">
<desc>Created with Fabric.js 4.6.0</desc>
<defs>
</defs>
<g transform="matrix(1 0 0 1 193.95 -208.02)" id="8xKp-QoEPoJy38apDTShy"  >
<path style="stroke: none; stroke-width: 1; stroke-dasharray: none; stroke-linecap: butt; stroke-dashoffset: 0; stroke-linejoin: miter; stroke-miterlimit: 4; fill: none; fill-rule: nonzero; opacity: 1;" vector-effect="non-scaling-stroke"  transform=" translate(-492.7, -192.3)" d="M 495 189.1 C 493.6 191.4 492.1 193.5 490.4 195.5 C 490.79999999999995 195.2 491.2 195 491.59999999999997 194.7 C 493 192.9 494.1 191 495 189.1 z" stroke-linecap="round" />
</g>
<g transform="matrix(1 0 0 1 158.25 -228.92)" id="Eqiqpaxayi1ec1qWy-CcQ"  >
<path style="stroke: none; stroke-width: 1; stroke-dasharray: none; stroke-linecap: butt; stroke-dashoffset: 0; stroke-linejoin: miter; stroke-miterlimit: 4; fill: none; fill-rule: nonzero; opacity: 1;" vector-effect="non-scaling-stroke"  transform=" translate(-457, -171.4)" d="M 456.9 171.3 C 457.09999999999997 171.5 457.4 171.70000000000002 457.59999999999997 171.9 C 457.2 171.6 456.79999999999995 171.3 456.4 170.9 C 456.6 171 456.7 171.2 456.9 171.3 z" stroke-linecap="round" />
</g>
<g transform="matrix(1 0 0 1 133.96 -253.87)" id="SPAczJkpAvbjQo-5ep2DR"  >
<path style="stroke: none; stroke-width: 1; stroke-dasharray: none; stroke-linecap: butt; stroke-dashoffset: 0; stroke-linejoin: miter; stroke-miterlimit: 4; fill: none; fill-rule: nonzero; opacity: 1;" vector-effect="non-scaling-stroke"  transform=" translate(-432.71, -146.44)" d="M 432.6 146.5 C 432.9 146.4 432.9 146.3 432.6 146.5 L 432.6 146.5 z" stroke-linecap="round" />
</g>
<g transform="matrix(1 0 0 1 -84.65 -267.77)" id="JoDoNcgXzXoXYd27-s5_4"  >
<path style="stroke: none; stroke-width: 1; stroke-dasharray: none; stroke-linecap: butt; stroke-dashoffset: 0; stroke-linejoin: miter; stroke-miterlimit: 4; fill: none; fill-rule: nonzero; opacity: 1;" vector-effect="non-scaling-stroke"  transform=" translate(-214.1, -132.55)" d="M 212 175.5 C 212.4 164.9 212.8 154.2 213.1 143.6 C 213.5 133.5 213.79999999999998 123.3 213.9 113.19999999999999 C 214 108.1 214.20000000000002 103.29999999999998 215.1 98.29999999999998 C 215.6 95.39999999999998 216.2 92.49999999999999 216.2 89.59999999999998 C 214.79999999999998 89.99999999999999 213.39999999999998 90.39999999999998 212 90.89999999999998 C 214.4 119.1 212 147.3 212 175.5 z" stroke-linecap="round" />
</g>
<g transform="matrix(1 0 0 1 -85.1 -315.76)" id="9GaOhxgYoTI49Vp8oFhXQ"  >
<path style="stroke: none; stroke-width: 1; stroke-dasharray: none; stroke-linecap: butt; stroke-dashoffset: 0; stroke-linejoin: miter; stroke-miterlimit: 4; fill: none; fill-rule: nonzero; opacity: 1;" vector-effect="non-scaling-stroke"  transform=" translate(-213.65, -84.56)" d="M 215.7 85.5 C 215.5 84.4 215.1 82.2 214.29999999999998 81.5 C 212.29999999999998 79.7 211.49999999999997 81.8 211.29999999999998 84 C 211.49999999999997 85.4 211.6 86.9 211.79999999999998 88.3 C 213.2 87.8 214.6 87.39999999999999 215.99999999999997 87 C 215.9 86.5 215.8 86 215.7 85.5 z" stroke-linecap="round" />
</g>
<g transform="matrix(1 0 0 1 133.13 -252.12)" id="GKn4Lct6ViNdy48EwFG6-"  >
<path style="stroke: none; stroke-width: 1; stroke-dasharray: none; stroke-linecap: butt; stroke-dashoffset: 0; stroke-linejoin: miter; stroke-miterlimit: 4; fill: none; fill-rule: nonzero; opacity: 1;" vector-effect="non-scaling-stroke"  transform=" translate(-431.88, -148.2)" d="M 431.8 148.4 C 431.90000000000003 148.3 431.90000000000003 148.20000000000002 432 148.1 L 431.9 148 C 431.8 148.1 431.8 148.3 431.8 148.4 C 431.7 148.4 431.8 148.4 431.8 148.4 z" stroke-linecap="round" />
</g>
<g transform="matrix(1 0 0 1 152.95 -190.62)" id="jcUsjK-8JWlRYIEYUWlYW"  >
<path style="stroke: none; stroke-width: 1; stroke-dasharray: none; stroke-linecap: butt; stroke-dashoffset: 0; stroke-linejoin: miter; stroke-miterlimit: 4; fill: rgb(148,98,54); fill-rule: nonzero; opacity: 1;" vector-effect="non-scaling-stroke"  transform=" translate(-451.7, -209.7)" d="M 459.8 203.1 C 454.7 203.4 450.2 202.7 446.3 201.2 C 445.6 205.6 444.6 210 443.6 214.29999999999998 C 444.5 215.2 445.40000000000003 215.99999999999997 446.40000000000003 216.79999999999998 C 446.50000000000006 216.89999999999998 446.6 216.99999999999997 446.6 217.2 C 447.6 217.6 448.6 217.89999999999998 449.5 218.2 C 453.6 213.8 456.8 208.5 459.8 203.1 z" stroke-linecap="round" />
</g>
<g transform="matrix(1 0 0 1 133.93 -200.17)" id="BuZg5_0vlsUN6TTBipi07"  >
<path style="stroke: none; stroke-width: 1; stroke-dasharray: none; stroke-linecap: butt; stroke-dashoffset: 0; stroke-linejoin: miter; stroke-miterlimit: 4; fill: rgb(148,98,54); fill-rule: nonzero; opacity: 1;" vector-effect="non-scaling-stroke"  transform=" translate(-432.68, -200.15)" d="M 430.2 188.6 C 428.09999999999997 187.4 426.09999999999997 186.2 424.09999999999997 184.9 C 422.49999999999994 191.8 422.7 198.8 426.7 205.6 C 426.9 206 426.7 206.4 426.3 206.5 C 428.5 208.3 430.8 209.8 433.40000000000003 211.2 C 436.20000000000005 212.7 439.00000000000006 214.1 442.00000000000006 215.39999999999998 C 442.1000000000001 215.2 442.1000000000001 214.89999999999998 442.20000000000005 214.7 C 435.3 207.5 431.5 198.3 430.2 188.6 z" stroke-linecap="round" />
</g>
<g transform="matrix(1 0 0 1 27.7 -255.67)" id="cUi5PZfrL2iKFFlCT4ROP"  >
<path style="stroke: none; stroke-width: 1; stroke-dasharray: none; stroke-linecap: butt; stroke-dashoffset: 0; stroke-linejoin: miter; stroke-miterlimit: 4; fill: rgb(148,98,54); fill-rule: nonzero; opacity: 1;" vector-effect="non-scaling-stroke"  transform=" translate(-326.45, -144.64)" d="M 423 184.2 C 420 182.1 417 179.89999999999998 414.2 177.6 C 414.09999999999997 181.5 414.59999999999997 185.5 415.9 189.29999999999998 C 416.2 189.99999999999997 414.9 190.39999999999998 414.7 189.6 C 413.4 185.29999999999998 412.9 181 413 176.6 C 412.7 176.4 412.4 176.1 412.2 175.9 C 411.59999999999997 175.4 412.5 174.5 413.09999999999997 175 L 413.09999999999997 175 C 413.4 171.2 414.09999999999997 167.5 415.29999999999995 163.8 C 413.49999999999994 162.8 411.59999999999997 161.70000000000002 409.9 160.5 C 409.29999999999995 160.1 409.9 159 410.5 159.4 C 412.2 160.6 413.9 161.6 415.7 162.6 C 416.59999999999997 159.79999999999998 417.7 157.1 418.9 154.5 C 419.2 153.8 419.59999999999997 153.1 419.9 152.5 C 419.79999999999995 151.9 419.79999999999995 151.3 419.7 150.6 C 416.8 151.1 413.8 151.79999999999998 410.9 152.79999999999998 C 410.09999999999997 153.1 409.79999999999995 151.89999999999998 410.59999999999997 151.6 C 413.59999999999997 150.6 416.59999999999997 149.79999999999998 419.59999999999997 149.29999999999998 C 419.4 146.2 419.29999999999995 143.1 419.4 140.1 C 418.59999999999997 139.79999999999998 417.7 139.5 416.9 139.2 C 416.09999999999997 139 416.5 137.79999999999998 417.29999999999995 137.89999999999998 C 417.99999999999994 138.09999999999997 418.79999999999995 138.39999999999998 419.49999999999994 138.59999999999997 C 419.59999999999997 136.29999999999995 419.69999999999993 134.09999999999997 419.79999999999995 131.99999999999997 C 419.9 131.19999999999996 421.19999999999993 131.19999999999996 421.09999999999997 131.99999999999997 C 420.9 134.29999999999998 420.79999999999995 136.69999999999996 420.79999999999995 139.19999999999996 C 423.19999999999993 140.19999999999996 425.4 141.39999999999995 427.49999999999994 142.79999999999995 C 429.69999999999993 140.79999999999995 432.09999999999997 138.99999999999994 434.59999999999997 137.29999999999995 C 434.59999999999997 136.89999999999995 434.59999999999997 136.59999999999997 434.59999999999997 136.19999999999996 C 430.09999999999997 133.59999999999997 424.49999999999994 130.09999999999997 419.49999999999994 131.19999999999996 C 419.09999999999997 131.29999999999995 418.79999999999995 130.99999999999997 418.69999999999993 130.69999999999996 C 418.19999999999993 131.39999999999995 417.69999999999993 132.09999999999997 417.19999999999993 132.89999999999995 C 417.29999999999995 132.49999999999994 417.49999999999994 131.99999999999994 417.5999999999999 131.59999999999994 C 421.5999999999999 119.79999999999994 427.8999999999999 105.79999999999994 419.19999999999993 94.39999999999993 C 412.49999999999994 85.59999999999994 400.0999999999999 82.29999999999994 389.49999999999994 84.19999999999993 C 375.69999999999993 86.69999999999993 365.09999999999997 97.69999999999993 357.29999999999995 108.59999999999994 C 347.4 122.59999999999994 340.59999999999997 139.39999999999995 327.49999999999994 150.79999999999995 C 320.3999999999999 156.99999999999994 310.8999999999999 161.39999999999995 301.3999999999999 158.29999999999995 C 292.99999999999994 155.59999999999997 286.7999999999999 148.59999999999997 281.99999999999994 141.39999999999995 C 268.29999999999995 121.09999999999995 260.09999999999997 89.59999999999995 231.69999999999993 85.99999999999994 C 227.19999999999993 85.39999999999995 222.69999999999993 85.69999999999995 218.29999999999993 86.49999999999994 C 218.29999999999993 86.79999999999994 218.39999999999992 87.09999999999994 218.39999999999992 87.39999999999995 C 218.49999999999991 87.89999999999995 218.49999999999991 88.49999999999994 218.49999999999991 88.99999999999994 C 224.0999999999999 87.89999999999995 229.89999999999992 87.89999999999995 235.49999999999991 89.29999999999994 C 263.4999999999999 96.39999999999993 268.4999999999999 131.49999999999994 285.7999999999999 150.49999999999994 C 295.0999999999999 160.79999999999995 308.0999999999999 165.19999999999993 320.8999999999999 158.49999999999994 C 334.3999999999999 151.39999999999995 342.69999999999993 137.09999999999994 350.19999999999993 124.49999999999994 C 358.19999999999993 111.09999999999994 367.0999999999999 96.29999999999994 381.79999999999995 89.39999999999995 C 393.99999999999994 83.69999999999995 412.09999999999997 85.49999999999994 418.9 98.69999999999995 C 426.09999999999997 112.99999999999994 414 128.39999999999995 412.09999999999997 143.09999999999994 C 409.59999999999997 149.99999999999994 408.49999999999994 157.49999999999994 409.09999999999997 165.09999999999994 C 409.79999999999995 174.39999999999995 411.99999999999994 183.99999999999994 415.7 192.59999999999994 C 417.9 197.79999999999993 421.09999999999997 202.09999999999994 425.2 205.59999999999994 C 421.3 198.5 421.2 191.3 423 184.2 z" stroke-linecap="round" />
</g>
<g transform="matrix(1 0 0 1 144.5 -184.57)" id="lhtr_e8Dmx6TMRN9KAr16"  >
<path style="stroke: none; stroke-width: 1; stroke-dasharray: none; stroke-linecap: butt; stroke-dashoffset: 0; stroke-linejoin: miter; stroke-miterlimit: 4; fill: rgb(148,98,54); fill-rule: nonzero; opacity: 1;" vector-effect="non-scaling-stroke"  transform=" translate(-443.25, -215.75)" d="M 443.1 215.8 C 443.20000000000005 215.8 443.3 215.9 443.40000000000003 215.9 C 443.3 215.8 443.20000000000005 215.70000000000002 443.1 215.6 C 443.2 215.7 443.2 215.8 443.1 215.8 z" stroke-linecap="round" />
</g>
<g transform="matrix(1 0 0 1 209.8 -231.42)" id="dq26etNlb3kiH9Dk5RnXj"  >
<path style="stroke: none; stroke-width: 1; stroke-dasharray: none; stroke-linecap: butt; stroke-dashoffset: 0; stroke-linejoin: miter; stroke-miterlimit: 4; fill: rgb(148,98,54); fill-rule: nonzero; opacity: 1;" vector-effect="non-scaling-stroke"  transform=" translate(-508.55, -168.9)" d="M 507.3 164.4 C 507.40000000000003 167.4 507.2 170.4 506.8 173.4 C 508 171.5 509.2 169.5 510.3 167.5 C 509.4 166.4 508.3 165.4 507.3 164.4 z" stroke-linecap="round" />
</g>
<g transform="matrix(1 0 0 1 192.9 -257.12)" id="1VBO-ZkIGoK0ezU74Yqpa"  >
<path style="stroke: none; stroke-width: 1; stroke-dasharray: none; stroke-linecap: butt; stroke-dashoffset: 0; stroke-linejoin: miter; stroke-miterlimit: 4; fill: rgb(148,98,54); fill-rule: nonzero; opacity: 1;" vector-effect="non-scaling-stroke"  transform=" translate(-491.65, -143.2)" d="M 482 127.4 C 480.7 127 479.4 126.7 478.1 126.5 C 478.3 127.6 478.6 128.7 478.8 129.7 C 479.90000000000003 135.5 480.7 141.39999999999998 481.2 147.29999999999998 C 484.8 148.39999999999998 488.3 149.89999999999998 491.7 151.7 C 496 154 500.3 156.7 504.3 159.89999999999998 C 504.7 158.39999999999998 505 156.89999999999998 505.2 155.39999999999998 C 503.7 147.7 500.5 140.59999999999997 496.4 133.79999999999998 C 496.29999999999995 133.7 496.29999999999995 133.6 496.2 133.39999999999998 C 491.7 130.9 487 128.8 482 127.4 z" stroke-linecap="round" />
</g>
<g transform="matrix(1 0 0 1 132.1 -276.42)" id="IDsjWEhmg6SzaiaUk8ZNY"  >
<path style="stroke: none; stroke-width: 1; stroke-dasharray: none; stroke-linecap: butt; stroke-dashoffset: 0; stroke-linejoin: miter; stroke-miterlimit: 4; fill: rgb(148,98,54); fill-rule: nonzero; opacity: 1;" vector-effect="non-scaling-stroke"  transform=" translate(-430.85, -123.9)" d="M 430.2 132.5 C 431.7 133.3 433.2 134 434.7 134.8 C 434.9 131.5 435.4 128.20000000000002 436.3 125.10000000000001 C 433.90000000000003 124.00000000000001 431.40000000000003 123.00000000000001 428.8 122.10000000000001 C 428 121.9 428.3 120.7 429.1 120.80000000000001 C 431.70000000000005 121.70000000000002 434.20000000000005 122.70000000000002 436.70000000000005 123.80000000000001 C 437.90000000000003 120.00000000000001 439.6 116.4 442.20000000000005 113.00000000000001 C 436.90000000000003 115.10000000000001 431.80000000000007 118.10000000000001 427.30000000000007 121.80000000000001 C 424.30000000000007 124.20000000000002 421.70000000000005 126.9 419.50000000000006 129.9 C 423.3 129.1 426.6 130.7 430.2 132.5 z" stroke-linecap="round" />
</g>
<g transform="matrix(1 0 0 1 203.48 -256.92)" id="nBSUCx457amApAuZ2FW8e"  >
<path style="stroke: none; stroke-width: 1; stroke-dasharray: none; stroke-linecap: butt; stroke-dashoffset: 0; stroke-linejoin: miter; stroke-miterlimit: 4; fill: rgb(148,98,54); fill-rule: nonzero; opacity: 1;" vector-effect="non-scaling-stroke"  transform=" translate(-502.23, -143.4)" d="M 506 139.5 C 503.5 137.8 500.9 136.2 498.3 134.6 C 501.5 140.1 504.2 146 505.7 152.2 C 506.2 147.9 506.3 143.6 506 139.5 z" stroke-linecap="round" />
</g>
<g transform="matrix(1 0 0 1 205.45 -220.67)" id="52BdDIh3hKgwM1M27gMGv"  >
<path style="stroke: none; stroke-width: 1; stroke-dasharray: none; stroke-linecap: butt; stroke-dashoffset: 0; stroke-linejoin: miter; stroke-miterlimit: 4; fill: rgb(148,98,54); fill-rule: nonzero; opacity: 1;" vector-effect="non-scaling-stroke"  transform=" translate(-504.2, -179.65)" d="M 504.3 180.9 C 504.5 180.1 504.7 179.20000000000002 504.8 178.4 C 504.40000000000003 178.9 504 179.5 503.6 180 C 503.9 180.3 504.1 180.6 504.3 180.9 z" stroke-linecap="round" />
</g>
<g transform="matrix(1 0 0 1 141.35 -205.22)" id="3EVk6M4fwuE3sRgj8fswX"  >
<path style="stroke: none; stroke-width: 1; stroke-dasharray: none; stroke-linecap: butt; stroke-dashoffset: 0; stroke-linejoin: miter; stroke-miterlimit: 4; fill: rgb(148,98,54); fill-rule: nonzero; opacity: 1;" vector-effect="non-scaling-stroke"  transform=" translate(-440.1, -195.1)" d="M 445.8 195.4 C 441.90000000000003 194.20000000000002 438.1 192.70000000000002 434.40000000000003 190.8 C 437.40000000000003 194.5 441.00000000000006 197.5 445.3 199.4 C 445.5 198.1 445.7 196.7 445.8 195.4 z" stroke-linecap="round" />
</g>
<g transform="matrix(1 0 0 1 133.25 -252.12)" id="les4oS2Pf7QKsoPCV0o6c"  >
<path style="stroke: none; stroke-width: 1; stroke-dasharray: none; stroke-linecap: butt; stroke-dashoffset: 0; stroke-linejoin: miter; stroke-miterlimit: 4; fill: rgb(148,98,54); fill-rule: nonzero; opacity: 1;" vector-effect="non-scaling-stroke"  transform=" translate(-432, -148.2)" d="M 432.3 148.4 C 432.2 148.3 432.1 148.20000000000002 431.90000000000003 148 C 431.8 148.1 431.8 148.2 431.70000000000005 148.3 C 432 148.4 432.1 148.4 432.3 148.4 z" stroke-linecap="round" />
</g>
<g transform="matrix(1 0 0 1 139.95 -218.17)" id="_NPWpY0S-TYm5UnnumNHp"  >
<path style="stroke: none; stroke-width: 1; stroke-dasharray: none; stroke-linecap: butt; stroke-dashoffset: 0; stroke-linejoin: miter; stroke-miterlimit: 4; fill: rgb(148,98,54); fill-rule: nonzero; opacity: 1;" vector-effect="non-scaling-stroke"  transform=" translate(-438.7, -182.15)" d="M 446.3 184.3 C 445.1 182.8 444 181.20000000000002 443.1 179.60000000000002 C 441.70000000000005 177.10000000000002 440.5 174.40000000000003 439.5 171.70000000000002 C 437 171.3 434.5 170.8 432 170.10000000000002 C 431.1 175.50000000000003 430.8 181.00000000000003 431.3 186.50000000000003 C 431.7 187.20000000000002 432.2 187.90000000000003 432.7 188.60000000000002 C 437 190.90000000000003 441.4 192.8 446 194.20000000000002 C 446.3 190.9 446.4 187.6 446.3 184.3 z" stroke-linecap="round" />
</g>
<g transform="matrix(1 0 0 1 206.8 -240.52)" id="Fn9Dg7Z0oTdhTtGOOZyXN"  >
<path style="stroke: none; stroke-width: 1; stroke-dasharray: none; stroke-linecap: butt; stroke-dashoffset: 0; stroke-linejoin: miter; stroke-miterlimit: 4; fill: rgb(148,98,54); fill-rule: nonzero; opacity: 1;" vector-effect="non-scaling-stroke"  transform=" translate(-505.55, -159.8)" d="M 505.5 160.9 C 505.6 160.8 505.8 160.70000000000002 505.9 160.6 C 505.9 160.2 505.79999999999995 159.7 505.79999999999995 159.29999999999998 C 505.79999999999995 159.1 505.79999999999995 158.89999999999998 505.69999999999993 158.7 C 505.5999999999999 159.39999999999998 505.3999999999999 160 505.19999999999993 160.7 C 505.3 160.8 505.4 160.9 505.5 160.9 z" stroke-linecap="round" />
</g>
<g transform="matrix(1 0 0 1 128.95 -253.77)" id="1cup2iOT_sUSyC1BdGhC_"  >
<path style="stroke: none; stroke-width: 1; stroke-dasharray: none; stroke-linecap: butt; stroke-dashoffset: 0; stroke-linejoin: miter; stroke-miterlimit: 4; fill: rgb(148,98,54); fill-rule: nonzero; opacity: 1;" vector-effect="non-scaling-stroke"  transform=" translate(-427.7, -146.55)" d="M 431.7 148.4 C 431.7 148.3 431.8 148.1 431.8 148 C 430.40000000000003 146.7 429 145.5 427.40000000000003 144.4 C 426.00000000000006 145.70000000000002 424.8 147.20000000000002 423.6 148.70000000000002 C 426.3 148.4 429 148.3 431.7 148.4 z" stroke-linecap="round" />
</g>
<g transform="matrix(1 0 0 1 169.5 -188.82)" id="ULXQ0LmK06Tvk3L5bCztW"  >
<path style="stroke: none; stroke-width: 1; stroke-dasharray: none; stroke-linecap: butt; stroke-dashoffset: 0; stroke-linejoin: miter; stroke-miterlimit: 4; fill: rgb(148,98,54); fill-rule: nonzero; opacity: 1;" vector-effect="non-scaling-stroke"  transform=" translate(-468.25, -211.5)" d="M 468.7 220.9 C 472 216.1 473.9 210.3 475.4 204.4 C 473.5 203.8 471.7 203.1 469.79999999999995 202.20000000000002 C 469.4 202.00000000000003 468.99999999999994 201.8 468.69999999999993 201.60000000000002 C 467.0999999999999 202.00000000000003 465.3999999999999 202.40000000000003 463.69999999999993 202.70000000000002 C 463.49999999999994 202.70000000000002 463.29999999999995 202.70000000000002 463.19999999999993 202.8 C 462.79999999999995 208.8 462.0999999999999 214.8 461.19999999999993 220.70000000000002 C 461.19999999999993 220.8 461.19999999999993 220.9 461.0999999999999 220.9 C 463.5999999999999 221.20000000000002 466.0999999999999 221.4 468.5999999999999 221.4 C 468.6 221.2 468.6 221.1 468.7 220.9 z" stroke-linecap="round" />
</g>
<g transform="matrix(1 0 0 1 195.65 -206.07)" id="tmdcjHFg20ntdDu23DqV5"  >
<path style="stroke: none; stroke-width: 1; stroke-dasharray: none; stroke-linecap: butt; stroke-dashoffset: 0; stroke-linejoin: miter; stroke-miterlimit: 4; fill: rgb(148,98,54); fill-rule: nonzero; opacity: 1;" vector-effect="non-scaling-stroke"  transform=" translate(-494.4, -194.25)" d="M 518.1 178.5 C 516.4 174.6 514 171.1 511.1 167.8 C 509.6 170.5 508 173.10000000000002 506.3 175.60000000000002 C 506 177.60000000000002 505.6 179.50000000000003 505.1 181.50000000000003 C 507.70000000000005 185.30000000000004 509.40000000000003 189.60000000000002 509.8 194.50000000000003 C 509.90000000000003 195.30000000000004 508.7 195.30000000000004 508.6 194.50000000000003 C 508.3 190.20000000000002 506.90000000000003 186.50000000000003 504.8 183.10000000000002 C 503.1 189.90000000000003 500.5 196.50000000000003 497.6 202.90000000000003 C 499.20000000000005 202.40000000000003 500.8 201.70000000000005 502.3 200.90000000000003 C 503 200.50000000000003 503.6 201.60000000000002 502.90000000000003 202.00000000000003 C 500.90000000000003 203.10000000000002 498.90000000000003 203.90000000000003 496.8 204.50000000000003 C 495.5 207.20000000000002 494.2 209.90000000000003 492.90000000000003 212.50000000000003 C 492.6 213.20000000000002 491.50000000000006 212.60000000000002 491.90000000000003 212.00000000000003 C 493.1 209.60000000000002 494.3 207.20000000000002 495.40000000000003 204.80000000000004 C 492.8 205.40000000000003 490.20000000000005 205.70000000000005 487.6 205.70000000000005 C 487.3 208.90000000000003 486.90000000000003 212.10000000000005 486.20000000000005 215.40000000000003 C 486.00000000000006 216.20000000000005 484.80000000000007 215.90000000000003 485.00000000000006 215.10000000000002 C 485.70000000000005 212.00000000000003 486.1000000000001 208.8 486.40000000000003 205.70000000000002 C 483.1 205.60000000000002 479.8 205.00000000000003 476.50000000000006 204.10000000000002 C 475.1000000000001 210.00000000000003 473.1000000000001 215.90000000000003 469.90000000000003 220.70000000000002 C 474.8 220.50000000000003 479.6 219.50000000000003 484.3 217.50000000000003 C 491.2 214.60000000000002 497.2 210.20000000000002 501.90000000000003 204.70000000000002 C 509.6 198.8 515.7 190.9 518.3000000000001 181.00000000000003 C 518.5000000000001 180.20000000000002 518.7 179.30000000000004 518.9000000000001 178.50000000000003 C 518.6 178.6 518.3 178.6 518.1 178.5 z" stroke-linecap="round" />
</g>
<g transform="matrix(1 0 0 1 157.65 -188.47)" id="oPiBBpduJbJNJe-t9JRBh"  >
<path style="stroke: none; stroke-width: 1; stroke-dasharray: none; stroke-linecap: butt; stroke-dashoffset: 0; stroke-linejoin: miter; stroke-miterlimit: 4; fill: rgb(148,98,54); fill-rule: nonzero; opacity: 1;" vector-effect="non-scaling-stroke"  transform=" translate(-456.4, -211.85)" d="M 460.1 220.2 C 460.90000000000003 214.5 461.6 208.7 462 202.89999999999998 C 461.8 202.89999999999998 461.6 202.89999999999998 461.4 202.99999999999997 C 458.4 208.59999999999997 455 214.09999999999997 450.79999999999995 218.59999999999997 C 453.9 219.49999999999997 456.99999999999994 220.29999999999995 460.09999999999997 220.79999999999995 C 460.1 220.6 460.1 220.4 460.1 220.2 z" stroke-linecap="round" />
</g>
<g transform="matrix(1 0 0 1 203.98 -229.57)" id="Jm3MUckADjaAgEAU_MBf8"  >
<path style="stroke: none; stroke-width: 1; stroke-dasharray: none; stroke-linecap: butt; stroke-dashoffset: 0; stroke-linejoin: miter; stroke-miterlimit: 4; fill: rgb(148,98,54); fill-rule: nonzero; opacity: 1;" vector-effect="non-scaling-stroke"  transform=" translate(-502.73, -170.75)" d="M 504.5 163.3 C 503.2 167.60000000000002 501.5 171.70000000000002 499.4 175.60000000000002 C 500.59999999999997 176.70000000000002 501.7 177.8 502.7 178.90000000000003 C 503.59999999999997 177.80000000000004 504.4 176.70000000000005 505.3 175.50000000000003 C 505.90000000000003 171.40000000000003 506.2 167.30000000000004 506 163.20000000000002 C 505.8 163.00000000000003 505.5 162.8 505.3 162.60000000000002 C 505.1 162.9 504.8 163.1 504.5 163.3 z" stroke-linecap="round" />
</g>
<g transform="matrix(1 0 0 1 183.65 -216.52)" id="3dewi-Xzwy0JW-k4JCec3"  >
<path style="stroke: none; stroke-width: 1; stroke-dasharray: none; stroke-linecap: butt; stroke-dashoffset: 0; stroke-linejoin: miter; stroke-miterlimit: 4; fill: rgb(148,98,54); fill-rule: nonzero; opacity: 1;" vector-effect="non-scaling-stroke"  transform=" translate(-482.4, -183.8)" d="M 486.2 190.8 C 485.4 184.60000000000002 483.9 178.5 481.59999999999997 172.60000000000002 C 481.2 179.50000000000003 480.29999999999995 186.3 478.99999999999994 193.10000000000002 C 478.8999999999999 193.70000000000002 478.79999999999995 194.3 478.59999999999997 195.00000000000003 C 479.9 194.60000000000002 481.2 194.20000000000002 482.4 193.80000000000004 C 483.7 192.8 485 191.8 486.2 190.8 z" stroke-linecap="round" />
</g>
<g transform="matrix(1 0 0 1 128.55 -217.27)" id="cY1C9D_9gdcc5uFCsuGJ4"  >
<path style="stroke: none; stroke-width: 1; stroke-dasharray: none; stroke-linecap: butt; stroke-dashoffset: 0; stroke-linejoin: miter; stroke-miterlimit: 4; fill: rgb(148,98,54); fill-rule: nonzero; opacity: 1;" vector-effect="non-scaling-stroke"  transform=" translate(-427.3, -183.05)" d="M 430.1 187.1 L 430.1 187.1 C 428.5 184.5 427.20000000000005 181.79999999999998 426 179 C 425.4 180.5 424.9 182.1 424.5 183.7 C 426.3 184.9 428.1 186 430.1 187.1 z" stroke-linecap="round" />
</g>
<g transform="matrix(1 0 0 1 142.1 -269.57)" id="6mQHtlVtFkRNa1fJAQyEj"  >
<path style="stroke: none; stroke-width: 1; stroke-dasharray: none; stroke-linecap: butt; stroke-dashoffset: 0; stroke-linejoin: miter; stroke-miterlimit: 4; fill: rgb(148,98,54); fill-rule: nonzero; opacity: 1;" vector-effect="non-scaling-stroke"  transform=" translate(-440.85, -130.75)" d="M 435.9 135.4 C 436.2 135.6 436.5 135.70000000000002 436.79999999999995 135.9 C 439.19999999999993 134.5 441.69999999999993 133.1 444.19999999999993 131.8 C 444.49999999999994 131.60000000000002 444.8999999999999 131.5 445.19999999999993 131.3 C 445.3999999999999 130.9 445.5999999999999 130.60000000000002 445.79999999999995 130.20000000000002 C 443.09999999999997 128.50000000000003 440.19999999999993 127.00000000000001 437.29999999999995 125.60000000000002 C 436.5 128.8 436.1 132.1 435.9 135.4 z" stroke-linecap="round" />
</g>
<g transform="matrix(1 0 0 1 156.35 -275.97)" id="sNBpJ8qw7-3ONEzc9hhmz"  >
<path style="stroke: none; stroke-width: 1; stroke-dasharray: none; stroke-linecap: butt; stroke-dashoffset: 0; stroke-linejoin: miter; stroke-miterlimit: 4; fill: rgb(148,98,54); fill-rule: nonzero; opacity: 1;" vector-effect="non-scaling-stroke"  transform=" translate(-455.1, -124.35)" d="M 462.6 125 C 460 122.6 457.1 120.6 454.20000000000005 118.8 C 451.90000000000003 122.39999999999999 449.70000000000005 126 447.6 129.7 C 447.70000000000005 129.79999999999998 447.8 129.79999999999998 447.90000000000003 129.89999999999998 C 452.8 127.7 457.6 126 462.6 125 z" stroke-linecap="round" />
</g>
<g transform="matrix(1 0 0 1 124.9 -255.52)" id="IkwXl8XyBU6EynylkKXLH"  >
<path style="stroke: none; stroke-width: 1; stroke-dasharray: none; stroke-linecap: butt; stroke-dashoffset: 0; stroke-linejoin: miter; stroke-miterlimit: 4; fill: rgb(148,98,54); fill-rule: nonzero; opacity: 1;" vector-effect="non-scaling-stroke"  transform=" translate(-423.65, -144.8)" d="M 426.5 143.7 C 424.7 142.5 422.8 141.5 420.8 140.6 C 420.8 143.29999999999998 420.90000000000003 146.1 421.1 149 C 421.5 148.9 421.8 148.9 422.20000000000005 148.8 C 423.4 147 424.9 145.3 426.5 143.7 z" stroke-linecap="round" />
</g>
<g transform="matrix(1 0 0 1 120.95 -226.72)" id="n-39rg1vprY_ok8toqMAO"  >
<path style="stroke: none; stroke-width: 1; stroke-dasharray: none; stroke-linecap: butt; stroke-dashoffset: 0; stroke-linejoin: miter; stroke-miterlimit: 4; fill: rgb(148,98,54); fill-rule: nonzero; opacity: 1;" vector-effect="non-scaling-stroke"  transform=" translate(-419.7, -173.6)" d="M 422.2 167 C 420.2 166.2 418.3 165.3 416.3 164.3 C 415.2 168.10000000000002 414.40000000000003 172 414.2 175.9 C 417.09999999999997 178.4 420.09999999999997 180.70000000000002 423.3 182.9 C 423.8 181 424.5 179.20000000000002 425.2 177.3 C 424 174 423 170.5 422.2 167 z" stroke-linecap="round" />
</g>
<g transform="matrix(1 0 0 1 139.7 -198.97)" id="UMKd8FnpIdHjfedc5vyiX"  >
<path style="stroke: none; stroke-width: 1; stroke-dasharray: none; stroke-linecap: butt; stroke-dashoffset: 0; stroke-linejoin: miter; stroke-miterlimit: 4; fill: rgb(148,98,54); fill-rule: nonzero; opacity: 1;" vector-effect="non-scaling-stroke"  transform=" translate(-438.45, -201.35)" d="M 431.7 189.5 C 433 198.3 436.4 206.6 442.59999999999997 213.2 C 443.59999999999997 209.1 444.49999999999994 204.89999999999998 445.2 200.7 C 439.6 198.3 435.2 194.4 431.7 189.5 z" stroke-linecap="round" />
</g>
<g transform="matrix(1 0 0 1 122.35 -250.02)" id="VY4PcO6Z36kCfgSAI88fi"  >
<path style="stroke: none; stroke-width: 1; stroke-dasharray: none; stroke-linecap: butt; stroke-dashoffset: 0; stroke-linejoin: miter; stroke-miterlimit: 4; fill: rgb(148,98,54); fill-rule: nonzero; opacity: 1;" vector-effect="non-scaling-stroke"  transform=" translate(-421.1, -150.3)" d="M 421.1 150.3 L 421.1 150.3 L 421.1 150.3 L 421.1 150.3 z" stroke-linecap="round" />
</g>
<g transform="matrix(1 0 0 1 173.85 -264.05)" id="FsbcUM1IdLKTyiHopGNdA"  >
<path style="stroke: none; stroke-width: 1; stroke-dasharray: none; stroke-linecap: butt; stroke-dashoffset: 0; stroke-linejoin: miter; stroke-miterlimit: 4; fill: rgb(148,98,54); fill-rule: nonzero; opacity: 1;" vector-effect="non-scaling-stroke"  transform=" translate(-472.6, -136.26)" d="M 478.8 146.6 C 479.2 146.7 479.6 146.79999999999998 479.90000000000003 146.9 C 479.50000000000006 142.8 479.00000000000006 138.70000000000002 478.40000000000003 134.6 C 478.00000000000006 132 477.6 129.1 476.90000000000003 126.19999999999999 C 472.90000000000003 125.49999999999999 469.1 125.49999999999999 465.3 125.89999999999999 C 471.3 131.8 476.2 138.9 478.8 146.6 z" stroke-linecap="round" />
</g>
<g transform="matrix(1 0 0 1 167.5 -280.06)" id="FrgFrGUmvPBV01ka1NFvZ"  >
<path style="stroke: none; stroke-width: 1; stroke-dasharray: none; stroke-linecap: butt; stroke-dashoffset: 0; stroke-linejoin: miter; stroke-miterlimit: 4; fill: rgb(148,98,54); fill-rule: nonzero; opacity: 1;" vector-effect="non-scaling-stroke"  transform=" translate(-466.25, -120.25)" d="M 443.1 113.7 C 440.6 117 438.90000000000003 120.60000000000001 437.70000000000005 124.3 C 440.70000000000005 125.7 443.6 127.3 446.50000000000006 129 C 448.6000000000001 125.3 450.80000000000007 121.7 453.1000000000001 118.1 C 450.4000000000001 116.6 447.7000000000001 115.3 445.00000000000006 114.39999999999999 C 444.20000000000005 114.1 444.50000000000006 112.89999999999999 445.30000000000007 113.19999999999999 C 448.20000000000005 114.19999999999999 451.00000000000006 115.49999999999999 453.70000000000005 116.99999999999999 C 455.20000000000005 114.59999999999998 456.80000000000007 112.29999999999998 458.40000000000003 109.99999999999999 C 458.8 109.39999999999999 459.90000000000003 109.99999999999999 459.50000000000006 110.69999999999999 C 457.90000000000003 112.99999999999999 456.40000000000003 115.29999999999998 454.80000000000007 117.69999999999999 C 458.1000000000001 119.69999999999999 461.20000000000005 121.99999999999999 464.1000000000001 124.69999999999999 C 468.1000000000001 124.1 472.30000000000007 124.1 476.6000000000001 124.79999999999998 C 475.2000000000001 119.29999999999998 472.80000000000007 113.99999999999999 467.7000000000001 111.19999999999999 C 467.0000000000001 110.79999999999998 467.6000000000001 109.69999999999999 468.3000000000001 110.1 C 473.90000000000015 113.3 476.3000000000001 119.1 477.8000000000001 125.1 C 478.2000000000001 125.19999999999999 478.60000000000014 125.19999999999999 479.0000000000001 125.3 C 484.60000000000014 126.5 489.8000000000001 128.7 494.8000000000001 131.3 C 490.5000000000001 124.4 485.60000000000014 117.70000000000002 478.90000000000015 113.20000000000002 C 478.40000000000015 112.80000000000001 478.60000000000014 112.10000000000002 479.10000000000014 112.00000000000001 C 476.20000000000016 111.00000000000001 473.3000000000001 110.20000000000002 470.20000000000016 109.80000000000001 C 460.90000000000015 108.4 451.60000000000014 109.50000000000001 443.00000000000017 112.70000000000002 C 443.3 112.9 443.4 113.4 443.1 113.7 z" stroke-linecap="round" />
</g>
<g transform="matrix(1 0 0 1 197.05 -207.32)" id="wlzw_ZYC8Dw1fTJdVeSsI"  >
<path style="stroke: none; stroke-width: 1; stroke-dasharray: none; stroke-linecap: butt; stroke-dashoffset: 0; stroke-linejoin: miter; stroke-miterlimit: 4; fill: rgb(148,98,54); fill-rule: nonzero; opacity: 1;" vector-effect="non-scaling-stroke"  transform=" translate(-495.8, -193)" d="M 502.9 180.9 C 502 181.9 501.09999999999997 182.9 500.09999999999997 183.9 C 496.49999999999994 187.6 492.2 190.6 487.59999999999997 192.9 C 487.99999999999994 196.9 487.99999999999994 201 487.79999999999995 205.1 C 490.69999999999993 205.1 493.49999999999994 204.7 496.19999999999993 204 C 499.3999999999999 197.1 502.19999999999993 189.9 503.99999999999994 182.5 C 503.6 181.9 503.2 181.4 502.9 180.9 z M 495 189.1 C 494.1 191.1 493 192.9 491.7 194.6 C 491.3 194.9 490.9 195.2 490.5 195.4 C 492.1 193.5 493.7 191.4 495 189.1 z" stroke-linecap="round" />
</g>
<g transform="matrix(1 0 0 1 214.51 -241.12)" id="zs0BD5q9HPYRhCkKsy2HU"  >
<path style="stroke: none; stroke-width: 1; stroke-dasharray: none; stroke-linecap: butt; stroke-dashoffset: 0; stroke-linejoin: miter; stroke-miterlimit: 4; fill: rgb(148,98,54); fill-rule: nonzero; opacity: 1;" vector-effect="non-scaling-stroke"  transform=" translate(-513.26, -159.2)" d="M 513.3 144.5 C 511.29999999999995 143.1 509.29999999999995 141.7 507.19999999999993 140.3 C 507.49999999999994 145.3 507.19999999999993 150.4 506.3999999999999 155.4 C 506.49999999999994 156 506.5999999999999 156.70000000000002 506.69999999999993 157.3 C 506.79999999999995 158.10000000000002 506.8999999999999 158.8 506.99999999999994 159.60000000000002 C 509.59999999999997 157.20000000000002 511.79999999999995 154.3 513.6999999999999 151.00000000000003 C 514.0999999999999 150.30000000000004 515.1999999999999 150.90000000000003 514.8 151.60000000000002 C 512.6999999999999 155.40000000000003 510.09999999999997 158.50000000000003 507.09999999999997 161.20000000000002 C 507.09999999999997 161.60000000000002 507.2 162.00000000000003 507.2 162.4 C 508.5 163.6 509.8 164.9 511.09999999999997 166.20000000000002 C 513.0999999999999 162.50000000000003 514.9 158.8 516.6999999999999 155.00000000000003 C 517.0999999999999 154.20000000000002 518.0999999999999 154.90000000000003 517.8 155.60000000000002 C 515.9 159.50000000000003 514.0999999999999 163.40000000000003 511.99999999999994 167.10000000000002 C 515 170.40000000000003 517.5 174.10000000000002 519.3 178.10000000000002 C 521.4 166.70000000000002 519.4 154.60000000000002 514.4 144.00000000000003 C 514.2 144.4 513.7 144.7 513.3 144.5 z" stroke-linecap="round" />
</g>
<g transform="matrix(1 0 0 1 198.1 -272.42)" id="s5Yz-mpu88d7nkqzNrd41"  >
<path style="stroke: none; stroke-width: 1; stroke-dasharray: none; stroke-linecap: butt; stroke-dashoffset: 0; stroke-linejoin: miter; stroke-miterlimit: 4; fill: rgb(148,98,54); fill-rule: nonzero; opacity: 1;" vector-effect="non-scaling-stroke"  transform=" translate(-496.85, -127.9)" d="M 496.5 131.7 C 496.6 131.89999999999998 496.8 132.2 496.9 132.39999999999998 C 499.9 134.09999999999997 502.9 135.89999999999998 505.79999999999995 137.79999999999998 C 505.59999999999997 136.2 505.4 134.7 505.09999999999997 133.2 C 504.9 132.39999999999998 506.09999999999997 132.1 506.29999999999995 132.89999999999998 C 506.69999999999993 134.79999999999998 506.9 136.7 507.09999999999997 138.7 C 509.4 140.2 511.7 141.79999999999998 513.9 143.39999999999998 C 512.1999999999999 139.99999999999997 510.29999999999995 136.79999999999998 508.09999999999997 133.89999999999998 C 500.9 124.29999999999998 491.09999999999997 116.49999999999997 479.79999999999995 112.39999999999998 C 487 117.2 492 124.4 496.5 131.7 z" stroke-linecap="round" />
</g>
<g transform="matrix(1 0 0 1 155.55 -201.41)" id="DcZHjq5FfI-XHJv6G0Np_"  >
<path style="stroke: none; stroke-width: 1; stroke-dasharray: none; stroke-linecap: butt; stroke-dashoffset: 0; stroke-linejoin: miter; stroke-miterlimit: 4; fill: rgb(148,98,54); fill-rule: nonzero; opacity: 1;" vector-effect="non-scaling-stroke"  transform=" translate(-454.3, -198.91)" d="M 462.2 198.2 C 462.2 198.1 462.2 198.1 462.2 198.2 C 457 198 451.9 197.2 446.9 195.79999999999998 C 446.7 197.2 446.59999999999997 198.6 446.4 199.99999999999997 C 450.5 201.59999999999997 455.09999999999997 202.29999999999998 460.4 201.89999999999998 C 461 200.79999999999998 461.59999999999997 199.7 462.2 198.49999999999997 C 462.2 198.4 462.2 198.3 462.2 198.2 z" stroke-linecap="round" />
</g>
<g transform="matrix(1 0 0 1 166.3 -200.12)" id="k08s-QkPZ2rar7U6QSYjM"  >
<path style="stroke: none; stroke-width: 1; stroke-dasharray: none; stroke-linecap: butt; stroke-dashoffset: 0; stroke-linejoin: miter; stroke-miterlimit: 4; fill: rgb(148,98,54); fill-rule: nonzero; opacity: 1;" vector-effect="non-scaling-stroke"  transform=" translate(-465.05, -200.2)" d="M 463.3 199.3 C 463.3 200 463.2 200.8 463.2 201.5 C 463.8 201.4 464.4 201.3 465.09999999999997 201.2 C 465.7 201.1 466.29999999999995 200.89999999999998 466.9 200.79999999999998 C 465.79999999999995 200.2 464.59999999999997 199.6 463.5 198.89999999999998 C 463.5 199 463.4 199.2 463.3 199.3 z" stroke-linecap="round" />
</g>
<g transform="matrix(1 0 0 1 174.65 -199.37)" id="3Df00kSo-nDuVdhYbvaLx"  >
<path style="stroke: none; stroke-width: 1; stroke-dasharray: none; stroke-linecap: butt; stroke-dashoffset: 0; stroke-linejoin: miter; stroke-miterlimit: 4; fill: rgb(148,98,54); fill-rule: nonzero; opacity: 1;" vector-effect="non-scaling-stroke"  transform=" translate(-473.4, -200.95)" d="M 476.6 198.7 C 474.6 199.7 472.40000000000003 200.6 470.20000000000005 201.2 C 472.00000000000006 202 473.80000000000007 202.6 475.6 203.2 C 476 201.7 476.3 200.2 476.6 198.7 z" stroke-linecap="round" />
</g>
<g transform="matrix(1 0 0 1 183.15 -201.12)" id="5Ww1huuawEf6t-NFu8r-c"  >
<path style="stroke: none; stroke-width: 1; stroke-dasharray: none; stroke-linecap: butt; stroke-dashoffset: 0; stroke-linejoin: miter; stroke-miterlimit: 4; fill: rgb(148,98,54); fill-rule: nonzero; opacity: 1;" vector-effect="non-scaling-stroke"  transform=" translate(-481.9, -199.2)" d="M 486.5 193.4 C 485.4 193.9 484.2 194.4 483.1 194.8 C 481.5 195.9 479.90000000000003 197 478.20000000000005 197.9 C 477.80000000000007 199.8 477.40000000000003 201.6 477.00000000000006 203.5 C 480.20000000000005 204.4 483.50000000000006 204.9 486.70000000000005 205 C 486.9 201.1 486.8 197.2 486.5 193.4 z" stroke-linecap="round" />
</g>
<g transform="matrix(1 0 0 1 168.3 -237.02)" id="4jJZHlk6EXaOREbkVvma5"  >
<path style="stroke: none; stroke-width: 1; stroke-dasharray: none; stroke-linecap: butt; stroke-dashoffset: 0; stroke-linejoin: miter; stroke-miterlimit: 4; fill: rgb(148,98,54); fill-rule: nonzero; opacity: 1;" vector-effect="non-scaling-stroke"  transform=" translate(-467.05, -163.3)" d="M 476.7 171.8 C 477.5 169.9 478.2 168 478.7 166.10000000000002 C 478.2 165.20000000000002 477.8 164.20000000000002 477.3 163.3 C 474.2 161.8 471.2 160.5 468.40000000000003 159.3 C 464.20000000000005 157.4 459.8 155.60000000000002 455.40000000000003 154.20000000000002 C 456.6 156.60000000000002 457.6 159.00000000000003 458.50000000000006 161.50000000000003 C 459.80000000000007 165.10000000000002 460.80000000000007 168.70000000000002 461.6000000000001 172.40000000000003 C 461.9000000000001 172.40000000000003 462.30000000000007 172.40000000000003 462.6000000000001 172.40000000000003 C 467.2 172.4 472 172.3 476.7 171.8 z" stroke-linecap="round" />
</g>
<g transform="matrix(1 0 0 1 142.1 -247.62)" id="tEWlUaa3dPeICXYIeVbVT"  >
<path style="stroke: none; stroke-width: 1; stroke-dasharray: none; stroke-linecap: butt; stroke-dashoffset: 0; stroke-linejoin: miter; stroke-miterlimit: 4; fill: rgb(148,98,54); fill-rule: nonzero; opacity: 1;" vector-effect="non-scaling-stroke"  transform=" translate(-440.85, -152.7)" d="M 444.6 151.2 C 442.3 150.7 440.1 150.39999999999998 437.8 150.1 C 437.6 150.7 437.3 151.29999999999998 437.1 151.9 C 437.90000000000003 153 438.70000000000005 154.1 439.5 155.3 C 441.1 153.8 442.8 152.4 444.6 151.2 z" stroke-linecap="round" />
</g>
<g transform="matrix(1 0 0 1 138.9 -244.72)" id="l3_xNN5TWIoVvJlGUPeAj"  >
<path style="stroke: none; stroke-width: 1; stroke-dasharray: none; stroke-linecap: butt; stroke-dashoffset: 0; stroke-linejoin: miter; stroke-miterlimit: 4; fill: rgb(148,98,54); fill-rule: nonzero; opacity: 1;" vector-effect="non-scaling-stroke"  transform=" translate(-437.65, -155.6)" d="M 438.5 156.2 C 438 155.29999999999998 437.4 154.5 436.8 153.7 C 437 155 437.1 156.2 437.3 157.5 C 437.7 157 438.1 156.6 438.5 156.2 z" stroke-linecap="round" />
</g>
<g transform="matrix(1 0 0 1 136.3 -241.67)" id="soRUW3Xy3k0VeqgC0X3v-"  >
<path style="stroke: none; stroke-width: 1; stroke-dasharray: none; stroke-linecap: butt; stroke-dashoffset: 0; stroke-linejoin: miter; stroke-miterlimit: 4; fill: rgb(148,98,54); fill-rule: nonzero; opacity: 1;" vector-effect="non-scaling-stroke"  transform=" translate(-435.05, -158.65)" d="M 436.2 158.7 C 436 157.7 435.9 156.7 435.7 155.7 C 435 157.6 434.4 159.6 433.9 161.6 C 434.7 160.6 435.4 159.6 436.2 158.7 z" stroke-linecap="round" />
</g>
<g transform="matrix(1 0 0 1 198.65 -230.72)" id="ngnabxFhoaB_JuH2YHaEa"  >
<path style="stroke: none; stroke-width: 1; stroke-dasharray: none; stroke-linecap: butt; stroke-dashoffset: 0; stroke-linejoin: miter; stroke-miterlimit: 4; fill: rgb(148,98,54); fill-rule: nonzero; opacity: 1;" vector-effect="non-scaling-stroke"  transform=" translate(-497.4, -169.6)" d="M 503 164.4 C 499.6 166.70000000000002 495.8 168.5 491.8 169.8 C 494.2 171.3 496.5 173 498.6 174.8 C 500.4 171.5 501.8 168 503 164.4 z" stroke-linecap="round" />
</g>
<g transform="matrix(1 0 0 1 133 -256.67)" id="i7raMdTOnXhcHGBCMc9WK"  >
<path style="stroke: none; stroke-width: 1; stroke-dasharray: none; stroke-linecap: butt; stroke-dashoffset: 0; stroke-linejoin: miter; stroke-miterlimit: 4; fill: rgb(148,98,54); fill-rule: nonzero; opacity: 1;" vector-effect="non-scaling-stroke"  transform=" translate(-431.75, -143.65)" d="M 434.2 148.5 C 434.5 148.5 434.7 148.5 435 148.6 C 434.9 147.2 434.8 145.7 434.7 144.29999999999998 C 434.59999999999997 142.39999999999998 434.59999999999997 140.6 434.59999999999997 138.7 C 432.4 140.1 430.4 141.7 428.49999999999994 143.39999999999998 C 430.5 144.9 432.4 146.7 434.2 148.5 z M 432.6 146.5 C 432.9 146.3 432.9 146.4 432.6 146.5 L 432.6 146.5 z" stroke-linecap="round" />
</g>
<g transform="matrix(1 0 0 1 165.6 -246.37)" id="non25fHzRLyuokKMvvpfx"  >
<path style="stroke: none; stroke-width: 1; stroke-dasharray: none; stroke-linecap: butt; stroke-dashoffset: 0; stroke-linejoin: miter; stroke-miterlimit: 4; fill: rgb(148,98,54); fill-rule: nonzero; opacity: 1;" vector-effect="non-scaling-stroke"  transform=" translate(-464.35, -153.95)" d="M 457.9 147.1 C 455.9 147.5 454.09999999999997 148.1 452.29999999999995 148.79999999999998 C 453.09999999999997 149.99999999999997 453.9 151.29999999999998 454.59999999999997 152.6 C 460.09999999999997 154.29999999999998 465.49999999999994 156.5 470.7 159 C 472.5 159.8 474.4 160.7 476.4 161.6 C 473.29999999999995 156.1 469.59999999999997 151 465.29999999999995 146.29999999999998 C 462.8 146.3 460.4 146.6 457.9 147.1 z" stroke-linecap="round" />
</g>
<g transform="matrix(1 0 0 1 145.6 -255.02)" id="Ynj3lkYDj1yPFar1zgltz"  >
<path style="stroke: none; stroke-width: 1; stroke-dasharray: none; stroke-linecap: butt; stroke-dashoffset: 0; stroke-linejoin: miter; stroke-miterlimit: 4; fill: rgb(148,98,54); fill-rule: nonzero; opacity: 1;" vector-effect="non-scaling-stroke"  transform=" translate(-444.35, -145.3)" d="M 447.3 144.4 C 445.7 142.9 443.90000000000003 141.6 442 140.4 C 440.7 143.20000000000002 439.4 146 438.2 148.9 C 440.8 149.20000000000002 443.5 149.70000000000002 446.09999999999997 150.20000000000002 C 447.49999999999994 149.4 448.9 148.60000000000002 450.49999999999994 148.00000000000003 C 449.5 146.7 448.4 145.5 447.3 144.4 z" stroke-linecap="round" />
</g>
<g transform="matrix(1 0 0 1 151.85 -249.72)" id="MhZrCYSlOqNuzfUzSuHyP"  >
<path style="stroke: none; stroke-width: 1; stroke-dasharray: none; stroke-linecap: butt; stroke-dashoffset: 0; stroke-linejoin: miter; stroke-miterlimit: 4; fill: rgb(148,98,54); fill-rule: nonzero; opacity: 1;" vector-effect="non-scaling-stroke"  transform=" translate(-450.6, -150.6)" d="M 451.3 149.1 C 450.2 149.6 449.2 150.1 448.1 150.7 C 449.8 151.1 451.5 151.6 453.1 152.1 C 452.5 151.1 451.9 150.1 451.3 149.1 z" stroke-linecap="round" />
</g>
<g transform="matrix(1 0 0 1 154.55 -260.82)" id="QoG3KdNcm5E_J8NzJkf5z"  >
<path style="stroke: none; stroke-width: 1; stroke-dasharray: none; stroke-linecap: butt; stroke-dashoffset: 0; stroke-linejoin: miter; stroke-miterlimit: 4; fill: rgb(148,98,54); fill-rule: nonzero; opacity: 1;" vector-effect="non-scaling-stroke"  transform=" translate(-453.3, -139.5)" d="M 446.3 132.1 L 446.3 132.1 C 445 134.5 443.7 136.9 442.5 139.29999999999998 C 443.1 139.7 443.7 140.1 444.3 140.49999999999997 C 447.1 142.49999999999997 449.5 144.89999999999998 451.5 147.59999999999997 C 452.4 147.19999999999996 453.4 146.89999999999998 454.4 146.59999999999997 C 457.59999999999997 145.69999999999996 460.79999999999995 145.09999999999997 464.09999999999997 144.99999999999997 C 459.29999999999995 139.89999999999998 453.79999999999995 135.29999999999998 447.79999999999995 131.39999999999998 C 447.3 131.6 446.8 131.8 446.3 132.1 z" stroke-linecap="round" />
</g>
<g transform="matrix(1 0 0 1 154.85 -208.97)" id="fpeaSaNgBfNsWxyomO9-C"  >
<path style="stroke: none; stroke-width: 1; stroke-dasharray: none; stroke-linecap: butt; stroke-dashoffset: 0; stroke-linejoin: miter; stroke-miterlimit: 4; fill: rgb(148,98,54); fill-rule: nonzero; opacity: 1;" vector-effect="non-scaling-stroke"  transform=" translate(-453.6, -191.35)" d="M 447.6 185.9 C 447.6 188.8 447.40000000000003 191.6 447.1 194.5 C 451.3 195.7 455.70000000000005 196.5 460.1 196.8 C 455.5 193.8 451.1 190.1 447.6 185.9 z" stroke-linecap="round" />
</g>
<g transform="matrix(1 0 0 1 155.62 -215.57)" id="IgBBSTcETJyTvpC0wDMzd"  >
<path style="stroke: none; stroke-width: 1; stroke-dasharray: none; stroke-linecap: butt; stroke-dashoffset: 0; stroke-linejoin: miter; stroke-miterlimit: 4; fill: rgb(148,98,54); fill-rule: nonzero; opacity: 1;" vector-effect="non-scaling-stroke"  transform=" translate(-454.37, -184.75)" d="M 460.6 173.5 C 455.90000000000003 173.4 451.1 173.1 446.40000000000003 172.6 C 447.20000000000005 176.29999999999998 447.50000000000006 180.1 447.6 183.9 C 451.40000000000003 188.9 456.5 193.4 462.1 196.9 C 462.20000000000005 196.9 462.20000000000005 196.9 462.3 196.9 C 462.5 189.1 462 181.2 460.6 173.5 z" stroke-linecap="round" />
</g>
<g transform="matrix(1 0 0 1 129.95 -223.52)" id="U03lPJsiYF5FilM3V5_QC"  >
<path style="stroke: none; stroke-width: 1; stroke-dasharray: none; stroke-linecap: butt; stroke-dashoffset: 0; stroke-linejoin: miter; stroke-miterlimit: 4; fill: rgb(148,98,54); fill-rule: nonzero; opacity: 1;" vector-effect="non-scaling-stroke"  transform=" translate(-428.7, -176.8)" d="M 430.6 170.5 C 430.6 170.3 430.70000000000005 170 430.70000000000005 169.8 C 430.6 169.8 430.40000000000003 169.70000000000002 430.30000000000007 169.70000000000002 C 429.00000000000006 172.10000000000002 427.80000000000007 174.60000000000002 426.70000000000005 177.10000000000002 C 427.6 179.50000000000003 428.6 181.8 429.80000000000007 183.90000000000003 C 429.6 179.5 429.9 174.9 430.6 170.5 z" stroke-linecap="round" />
</g>
<g transform="matrix(1 0 0 1 171.8 -201.67)" id="Y_kPeptfTa5sS1FkyyT5R"  >
<path style="stroke: none; stroke-width: 1; stroke-dasharray: none; stroke-linecap: butt; stroke-dashoffset: 0; stroke-linejoin: miter; stroke-miterlimit: 4; fill: rgb(148,98,54); fill-rule: nonzero; opacity: 1;" vector-effect="non-scaling-stroke"  transform=" translate(-470.55, -198.65)" d="M 476.9 197.1 C 476.9 197 477 196.79999999999998 477 196.7 C 475.4 197.1 473.7 197.39999999999998 472 197.7 C 469.3 198.1 466.7 198.29999999999998 464.1 198.29999999999998 C 465.5 199.1 466.90000000000003 199.89999999999998 468.40000000000003 200.6 C 471.4 199.6 474.2 198.5 476.9 197.1 z" stroke-linecap="round" />
</g>
<g transform="matrix(1 0 0 1 164.6 -264.17)" id="-SsNwHWQtftsRqLJE_5KB"  >
<path style="stroke: none; stroke-width: 1; stroke-dasharray: none; stroke-linecap: butt; stroke-dashoffset: 0; stroke-linejoin: miter; stroke-miterlimit: 4; fill: rgb(148,98,54); fill-rule: nonzero; opacity: 1;" vector-effect="non-scaling-stroke"  transform=" translate(-463.35, -136.15)" d="M 463.8 126.1 C 458.90000000000003 126.8 454 128.5 449.2 130.7 C 455.3 134.79999999999998 460.9 139.5 465.8 144.89999999999998 C 469.7 144.79999999999998 473.7 145.29999999999998 477.5 146.2 C 474.8 138.8 469.8 131.8 463.8 126.1 z" stroke-linecap="round" />
</g>
<g transform="matrix(1 0 0 1 127.6 -228.82)" id="ZnCTBao_4clIJ_bgOLsVd"  >
<path style="stroke: none; stroke-width: 1; stroke-dasharray: none; stroke-linecap: butt; stroke-dashoffset: 0; stroke-linejoin: miter; stroke-miterlimit: 4; fill: rgb(148,98,54); fill-rule: nonzero; opacity: 1;" vector-effect="non-scaling-stroke"  transform=" translate(-426.35, -171.5)" d="M 426.1 175.4 C 426.70000000000005 173.9 427.40000000000003 172.5 428.1 171.1 C 428.40000000000003 170.5 428.70000000000005 169.9 429 169.29999999999998 C 427.2 168.79999999999998 425.5 168.2 423.7 167.6 C 424.4 170.3 425.2 172.9 426.1 175.4 z" stroke-linecap="round" />
</g>
<g transform="matrix(1 0 0 1 174.67 -245.67)" id="8FR-Q6rqIBPy6C-2APg8k"  >
<path style="stroke: none; stroke-width: 1; stroke-dasharray: none; stroke-linecap: butt; stroke-dashoffset: 0; stroke-linejoin: miter; stroke-miterlimit: 4; fill: rgb(148,98,54); fill-rule: nonzero; opacity: 1;" vector-effect="non-scaling-stroke"  transform=" translate(-473.42, -154.65)" d="M 467 146.3 C 471.4 151.3 475.2 156.70000000000002 478.3 162.5 C 478.7 162.7 479 162.9 479.40000000000003 163 C 479.6 162 479.70000000000005 161 479.8 160 C 480 155.9 479.40000000000003 151.8 478.1 147.8 C 474.4 146.9 470.7 146.3 467 146.3 z" stroke-linecap="round" />
</g>
<g transform="matrix(1 0 0 1 142.35 -264.42)" id="hvd6DRcajiMuFiR0pd1LW"  >
<path style="stroke: none; stroke-width: 1; stroke-dasharray: none; stroke-linecap: butt; stroke-dashoffset: 0; stroke-linejoin: miter; stroke-miterlimit: 4; fill: rgb(148,98,54); fill-rule: nonzero; opacity: 1;" vector-effect="non-scaling-stroke"  transform=" translate(-441.1, -135.9)" d="M 441.4 138.6 C 442.29999999999995 136.79999999999998 443.2 135 444.2 133.2 C 442.09999999999997 134.29999999999998 440 135.39999999999998 438 136.6 C 439.2 137.2 440.3 137.9 441.4 138.6 z" stroke-linecap="round" />
</g>
<g transform="matrix(1 0 0 1 193.9 -241.47)" id="4yNd1rYHAQ3FShZ5iUWUV"  >
<path style="stroke: none; stroke-width: 1; stroke-dasharray: none; stroke-linecap: butt; stroke-dashoffset: 0; stroke-linejoin: miter; stroke-miterlimit: 4; fill: rgb(148,98,54); fill-rule: nonzero; opacity: 1;" vector-effect="non-scaling-stroke"  transform=" translate(-492.65, -158.85)" d="M 481.4 148.8 C 481.7 152.8 481.9 156.9 481.9 160.9 C 481.9 162 481.9 163.1 481.9 164.20000000000002 C 484.79999999999995 165.60000000000002 487.7 167.20000000000002 490.4 168.9 C 495.09999999999997 167.4 499.59999999999997 165.3 503.59999999999997 162.4 C 503.7 162.1 503.79999999999995 161.70000000000002 503.9 161.4 C 500.5 158.6 496.79999999999995 156.20000000000002 493.2 154.1 C 489.5 151.9 485.5 150.1 481.4 148.8 z" stroke-linecap="round" />
</g>
<g transform="matrix(1 0 0 1 170.2 -215.72)" id="4jniiJUCfhoZgDnK0L1nR"  >
<path style="stroke: none; stroke-width: 1; stroke-dasharray: none; stroke-linecap: butt; stroke-dashoffset: 0; stroke-linejoin: miter; stroke-miterlimit: 4; fill: rgb(148,98,54); fill-rule: nonzero; opacity: 1;" vector-effect="non-scaling-stroke"  transform=" translate(-468.95, -184.6)" d="M 463.5 196.1 C 464.6 194 465.6 191.9 466.7 189.9 C 469.7 184.6 473.3 179 476.09999999999997 173.1 C 472.9 173.4 469.59999999999997 173.6 466.4 173.6 C 464.9 173.6 463.29999999999995 173.6 461.79999999999995 173.6 C 463.2 180.9 463.6 188.5 463.5 196.1 z" stroke-linecap="round" />
</g>
<g transform="matrix(1 0 0 1 195.95 -216.22)" id="ZZPxFrW78k9j67M6Z844N"  >
<path style="stroke: none; stroke-width: 1; stroke-dasharray: none; stroke-linecap: butt; stroke-dashoffset: 0; stroke-linejoin: miter; stroke-miterlimit: 4; fill: rgb(148,98,54); fill-rule: nonzero; opacity: 1;" vector-effect="non-scaling-stroke"  transform=" translate(-494.7, -184.1)" d="M 500.8 181.3 C 501.2 180.8 501.6 180.3 502 179.9 C 501 178.8 500 177.70000000000002 498.9 176.70000000000002 C 495.79999999999995 182.20000000000002 492 187.10000000000002 487.4 191.3 C 487.4 191.4 487.4 191.5 487.4 191.5 C 492.5 189 497 185.6 500.8 181.3 z" stroke-linecap="round" />
</g>
<g transform="matrix(1 0 0 1 151.5 -238.42)" id="iAjR1QoCnxZkPzoWRiV6Q"  >
<path style="stroke: none; stroke-width: 1; stroke-dasharray: none; stroke-linecap: butt; stroke-dashoffset: 0; stroke-linejoin: miter; stroke-miterlimit: 4; fill: rgb(148,98,54); fill-rule: nonzero; opacity: 1;" vector-effect="non-scaling-stroke"  transform=" translate(-450.25, -161.9)" d="M 460.3 172.2 C 460 170.7 459.7 169.29999999999998 459.3 167.89999999999998 C 458 163.2 456.40000000000003 158.2 454 153.59999999999997 C 451.5 152.79999999999995 449 152.19999999999996 446.5 151.59999999999997 C 444.2 152.99999999999997 442.1 154.59999999999997 440.2 156.49999999999997 C 441.59999999999997 158.89999999999998 442.9 161.49999999999997 443.9 164.09999999999997 C 444.79999999999995 166.49999999999997 445.5 168.89999999999998 446.09999999999997 171.29999999999995 C 450.8 171.8 455.6 172.1 460.3 172.2 z M 456.9 171.3 C 456.7 171.20000000000002 456.59999999999997 171 456.4 170.9 C 456.79999999999995 171.20000000000002 457.2 171.5 457.59999999999997 171.9 C 457.4 171.7 457.1 171.5 456.9 171.3 z" stroke-linecap="round" />
</g>
<g transform="matrix(1 0 0 1 173.6 -215.52)" id="GHa6viEWvcLsc9eK67MFl"  >
<path style="stroke: none; stroke-width: 1; stroke-dasharray: none; stroke-linecap: butt; stroke-dashoffset: 0; stroke-linejoin: miter; stroke-miterlimit: 4; fill: rgb(148,98,54); fill-rule: nonzero; opacity: 1;" vector-effect="non-scaling-stroke"  transform=" translate(-472.35, -184.8)" d="M 477.4 173 C 475 178.2 471.9 183.2 469.2 188 C 467.59999999999997 190.9 466.09999999999997 193.9 464.5 197 C 467.4 197 470.3 196.7 473.2 196.2 C 474.59999999999997 196 475.9 195.7 477.3 195.29999999999998 C 477.40000000000003 194.7 477.5 194.1 477.6 193.6 C 478.90000000000003 186.7 479.8 179.7 480.20000000000005 172.6 C 479.3 172.8 478.3 172.9 477.4 173 z" stroke-linecap="round" />
</g>
<g transform="matrix(1 0 0 1 181.1 -250.02)" id="RYN_MIWqX8Km-NsyJ-1ae"  >
<path style="stroke: none; stroke-width: 1; stroke-dasharray: none; stroke-linecap: butt; stroke-dashoffset: 0; stroke-linejoin: miter; stroke-miterlimit: 4; fill: rgb(148,98,54); fill-rule: nonzero; opacity: 1;" vector-effect="non-scaling-stroke"  transform=" translate(-479.85, -150.3)" d="M 479.3 148.1 C 479.7 149.5 480.1 151 480.40000000000003 152.5 C 480.3 151.1 480.20000000000005 149.7 480.1 148.3 C 479.8 148.3 479.6 148.2 479.3 148.1 z" stroke-linecap="round" />
</g>
<g transform="matrix(1 0 0 1 144.85 -223.27)" id="j4U9dTdK-QDwhEN2MmYB_"  >
<path style="stroke: none; stroke-width: 1; stroke-dasharray: none; stroke-linecap: butt; stroke-dashoffset: 0; stroke-linejoin: miter; stroke-miterlimit: 4; fill: rgb(148,98,54); fill-rule: nonzero; opacity: 1;" vector-effect="non-scaling-stroke"  transform=" translate(-443.6, -177.05)" d="M 445 172.5 C 443.6 172.3 442.3 172.2 440.9 172 C 441.59999999999997 173.9 442.4 175.8 443.4 177.5 C 444.2 179.1 445.2 180.6 446.29999999999995 182.1 C 446.1 178.9 445.7 175.7 445 172.5 z" stroke-linecap="round" />
</g>
<g transform="matrix(1 0 0 1 129.55 -241.37)" id="x_gK-IdZPh96MDdHQ2QSG"  >
<path style="stroke: none; stroke-width: 1; stroke-dasharray: none; stroke-linecap: butt; stroke-dashoffset: 0; stroke-linejoin: miter; stroke-miterlimit: 4; fill: rgb(148,98,54); fill-rule: nonzero; opacity: 1;" vector-effect="non-scaling-stroke"  transform=" translate(-428.3, -158.95)" d="M 423.4 166.1 C 425.5 166.9 427.5 167.6 429.7 168.2 C 430.4 167 431.09999999999997 165.79999999999998 431.8 164.6 C 432.7 160.6 434 156.6 435.40000000000003 152.7 C 435.40000000000003 152.39999999999998 435.3 152.1 435.3 151.7 C 434.8 151 434.2 150.39999999999998 433.6 149.79999999999998 C 430 149.6 426.3 149.7 422.6 150.1 C 422.1 150.79999999999998 421.70000000000005 151.6 421.20000000000005 152.4 C 421.7 156.9 422.4 161.6 423.4 166.1 z" stroke-linecap="round" />
</g>
<g transform="matrix(1 0 0 1 191.6 -220.27)" id="HCOpv_tV76NE45oSkmhuh"  >
<path style="stroke: none; stroke-width: 1; stroke-dasharray: none; stroke-linecap: butt; stroke-dashoffset: 0; stroke-linejoin: miter; stroke-miterlimit: 4; fill: rgb(148,98,54); fill-rule: nonzero; opacity: 1;" vector-effect="non-scaling-stroke"  transform=" translate(-490.35, -180.05)" d="M 490.4 170.3 C 487.9 171.10000000000002 485.29999999999995 171.70000000000002 482.7 172.20000000000002 C 484.9 177.8 486.4 183.70000000000002 487.2 189.8 C 491.5 185.8 495.09999999999997 181.10000000000002 498 175.9 C 495.7 173.9 493.1 172 490.4 170.3 z" stroke-linecap="round" />
</g>
<g transform="matrix(1 0 0 1 139.6 -257.27)" id="EKLAKvEg8_rgLUslflhfg"  >
<path style="stroke: none; stroke-width: 1; stroke-dasharray: none; stroke-linecap: butt; stroke-dashoffset: 0; stroke-linejoin: miter; stroke-miterlimit: 4; fill: rgb(148,98,54); fill-rule: nonzero; opacity: 1;" vector-effect="non-scaling-stroke"  transform=" translate(-438.35, -143.05)" d="M 440.9 139.7 C 439.5 138.89999999999998 438.09999999999997 138.1 436.79999999999995 137.29999999999998 C 436.49999999999994 137.49999999999997 436.19999999999993 137.7 435.79999999999995 137.89999999999998 C 435.79999999999995 140.29999999999998 435.79999999999995 142.7 435.99999999999994 145.09999999999997 C 436.09999999999997 146.29999999999995 436.19999999999993 147.49999999999997 436.29999999999995 148.69999999999996 C 436.49999999999994 148.69999999999996 436.69999999999993 148.69999999999996 436.9 148.79999999999995 C 438.1 145.7 439.4 142.7 440.9 139.7 z" stroke-linecap="round" />
</g>
<g transform="matrix(1 0 0 1 181.5 -234.57)" id="kR-iuKydMOKXCgBDygM0F"  >
<path style="stroke: none; stroke-width: 1; stroke-dasharray: none; stroke-linecap: butt; stroke-dashoffset: 0; stroke-linejoin: miter; stroke-miterlimit: 4; fill: rgb(148,98,54); fill-rule: nonzero; opacity: 1;" vector-effect="non-scaling-stroke"  transform=" translate(-480.25, -165.75)" d="M 480.6 164.8 C 480.5 164.70000000000002 480.40000000000003 164.70000000000002 480.20000000000005 164.60000000000002 C 480.1 165.00000000000003 480.00000000000006 165.3 479.90000000000003 165.70000000000002 C 480.1 166.10000000000002 480.3 166.50000000000003 480.50000000000006 166.9 C 480.6 166.3 480.6 165.6 480.6 164.8 z" stroke-linecap="round" />
</g>
<g transform="matrix(1 0 0 1 181.85 -237.27)" id="xeLhls6m1L3OU24eO79I1"  >
<path style="stroke: none; stroke-width: 1; stroke-dasharray: none; stroke-linecap: butt; stroke-dashoffset: 0; stroke-linejoin: miter; stroke-miterlimit: 4; fill: rgb(148,98,54); fill-rule: nonzero; opacity: 1;" vector-effect="non-scaling-stroke"  transform=" translate(-480.6, -163.05)" d="M 480.5 163.5 C 480.6 163.5 480.6 163.6 480.7 163.6 C 480.7 163.2 480.7 162.9 480.7 162.5 C 480.6 162.9 480.5 163.2 480.5 163.5 z" stroke-linecap="round" />
</g>
<g transform="matrix(1 0 0 1 180.4 -230.72)" id="HfYN967yLj2pVl_BJgZJc"  >
<path style="stroke: none; stroke-width: 1; stroke-dasharray: none; stroke-linecap: butt; stroke-dashoffset: 0; stroke-linejoin: miter; stroke-miterlimit: 4; fill: rgb(148,98,54); fill-rule: nonzero; opacity: 1;" vector-effect="non-scaling-stroke"  transform=" translate(-479.15, -169.6)" d="M 480.3 171.3 C 480.3 170.8 480.40000000000003 170.3 480.40000000000003 169.8 C 480.1 169.10000000000002 479.8 168.3 479.40000000000003 167.60000000000002 C 479.00000000000006 169.00000000000003 478.50000000000006 170.3 477.90000000000003 171.60000000000002 C 478.7 171.5 479.5 171.4 480.3 171.3 z" stroke-linecap="round" />
</g>
<g transform="matrix(1 0 0 1 186.65 -232.12)" id="juiI827KV4l8DMw4znKyR"  >
<path style="stroke: none; stroke-width: 1; stroke-dasharray: none; stroke-linecap: butt; stroke-dashoffset: 0; stroke-linejoin: miter; stroke-miterlimit: 4; fill: rgb(148,98,54); fill-rule: nonzero; opacity: 1;" vector-effect="non-scaling-stroke"  transform=" translate(-485.4, -168.2)" d="M 489 169.4 C 486.7 168 484.3 166.70000000000002 481.9 165.5 C 481.9 166.9 481.79999999999995 168.3 481.79999999999995 169.7 C 481.99999999999994 170.1 482.19999999999993 170.5 482.29999999999995 170.89999999999998 C 484.5 170.6 486.8 170 489 169.4 z" stroke-linecap="round" />
</g>
<g transform="matrix(1 0 0 1 132.25 -231.82)" id="yDDRFy6dzEond3KcYhd9d"  >
<path style="stroke: none; stroke-width: 1; stroke-dasharray: none; stroke-linecap: butt; stroke-dashoffset: 0; stroke-linejoin: miter; stroke-miterlimit: 4; fill: rgb(148,98,54); fill-rule: nonzero; opacity: 1;" vector-effect="non-scaling-stroke"  transform=" translate(-431, -168.5)" d="M 431 168.5 L 431 168.5 L 431 168.5 L 431 168.5 z" stroke-linecap="round" />
</g>
<g transform="matrix(1 0 0 1 136.85 -234.97)" id="spr6kK1ItnU95_SC4dsQJ"  >
<path style="stroke: none; stroke-width: 1; stroke-dasharray: none; stroke-linecap: butt; stroke-dashoffset: 0; stroke-linejoin: miter; stroke-miterlimit: 4; fill: rgb(148,98,54); fill-rule: nonzero; opacity: 1;" vector-effect="non-scaling-stroke"  transform=" translate(-435.6, -165.35)" d="M 436.5 160.4 C 435.3 161.9 434.1 163.5 433 165.1 C 433 165.29999999999998 432.9 165.4 432.9 165.6 C 432.59999999999997 166.7 432.4 167.79999999999998 432.2 168.9 C 434.4 169.5 436.7 169.9 439 170.3 C 437.9 167.1 437.1 163.8 436.5 160.4 z" stroke-linecap="round" />
</g>
<g transform="matrix(1 0 0 1 142.35 -236.07)" id="WWVupw2frOqoetPBPJrrh"  >
<path style="stroke: none; stroke-width: 1; stroke-dasharray: none; stroke-linecap: butt; stroke-dashoffset: 0; stroke-linejoin: miter; stroke-miterlimit: 4; fill: rgb(148,98,54); fill-rule: nonzero; opacity: 1;" vector-effect="non-scaling-stroke"  transform=" translate(-441.1, -164.25)" d="M 439.2 157.4 C 438.59999999999997 158 438.09999999999997 158.5 437.59999999999997 159.1 C 438.29999999999995 163 439.2 166.79999999999998 440.4 170.5 C 441.79999999999995 170.7 443.2 170.9 444.59999999999997 171.1 C 444.29999999999995 169.79999999999998 443.9 168.5 443.49999999999994 167.2 C 442.5 163.8 441 160.5 439.2 157.4 z" stroke-linecap="round" />
</g>
<g transform="matrix(1 0 0 1 -106.55 -280.67)" id="4PvC6yVJmYdXIk6aLPOT-"  >
<path style="stroke: none; stroke-width: 1; stroke-dasharray: none; stroke-linecap: butt; stroke-dashoffset: 0; stroke-linejoin: miter; stroke-miterlimit: 4; fill: rgb(148,98,54); fill-rule: nonzero; opacity: 1;" vector-effect="non-scaling-stroke"  transform=" translate(-192.2, -119.65)" d="M 191.1 102.4 C 180 115.2 175.4 132.20000000000002 174.79999999999998 148.8 C 174.7 150.4 177.2 150.4 177.29999999999998 148.8 C 177.89999999999998 132.3 182.49999999999997 115.30000000000001 193.89999999999998 103.00000000000001 C 198.2 98.30000000000001 203.7 94.50000000000001 209.59999999999997 91.90000000000002 C 209.49999999999997 91.00000000000001 209.39999999999998 90.20000000000002 209.39999999999998 89.30000000000003 C 202.4 92.2 196.1 96.7 191.1 102.4 z" stroke-linecap="round" />
</g>
<g transform="matrix(1 0 0 1 -84.75 -311.22)" id="Pgs-vSYm2LmVNIyIjlD6I"  >
<path style="stroke: none; stroke-width: 1; stroke-dasharray: none; stroke-linecap: butt; stroke-dashoffset: 0; stroke-linejoin: miter; stroke-miterlimit: 4; fill: rgb(148,98,54); fill-rule: nonzero; opacity: 1;" vector-effect="non-scaling-stroke"  transform=" translate(-214, -89.1)" d="M 211.8 88.4 C 211.9 89.30000000000001 212 90.10000000000001 212 91 C 213.4 90.5 214.8 90 216.2 89.7 C 216.2 88.9 216.1 88 216 87.2 C 214.6 87.4 213.2 87.9 211.8 88.4 z" stroke-linecap="round" />
</g>
<g transform="matrix(1 0 0 1 120.6 -240.27)" id="gMkgeaUy9-H_csSRVAI39"  >
<path style="stroke: none; stroke-width: 1; stroke-dasharray: none; stroke-linecap: butt; stroke-dashoffset: 0; stroke-linejoin: miter; stroke-miterlimit: 4; fill: rgb(148,98,54); fill-rule: nonzero; opacity: 1;" vector-effect="non-scaling-stroke"  transform=" translate(-419.35, -160.05)" d="M 421.9 165.5 C 421.09999999999997 161.9 420.59999999999997 158.2 420.2 154.6 C 418.9 157.29999999999998 417.7 160.2 416.8 163.1 C 418.4 163.9 420.1 164.7 421.9 165.5 z" stroke-linecap="round" />
</g>
<g transform="matrix(1 0 0 1 165.58 -234.59)" id="ih6AK7T7ZQJ0ReS4Z3H67"  >
<path style="stroke: none; stroke-width: 1; stroke-dasharray: none; stroke-linecap: butt; stroke-dashoffset: 0; stroke-linejoin: miter; stroke-miterlimit: 4; fill: rgb(124,80,46); fill-rule: nonzero; opacity: 1;" vector-effect="non-scaling-stroke"  transform=" translate(-464.33, -165.72)" d="M 519.2 178.1 C 517.4000000000001 174.1 514.9000000000001 170.5 511.90000000000003 167.1 C 513.9000000000001 163.29999999999998 515.8000000000001 159.4 517.7 155.6 C 518 154.9 517 154.2 516.6 155 C 514.8000000000001 158.7 513 162.5 511 166.2 C 509.8 164.89999999999998 508.5 163.6 507.1 162.39999999999998 C 507.1 161.99999999999997 507.1 161.59999999999997 507 161.2 C 510 158.5 512.6 155.39999999999998 514.7 151.6 C 515.1 150.9 514 150.29999999999998 513.6 151 C 511.70000000000005 154.3 509.5 157.2 506.90000000000003 159.6 C 506.8 158.79999999999998 506.70000000000005 158.1 506.6 157.29999999999998 C 506.5 156.7 506.40000000000003 155.99999999999997 506.3 155.39999999999998 C 507.2 150.39999999999998 507.5 145.29999999999998 507.1 140.29999999999998 C 509.1 141.7 511.20000000000005 143.1 513.2 144.49999999999997 C 513.6 144.69999999999996 514.1 144.39999999999998 514.2 143.99999999999997 C 514.3000000000001 143.79999999999998 514.2 143.49999999999997 513.9000000000001 143.39999999999998 C 513.9000000000001 143.39999999999998 513.9000000000001 143.39999999999998 513.8000000000001 143.29999999999998 C 511.50000000000006 141.7 509.30000000000007 140.2 507.00000000000006 138.6 C 506.80000000000007 136.6 506.6000000000001 134.7 506.20000000000005 132.79999999999998 C 506.00000000000006 131.99999999999997 504.80000000000007 132.29999999999998 505.00000000000006 133.1 C 505.30000000000007 134.6 505.50000000000006 136.2 505.70000000000005 137.7 C 502.80000000000007 135.79999999999998 499.80000000000007 134 496.80000000000007 132.29999999999998 C 496.70000000000005 132.1 496.50000000000006 131.79999999999998 496.4000000000001 131.6 C 491.9000000000001 124.3 486.9000000000001 117.1 479.7000000000001 112.19999999999999 C 479.6000000000001 112.1 479.5000000000001 112.1 479.4000000000001 111.99999999999999 C 479.2000000000001 111.89999999999999 479.1000000000001 111.89999999999999 479.0000000000001 111.89999999999999 C 478.5000000000001 111.99999999999999 478.3000000000001 112.69999999999999 478.8000000000001 113.1 C 485.60000000000014 117.6 490.40000000000015 124.3 494.7000000000001 131.2 C 489.7000000000001 128.6 484.5000000000001 126.49999999999999 478.9000000000001 125.19999999999999 C 478.5000000000001 125.1 478.1000000000001 124.99999999999999 477.7000000000001 124.99999999999999 C 476.2000000000001 118.99999999999999 473.9000000000001 113.19999999999999 468.2000000000001 109.99999999999999 C 467.5000000000001 109.59999999999998 466.9000000000001 110.69999999999999 467.6000000000001 111.09999999999998 C 472.7000000000001 113.99999999999999 475.1000000000001 119.19999999999997 476.50000000000006 124.69999999999997 C 472.20000000000005 123.99999999999997 468.00000000000006 123.99999999999997 464.00000000000006 124.59999999999998 C 461.1000000000001 121.89999999999998 458.00000000000006 119.59999999999998 454.70000000000005 117.59999999999998 C 456.20000000000005 115.19999999999997 457.80000000000007 112.89999999999998 459.40000000000003 110.59999999999998 C 459.8 109.89999999999998 458.70000000000005 109.29999999999998 458.3 109.89999999999998 C 456.7 112.19999999999997 455.2 114.59999999999998 453.6 116.89999999999998 C 450.90000000000003 115.29999999999998 448 113.99999999999997 445.20000000000005 113.09999999999998 C 444.40000000000003 112.79999999999998 444.1 113.99999999999999 444.90000000000003 114.29999999999998 C 447.6 115.19999999999999 450.3 116.49999999999999 453.00000000000006 117.99999999999999 C 450.70000000000005 121.49999999999999 448.50000000000006 125.19999999999999 446.40000000000003 128.89999999999998 C 443.6 127.19999999999997 440.6 125.59999999999998 437.6 124.19999999999997 C 438.70000000000005 120.39999999999998 440.5 116.79999999999997 443 113.59999999999998 C 443.3 113.29999999999998 443.2 112.79999999999998 442.9 112.59999999999998 C 442.7 112.39999999999998 442.4 112.39999999999998 442.2 112.69999999999997 C 442.09999999999997 112.79999999999997 442.09999999999997 112.89999999999998 442 112.99999999999997 C 439.5 116.29999999999997 437.7 119.89999999999998 436.5 123.79999999999997 C 434 122.69999999999997 431.5 121.69999999999997 428.9 120.79999999999997 C 428.09999999999997 120.69999999999997 427.79999999999995 121.89999999999996 428.59999999999997 122.09999999999997 C 431.2 122.99999999999997 433.7 123.99999999999997 436.09999999999997 125.09999999999997 C 435.2 128.29999999999995 434.79999999999995 131.49999999999997 434.49999999999994 134.79999999999995 C 432.99999999999994 133.99999999999994 431.49999999999994 133.19999999999996 429.99999999999994 132.49999999999994 C 426.3999999999999 130.69999999999993 423.09999999999997 129.09999999999994 419.19999999999993 129.99999999999994 C 419.0999999999999 129.99999999999994 419.0999999999999 129.99999999999994 418.99999999999994 129.99999999999994 C 418.59999999999997 130.09999999999994 418.49999999999994 130.39999999999995 418.49999999999994 130.69999999999993 C 418.59999999999997 130.99999999999994 418.79999999999995 131.29999999999993 419.29999999999995 131.19999999999993 C 424.4 129.99999999999994 429.9 133.49999999999994 434.4 136.19999999999993 C 434.4 136.59999999999994 434.4 136.89999999999992 434.4 137.29999999999993 C 431.79999999999995 138.99999999999991 429.5 140.79999999999993 427.29999999999995 142.79999999999993 C 425.19999999999993 141.39999999999992 422.99999999999994 140.19999999999993 420.59999999999997 139.19999999999993 C 420.59999999999997 136.69999999999993 420.79999999999995 134.29999999999993 420.9 131.99999999999994 C 421 131.19999999999993 419.7 131.19999999999993 419.59999999999997 131.99999999999994 C 419.4 134.09999999999994 419.29999999999995 136.29999999999995 419.29999999999995 138.59999999999994 C 418.59999999999997 138.29999999999993 417.9 138.09999999999994 417.09999999999997 137.89999999999995 C 416.29999999999995 137.79999999999995 415.9 138.99999999999994 416.7 139.19999999999996 C 417.59999999999997 139.49999999999997 418.4 139.69999999999996 419.2 140.09999999999997 C 419.2 143.09999999999997 419.2 146.09999999999997 419.4 149.29999999999995 C 416.4 149.79999999999995 413.4 150.49999999999994 410.4 151.59999999999997 C 409.59999999999997 151.89999999999998 409.9 153.09999999999997 410.7 152.79999999999995 C 413.59999999999997 151.79999999999995 416.5 151.09999999999997 419.5 150.59999999999997 C 419.5 151.19999999999996 419.6 151.79999999999995 419.7 152.49999999999997 C 419.3 153.19999999999996 419 153.79999999999998 418.7 154.49999999999997 C 417.5 157.09999999999997 416.4 159.79999999999998 415.5 162.59999999999997 C 413.7 161.59999999999997 412 160.59999999999997 410.3 159.39999999999998 C 409.7 158.99999999999997 409.1 160.09999999999997 409.7 160.49999999999997 C 411.4 161.69999999999996 413.3 162.79999999999998 415.09999999999997 163.79999999999998 C 413.99999999999994 167.49999999999997 413.2 171.2 412.9 174.99999999999997 L 412.9 174.99999999999997 C 412.29999999999995 174.49999999999997 411.4 175.39999999999998 412 175.89999999999998 C 412.3 176.09999999999997 412.6 176.39999999999998 412.8 176.59999999999997 C 412.6 180.99999999999997 413.1 185.29999999999995 414.5 189.59999999999997 C 414.7 190.39999999999998 416 189.99999999999997 415.7 189.29999999999995 C 414.5 185.49999999999994 414 181.59999999999997 414 177.59999999999997 C 416.8 179.89999999999998 419.7 182.19999999999996 422.8 184.19999999999996 C 421 191.29999999999995 421.1 198.49999999999997 425 205.59999999999997 C 425.1 205.79999999999995 425.2 205.99999999999997 425.3 206.19999999999996 C 425.5 206.49999999999997 425.8 206.59999999999997 426 206.49999999999997 C 426.3 206.39999999999998 426.6 205.99999999999997 426.4 205.59999999999997 C 422.4 198.89999999999998 422.2 191.79999999999995 423.79999999999995 184.89999999999998 C 425.79999999999995 186.2 427.79999999999995 187.49999999999997 429.9 188.59999999999997 C 431.2 198.29999999999995 434.9 207.49999999999997 441.79999999999995 214.59999999999997 C 441.69999999999993 214.79999999999995 441.69999999999993 215.09999999999997 441.59999999999997 215.29999999999995 C 441.59999999999997 215.39999999999995 441.49999999999994 215.49999999999994 441.49999999999994 215.59999999999997 C 441.29999999999995 216.39999999999998 442.49999999999994 216.69999999999996 442.69999999999993 215.89999999999998 C 442.69999999999993 215.79999999999998 442.69999999999993 215.79999999999998 442.69999999999993 215.7 L 442.69999999999993 215.6 C 442.79999999999995 215.7 442.8999999999999 215.79999999999998 442.99999999999994 215.9 C 443.59999999999997 216.5 444.29999999999995 217.1 444.8999999999999 217.6 C 445.3999999999999 218 445.99999999999994 217.5 445.99999999999994 217.1 C 445.99999999999994 217 445.8999999999999 216.9 445.79999999999995 216.7 C 444.79999999999995 215.89999999999998 443.9 215 442.99999999999994 214.2 C 443.99999999999994 209.89999999999998 444.99999999999994 205.5 445.69999999999993 201.1 C 449.69999999999993 202.6 454.19999999999993 203.29999999999998 459.19999999999993 203 C 456.19999999999993 208.4 452.99999999999994 213.7 448.8999999999999 218.1 L 448.8999999999999 218.1 C 448.3999999999999 218.79999999999998 449.2999999999999 219.7 449.7999999999999 219.1 C 449.9999999999999 218.9 450.0999999999999 218.7 450.2999999999999 218.5 C 454.4999999999999 213.9 457.8999999999999 208.5 460.8999999999999 202.9 C 461.0999999999999 202.9 461.2999999999999 202.9 461.49999999999994 202.8 C 461.09999999999997 208.60000000000002 460.3999999999999 214.4 459.59999999999997 220.10000000000002 C 459.59999999999997 220.3 459.59999999999997 220.50000000000003 459.7 220.70000000000002 C 459.9 221.10000000000002 460.5 221.20000000000002 460.7 220.8 C 460.7 220.70000000000002 460.8 220.70000000000002 460.8 220.60000000000002 C 461.6 214.70000000000002 462.40000000000003 208.70000000000002 462.8 202.70000000000002 C 463 202.70000000000002 463.2 202.70000000000002 463.3 202.60000000000002 C 465 202.3 466.6 202.00000000000003 468.3 201.50000000000003 C 468.7 201.70000000000002 469.1 201.90000000000003 469.40000000000003 202.10000000000002 C 471.20000000000005 202.90000000000003 473.1 203.70000000000002 475.00000000000006 204.3 C 473.6000000000001 210.20000000000002 471.6000000000001 216.10000000000002 468.30000000000007 220.8 C 468.20000000000005 221 468.20000000000005 221.10000000000002 468.20000000000005 221.3 C 468.30000000000007 221.8 469.1 222 469.40000000000003 221.5 C 469.50000000000006 221.4 469.50000000000006 221.3 469.6 221.3 C 472.8 216.5 474.8 210.60000000000002 476.20000000000005 204.70000000000002 C 479.40000000000003 205.60000000000002 482.80000000000007 206.20000000000002 486.1 206.3 C 485.8 209.4 485.40000000000003 212.5 484.70000000000005 215.70000000000002 C 484.50000000000006 216.50000000000003 485.70000000000005 216.8 485.90000000000003 216.00000000000003 C 486.6 212.80000000000004 487.00000000000006 209.50000000000003 487.3 206.30000000000004 C 489.90000000000003 206.30000000000004 492.5 206.00000000000003 495.1 205.40000000000003 C 494 207.80000000000004 492.8 210.20000000000005 491.6 212.60000000000002 C 491.20000000000005 213.20000000000002 492.3 213.8 492.6 213.10000000000002 C 493.90000000000003 210.50000000000003 495.3 207.8 496.5 205.10000000000002 C 498.6 204.50000000000003 500.6 203.70000000000002 502.6 202.60000000000002 C 503.3 202.20000000000002 502.70000000000005 201.10000000000002 502 201.50000000000003 C 500.5 202.30000000000004 498.9 203.00000000000003 497.3 203.50000000000003 C 500.2 197.10000000000002 502.7 190.50000000000003 504.5 183.70000000000002 C 506.6 187.10000000000002 508 190.9 508.3 195.10000000000002 C 508.40000000000003 195.90000000000003 509.6 195.90000000000003 509.5 195.10000000000002 C 509.1 190.20000000000002 507.4 185.90000000000003 504.8 182.10000000000002 C 505.3 180.20000000000002 505.7 178.20000000000002 506 176.20000000000002 C 507.7 173.70000000000002 509.3 171.10000000000002 510.8 168.4 C 513.6 171.6 516.1 175.20000000000002 517.8 179.1 C 518 179.29999999999998 518.3 179.29999999999998 518.5999999999999 179.2 C 518.8999999999999 179 519.0999999999999 178.7 518.8999999999999 178.29999999999998 C 519.3 178.2 519.2 178.2 519.2 178.1 z M 505.3 175.6 C 504.5 176.79999999999998 503.6 177.9 502.7 179 C 501.7 177.8 500.59999999999997 176.7 499.4 175.7 C 501.5 171.79999999999998 503.2 167.6 504.5 163.39999999999998 C 504.8 163.2 505 162.99999999999997 505.3 162.79999999999998 C 505.5 162.99999999999997 505.8 163.2 506 163.39999999999998 C 506.2 167.4 506 171.5 505.3 175.6 z M 434.4 190.8 C 438.09999999999997 192.60000000000002 441.9 194.20000000000002 445.79999999999995 195.4 C 445.69999999999993 196.8 445.49999999999994 198.1 445.29999999999995 199.5 C 441 197.5 437.4 194.5 434.4 190.8 z M 432.7 188.6 C 432.2 187.9 431.8 187.2 431.3 186.5 C 430.8 181.1 431.1 175.5 432 170.1 C 434.5 170.7 437 171.2 439.5 171.7 C 440.5 174.39999999999998 441.7 177.1 443.1 179.6 C 444.1 181.2 445.1 182.79999999999998 446.3 184.29999999999998 C 446.40000000000003 187.6 446.2 190.79999999999998 445.90000000000003 194.1 C 441.4 192.7 436.9 190.8 432.7 188.6 z M 427.5 144.4 C 429 145.5 430.5 146.70000000000002 431.9 148 L 432 148.1 C 432.1 148.2 432.2 148.29999999999998 432.4 148.5 C 432.2 148.5 432.09999999999997 148.5 431.9 148.5 C 431.9 148.5 431.9 148.5 431.79999999999995 148.5 C 429.09999999999997 148.4 426.4 148.5 423.69999999999993 148.8 C 424.8 147.1 426.1 145.7 427.5 144.4 z M 433.6 149.8 C 434.20000000000005 150.4 434.70000000000005 151.10000000000002 435.3 151.70000000000002 C 435.3 152.00000000000003 435.40000000000003 152.3 435.40000000000003 152.70000000000002 C 434.00000000000006 156.60000000000002 432.8 160.60000000000002 431.8 164.60000000000002 C 431 165.8 430.3 166.90000000000003 429.7 168.20000000000002 C 427.59999999999997 167.60000000000002 425.5 166.9 423.4 166.10000000000002 C 422.4 161.60000000000002 421.7 156.90000000000003 421.29999999999995 152.40000000000003 C 421.69999999999993 151.60000000000002 422.19999999999993 150.90000000000003 422.69999999999993 150.10000000000002 C 426.3 149.7 430 149.6 433.6 149.8 z M 436 145.1 C 435.8 142.7 435.7 140.29999999999998 435.8 137.9 C 436.1 137.70000000000002 436.40000000000003 137.5 436.8 137.3 C 438.2 138.10000000000002 439.6 138.8 440.90000000000003 139.70000000000002 C 439.50000000000006 142.70000000000002 438.1 145.70000000000002 436.90000000000003 148.8 C 436.70000000000005 148.8 436.50000000000006 148.8 436.3 148.70000000000002 C 436.2 147.5 436.1 146.3 436 145.1 z M 503.9 161.4 C 503.79999999999995 161.70000000000002 503.7 162.1 503.59999999999997 162.4 C 499.7 165.3 495.2 167.4 490.4 168.9 C 487.59999999999997 167.20000000000002 484.7 165.6 481.9 164.20000000000002 C 481.9 163.10000000000002 481.9 162.00000000000003 481.9 160.9 C 481.9 156.8 481.7 152.8 481.4 148.8 C 485.5 150.10000000000002 489.5 152 493.2 154.10000000000002 C 496.8 156.2 500.5 158.6 503.9 161.4 z M 487.3 189.8 C 486.5 183.8 484.90000000000003 177.9 482.8 172.20000000000002 C 485.40000000000003 171.70000000000002 488 171.10000000000002 490.5 170.3 C 493.2 172 495.8 173.9 498.1 175.9 C 495.2 181.1 491.5 185.8 487.3 189.8 z M 477.6 193.6 C 477.5 194.2 477.40000000000003 194.79999999999998 477.3 195.29999999999998 C 476 195.6 474.6 195.89999999999998 473.2 196.2 C 470.3 196.7 467.4 196.89999999999998 464.5 197 C 466.1 194 467.6 190.9 469.2 188 C 471.9 183.2 475 178.2 477.4 173 C 478.4 172.9 479.29999999999995 172.8 480.29999999999995 172.6 C 479.8 179.7 478.9 186.7 477.6 193.6 z M 461.8 173.6 C 463.3 173.6 464.90000000000003 173.6 466.40000000000003 173.6 C 469.6 173.6 472.8 173.5 476.1 173.1 C 473.40000000000003 179 469.70000000000005 184.6 466.70000000000005 189.9 C 465.6 191.9 464.50000000000006 194 463.50000000000006 196.1 C 463.6 188.5 463.2 180.9 461.8 173.6 z M 446.1 171.3 C 445.5 168.9 444.8 166.5 443.90000000000003 164.10000000000002 C 442.90000000000003 161.50000000000003 441.6 158.90000000000003 440.20000000000005 156.50000000000003 C 442.1 154.70000000000002 444.30000000000007 153.00000000000003 446.50000000000006 151.60000000000002 C 449.00000000000006 152.20000000000002 451.50000000000006 152.8 454.00000000000006 153.60000000000002 C 456.40000000000003 158.20000000000002 458.1000000000001 163.20000000000002 459.30000000000007 167.90000000000003 C 459.70000000000005 169.30000000000004 460.00000000000006 170.80000000000004 460.30000000000007 172.20000000000005 C 455.6 172.1 450.8 171.8 446.1 171.3 z M 443.4 177.5 C 442.5 175.7 441.7 173.9 440.9 172 C 442.2 172.2 443.59999999999997 172.4 445 172.5 C 445.7 175.7 446.1 178.9 446.3 182.1 C 445.2 180.6 444.2 179.1 443.4 177.5 z M 440.4 170.5 C 439.09999999999997 166.8 438.2 163 437.59999999999997 159.1 C 438.09999999999997 158.5 438.7 157.9 439.2 157.4 C 441 160.5 442.5 163.8 443.59999999999997 167.20000000000002 C 443.99999999999994 168.50000000000003 444.4 169.8 444.7 171.10000000000002 C 443.3 171 441.9 170.7 440.4 170.5 z M 431 168.5 L 431 168.5 L 431 168.5 L 431 168.5 z M 432.2 168.9 C 432.4 167.8 432.59999999999997 166.70000000000002 432.9 165.6 C 432.9 165.4 433 165.29999999999998 433 165.1 C 434.1 163.5 435.2 161.9 436.5 160.4 C 437.1 163.8 437.9 167.1 439 170.3 C 436.7 169.9 434.5 169.4 432.2 168.9 z M 482.3 171 C 482.1 170.6 481.90000000000003 170.2 481.8 169.8 C 481.90000000000003 168.4 481.90000000000003 167 481.90000000000003 165.60000000000002 C 484.3 166.8 486.70000000000005 168.10000000000002 489.00000000000006 169.50000000000003 C 486.8 170 484.5 170.6 482.3 171 z M 480.2 164.7 C 480.3 164.79999999999998 480.4 164.79999999999998 480.59999999999997 164.89999999999998 C 480.59999999999997 165.59999999999997 480.59999999999997 166.29999999999998 480.49999999999994 166.99999999999997 C 480.29999999999995 166.59999999999997 480.09999999999997 166.19999999999996 479.8999999999999 165.79999999999998 C 480 165.4 480.1 165 480.2 164.7 z M 480.5 163.5 C 480.6 163.2 480.6 162.8 480.7 162.5 C 480.7 162.9 480.7 163.2 480.7 163.6 C 480.6 163.6 480.5 163.5 480.5 163.5 z M 480.4 169.7 C 480.4 170.2 480.4 170.7 480.29999999999995 171.2 C 479.49999999999994 171.29999999999998 478.69999999999993 171.39999999999998 477.9 171.5 C 478.5 170.2 479 168.8 479.4 167.5 C 479.8 168.3 480.1 169 480.4 169.7 z M 480.4 152.5 C 480.09999999999997 151 479.79999999999995 149.6 479.29999999999995 148.1 C 479.59999999999997 148.2 479.79999999999995 148.2 480.09999999999997 148.29999999999998 C 480.2 149.7 480.3 151.1 480.4 152.5 z M 479.7 160 C 479.59999999999997 161 479.5 162 479.3 163 C 478.90000000000003 162.8 478.6 162.6 478.2 162.5 C 475.09999999999997 156.7 471.3 151.3 466.9 146.3 C 470.59999999999997 146.4 474.29999999999995 146.9 477.9 147.8 C 479.3 151.8 479.9 155.9 479.7 160 z M 476.4 161.5 C 474.4 160.6 472.5 159.7 470.7 158.9 C 465.5 156.4 460.09999999999997 154.3 454.59999999999997 152.5 C 453.9 151.2 453.09999999999997 149.9 452.29999999999995 148.7 C 454.09999999999997 148 455.9 147.39999999999998 457.9 147 C 460.4 146.5 462.79999999999995 146.2 465.29999999999995 146.2 C 469.5 151 473.3 156.1 476.4 161.5 z M 448.1 150.7 C 449.1 150.1 450.20000000000005 149.6 451.3 149.1 C 452 150 452.6 151 453.1 152 C 451.5 151.6 449.8 151.1 448.1 150.7 z M 446.1 150.2 C 443.5 149.6 440.90000000000003 149.2 438.20000000000005 148.89999999999998 C 439.40000000000003 145.99999999999997 440.6 143.2 442.00000000000006 140.39999999999998 C 443.90000000000003 141.59999999999997 445.70000000000005 142.89999999999998 447.30000000000007 144.39999999999998 C 448.4000000000001 145.49999999999997 449.50000000000006 146.7 450.50000000000006 147.99999999999997 C 449 148.7 447.5 149.4 446.1 150.2 z M 437.1 151.9 C 437.3 151.3 437.6 150.70000000000002 437.8 150.1 C 440.1 150.4 442.40000000000003 150.7 444.6 151.2 C 442.8 152.39999999999998 441.1 153.79999999999998 439.5 155.29999999999998 C 438.7 154.1 437.9 153 437.1 151.9 z M 438.5 156.2 C 438.1 156.6 437.7 157 437.3 157.39999999999998 C 437.1 156.09999999999997 436.90000000000003 154.89999999999998 436.8 153.59999999999997 C 437.4 154.5 438 155.4 438.5 156.2 z M 436.2 158.7 C 435.4 159.6 434.7 160.6 433.9 161.5 C 434.4 159.5 435.09999999999997 157.6 435.7 155.6 C 435.9 156.7 436 157.7 436.2 158.7 z M 458.5 161.4 C 457.6 158.9 456.6 156.5 455.4 154.1 C 459.79999999999995 155.5 464.2 157.29999999999998 468.4 159.2 C 471.09999999999997 160.39999999999998 474.2 161.79999999999998 477.29999999999995 163.2 C 477.79999999999995 164.1 478.29999999999995 165 478.69999999999993 166 C 478.19999999999993 167.9 477.49999999999994 169.9 476.69999999999993 171.7 C 471.99999999999994 172.2 467.19999999999993 172.29999999999998 462.5999999999999 172.2 C 462.2999999999999 172.2 461.8999999999999 172.2 461.5999999999999 172.2 C 460.8 168.6 459.8 165 458.5 161.4 z M 491.8 169.8 C 495.8 168.4 499.5 166.70000000000002 503 164.4 C 501.8 168 500.4 171.5 498.6 174.9 C 496.5 173 494.2 171.4 491.8 169.8 z M 465.7 144.9 C 460.8 139.5 455.2 134.8 449.09999999999997 130.70000000000002 C 453.99999999999994 128.50000000000003 458.79999999999995 126.90000000000002 463.7 126.10000000000002 C 469.7 131.8 474.7 138.70000000000002 477.4 146.20000000000002 C 473.6 145.3 469.7 144.9 465.7 144.9 z M 464.1 145 C 460.90000000000003 145.2 457.6 145.7 454.40000000000003 146.6 C 453.40000000000003 146.9 452.40000000000003 147.2 451.50000000000006 147.6 C 449.50000000000006 144.9 447.20000000000005 142.5 444.30000000000007 140.5 C 443.70000000000005 140.1 443.1000000000001 139.7 442.50000000000006 139.3 C 443.70000000000005 136.9 444.90000000000003 134.5 446.20000000000005 132.10000000000002 L 446.20000000000005 132.10000000000002 C 446.70000000000005 131.8 447.20000000000005 131.60000000000002 447.70000000000005 131.40000000000003 C 453.8 135.3 459.2 139.8 464.1 145 z M 444.2 133.2 C 443.2 135 442.3 136.79999999999998 441.4 138.6 C 440.29999999999995 137.9 439.09999999999997 137.2 438 136.6 C 440 135.4 442.1 134.3 444.2 133.2 z M 429 169.3 C 428.7 169.9 428.4 170.5 428.1 171.10000000000002 C 427.40000000000003 172.50000000000003 426.70000000000005 174.00000000000003 426.1 175.40000000000003 C 425.20000000000005 172.90000000000003 424.40000000000003 170.20000000000005 423.8 167.60000000000002 C 425.5 168.2 427.2 168.8 429 169.3 z M 430.3 169.7 C 430.40000000000003 169.7 430.6 169.79999999999998 430.7 169.79999999999998 C 430.7 169.99999999999997 430.59999999999997 170.29999999999998 430.59999999999997 170.49999999999997 C 429.9 174.89999999999998 429.59999999999997 179.49999999999997 429.79999999999995 183.89999999999998 C 428.59999999999997 181.7 427.59999999999997 179.49999999999997 426.69999999999993 177.09999999999997 C 427.8 174.6 429 172.1 430.3 169.7 z M 447.6 185.9 C 451.20000000000005 190.1 455.5 193.8 460.20000000000005 196.9 C 455.80000000000007 196.6 451.40000000000003 195.8 447.20000000000005 194.6 C 447.4 191.6 447.6 188.7 447.6 185.9 z M 447.6 183.9 C 447.5 180.1 447.1 176.4 446.40000000000003 172.6 C 451.1 173.1 455.90000000000003 173.4 460.6 173.5 C 462.1 181.2 462.5 189.1 462.3 196.9 C 462.2 196.9 462.2 196.9 462.1 196.9 C 456.4 193.4 451.4 188.9 447.6 183.9 z M 472 197.6 C 473.7 197.4 475.4 197 477 196.6 C 477 196.7 476.9 196.9 476.9 197 C 474.2 198.4 471.4 199.5 468.4 200.3 C 466.9 199.60000000000002 465.5 198.9 464.09999999999997 198 C 466.7 198.2 469.3 198 472 197.6 z M 478.6 195 C 478.70000000000005 194.4 478.8 193.7 479 193.1 C 480.3 186.29999999999998 481.1 179.5 481.6 172.6 C 483.8 178.4 485.40000000000003 184.5 486.20000000000005 190.79999999999998 C 485.00000000000006 191.79999999999998 483.80000000000007 192.79999999999998 482.50000000000006 193.79999999999998 C 481.2 194.2 479.9 194.6 478.6 195 z M 487.5 191.5 C 487.5 191.4 487.5 191.3 487.5 191.3 C 492.1 187.20000000000002 495.9 182.20000000000002 499 176.70000000000002 C 500.1 177.70000000000002 501.1 178.8 502.1 179.9 C 501.70000000000005 180.4 501.3 180.9 500.90000000000003 181.3 C 497 185.6 492.5 189 487.5 191.5 z M 505.8 159.3 C 505.8 159.70000000000002 505.90000000000003 160.20000000000002 505.90000000000003 160.60000000000002 C 505.8 160.70000000000002 505.6 160.8 505.50000000000006 160.90000000000003 C 505.40000000000003 160.80000000000004 505.30000000000007 160.80000000000004 505.30000000000007 160.70000000000005 C 505.50000000000006 160.00000000000006 505.6000000000001 159.40000000000003 505.80000000000007 158.70000000000005 C 505.8 158.9 505.8 159.1 505.8 159.3 z M 506 139.5 C 506.3 143.7 506.3 147.9 505.7 152.2 C 504.09999999999997 146 501.5 140.2 498.3 134.6 C 500.9 136.1 503.4 137.8 506 139.5 z M 496.4 133.8 C 500.5 140.60000000000002 503.7 147.70000000000002 505.2 155.4 C 504.9 156.9 504.59999999999997 158.4 504.3 159.9 C 500.3 156.70000000000002 496 154 491.7 151.70000000000002 C 488.4 149.9 484.9 148.4 481.2 147.3 C 480.7 141.4 479.9 135.5 478.8 129.70000000000002 C 478.6 128.60000000000002 478.40000000000003 127.60000000000002 478.1 126.50000000000001 C 479.40000000000003 126.80000000000001 480.70000000000005 127.00000000000001 482 127.40000000000002 C 487 128.8 491.7 130.90000000000003 496.2 133.40000000000003 C 496.3 133.6 496.3 133.7 496.4 133.8 z M 476.9 126.2 C 477.5 129 478 131.9 478.4 134.6 C 479.09999999999997 138.7 479.59999999999997 142.79999999999998 479.9 146.9 C 479.5 146.8 479.09999999999997 146.70000000000002 478.79999999999995 146.6 C 476.19999999999993 139 471.29999999999995 131.79999999999998 465.29999999999995 126 C 469.1 125.5 473 125.6 476.9 126.2 z M 454.2 118.8 C 457.09999999999997 120.6 459.9 122.6 462.59999999999997 125 C 457.59999999999997 125.9 452.79999999999995 127.7 447.99999999999994 129.9 C 447.8999999999999 129.8 447.79999999999995 129.8 447.69999999999993 129.70000000000002 C 449.7 126 451.9 122.4 454.2 118.8 z M 445.9 130.2 C 445.7 130.6 445.5 130.89999999999998 445.29999999999995 131.29999999999998 C 444.99999999999994 131.49999999999997 444.59999999999997 131.6 444.29999999999995 131.79999999999998 C 441.69999999999993 133.1 439.29999999999995 134.49999999999997 436.9 135.89999999999998 C 436.59999999999997 135.7 436.29999999999995 135.59999999999997 436 135.39999999999998 C 436.2 132.09999999999997 436.6 128.79999999999998 437.5 125.59999999999998 C 440.3 127 443.1 128.5 445.9 130.2 z M 434.6 138.7 C 434.6 140.6 434.6 142.39999999999998 434.70000000000005 144.29999999999998 C 434.80000000000007 145.7 434.90000000000003 147.1 435.00000000000006 148.6 C 434.70000000000005 148.6 434.50000000000006 148.6 434.20000000000005 148.5 C 432.40000000000003 146.6 430.50000000000006 144.9 428.40000000000003 143.4 C 430.3 141.7 432.4 140.2 434.6 138.7 z M 420.8 140.6 C 422.8 141.5 424.7 142.5 426.5 143.7 C 424.9 145.29999999999998 423.4 147 422.1 148.89999999999998 C 421.70000000000005 148.89999999999998 421.40000000000003 148.99999999999997 421 149.09999999999997 C 420.8 146.2 420.7 143.3 420.8 140.6 z M 421.1 150.3 L 421.1 150.3 L 421.1 150.3 L 421.1 150.3 z M 420.1 154.6 C 420.5 158.2 421.1 161.9 421.8 165.5 C 420.1 164.8 418.40000000000003 164 416.7 163.1 C 417.7 160.1 418.8 157.3 420.1 154.6 z M 414.3 175.9 C 414.5 172 415.2 168.1 416.40000000000003 164.3 C 418.3 165.3 420.3 166.20000000000002 422.3 167 C 423.1 170.5 424.1 174 425.40000000000003 177.3 C 424.70000000000005 179.20000000000002 424.00000000000006 181 423.50000000000006 182.9 C 420.2 180.7 417.2 178.4 414.3 175.9 z M 426 179 C 427.2 181.9 428.5 184.6 430.1 187.1 L 430.1 187.2 C 428.20000000000005 186.1 426.3 184.89999999999998 424.5 183.7 C 424.9 182.1 425.4 180.5 426 179 z M 442.5 213.2 C 436.4 206.5 432.9 198.2 431.6 189.5 C 435.1 194.4 439.5 198.4 445 200.7 C 444.4 204.9 443.5 209.1 442.5 213.2 z M 446.4 199.9 C 446.59999999999997 198.5 446.79999999999995 197.1 446.9 195.70000000000002 C 451.79999999999995 197.10000000000002 456.9 198.00000000000003 462.09999999999997 198.10000000000002 L 462.09999999999997 198.10000000000002 C 462.09999999999997 198.20000000000002 462.09999999999997 198.3 462.09999999999997 198.40000000000003 C 461.49999999999994 199.50000000000003 460.9 200.70000000000005 460.29999999999995 201.80000000000004 C 455.1 202.2 450.5 201.5 446.4 199.9 z M 465.1 201.2 C 464.5 201.29999999999998 463.8 201.39999999999998 463.20000000000005 201.5 C 463.20000000000005 200.8 463.30000000000007 200 463.30000000000007 199.3 C 463.4000000000001 199.20000000000002 463.4000000000001 199.10000000000002 463.50000000000006 198.9 C 464.6000000000001 199.6 465.80000000000007 200.20000000000002 466.90000000000003 200.8 C 466.3 200.9 465.7 201.1 465.1 201.2 z M 470.2 201.2 C 472.4 200.5 474.59999999999997 199.7 476.59999999999997 198.7 C 476.29999999999995 200.2 475.99999999999994 201.7 475.59999999999997 203.2 C 473.8 202.6 472 202 470.2 201.2 z M 476.9 203.5 C 477.29999999999995 201.6 477.7 199.7 478.09999999999997 197.9 C 479.79999999999995 197 481.49999999999994 196 482.99999999999994 194.8 C 484.19999999999993 194.4 485.29999999999995 193.9 486.3999999999999 193.4 C 486.69999999999993 197.20000000000002 486.7999999999999 201.1 486.49999999999994 205 C 483.4 204.9 480.1 204.4 476.9 203.5 z M 496.2 203.9 C 493.5 204.6 490.59999999999997 205 487.8 205 C 488.1 200.9 488 196.8 487.6 192.8 C 492.20000000000005 190.5 496.40000000000003 187.60000000000002 500.1 183.8 C 501.1 182.8 502 181.8 502.90000000000003 180.8 C 503.3 181.3 503.70000000000005 181.8 504.00000000000006 182.3 C 502.2 189.8 499.4 197 496.2 203.9 z M 504.3 180.9 C 504.1 180.6 503.8 180.3 503.6 180 C 504 179.5 504.40000000000003 178.9 504.8 178.4 C 504.7 179.2 504.5 180 504.3 180.9 z M 506.8 173.4 C 507.2 170.4 507.3 167.4 507.3 164.4 C 508.40000000000003 165.4 509.40000000000003 166.4 510.40000000000003 167.5 C 509.2 169.5 508.1 171.5 506.8 173.4 z" stroke-linecap="round" />
</g>
<g transform="matrix(1 0 0 1 -85.14 -255.36)" id="1HShC_Ka1d_hu_QcQHUwa"  >
<path style="stroke: none; stroke-width: 1; stroke-dasharray: none; stroke-linecap: butt; stroke-dashoffset: 0; stroke-linejoin: miter; stroke-miterlimit: 4; fill: rgb(155,139,126); fill-rule: nonzero; opacity: 1;" vector-effect="non-scaling-stroke"  transform=" translate(-213.61, -144.96)" d="M 218.4 86.5 C 218 83.5 216.70000000000002 78.5 214 77.5 C 210.4 76.2 208.8 81.7 208.7 84.2 C 208.7 84.5 208.79999999999998 84.7 208.89999999999998 84.9 C 209.09999999999997 86.4 209.2 87.80000000000001 209.29999999999998 89.30000000000001 C 209.39999999999998 90.20000000000002 209.49999999999997 91.00000000000001 209.49999999999997 91.9 C 212.69999999999996 131.10000000000002 206.79999999999998 170.60000000000002 210.99999999999997 209.8 C 210.99999999999997 210.3 210.99999999999997 210.9 210.99999999999997 211.4 C 210.99999999999997 212.3 211.69999999999996 212.70000000000002 212.39999999999998 212.6 C 213.09999999999997 212.7 213.79999999999998 212.29999999999998 213.7 211.4 C 213.6 210.8 213.6 210.3 213.5 209.70000000000002 C 213.7 189.4 214.6 169.10000000000002 215.3 148.8 C 215.60000000000002 138.8 215.9 128.9 216.10000000000002 118.9 C 216.20000000000002 115.4 216.20000000000002 111.9 216.20000000000002 108.4 C 216.20000000000002 101.9 218.70000000000002 95.5 218.50000000000003 89 C 218.50000000000003 88.5 218.40000000000003 87.9 218.40000000000003 87.4 C 218.5 87.1 218.4 86.8 218.4 86.5 z M 215.1 98.3 C 214.2 103.3 214 108.1 213.9 113.2 C 213.8 123.3 213.5 133.5 213.1 143.6 C 212.79999999999998 154.2 212.4 164.9 212 175.5 C 212 147.3 214.4 119.1 212 90.9 C 211.9 90 211.9 89.2 211.8 88.30000000000001 C 211.70000000000002 86.9 211.5 85.4 211.3 84.00000000000001 C 211.4 81.80000000000001 212.3 79.60000000000001 214.3 81.50000000000001 C 215.10000000000002 82.20000000000002 215.5 84.40000000000002 215.70000000000002 85.50000000000001 C 215.8 86.00000000000001 215.9 86.50000000000001 216.00000000000003 87.10000000000001 C 216.10000000000002 87.9 216.20000000000002 88.80000000000001 216.20000000000002 89.60000000000001 C 216.2 92.5 215.6 95.4 215.1 98.3 z" stroke-linecap="round" />
</g>
</svg>