<?xml version="1.0" encoding="UTF-8" standalone="no" ?>
<!DOCTYPE svg PUBLIC "-//W3C//DTD SVG 1.1//EN" "http://www.w3.org/Graphics/SVG/1.1/DTD/svg11.dtd">
<svg xmlns="http://www.w3.org/2000/svg" xmlns:xlink="http://www.w3.org/1999/xlink" version="1.1" width="337.49999999999994" height="280.22346141747664" viewBox="333.95000000000005 -18.211730708738315 337.49999999999994 280.22346141747664" xml:space="preserve">
<desc>Created with Fabric.js 4.6.0</desc>
<defs>
</defs>
<g transform="matrix(1 0 0 1 417.25 121.9)" id="E7krd00WQWIWYVRJE-QWq"  >
<path style="stroke: none; stroke-width: 1; stroke-dasharray: none; stroke-linecap: butt; stroke-dashoffset: 0; stroke-linejoin: miter; stroke-miterlimit: 4; fill: rgb(206,195,179); fill-rule: nonzero; opacity: 1;" vector-effect="non-scaling-stroke"  transform=" translate(-716, -522.21)" d="M 754.8 404.1 C 757.5999999999999 404.6 760.5 405.1 763.3 405.3 C 764.9 405.40000000000003 764.9 407.90000000000003 763.3 407.8 C 760.3 407.5 757.1999999999999 407.1 754.1999999999999 406.5 C 752.7 406.2 753.3 403.8 754.8 404.1 z M 699.7 544 C 699.9000000000001 546.7 699.8000000000001 549.4 699.5 552.1 C 699.3 553.7 696.8 553.7 697 552.1 C 697.3 549.4 697.4 546.7 697.2 544 C 697.2 542.4 699.7 542.4 699.7 544 z M 698.4 530.9 C 698.4 532.5 695.9 532.5 695.9 530.9 C 695.9 528.3 695.9 525.6999999999999 695.9 523.1 C 695.9 521.5 698.4 521.5 698.4 523.1 C 698.4 525.7 698.4 528.3 698.4 530.9 z M 698.1 505.2 C 698.1 507.9 698.1 510.59999999999997 698.1 513.3 C 698.1 514.9 695.6 514.9 695.6 513.3 C 695.6 510.59999999999997 695.6 507.9 695.6 505.19999999999993 C 695.6 503.6 698.1 503.6 698.1 505.2 z M 687 425 C 689.3 423.3 691.5 421.7 693.8 420 C 695.0999999999999 419.1 696.4 421.3 695.0999999999999 422.2 C 692.8 423.9 690.5999999999999 425.5 688.3 427.2 C 687 428.2 685.8 426 687 425 z M 646.9 490.3 C 647.3 487 648.1 483.90000000000003 649.5 480.90000000000003 C 650.2 479.50000000000006 652.3 480.70000000000005 651.7 482.20000000000005 C 650.5 484.70000000000005 649.7 487.50000000000006 649.4000000000001 490.30000000000007 C 649.2 491.9 646.7 491.9 646.9 490.3 z M 652.2 499 C 650.3000000000001 499 648.4000000000001 499 646.5 499 C 644.9 499 644.9 496.5 646.5 496.5 C 648.4 496.5 650.3 496.5 652.2 496.5 C 653.8 496.5 653.8 499 652.2 499 z M 657.2 457.3 C 655.8000000000001 461.2 654.6 465.1 653.7 469.1 C 653.4000000000001 470.6 650.9000000000001 470 651.3000000000001 468.40000000000003 C 652.2 464.40000000000003 653.4000000000001 460.50000000000006 654.8000000000001 456.6 C 655.3 455.1 657.7 455.7 657.2 457.3 z M 659.2 444 C 659.6 441.9 660.1 439.7 660.5 437.6 C 660.8 436.1 663.3 436.70000000000005 662.9 438.3 C 662.5 440.40000000000003 662 442.6 661.6 444.7 C 661.3 446.2 658.9 445.6 659.2 444 z M 669.1 500.8 C 666.4 500.40000000000003 663.7 500.1 661 499.7 C 659.5 499.5 659.4 497 661 497.2 C 663.7 497.59999999999997 666.4 497.9 669.1 498.3 C 670.7 498.5 670.7 501 669.1 500.8 z M 670.8 433.3 C 673.4 432.3 675.9 431.1 678.3 429.7 C 679.6999999999999 428.9 681 431.09999999999997 679.5999999999999 431.9 C 676.9999999999999 433.5 674.3 434.79999999999995 671.4999999999999 435.79999999999995 C 670 436.4 669.4 434 670.8 433.3 z M 689.4 501.8 C 686 501.5 682.6999999999999 501.3 679.3 501 C 677.6999999999999 500.9 677.6999999999999 498.4 679.3 498.5 C 682.6999999999999 498.8 686 499 689.4 499.3 C 691 499.4 691 501.9 689.4 501.8 z M 694.1 618.6 C 694.4 614.9 694.7 611.2 695 607.5 C 695.2 605.9 697.7 605.9 697.5 607.5 C 697.2 611.2 696.9 614.9 696.6 618.6 C 696.5 620.2 694 620.2 694.1 618.6 z M 698.3 643.4 C 698.1999999999999 645 695.6999999999999 645 695.8 643.4 C 696 638.6999999999999 696 634.1 695.9 629.5 C 695.9 627.9 698.4 627.9 698.4 629.5 C 698.5 634.2 698.5 638.8 698.3 643.4 z M 698.4 595 C 698.3 596.6 695.8 596.6 695.9 595 C 696 591.7 696.1999999999999 588.3 696.3 584.9 C 696.4 583.3 698.9 583.3 698.8 584.9 C 698.7 588.2 698.5 591.6 698.4 595 z M 699.8 571.4 C 699.8 573 697.3 573 697.3 571.4 C 697.3 568.8 697.3 566.1999999999999 697.3 563.6 C 697.3 562 699.8 562 699.8 563.6 C 699.8 566.2 699.8 568.8 699.8 571.4 z M 710 653.4 C 707.7 652.9 705.3 652.9 702.9 653.1999999999999 C 701.3 653.4 700.6999999999999 650.9999999999999 702.3 650.8 C 705.0999999999999 650.4 707.9 650.5 710.6999999999999 651 C 712.2 651.3 711.6 653.7 710 653.4 z M 715.2 410.1 C 712.7 412 710.3000000000001 414 707.8000000000001 415.90000000000003 C 706.6 416.90000000000003 704.8000000000001 415.1 706.0000000000001 414.1 C 708.5000000000001 412.20000000000005 710.9000000000001 410.20000000000005 713.4000000000001 408.3 C 714.7 407.4 716.5 409.1 715.2 410.1 z M 724.5 400.7 C 726.2 399.7 727.6 398.4 728.8 396.8 C 729.8 395.5 731.9 396.8 731 398.1 C 729.6 400.1 727.9 401.70000000000005 725.8 402.90000000000003 C 724.4 403.7 723.2 401.6 724.5 400.7 z M 736.7 654.1 C 733.1 653.8000000000001 729.5 653.8000000000001 725.9000000000001 654 C 724.3000000000001 654.1 724.3000000000001 651.6 725.9000000000001 651.5 C 729.5000000000001 651.3 733.1000000000001 651.3 736.7 651.6 C 738.3 651.7 738.3 654.2 736.7 654.1 z M 745.1 403.8 C 742.4 403.1 740 401.90000000000003 737.8000000000001 400.1 C 736.6 399 738.3000000000001 397.3 739.6 398.40000000000003 C 741.4 399.90000000000003 743.5 400.90000000000003 745.8000000000001 401.40000000000003 C 747.3 401.8 746.7 404.2 745.1 403.8 z M 764 654 C 760.7 654 757.3 654 753.9 654 C 752.3 654 752.3 651.5 753.9 651.5 C 757.1999999999999 651.5 760.6 651.5 764 651.5 C 765.6 651.5 765.6 654 764 654 z M 774.2 407.4 C 777.5 407.2 780.7 407.29999999999995 784 407.7 C 785.6 407.9 785.6 410.4 784 410.2 C 780.7 409.9 777.5 409.8 774.2 409.9 C 772.6 409.9 772.6 407.4 774.2 407.4 z M 786 654.1 C 783.2 653.9 780.4 654 777.6 654.4 C 776 654.6 776 652.1 777.6 651.9 C 780.4 651.6 783.2 651.5 786 651.6 C 787.6 651.7 787.6 654.2 786 654.1 z M 797.6 456.2 C 797.4 436.9 797.1 417.59999999999997 796.9 398.3 C 796.9 397.5 796.3 397.1 795.6 397.1 C 795.5 397.1 795.4 397.1 795.3000000000001 397.1 C 774.8000000000001 400.1 753.0000000000001 396.5 736.8000000000001 382.90000000000003 C 736.5000000000001 382.70000000000005 736.2 382.6 736.0000000000001 382.6 C 735.7000000000002 382.6 735.4000000000001 382.70000000000005 735.1000000000001 382.90000000000003 C 711.5000000000001 403.1 684.7000000000002 419.1 655.7000000000002 430.40000000000003 C 655.3000000000002 430.6 655.1000000000001 430.8 655.0000000000001 431.1 C 654.6000000000001 431.20000000000005 654.2000000000002 431.40000000000003 654.0000000000001 432 C 646.9000000000001 455.7 640.1000000000001 479.5 633.5000000000001 503.4 C 633.5000000000001 503.5 633.5000000000001 503.5 633.5000000000001 503.59999999999997 C 632.9000000000001 504.29999999999995 633.2000000000002 505.7 634.4000000000001 505.7 C 651.6000000000001 506.5 668.8000000000001 508.8 686.0000000000001 509.09999999999997 C 687.5000000000001 558.1999999999999 687.5000000000001 607.1999999999999 685.8000000000001 656.3 C 685.8000000000001 656.9 686.1 657.3 686.5000000000001 657.4 C 685.7000000000002 658 686.0000000000001 659.6 687.3000000000001 659.6999999999999 C 723.6 661.5999999999999 759.9000000000001 662.1999999999999 796.2 661.5999999999999 C 796.6 661.5999999999999 797 661.3999999999999 797.1 661.0999999999999 C 797.8000000000001 661.3 798.8000000000001 660.8999999999999 798.8000000000001 659.9999999999999 C 798.8 592.1 798.4 524.1 797.6 456.2 z M 796.2 659.1 C 760.1 659.7 723.9000000000001 659.1 687.8000000000001 657.2 C 688.1 657 688.3000000000001 656.7 688.3000000000001 656.3000000000001 C 690.0000000000001 606.9000000000001 690.1 557.4000000000001 688.5000000000001 507.9000000000001 C 688.5000000000001 507.30000000000007 688.2000000000002 506.9000000000001 687.8000000000001 506.7000000000001 C 687.6 506.6000000000001 687.5000000000001 506.6000000000001 687.2 506.6000000000001 C 670.1 506.50000000000006 653.1 504.2000000000001 636.1 503.30000000000007 C 642.6 479.70000000000005 649.3000000000001 456.20000000000005 656.3000000000001 432.80000000000007 C 685.2 421.4000000000001 712.1 405.50000000000006 735.9000000000001 385.4000000000001 C 752.4000000000001 398.7000000000001 773.8000000000001 402.4000000000001 794.4000000000001 399.7000000000001 C 795.4000000000001 467.10000000000014 796.0000000000001 534.6000000000001 796.2 602.1000000000001 C 796.3 621.1 796.3 640.1 796.2 659.1 L 796.2 659.1 z" stroke-linecap="round" />
</g>
<g transform="matrix(1 0 0 1 350.6 97.43)" id="_P96iqS8V0xyAVM_ZM_iV"  >
<path style="stroke: none; stroke-width: 1; stroke-dasharray: none; stroke-linecap: butt; stroke-dashoffset: 0; stroke-linejoin: miter; stroke-miterlimit: 4; fill: rgb(206,195,179); fill-rule: nonzero; opacity: 1;" vector-effect="non-scaling-stroke"  transform=" translate(-649.35, -497.75)" d="M 652.2 496.5 C 650.3000000000001 496.5 648.4000000000001 496.5 646.5 496.5 C 644.9 496.5 644.9 499 646.5 499 C 648.4 499 650.3 499 652.2 499 C 653.8 499 653.8 496.5 652.2 496.5 z" stroke-linecap="round" />
</g>
<g transform="matrix(1 0 0 1 366.32 98.68)" id="AVyNDKcOhP-SI4ASsJ4vZ"  >
<path style="stroke: none; stroke-width: 1; stroke-dasharray: none; stroke-linecap: butt; stroke-dashoffset: 0; stroke-linejoin: miter; stroke-miterlimit: 4; fill: rgb(206,195,179); fill-rule: nonzero; opacity: 1;" vector-effect="non-scaling-stroke"  transform=" translate(-665.07, -499)" d="M 669.1 498.3 C 666.4 497.90000000000003 663.7 497.6 661 497.2 C 659.4 497 659.5 499.5 661 499.7 C 663.7 500.09999999999997 666.4 500.4 669.1 500.8 C 670.7 501 670.7 498.5 669.1 498.3 z" stroke-linecap="round" />
</g>
<g transform="matrix(1 0 0 1 385.6 99.83)" id="LTmhqItfeRl1MUne3H_Dj"  >
<path style="stroke: none; stroke-width: 1; stroke-dasharray: none; stroke-linecap: butt; stroke-dashoffset: 0; stroke-linejoin: miter; stroke-miterlimit: 4; fill: rgb(206,195,179); fill-rule: nonzero; opacity: 1;" vector-effect="non-scaling-stroke"  transform=" translate(-684.35, -500.15)" d="M 689.4 499.3 C 686 499 682.6999999999999 498.8 679.3 498.5 C 677.6999999999999 498.4 677.6999999999999 500.9 679.3 501 C 682.6999999999999 501.3 686 501.5 689.4 501.8 C 691 501.9 691 499.4 689.4 499.3 z" stroke-linecap="round" />
</g>
<g transform="matrix(1 0 0 1 398.1 108.93)" id="Qf_ycqJH9KnrXyPk9smqp"  >
<path style="stroke: none; stroke-width: 1; stroke-dasharray: none; stroke-linecap: butt; stroke-dashoffset: 0; stroke-linejoin: miter; stroke-miterlimit: 4; fill: rgb(206,195,179); fill-rule: nonzero; opacity: 1;" vector-effect="non-scaling-stroke"  transform=" translate(-696.85, -509.25)" d="M 695.6 513.3 C 695.6 514.9 698.1 514.9 698.1 513.3 C 698.1 510.59999999999997 698.1 507.9 698.1 505.19999999999993 C 698.1 503.5999999999999 695.6 503.5999999999999 695.6 505.19999999999993 C 695.6 507.9 695.6 510.6 695.6 513.3 z" stroke-linecap="round" />
</g>
<g transform="matrix(1 0 0 1 398.4 126.68)" id="lElP5Tjvyq44gZyM5toXN"  >
<path style="stroke: none; stroke-width: 1; stroke-dasharray: none; stroke-linecap: butt; stroke-dashoffset: 0; stroke-linejoin: miter; stroke-miterlimit: 4; fill: rgb(206,195,179); fill-rule: nonzero; opacity: 1;" vector-effect="non-scaling-stroke"  transform=" translate(-697.15, -527)" d="M 695.9 523.1 C 695.9 525.7 695.9 528.3000000000001 695.9 530.9 C 695.9 532.5 698.4 532.5 698.4 530.9 C 698.4 528.3 698.4 525.6999999999999 698.4 523.1 C 698.4 521.5 695.9 521.5 695.9 523.1 z" stroke-linecap="round" />
</g>
<g transform="matrix(1 0 0 1 399.65 147.73)" id="OCMOgkYJhYbOGzCt_giDc"  >
<path style="stroke: none; stroke-width: 1; stroke-dasharray: none; stroke-linecap: butt; stroke-dashoffset: 0; stroke-linejoin: miter; stroke-miterlimit: 4; fill: rgb(206,195,179); fill-rule: nonzero; opacity: 1;" vector-effect="non-scaling-stroke"  transform=" translate(-698.4, -548.05)" d="M 697.2 544 C 697.4000000000001 546.7 697.3000000000001 549.4 697 552.1 C 696.8 553.7 699.3 553.7 699.5 552.1 C 699.8 549.4 699.9 546.7 699.7 544 C 699.7 542.4 697.2 542.4 697.2 544 z" stroke-linecap="round" />
</g>
<g transform="matrix(1 0 0 1 399.8 167.18)" id="G2N_TUaJea7RuQj7Nh6Ve"  >
<path style="stroke: none; stroke-width: 1; stroke-dasharray: none; stroke-linecap: butt; stroke-dashoffset: 0; stroke-linejoin: miter; stroke-miterlimit: 4; fill: rgb(206,195,179); fill-rule: nonzero; opacity: 1;" vector-effect="non-scaling-stroke"  transform=" translate(-698.55, -567.5)" d="M 697.3 563.6 C 697.3 566.2 697.3 568.8000000000001 697.3 571.4 C 697.3 573 699.8 573 699.8 571.4 C 699.8 568.8 699.8 566.1999999999999 699.8 563.6 C 699.8 562 697.3 562 697.3 563.6 z" stroke-linecap="round" />
</g>
<g transform="matrix(1 0 0 1 398.6 189.63)" id="6L8nRM1f5Iddq5vhlBGPB"  >
<path style="stroke: none; stroke-width: 1; stroke-dasharray: none; stroke-linecap: butt; stroke-dashoffset: 0; stroke-linejoin: miter; stroke-miterlimit: 4; fill: rgb(206,195,179); fill-rule: nonzero; opacity: 1;" vector-effect="non-scaling-stroke"  transform=" translate(-697.35, -589.95)" d="M 696.3 584.9 C 696.1999999999999 588.3 696 591.6999999999999 695.9 595 C 695.8 596.6 698.3 596.6 698.4 595 C 698.5 591.6 698.6999999999999 588.2 698.8 584.9 C 698.9 583.3 696.4 583.3 696.3 584.9 z" stroke-linecap="round" />
</g>
<g transform="matrix(1 0 0 1 397.05 212.73)" id="1JF-W3RnicWL_SaaQmt2C"  >
<path style="stroke: none; stroke-width: 1; stroke-dasharray: none; stroke-linecap: butt; stroke-dashoffset: 0; stroke-linejoin: miter; stroke-miterlimit: 4; fill: rgb(206,195,179); fill-rule: nonzero; opacity: 1;" vector-effect="non-scaling-stroke"  transform=" translate(-695.8, -613.05)" d="M 696.6 618.6 C 696.9 614.9 697.2 611.2 697.5 607.5 C 697.7 605.9 695.2 605.9 695 607.5 C 694.7 611.2 694.4 614.9 694.1 618.6 C 694 620.2 696.5 620.2 696.6 618.6 z" stroke-linecap="round" />
</g>
<g transform="matrix(1 0 0 1 398.38 236.13)" id="cFodqt5jSJ_yToZJnT3f_"  >
<path style="stroke: none; stroke-width: 1; stroke-dasharray: none; stroke-linecap: butt; stroke-dashoffset: 0; stroke-linejoin: miter; stroke-miterlimit: 4; fill: rgb(206,195,179); fill-rule: nonzero; opacity: 1;" vector-effect="non-scaling-stroke"  transform=" translate(-697.13, -636.45)" d="M 695.9 629.5 C 696 634.1 696 638.7 695.8 643.4 C 695.6999999999999 645 698.1999999999999 645 698.3 643.4 C 698.5 638.8 698.5 634.1999999999999 698.4 629.5 C 698.4 627.9 695.9 627.9 695.9 629.5 z" stroke-linecap="round" />
</g>
<g transform="matrix(1 0 0 1 407.71 251.67)" id="9sKhauxzWCIO0ZnKIAOrj"  >
<path style="stroke: none; stroke-width: 1; stroke-dasharray: none; stroke-linecap: butt; stroke-dashoffset: 0; stroke-linejoin: miter; stroke-miterlimit: 4; fill: rgb(206,195,179); fill-rule: nonzero; opacity: 1;" vector-effect="non-scaling-stroke"  transform=" translate(-706.46, -651.99)" d="M 710.7 651 C 707.9000000000001 650.5 705.1 650.4 702.3000000000001 650.8 C 700.7 651 701.3000000000001 653.4 702.9000000000001 653.1999999999999 C 705.3000000000001 652.9 707.7 652.9 710.0000000000001 653.4 C 711.6 653.7 712.2 651.3 710.7 651 z" stroke-linecap="round" />
</g>
<g transform="matrix(1 0 0 1 432.55 252.42)" id="tpEDDwMBQHjXLkBO749Sr"  >
<path style="stroke: none; stroke-width: 1; stroke-dasharray: none; stroke-linecap: butt; stroke-dashoffset: 0; stroke-linejoin: miter; stroke-miterlimit: 4; fill: rgb(206,195,179); fill-rule: nonzero; opacity: 1;" vector-effect="non-scaling-stroke"  transform=" translate(-731.3, -652.73)" d="M 736.7 651.6 C 733.1 651.3000000000001 729.5 651.3000000000001 725.9000000000001 651.5 C 724.3000000000001 651.6 724.3000000000001 654.1 725.9000000000001 654 C 729.5000000000001 653.8 733.1000000000001 653.8 736.7 654.1 C 738.3 654.2 738.3 651.7 736.7 651.6 z" stroke-linecap="round" />
</g>
<g transform="matrix(1 0 0 1 460.2 252.43)" id="S4u5FCA1j7zjmcwnFmIhO"  >
<path style="stroke: none; stroke-width: 1; stroke-dasharray: none; stroke-linecap: butt; stroke-dashoffset: 0; stroke-linejoin: miter; stroke-miterlimit: 4; fill: rgb(206,195,179); fill-rule: nonzero; opacity: 1;" vector-effect="non-scaling-stroke"  transform=" translate(-758.95, -652.75)" d="M 764 651.5 C 760.6 651.5 757.2 651.5 753.9 651.5 C 752.3 651.5 752.3 654 753.9 654 C 757.3 654 760.6999999999999 654 764 654 C 765.6 654 765.6 651.5 764 651.5 z" stroke-linecap="round" />
</g>
<g transform="matrix(1 0 0 1 483.05 252.67)" id="-THjk3UpQJ1Q0pSxu0wvQ"  >
<path style="stroke: none; stroke-width: 1; stroke-dasharray: none; stroke-linecap: butt; stroke-dashoffset: 0; stroke-linejoin: miter; stroke-miterlimit: 4; fill: rgb(206,195,179); fill-rule: nonzero; opacity: 1;" vector-effect="non-scaling-stroke"  transform=" translate(-781.8, -652.99)" d="M 786 651.6 C 783.2 651.5 780.4 651.6 777.6 651.9 C 776 652.1 776 654.6 777.6 654.4 C 780.4 654 783.2 653.9 786 654.1 C 787.6 654.2 787.6 651.7 786 651.6 z" stroke-linecap="round" />
</g>
<g transform="matrix(1 0 0 1 350.6 85.57)" id="j9i4ZXIB49UBjdk5EBQCy"  >
<path style="stroke: none; stroke-width: 1; stroke-dasharray: none; stroke-linecap: butt; stroke-dashoffset: 0; stroke-linejoin: miter; stroke-miterlimit: 4; fill: rgb(206,195,179); fill-rule: nonzero; opacity: 1;" vector-effect="non-scaling-stroke"  transform=" translate(-649.35, -485.89)" d="M 649.4 490.3 C 649.6999999999999 487.5 650.5 484.7 651.6999999999999 482.2 C 652.3 480.7 650.1999999999999 479.5 649.4999999999999 480.9 C 648.0999999999999 483.9 647.2999999999998 487 646.8999999999999 490.29999999999995 C 646.7 491.9 649.2 491.9 649.4 490.3 z" stroke-linecap="round" />
</g>
<g transform="matrix(1 0 0 1 355.51 62.53)" id="IQi69_RyXHg7-_cYVu-pl"  >
<path style="stroke: none; stroke-width: 1; stroke-dasharray: none; stroke-linecap: butt; stroke-dashoffset: 0; stroke-linejoin: miter; stroke-miterlimit: 4; fill: rgb(206,195,179); fill-rule: nonzero; opacity: 1;" vector-effect="non-scaling-stroke"  transform=" translate(-654.26, -462.85)" d="M 654.8 456.6 C 653.4 460.5 652.1999999999999 464.40000000000003 651.3 468.40000000000003 C 650.9 470.00000000000006 653.4 470.6 653.6999999999999 469.1 C 654.5999999999999 465.1 655.8 461.20000000000005 657.1999999999999 457.3 C 657.7 455.7 655.3 455.1 654.8 456.6 z" stroke-linecap="round" />
</g>
<g transform="matrix(1 0 0 1 362.31 40.83)" id="PIQQkn0fV9Dqwm8NXxqee"  >
<path style="stroke: none; stroke-width: 1; stroke-dasharray: none; stroke-linecap: butt; stroke-dashoffset: 0; stroke-linejoin: miter; stroke-miterlimit: 4; fill: rgb(206,195,179); fill-rule: nonzero; opacity: 1;" vector-effect="non-scaling-stroke"  transform=" translate(-661.06, -441.15)" d="M 661.6 444.7 C 662 442.59999999999997 662.5 440.4 662.9 438.3 C 663.3 436.7 660.8 436.1 660.5 437.6 C 660.1 439.70000000000005 659.6 441.90000000000003 659.2 444 C 658.9 445.6 661.3 446.2 661.6 444.7 z" stroke-linecap="round" />
</g>
<g transform="matrix(1 0 0 1 376.36 32.4)" id="sqoArGbIrwXS2mqwW0MOs"  >
<path style="stroke: none; stroke-width: 1; stroke-dasharray: none; stroke-linecap: butt; stroke-dashoffset: 0; stroke-linejoin: miter; stroke-miterlimit: 4; fill: rgb(206,195,179); fill-rule: nonzero; opacity: 1;" vector-effect="non-scaling-stroke"  transform=" translate(-675.11, -432.71)" d="M 678.3 429.7 C 675.9 431.09999999999997 673.4 432.3 670.8 433.3 C 669.4 434 670 436.40000000000003 671.5 435.8 C 674.3 434.8 677 433.5 679.6 431.90000000000003 C 681 431.1 679.7 428.9 678.3 429.7 z" stroke-linecap="round" />
</g>
<g transform="matrix(1 0 0 1 392.32 23.31)" id="IZ4D2YKp1OxKqiD2MG6IP"  >
<path style="stroke: none; stroke-width: 1; stroke-dasharray: none; stroke-linecap: butt; stroke-dashoffset: 0; stroke-linejoin: miter; stroke-miterlimit: 4; fill: rgb(206,195,179); fill-rule: nonzero; opacity: 1;" vector-effect="non-scaling-stroke"  transform=" translate(-691.07, -423.62)" d="M 688.3 427.2 C 690.5999999999999 425.5 692.8 423.9 695.0999999999999 422.2 C 696.3999999999999 421.3 695.0999999999999 419.09999999999997 693.8 420 C 691.5 421.7 689.3 423.3 687 425 C 685.8 426 687 428.2 688.3 427.2 z" stroke-linecap="round" />
</g>
<g transform="matrix(1 0 0 1 411.88 11.8)" id="zl1CVHB_y4kLUnsxiO2lb"  >
<path style="stroke: none; stroke-width: 1; stroke-dasharray: none; stroke-linecap: butt; stroke-dashoffset: 0; stroke-linejoin: miter; stroke-miterlimit: 4; fill: rgb(206,195,179); fill-rule: nonzero; opacity: 1;" vector-effect="non-scaling-stroke"  transform=" translate(-710.63, -412.12)" d="M 713.4 408.3 C 710.9 410.2 708.5 412.2 706 414.1 C 704.8 415.1 706.6 416.90000000000003 707.8 415.90000000000003 C 710.3 414.00000000000006 712.6999999999999 412.00000000000006 715.1999999999999 410.1 C 716.5 409.1 714.7 407.4 713.4 408.3 z" stroke-linecap="round" />
</g>
<g transform="matrix(1 0 0 1 428.83 -0.65)" id="V3pvV8j6DcGAZ6uKf_NIL"  >
<path style="stroke: none; stroke-width: 1; stroke-dasharray: none; stroke-linecap: butt; stroke-dashoffset: 0; stroke-linejoin: miter; stroke-miterlimit: 4; fill: rgb(206,195,179); fill-rule: nonzero; opacity: 1;" vector-effect="non-scaling-stroke"  transform=" translate(-727.58, -399.67)" d="M 725.8 402.9 C 727.9 401.7 729.5999999999999 400.09999999999997 731 398.09999999999997 C 731.9 396.79999999999995 729.8 395.49999999999994 728.8 396.79999999999995 C 727.5999999999999 398.4 726.1999999999999 399.69999999999993 724.5 400.69999999999993 C 723.2 401.6 724.4 403.7 725.8 402.9 z" stroke-linecap="round" />
</g>
<g transform="matrix(1 0 0 1 443.28 0.63)" id="AYN6MaeeFKVmZoFA1leKD"  >
<path style="stroke: none; stroke-width: 1; stroke-dasharray: none; stroke-linecap: butt; stroke-dashoffset: 0; stroke-linejoin: miter; stroke-miterlimit: 4; fill: rgb(206,195,179); fill-rule: nonzero; opacity: 1;" vector-effect="non-scaling-stroke"  transform=" translate(-742.03, -400.94)" d="M 745.8 401.4 C 743.5 400.9 741.4 399.9 739.5999999999999 398.4 C 738.3 397.29999999999995 736.5999999999999 399 737.8 400.09999999999997 C 740 401.9 742.4 403.09999999999997 745.0999999999999 403.79999999999995 C 746.7 404.2 747.3 401.8 745.8 401.4 z" stroke-linecap="round" />
</g>
<g transform="matrix(1 0 0 1 460.17 5.62)" id="WHz2ViLK08OnvrE7iiHpe"  >
<path style="stroke: none; stroke-width: 1; stroke-dasharray: none; stroke-linecap: butt; stroke-dashoffset: 0; stroke-linejoin: miter; stroke-miterlimit: 4; fill: rgb(206,195,179); fill-rule: nonzero; opacity: 1;" vector-effect="non-scaling-stroke"  transform=" translate(-758.92, -405.94)" d="M 754.2 406.5 C 757.2 407.1 760.3000000000001 407.5 763.3000000000001 407.8 C 764.9000000000001 407.90000000000003 764.9000000000001 405.40000000000003 763.3000000000001 405.3 C 760.5000000000001 405.1 757.6 404.6 754.8000000000001 404.1 C 753.3 403.8 752.7 406.2 754.2 406.5 z" stroke-linecap="round" />
</g>
<g transform="matrix(1 0 0 1 480.35 8.44)" id="7Dndhr52TLFgTTmy8OMrM"  >
<path style="stroke: none; stroke-width: 1; stroke-dasharray: none; stroke-linecap: butt; stroke-dashoffset: 0; stroke-linejoin: miter; stroke-miterlimit: 4; fill: rgb(206,195,179); fill-rule: nonzero; opacity: 1;" vector-effect="non-scaling-stroke"  transform=" translate(-779.1, -408.76)" d="M 784 410.2 C 785.6 410.4 785.6 407.9 784 407.7 C 780.7 407.3 777.5 407.2 774.2 407.4 C 772.6 407.4 772.6 409.9 774.2 409.9 C 777.5 409.8 780.7 409.9 784 410.2 z" stroke-linecap="round" />
</g>
<g transform="matrix(1 0 0 1 588.15 121.9)" id="bEpWIwILbgwGxAECpBn3S"  >
<path style="stroke: none; stroke-width: 1; stroke-dasharray: none; stroke-linecap: butt; stroke-dashoffset: 0; stroke-linejoin: miter; stroke-miterlimit: 4; fill: rgb(206,195,179); fill-rule: nonzero; opacity: 1;" vector-effect="non-scaling-stroke"  transform=" translate(-886.9, -522.21)" d="M 848.1 404.1 C 845.3000000000001 404.6 842.4 405.1 839.6 405.3 C 838 405.40000000000003 838 407.90000000000003 839.6 407.8 C 842.6 407.5 845.7 407.1 848.7 406.5 C 850.2 406.2 849.6 403.8 848.1 404.1 z M 903.2 544 C 903 546.7 903.1 549.4 903.4000000000001 552.1 C 903.6000000000001 553.7 906.1000000000001 553.7 905.9000000000001 552.1 C 905.6000000000001 549.4 905.5000000000001 546.7 905.7 544 C 905.7 542.4 903.2 542.4 903.2 544 z M 904.5 530.9 C 904.5 532.5 907 532.5 907 530.9 C 907 528.3 907 525.6999999999999 907 523.1 C 907 521.5 904.5 521.5 904.5 523.1 C 904.5 525.7 904.5 528.3 904.5 530.9 z M 904.8 505.2 C 904.8 507.9 904.8 510.59999999999997 904.8 513.3 C 904.8 514.9 907.3 514.9 907.3 513.3 C 907.3 510.59999999999997 907.3 507.9 907.3 505.19999999999993 C 907.3 503.6 904.8 503.6 904.8 505.2 z M 915.9 425 C 913.6 423.3 911.4 421.7 909.1 420 C 907.8000000000001 419.1 906.5 421.3 907.8000000000001 422.2 C 910.1 423.9 912.3000000000001 425.5 914.6 427.2 C 915.9 428.2 917.1 426 915.9 425 z M 956 490.3 C 955.6 487 954.8 483.90000000000003 953.4 480.90000000000003 C 952.6999999999999 479.50000000000006 950.6 480.70000000000005 951.1999999999999 482.20000000000005 C 952.4 484.70000000000005 953.1999999999999 487.50000000000006 953.4999999999999 490.30000000000007 C 953.7 491.9 956.2 491.9 956 490.3 z M 950.7 499 C 952.6 499 954.5 499 956.4000000000001 499 C 958.0000000000001 499 958.0000000000001 496.5 956.4000000000001 496.5 C 954.5000000000001 496.5 952.6000000000001 496.5 950.7 496.5 C 949.1 496.5 949.1 499 950.7 499 z M 945.7 457.3 C 947.1 461.2 948.3000000000001 465.1 949.2 469.1 C 949.5 470.6 952 470 951.6 468.40000000000003 C 950.7 464.40000000000003 949.5 460.50000000000006 948.1 456.6 C 947.6 455.1 945.2 455.7 945.7 457.3 z M 943.7 444 C 943.3000000000001 441.9 942.8000000000001 439.7 942.4000000000001 437.6 C 942.1000000000001 436.1 939.6000000000001 436.70000000000005 940.0000000000001 438.3 C 940.4000000000001 440.40000000000003 940.9000000000001 442.6 941.3000000000001 444.7 C 941.6 446.2 944 445.6 943.7 444 z M 933.8 500.8 C 936.5 500.40000000000003 939.1999999999999 500.1 941.9 499.7 C 943.4 499.5 943.5 497 941.9 497.2 C 939.1999999999999 497.59999999999997 936.5 497.9 933.8 498.3 C 932.2 498.5 932.2 501 933.8 500.8 z M 932.1 433.3 C 929.5 432.3 927 431.1 924.6 429.7 C 923.2 428.9 921.9 431.09999999999997 923.3000000000001 431.9 C 925.9000000000001 433.5 928.6 434.79999999999995 931.4000000000001 435.79999999999995 C 932.9 436.4 933.5 434 932.1 433.3 z M 913.5 501.8 C 916.9 501.5 920.2 501.3 923.6 501 C 925.2 500.9 925.2 498.4 923.6 498.5 C 920.2 498.8 916.9 499 913.5 499.3 C 911.9 499.4 911.9 501.9 913.5 501.8 z M 908.8 618.6 C 908.5 614.9 908.1999999999999 611.2 907.9 607.5 C 907.6999999999999 605.9 905.1999999999999 605.9 905.4 607.5 C 905.6999999999999 611.2 906 614.9 906.3 618.6 C 906.4 620.2 908.9 620.2 908.8 618.6 z M 904.6 643.4 C 904.7 645 907.2 645 907.1 643.4 C 906.9 638.6999999999999 906.9 634.1 907 629.5 C 907 627.9 904.5 627.9 904.5 629.5 C 904.4 634.2 904.4 638.8 904.6 643.4 z M 904.5 595 C 904.6 596.6 907.1 596.6 907 595 C 906.9 591.7 906.7 588.3 906.6 584.9 C 906.5 583.3 904 583.3 904.1 584.9 C 904.2 588.2 904.4 591.6 904.5 595 z M 903.1 571.4 C 903.1 573 905.6 573 905.6 571.4 C 905.6 568.8 905.6 566.1999999999999 905.6 563.6 C 905.6 562 903.1 562 903.1 563.6 C 903.1 566.2 903.1 568.8 903.1 571.4 z M 892.9 653.4 C 895.1999999999999 652.9 897.6 652.9 900 653.1999999999999 C 901.6 653.4 902.2 650.9999999999999 900.6 650.8 C 897.8000000000001 650.4 895 650.5 892.2 651 C 890.7 651.3 891.3 653.7 892.9 653.4 z M 887.7 410.1 C 890.2 412 892.6 414 895.1 415.90000000000003 C 896.3000000000001 416.90000000000003 898.1 415.1 896.9 414.1 C 894.4 412.20000000000005 892 410.20000000000005 889.5 408.3 C 888.2 407.4 886.4 409.1 887.7 410.1 z M 878.4 400.7 C 876.6999999999999 399.7 875.3 398.4 874.1 396.8 C 873.1 395.5 871 396.8 871.9 398.1 C 873.3 400.1 875 401.70000000000005 877.1 402.90000000000003 C 878.5 403.7 879.7 401.6 878.4 400.7 z M 866.2 654.1 C 869.8000000000001 653.8000000000001 873.4000000000001 653.8000000000001 877 654 C 878.6 654.1 878.6 651.6 877 651.5 C 873.4 651.3 869.8 651.3 866.2 651.6 C 864.6 651.7 864.6 654.2 866.2 654.1 z M 857.8 403.8 C 860.5 403.1 862.9 401.90000000000003 865.0999999999999 400.1 C 866.3 399 864.5999999999999 397.3 863.3 398.40000000000003 C 861.5 399.90000000000003 859.4 400.90000000000003 857.0999999999999 401.40000000000003 C 855.6 401.8 856.2 404.2 857.8 403.8 z M 838.9 654 C 842.1999999999999 654 845.6 654 849 654 C 850.6 654 850.6 651.5 849 651.5 C 845.7 651.5 842.3 651.5 838.9 651.5 C 837.3 651.5 837.3 654 838.9 654 z M 828.7 407.4 C 825.4000000000001 407.2 822.2 407.29999999999995 818.9000000000001 407.7 C 817.3000000000001 407.9 817.3000000000001 410.4 818.9000000000001 410.2 C 822.2 409.9 825.4000000000001 409.8 828.7 409.9 C 830.3 409.9 830.3 407.4 828.7 407.4 z M 816.9 654.1 C 819.6999999999999 653.9 822.5 654 825.3 654.4 C 826.9 654.6 826.9 652.1 825.3 651.9 C 822.5 651.6 819.6999999999999 651.5 816.9 651.6 C 815.3 651.7 815.3 654.2 816.9 654.1 z M 805.3 456.2 C 805.5 436.9 805.8 417.59999999999997 806 398.3 C 806 397.5 806.6 397.1 807.3 397.1 C 807.4 397.1 807.5 397.1 807.5999999999999 397.1 C 828.0999999999999 400.1 849.8999999999999 396.5 866.0999999999999 382.90000000000003 C 866.3999999999999 382.70000000000005 866.6999999999999 382.6 866.8999999999999 382.6 C 867.1999999999998 382.6 867.4999999999999 382.70000000000005 867.7999999999998 382.90000000000003 C 891.3999999999999 403.1 918.1999999999998 419.1 947.1999999999998 430.40000000000003 C 947.5999999999998 430.6 947.7999999999998 430.8 947.8999999999999 431.1 C 948.2999999999998 431.20000000000005 948.6999999999998 431.40000000000003 948.8999999999999 432 C 955.9999999999999 455.7 962.7999999999998 479.5 969.3999999999999 503.4 C 969.3999999999999 503.5 969.3999999999999 503.5 969.3999999999999 503.59999999999997 C 969.9999999999999 504.29999999999995 969.6999999999998 505.7 968.4999999999999 505.7 C 951.2999999999998 506.5 934.0999999999999 508.8 916.8999999999999 509.09999999999997 C 915.3999999999999 558.1999999999999 915.3999999999999 607.1999999999999 917.0999999999999 656.3 C 917.0999999999999 656.9 916.8 657.3 916.3999999999999 657.4 C 917.1999999999998 658 916.8999999999999 659.6 915.5999999999999 659.6999999999999 C 879.3 661.5999999999999 842.9999999999999 662.1999999999999 806.6999999999999 661.5999999999999 C 806.3 661.5999999999999 805.9 661.3999999999999 805.8 661.0999999999999 C 805.0999999999999 661.3 804.0999999999999 660.8999999999999 804.0999999999999 659.9999999999999 C 804.1 592.1 804.5 524.1 805.3 456.2 z M 806.7 659.1 C 842.8000000000001 659.7 879 659.1 915.1 657.2 C 914.8000000000001 657 914.6 656.7 914.6 656.3000000000001 C 912.9 606.9000000000001 912.8000000000001 557.4000000000001 914.4 507.9000000000001 C 914.4 507.30000000000007 914.6999999999999 506.9000000000001 915.1 506.7000000000001 C 915.3000000000001 506.6000000000001 915.4 506.6000000000001 915.7 506.6000000000001 C 932.8000000000001 506.50000000000006 949.8000000000001 504.2000000000001 966.8000000000001 503.30000000000007 C 960.3000000000001 479.70000000000005 953.6 456.20000000000005 946.6 432.80000000000007 C 917.7 421.4000000000001 890.8000000000001 405.50000000000006 867 385.4000000000001 C 850.5 398.7000000000001 829.1 402.4000000000001 808.5 399.7000000000001 C 807.5 467.10000000000014 806.9 534.6000000000001 806.7 602.1000000000001 C 806.6 621.1 806.6 640.1 806.7 659.1 L 806.7 659.1 z" stroke-linecap="round" />
</g>
<g transform="matrix(1 0 0 1 654.8 97.43)" id="dfFUjQ8mYS2ntXLRPg2fV"  >
<path style="stroke: none; stroke-width: 1; stroke-dasharray: none; stroke-linecap: butt; stroke-dashoffset: 0; stroke-linejoin: miter; stroke-miterlimit: 4; fill: rgb(206,195,179); fill-rule: nonzero; opacity: 1;" vector-effect="non-scaling-stroke"  transform=" translate(-953.55, -497.75)" d="M 950.7 496.5 C 952.6 496.5 954.5 496.5 956.4000000000001 496.5 C 958.0000000000001 496.5 958.0000000000001 499 956.4000000000001 499 C 954.5000000000001 499 952.6000000000001 499 950.7 499 C 949.1 499 949.1 496.5 950.7 496.5 z" stroke-linecap="round" />
</g>
<g transform="matrix(1 0 0 1 639.08 98.68)" id="GlpEJ4FQJV3KeZMKBuTrd"  >
<path style="stroke: none; stroke-width: 1; stroke-dasharray: none; stroke-linecap: butt; stroke-dashoffset: 0; stroke-linejoin: miter; stroke-miterlimit: 4; fill: rgb(206,195,179); fill-rule: nonzero; opacity: 1;" vector-effect="non-scaling-stroke"  transform=" translate(-937.83, -499)" d="M 933.8 498.3 C 936.5 497.90000000000003 939.1999999999999 497.6 941.9 497.2 C 943.5 497 943.4 499.5 941.9 499.7 C 939.1999999999999 500.09999999999997 936.5 500.4 933.8 500.8 C 932.2 501 932.2 498.5 933.8 498.3 z" stroke-linecap="round" />
</g>
<g transform="matrix(1 0 0 1 619.8 99.83)" id="pxgSrnQHmQXEWhDVXgNDg"  >
<path style="stroke: none; stroke-width: 1; stroke-dasharray: none; stroke-linecap: butt; stroke-dashoffset: 0; stroke-linejoin: miter; stroke-miterlimit: 4; fill: rgb(206,195,179); fill-rule: nonzero; opacity: 1;" vector-effect="non-scaling-stroke"  transform=" translate(-918.55, -500.15)" d="M 913.5 499.3 C 916.9 499 920.2 498.8 923.6 498.5 C 925.2 498.4 925.2 500.9 923.6 501 C 920.2 501.3 916.9 501.5 913.5 501.8 C 911.9 501.9 911.9 499.4 913.5 499.3 z" stroke-linecap="round" />
</g>
<g transform="matrix(1 0 0 1 607.3 108.93)" id="zr97syImZH4XuvEjOsMh_"  >
<path style="stroke: none; stroke-width: 1; stroke-dasharray: none; stroke-linecap: butt; stroke-dashoffset: 0; stroke-linejoin: miter; stroke-miterlimit: 4; fill: rgb(206,195,179); fill-rule: nonzero; opacity: 1;" vector-effect="non-scaling-stroke"  transform=" translate(-906.05, -509.25)" d="M 907.3 513.3 C 907.3 514.9 904.8 514.9 904.8 513.3 C 904.8 510.59999999999997 904.8 507.9 904.8 505.19999999999993 C 904.8 503.5999999999999 907.3 503.5999999999999 907.3 505.19999999999993 C 907.3 507.9 907.3 510.6 907.3 513.3 z" stroke-linecap="round" />
</g>
<g transform="matrix(1 0 0 1 607 126.68)" id="hUWgm-48fY4OJjN6LMEvk"  >
<path style="stroke: none; stroke-width: 1; stroke-dasharray: none; stroke-linecap: butt; stroke-dashoffset: 0; stroke-linejoin: miter; stroke-miterlimit: 4; fill: rgb(206,195,179); fill-rule: nonzero; opacity: 1;" vector-effect="non-scaling-stroke"  transform=" translate(-905.75, -527)" d="M 907 523.1 C 907 525.7 907 528.3000000000001 907 530.9 C 907 532.5 904.5 532.5 904.5 530.9 C 904.5 528.3 904.5 525.6999999999999 904.5 523.1 C 904.5 521.5 907 521.5 907 523.1 z" stroke-linecap="round" />
</g>
<g transform="matrix(1 0 0 1 605.75 147.73)" id="k5uFYGoZYGZAHi7KN_4VN"  >
<path style="stroke: none; stroke-width: 1; stroke-dasharray: none; stroke-linecap: butt; stroke-dashoffset: 0; stroke-linejoin: miter; stroke-miterlimit: 4; fill: rgb(206,195,179); fill-rule: nonzero; opacity: 1;" vector-effect="non-scaling-stroke"  transform=" translate(-904.5, -548.05)" d="M 905.7 544 C 905.5 546.7 905.6 549.4 905.9000000000001 552.1 C 906.1000000000001 553.7 903.6000000000001 553.7 903.4000000000001 552.1 C 903.1000000000001 549.4 903.0000000000001 546.7 903.2 544 C 903.2 542.4 905.7 542.4 905.7 544 z" stroke-linecap="round" />
</g>
<g transform="matrix(1 0 0 1 605.6 167.18)" id="NVcqpXBn5Gu0jxq6bqSHb"  >
<path style="stroke: none; stroke-width: 1; stroke-dasharray: none; stroke-linecap: butt; stroke-dashoffset: 0; stroke-linejoin: miter; stroke-miterlimit: 4; fill: rgb(206,195,179); fill-rule: nonzero; opacity: 1;" vector-effect="non-scaling-stroke"  transform=" translate(-904.35, -567.5)" d="M 905.6 563.6 C 905.6 566.2 905.6 568.8000000000001 905.6 571.4 C 905.6 573 903.1 573 903.1 571.4 C 903.1 568.8 903.1 566.1999999999999 903.1 563.6 C 903.1 562 905.6 562 905.6 563.6 z" stroke-linecap="round" />
</g>
<g transform="matrix(1 0 0 1 606.8 189.63)" id="Fdtko53WBC-DjBahHK1Yy"  >
<path style="stroke: none; stroke-width: 1; stroke-dasharray: none; stroke-linecap: butt; stroke-dashoffset: 0; stroke-linejoin: miter; stroke-miterlimit: 4; fill: rgb(206,195,179); fill-rule: nonzero; opacity: 1;" vector-effect="non-scaling-stroke"  transform=" translate(-905.55, -589.95)" d="M 906.6 584.9 C 906.7 588.3 906.9 591.6999999999999 907 595 C 907.1 596.6 904.6 596.6 904.5 595 C 904.4 591.6 904.2 588.2 904.1 584.9 C 904 583.3 906.5 583.3 906.6 584.9 z" stroke-linecap="round" />
</g>
<g transform="matrix(1 0 0 1 608.35 212.73)" id="prssOV3DvjeCVX2OjraAq"  >
<path style="stroke: none; stroke-width: 1; stroke-dasharray: none; stroke-linecap: butt; stroke-dashoffset: 0; stroke-linejoin: miter; stroke-miterlimit: 4; fill: rgb(206,195,179); fill-rule: nonzero; opacity: 1;" vector-effect="non-scaling-stroke"  transform=" translate(-907.1, -613.05)" d="M 906.3 618.6 C 906 614.9 905.6999999999999 611.2 905.4 607.5 C 905.1999999999999 605.9 907.6999999999999 605.9 907.9 607.5 C 908.1999999999999 611.2 908.5 614.9 908.8 618.6 C 908.9 620.2 906.4 620.2 906.3 618.6 z" stroke-linecap="round" />
</g>
<g transform="matrix(1 0 0 1 607.02 236.13)" id="dzkSPe3RZxc9206k9GCBm"  >
<path style="stroke: none; stroke-width: 1; stroke-dasharray: none; stroke-linecap: butt; stroke-dashoffset: 0; stroke-linejoin: miter; stroke-miterlimit: 4; fill: rgb(206,195,179); fill-rule: nonzero; opacity: 1;" vector-effect="non-scaling-stroke"  transform=" translate(-905.77, -636.45)" d="M 907 629.5 C 906.9 634.1 906.9 638.7 907.1 643.4 C 907.2 645 904.7 645 904.6 643.4 C 904.4 638.8 904.4 634.1999999999999 904.5 629.5 C 904.5 627.9 907 627.9 907 629.5 z" stroke-linecap="round" />
</g>
<g transform="matrix(1 0 0 1 597.69 251.67)" id="bXB1yrZ3mCneEw0wAogD5"  >
<path style="stroke: none; stroke-width: 1; stroke-dasharray: none; stroke-linecap: butt; stroke-dashoffset: 0; stroke-linejoin: miter; stroke-miterlimit: 4; fill: rgb(206,195,179); fill-rule: nonzero; opacity: 1;" vector-effect="non-scaling-stroke"  transform=" translate(-896.44, -651.99)" d="M 892.2 651 C 895 650.5 897.8000000000001 650.4 900.6 650.8 C 902.2 651 901.6 653.4 900 653.1999999999999 C 897.6 652.9 895.2 652.9 892.9 653.4 C 891.3 653.7 890.7 651.3 892.2 651 z" stroke-linecap="round" />
</g>
<g transform="matrix(1 0 0 1 572.85 252.42)" id="RAbgJmeztZKsokPkL0Ubx"  >
<path style="stroke: none; stroke-width: 1; stroke-dasharray: none; stroke-linecap: butt; stroke-dashoffset: 0; stroke-linejoin: miter; stroke-miterlimit: 4; fill: rgb(206,195,179); fill-rule: nonzero; opacity: 1;" vector-effect="non-scaling-stroke"  transform=" translate(-871.6, -652.73)" d="M 866.2 651.6 C 869.8000000000001 651.3000000000001 873.4000000000001 651.3000000000001 877 651.5 C 878.6 651.6 878.6 654.1 877 654 C 873.4 653.8 869.8 653.8 866.2 654.1 C 864.6 654.2 864.6 651.7 866.2 651.6 z" stroke-linecap="round" />
</g>
<g transform="matrix(1 0 0 1 545.2 252.43)" id="I70wrZnYILP9FEQ-oNSno"  >
<path style="stroke: none; stroke-width: 1; stroke-dasharray: none; stroke-linecap: butt; stroke-dashoffset: 0; stroke-linejoin: miter; stroke-miterlimit: 4; fill: rgb(206,195,179); fill-rule: nonzero; opacity: 1;" vector-effect="non-scaling-stroke"  transform=" translate(-843.95, -652.75)" d="M 838.9 651.5 C 842.3 651.5 845.6999999999999 651.5 849 651.5 C 850.6 651.5 850.6 654 849 654 C 845.6 654 842.2 654 838.9 654 C 837.3 654 837.3 651.5 838.9 651.5 z" stroke-linecap="round" />
</g>
<g transform="matrix(1 0 0 1 522.35 252.67)" id="YXC5nVH2xf-e6kPnUWYGh"  >
<path style="stroke: none; stroke-width: 1; stroke-dasharray: none; stroke-linecap: butt; stroke-dashoffset: 0; stroke-linejoin: miter; stroke-miterlimit: 4; fill: rgb(206,195,179); fill-rule: nonzero; opacity: 1;" vector-effect="non-scaling-stroke"  transform=" translate(-821.1, -652.99)" d="M 816.9 651.6 C 819.6999999999999 651.5 822.5 651.6 825.3 651.9 C 826.9 652.1 826.9 654.6 825.3 654.4 C 822.5 654 819.6999999999999 653.9 816.9 654.1 C 815.3 654.2 815.3 651.7 816.9 651.6 z" stroke-linecap="round" />
</g>
<g transform="matrix(1 0 0 1 654.8 85.57)" id="YZyWeH2AzDOxc0mIOrl82"  >
<path style="stroke: none; stroke-width: 1; stroke-dasharray: none; stroke-linecap: butt; stroke-dashoffset: 0; stroke-linejoin: miter; stroke-miterlimit: 4; fill: rgb(206,195,179); fill-rule: nonzero; opacity: 1;" vector-effect="non-scaling-stroke"  transform=" translate(-953.55, -485.89)" d="M 953.5 490.3 C 953.2 487.5 952.4 484.7 951.2 482.2 C 950.6 480.7 952.7 479.5 953.4000000000001 480.9 C 954.8000000000001 483.9 955.6000000000001 487 956.0000000000001 490.29999999999995 C 956.2 491.9 953.7 491.9 953.5 490.3 z" stroke-linecap="round" />
</g>
<g transform="matrix(1 0 0 1 649.89 62.53)" id="Ks9v-oDNpHhH03mSzpplU"  >
<path style="stroke: none; stroke-width: 1; stroke-dasharray: none; stroke-linecap: butt; stroke-dashoffset: 0; stroke-linejoin: miter; stroke-miterlimit: 4; fill: rgb(206,195,179); fill-rule: nonzero; opacity: 1;" vector-effect="non-scaling-stroke"  transform=" translate(-948.64, -462.85)" d="M 948.1 456.6 C 949.5 460.5 950.7 464.40000000000003 951.6 468.40000000000003 C 952 470.00000000000006 949.5 470.6 949.2 469.1 C 948.3000000000001 465.1 947.1 461.20000000000005 945.7 457.3 C 945.2 455.7 947.6 455.1 948.1 456.6 z" stroke-linecap="round" />
</g>
<g transform="matrix(1 0 0 1 643.09 40.83)" id="IlhHHedvKOMyhdn80fPgH"  >
<path style="stroke: none; stroke-width: 1; stroke-dasharray: none; stroke-linecap: butt; stroke-dashoffset: 0; stroke-linejoin: miter; stroke-miterlimit: 4; fill: rgb(206,195,179); fill-rule: nonzero; opacity: 1;" vector-effect="non-scaling-stroke"  transform=" translate(-941.84, -441.15)" d="M 941.3 444.7 C 940.9 442.59999999999997 940.4 440.4 940 438.3 C 939.6 436.7 942.1 436.1 942.4 437.6 C 942.8 439.70000000000005 943.3 441.90000000000003 943.6999999999999 444 C 944 445.6 941.6 446.2 941.3 444.7 z" stroke-linecap="round" />
</g>
<g transform="matrix(1 0 0 1 629.04 32.4)" id="VgfXUB3C0Zczri6-sf5pb"  >
<path style="stroke: none; stroke-width: 1; stroke-dasharray: none; stroke-linecap: butt; stroke-dashoffset: 0; stroke-linejoin: miter; stroke-miterlimit: 4; fill: rgb(206,195,179); fill-rule: nonzero; opacity: 1;" vector-effect="non-scaling-stroke"  transform=" translate(-927.79, -432.71)" d="M 924.6 429.7 C 927 431.09999999999997 929.5 432.3 932.1 433.3 C 933.5 434 932.9 436.40000000000003 931.4 435.8 C 928.6 434.8 925.9 433.5 923.3 431.90000000000003 C 921.9 431.1 923.2 428.9 924.6 429.7 z" stroke-linecap="round" />
</g>
<g transform="matrix(1 0 0 1 613.08 23.31)" id="fzorfhTaZ0wiVKUNzY8d4"  >
<path style="stroke: none; stroke-width: 1; stroke-dasharray: none; stroke-linecap: butt; stroke-dashoffset: 0; stroke-linejoin: miter; stroke-miterlimit: 4; fill: rgb(206,195,179); fill-rule: nonzero; opacity: 1;" vector-effect="non-scaling-stroke"  transform=" translate(-911.83, -423.62)" d="M 914.6 427.2 C 912.3000000000001 425.5 910.1 423.9 907.8000000000001 422.2 C 906.5000000000001 421.3 907.8000000000001 419.09999999999997 909.1 420 C 911.4 421.7 913.6 423.3 915.9 425 C 917.1 426 915.9 428.2 914.6 427.2 z" stroke-linecap="round" />
</g>
<g transform="matrix(1 0 0 1 593.52 11.8)" id="4d0cinAMdk5-98SIMSwBh"  >
<path style="stroke: none; stroke-width: 1; stroke-dasharray: none; stroke-linecap: butt; stroke-dashoffset: 0; stroke-linejoin: miter; stroke-miterlimit: 4; fill: rgb(206,195,179); fill-rule: nonzero; opacity: 1;" vector-effect="non-scaling-stroke"  transform=" translate(-892.27, -412.12)" d="M 889.5 408.3 C 892 410.2 894.4 412.2 896.9 414.1 C 898.1 415.1 896.3 416.90000000000003 895.1 415.90000000000003 C 892.6 414.00000000000006 890.2 412.00000000000006 887.7 410.1 C 886.4 409.1 888.2 407.4 889.5 408.3 z" stroke-linecap="round" />
</g>
<g transform="matrix(1 0 0 1 576.57 -0.65)" id="jIS1K-yley3WVyWuI2gOh"  >
<path style="stroke: none; stroke-width: 1; stroke-dasharray: none; stroke-linecap: butt; stroke-dashoffset: 0; stroke-linejoin: miter; stroke-miterlimit: 4; fill: rgb(206,195,179); fill-rule: nonzero; opacity: 1;" vector-effect="non-scaling-stroke"  transform=" translate(-875.32, -399.67)" d="M 877.1 402.9 C 875 401.7 873.3000000000001 400.09999999999997 871.9 398.09999999999997 C 871 396.79999999999995 873.1 395.49999999999994 874.1 396.79999999999995 C 875.3000000000001 398.4 876.7 399.69999999999993 878.4 400.69999999999993 C 879.7 401.6 878.5 403.7 877.1 402.9 z" stroke-linecap="round" />
</g>
<g transform="matrix(1 0 0 1 562.12 0.63)" id="bb9z8lS_GVU07p2PRV3JT"  >
<path style="stroke: none; stroke-width: 1; stroke-dasharray: none; stroke-linecap: butt; stroke-dashoffset: 0; stroke-linejoin: miter; stroke-miterlimit: 4; fill: rgb(206,195,179); fill-rule: nonzero; opacity: 1;" vector-effect="non-scaling-stroke"  transform=" translate(-860.87, -400.94)" d="M 857.1 401.4 C 859.4 400.9 861.5 399.9 863.3000000000001 398.4 C 864.6 397.29999999999995 866.3000000000001 399 865.1 400.09999999999997 C 862.9 401.9 860.5 403.09999999999997 857.8000000000001 403.79999999999995 C 856.2 404.2 855.6 401.8 857.1 401.4 z" stroke-linecap="round" />
</g>
<g transform="matrix(1 0 0 1 545.23 5.62)" id="wBEYrM3y0JL9bz3PVsAYh"  >
<path style="stroke: none; stroke-width: 1; stroke-dasharray: none; stroke-linecap: butt; stroke-dashoffset: 0; stroke-linejoin: miter; stroke-miterlimit: 4; fill: rgb(206,195,179); fill-rule: nonzero; opacity: 1;" vector-effect="non-scaling-stroke"  transform=" translate(-843.98, -405.94)" d="M 848.7 406.5 C 845.7 407.1 842.6 407.5 839.6 407.8 C 838 407.90000000000003 838 405.40000000000003 839.6 405.3 C 842.4 405.1 845.3000000000001 404.6 848.1 404.1 C 849.6 403.8 850.2 406.2 848.7 406.5 z" stroke-linecap="round" />
</g>
<g transform="matrix(1 0 0 1 525.05 8.44)" id="wFp7u4xm_62KCqRnG-wiL"  >
<path style="stroke: none; stroke-width: 1; stroke-dasharray: none; stroke-linecap: butt; stroke-dashoffset: 0; stroke-linejoin: miter; stroke-miterlimit: 4; fill: rgb(206,195,179); fill-rule: nonzero; opacity: 1;" vector-effect="non-scaling-stroke"  transform=" translate(-823.8, -408.76)" d="M 818.9 410.2 C 817.3 410.4 817.3 407.9 818.9 407.7 C 822.1999999999999 407.3 825.4 407.2 828.6999999999999 407.4 C 830.3 407.4 830.3 409.9 828.6999999999999 409.9 C 825.4 409.8 822.2 409.9 818.9 410.2 z" stroke-linecap="round" />
</g>
</svg>