<?xml version="1.0" encoding="UTF-8" standalone="no"?>
<svg
   xmlns:dc="http://purl.org/dc/elements/1.1/"
   xmlns:cc="http://creativecommons.org/ns#"
   xmlns:rdf="http://www.w3.org/1999/02/22-rdf-syntax-ns#"
   xmlns:svg="http://www.w3.org/2000/svg"
   xmlns="http://www.w3.org/2000/svg"
   xmlns:sodipodi="http://sodipodi.sourceforge.net/DTD/sodipodi-0.dtd"
   xmlns:inkscape="http://www.inkscape.org/namespaces/inkscape"
   width="1000"
   zoomAndPan="magnify"
   viewBox="0 0 750 149.999998"
   height="200"
   preserveAspectRatio="xMidYMid meet"
   version="1.0"
   id="svg84"
   sodipodi:docname="logo.svg"
   inkscape:version="1.0.2 (e86c870879, 2021-01-15)">
  <metadata
     id="metadata88">
    <rdf:RDF>
      <cc:Work
         rdf:about="">
        <dc:format>image/svg+xml</dc:format>
        <dc:type
           rdf:resource="http://purl.org/dc/dcmitype/StillImage" />
      </cc:Work>
    </rdf:RDF>
  </metadata>
  <sodipodi:namedview
     pagecolor="#ffffff"
     bordercolor="#666666"
     borderopacity="1"
     objecttolerance="10"
     gridtolerance="10"
     guidetolerance="10"
     inkscape:pageopacity="0"
     inkscape:pageshadow="2"
     inkscape:window-width="1366"
     inkscape:window-height="714"
     id="namedview86"
     showgrid="false"
     inkscape:zoom="1.19"
     inkscape:cx="634.3233"
     inkscape:cy="117.39139"
     inkscape:window-x="0"
     inkscape:window-y="24"
     inkscape:window-maximized="1"
     inkscape:current-layer="svg84" />
  <defs
     id="defs4">
    <g
       id="g2" />
  </defs>
  <g
     fill="rgb(32.159424%, 44.309998%, 100%)"
     fill-opacity="1"
     id="g50">
    <g
       transform="translate(389.620689, 122.925851)"
       id="g48">
      <g
         id="g46" />
    </g>
  </g>
  <g
     fill="#5271ff"
     fill-opacity="1"
     id="g12-3-3"
     transform="matrix(1.040537,0,0,1.2809605,-20.90022,-22.708721)"
     style="fill:#000000">
    <g
       transform="translate(13.76237,122.92585)"
       id="g10-6-6"
       style="fill:#000000">
      <g
         id="g8-7-1"
         style="fill:#000000">
        <path
           d="m 56.054688,-74.265625 c -15.734376,6.632813 -21.589844,56.316406 -28.089844,70.492187 -0.914063,4.683594 11.183594,5.335938 13.394531,2.082032 2.210937,-4.941406 4.683594,-16.777344 7.933594,-28.613282 24.449219,7.285157 44.089843,-4.292968 47.601562,-25.882812 3.773439,-22.5 -16.386719,-33.945312 -36.808593,-34.203125 -23.019532,-0.261719 -45.128907,10.925781 -45.128907,30.171875 0,6.113281 2.859375,11.578125 8.0625,15.089844 3.511719,1.558594 9.367188,-2.992188 8.585938,-5.722656 -9.753907,-16.128907 8.324219,-30.695313 28.613281,-30.046876 12.746094,0.519532 24.582031,8.195313 22.238281,23.410157 -2.339843,15.738281 -14.824219,23.28125 -30.953125,18.859375 3.773438,-13.914063 7.933594,-29.003906 13.785156,-32.253906 1.5625,-2.082032 -5.203124,-4.941407 -9.234374,-3.382813 z m 0,0"
           id="path6-5-2"
           style="fill:#000000" />
      </g>
    </g>
  </g>
  <g
     fill="#5271ff"
     fill-opacity="1"
     id="g20-3-9"
     transform="matrix(1.040537,0,0,1.2809605,-20.90022,-22.708721)"
     style="fill:#000000">
    <g
       transform="translate(122.09771,122.92585)"
       id="g18-5-3"
       style="fill:#000000">
      <g
         id="g16-6-1"
         style="fill:#000000">
        <path
           d="m 40.320312,-53.453125 c -2.472656,8.710937 -5.074218,18.207031 -7.804687,26.402344 -3.902344,11.054687 -12.097656,18.726562 -17.167969,18.726562 -4.8125,0 -3.511718,-6.761719 -1.691406,-14.175781 2.339844,-10.40625 5.722656,-21.980469 7.542969,-29.265625 0,-3.511719 -11.964844,-4.679687 -13.527344,-1.429687 -2.988281,11.574218 -7.542969,24.320312 -9.882813,37.328124 -1.691406,9.105469 0.910157,16.90625 11.183594,17.039063 8.714844,0.257813 16.910156,-4.03125 24.453125,-16.519531 -1.953125,7.804687 0.78125,15.996094 7.933594,15.996094 13.527344,0.132812 23.152344,-17.945313 27.574219,-26.789063 0.777344,-1.5625 -3.773438,-4.292969 -4.554688,-2.601563 -4.679687,10.925782 -12.484375,20.546876 -17.425781,20.417969 -6.632813,0 3.511719,-31.214843 6.890625,-43.308593 -0.910156,-3.773438 -11.964844,-4.683594 -13.523438,-1.820313 z m 0,0"
           id="path14-2-9"
           style="fill:#000000" />
      </g>
    </g>
  </g>
  <g
     fill="#5271ff"
     fill-opacity="1"
     id="g28-9-4"
     transform="matrix(1.040537,0,0,1.2809605,-20.90022,-22.708721)"
     style="fill:#000000">
    <g
       transform="translate(194.79835,122.92585)"
       id="g26-1-7"
       style="fill:#000000">
      <g
         id="g24-2-8"
         style="fill:#000000">
        <path
           d="m 40.449219,-55.40625 c -8.585938,-0.128906 -17.429688,8.324219 -22.109375,13.785156 1.167968,-3.769531 1.6875,-5.980468 2.859375,-10.144531 -1.300781,-4.03125 -11.445313,-4.679687 -13.527344,-1.820313 -5.199219,18.988282 -9.621094,33.816407 -13.785156,51.113282 0.261719,4.292968 13.136719,3.902344 14.566406,1.042968 2.730469,-11.707031 4.164063,-18.339843 7.804687,-30.566406 4.8125,-6.5 11.707032,-12.613281 16.257813,-12.746094 4.421875,-0.128906 3.769531,4.164063 2.859375,8.066407 -1.167969,5.332031 -4.8125,19.507812 -5.589844,23.929687 -1.5625,8.453125 1.429688,14.175782 11.3125,13.917969 12.617188,-0.132813 22.371094,-16 27.574219,-27.3125 0.648437,-1.5625 -3.902344,-4.164063 -4.550781,-2.601563 -4.8125,11.183594 -12.488282,20.808594 -17.820313,20.808594 -3.25,0 -2.601562,-4.941406 -1.558593,-9.753906 1.429687,-6.242188 4.160156,-13.527344 5.589843,-19.507812 2.472657,-10.535157 0,-18.082032 -9.882812,-18.210938 z m 0,0"
           id="path22-7-4"
           style="fill:#000000" />
      </g>
    </g>
  </g>
  <g
     fill="#5271ff"
     fill-opacity="1"
     id="g36-0-5"
     transform="matrix(1.040537,0,0,1.2809605,-20.90022,-22.708721)"
     style="fill:#000000">
    <g
       transform="translate(267.10882,122.92585)"
       id="g34-9-0"
       style="fill:#000000">
      <g
         id="g32-3-3"
         style="fill:#000000">
        <path
           d="m 15.996094,1.171875 c 13.007812,-0.132813 22.5,-10.925781 29.523437,-27.183594 0.652344,-1.691406 -3.769531,-4.292969 -4.550781,-2.730469 -5.460938,12.355469 -14.695312,20.9375 -22.238281,20.808594 -6.375,-0.128906 -6.375,-8.972656 -3.644531,-20.941406 1.171874,-5.460938 3.121093,-12.355469 5.074218,-19.117188 h 12.226563 c 1.949219,-0.648437 3.511719,-6.761718 1.039062,-8.582031 H 22.5 c 2.992188,-9.886719 5.984375,-19.121093 8.84375,-27.054687 -0.128906,-3.769532 -11.964844,-5.203125 -13.785156,-2.601563 C 14.957031,-79.597656 10.925781,-67.5 7.542969,-56.574219 H 2.339844 c -2.078125,0.777344 -3.640625,7.152344 -1.039063,8.582031 H 5.203125 C -0.78125,-25.230469 -6.761719,1.429688 15.996094,1.171875 Z m 0,0"
           id="path30-6-6"
           style="fill:#000000" />
      </g>
    </g>
  </g>
  <g
     fill="#5271ff"
     fill-opacity="1"
     id="g44-0-1"
     transform="matrix(1.040537,0,0,1.2809605,-20.90022,-22.708721)"
     style="fill:#000000">
    <g
       transform="translate(316.26976,122.92585)"
       id="g42-6-0"
       style="fill:#000000">
      <g
         id="g40-2-6"
         style="fill:#000000">
        <path
           d="m 32.773438,-55.40625 c -15.34375,0.261719 -29.261719,11.964844 -32.902344,29.914062 -3.902344,19.769532 6.371094,26.792969 18.988281,26.792969 8.582031,0 15.867187,-3.25 21.71875,-8.972656 9.496094,1.949219 20.550781,0 29.003906,-18.46875 0.78125,-1.691406 -3.773437,-4.164063 -4.550781,-2.601563 -5.59375,13.136719 -13.136719,16.257813 -19.511719,15.605469 11.054688,-18.207031 10.40625,-42.660156 -12.746093,-42.269531 z m -1.6875,9.234375 c 9.753906,-0.519531 8.320312,13.917969 3.25,25.882813 -3.640626,-0.78125 -7.023438,4.03125 -4.550782,7.804687 -2.34375,2.730469 -5.59375,4.550781 -8.84375,4.550781 -8.066406,0 -7.675781,-9.363281 -6.113281,-17.429687 1.949219,-9.753907 8.582031,-20.417969 16.257813,-20.808594 z m 0,0"
           id="path38-6-3"
           style="fill:#000000" />
      </g>
    </g>
  </g>
  <g
     fill="#5271ff"
     fill-opacity="1"
     id="g58-1-2"
     transform="matrix(1.040537,0,0,1.2809605,-20.90022,-22.708721)"
     style="fill:#000000">
    <g
       transform="translate(423.43529,122.92585)"
       id="g56-8-0"
       style="fill:#000000">
      <g
         id="g54-7-6"
         style="fill:#000000">
        <path
           d="m 27.050781,1.171875 c 16.128907,-0.261719 23.800781,-13.007813 31.347657,-31.214844 6.113281,0.648438 12.746093,1.429688 16.644531,1.691407 -2.46875,9.621093 -4.808594,19.117187 -5.851563,26.011718 1.429688,3.640625 12.746094,3.640625 14.699219,0 1.039063,-7.414062 3.640625,-17.300781 5.722656,-26.273437 9.753907,-0.78125 19.378909,-3.902344 25.359379,-11.316407 1.42968,-1.820312 -1.17188,-6.5 -3.51172,-4.160156 -4.67969,4.941406 -12.355471,7.152344 -20.550784,7.671875 2.210938,-8.453125 7.15625,-28.613281 7.285156,-41.226562 0,-13.527344 -15.996093,-16.519531 -27.441406,-4.421875 C 61.648438,-72.445312 55.277344,-57.226562 48.121094,-40.1875 29.652344,-41.75 12.226562,-33.816406 8.972656,-18.339844 6.761719,-6.761719 12.875,1.429688 27.050781,1.171875 Z M 76.867188,-36.675781 C 73.355469,-36.9375 66.980469,-37.71875 61.777344,-38.496094 66.980469,-52.285156 72.832031,-68.410156 80.117188,-77.125 c 3.773437,-4.421875 6.894531,-3.253906 6.113281,1.691406 -2.082031,12.222656 -6.632813,29.003906 -9.363281,38.757813 z M 27.441406,-8.0625 c -5.070312,0 -5.851562,-5.074219 -4.421875,-10.144531 2.863281,-8.976563 11.1875,-13.136719 21.460938,-12.878907 -5.460938,13.398438 -9.625,22.890626 -17.039063,23.023438 z m 0,0"
           id="path52-9-1"
           style="fill:#000000" />
      </g>
    </g>
  </g>
  <g
     fill="#5271ff"
     fill-opacity="1"
     id="g66-2-5"
     transform="matrix(1.040537,0,0,1.2809605,-20.90022,-22.708721)"
     style="fill:#000000">
    <g
       transform="translate(540.48423,122.92585)"
       id="g64-0-5"
       style="fill:#000000">
      <g
         id="g62-2-4"
         style="fill:#000000">
        <path
           d="m 20.289062,-57.355469 c 4.03125,-19.378906 -18.988281,-11.578125 -9.234374,2.859375 -3.902344,12.617188 -7.414063,19.898438 -12.355469,30.304688 -0.78125,1.5625 3.640625,4.03125 4.550781,2.339844 4.554688,-8.84375 8.585938,-16.90625 12.097656,-27.703126 4.160156,6.113282 13.136719,8.585938 19.636719,7.546876 -6.890625,10.664062 -14.957031,20.417968 -24.96875,30.5625 -15.089844,4.8125 -6.113281,20.679687 7.152344,10.144531 8.195312,-0.910157 10.535156,3.511719 19.507812,3.25 C 48.382812,1.5625 59.699219,-9.882812 66.980469,-26.140625 67.5,-27.574219 63.078125,-30.304688 62.429688,-28.742188 56.445312,-15.347656 48.511719,-8.0625 40.839844,-7.671875 c -6.242188,0.386719 -9.234375,-2.601563 -14.828125,-2.472656 11.054687,-10.925781 18.46875,-22.371094 26.402343,-33.816407 3.511719,-4.8125 -1.949218,-10.535156 -11.574218,-7.414062 -8.324219,1.691406 -16.777344,-0.257812 -20.550782,-5.980469 z m 0,0"
           id="path60-3-7"
           style="fill:#000000" />
      </g>
    </g>
  </g>
  <g
     fill="#5271ff"
     fill-opacity="1"
     id="g74-7-6"
     transform="matrix(1.040537,0,0,1.2809605,-20.90022,-22.708721)"
     style="fill:#000000">
    <g
       transform="translate(611.10399,122.92585)"
       id="g72-5-5"
       style="fill:#000000">
      <g
         id="g70-9-6"
         style="fill:#000000">
        <path
           d="m 40.320312,-53.453125 c -2.472656,8.710937 -5.074218,18.207031 -7.804687,26.402344 -3.902344,11.054687 -12.097656,18.726562 -17.167969,18.726562 -4.8125,0 -3.511718,-6.761719 -1.691406,-14.175781 2.339844,-10.40625 5.722656,-21.980469 7.542969,-29.265625 0,-3.511719 -11.964844,-4.679687 -13.527344,-1.429687 -2.988281,11.574218 -7.542969,24.320312 -9.882813,37.328124 -1.691406,9.105469 0.910157,16.90625 11.183594,17.039063 8.714844,0.257813 16.910156,-4.03125 24.453125,-16.519531 -1.953125,7.804687 0.78125,15.996094 7.933594,15.996094 13.527344,0.132812 23.152344,-17.945313 27.574219,-26.789063 0.777344,-1.5625 -3.773438,-4.292969 -4.554688,-2.601563 -4.679687,10.925782 -12.484375,20.546876 -17.425781,20.417969 -6.632813,0 3.511719,-31.214843 6.890625,-43.308593 -0.910156,-3.773438 -11.964844,-4.683594 -13.523438,-1.820313 z m 0,0"
           id="path68-2-9"
           style="fill:#000000" />
      </g>
    </g>
  </g>
  <g
     fill="#5271ff"
     fill-opacity="1"
     id="g82-2-3"
     transform="matrix(1.040537,0,0,1.2809605,-20.90022,-22.708721)"
     style="fill:#000000">
    <g
       transform="translate(683.80462,122.92585)"
       id="g80-8-7"
       style="fill:#000000">
      <g
         id="g78-9-4"
         style="fill:#000000">
        <path
           d="m 25.75,-86.878906 c -10.011719,6.632812 -17.816406,24.320312 -22.238281,43.046875 -5.59375,23.671875 -5.59375,42.921875 11.964843,45.003906 17.6875,1.949219 26.402344,-11.835937 33.945313,-27.3125 0.652344,-1.5625 -3.902344,-4.164063 -4.550781,-2.734375 -5.203125,10.925781 -14.4375,21.851562 -23.929688,21.070312 -8.324218,-0.648437 -9.367187,-10.273437 -6.503906,-23.410156 17.035156,-7.023437 28.09375,-19.636718 32.382812,-34.335937 6.375,-20.027344 -8.453124,-29.785157 -21.070312,-21.328125 z m 8.976562,7.152344 c 3.640626,0.261718 2.339844,8.582031 -1.953124,18.46875 -3.511719,7.933593 -9.492188,16.128906 -16.386719,20.808593 2.210937,-8.324219 5.464843,-17.558593 7.675781,-23.148437 3.640625,-9.367188 7.152344,-16.257813 10.664062,-16.128906 z m 0,0"
           id="path76-7-5"
           style="fill:#000000" />
      </g>
    </g>
  </g>
  <g
     fill="#5271ff"
     fill-opacity="1"
     id="g12-3-3-2"
     transform="matrix(1.040537,0,0,1.2809605,-25.367212,-29.038467)"
     style="fill:#ffffff">
    <g
       transform="translate(13.76237,122.92585)"
       id="g10-6-6-5"
       style="fill:#ffffff">
      <g
         id="g8-7-1-4"
         style="fill:#ffffff">
        <path
           d="m 56.054688,-74.265625 c -15.734376,6.632813 -21.589844,56.316406 -28.089844,70.492187 -0.914063,4.683594 11.183594,5.335938 13.394531,2.082032 2.210937,-4.941406 4.683594,-16.777344 7.933594,-28.613282 24.449219,7.285157 44.089843,-4.292968 47.601562,-25.882812 3.773439,-22.5 -16.386719,-33.945312 -36.808593,-34.203125 -23.019532,-0.261719 -45.128907,10.925781 -45.128907,30.171875 0,6.113281 2.859375,11.578125 8.0625,15.089844 3.511719,1.558594 9.367188,-2.992188 8.585938,-5.722656 -9.753907,-16.128907 8.324219,-30.695313 28.613281,-30.046876 12.746094,0.519532 24.582031,8.195313 22.238281,23.410157 -2.339843,15.738281 -14.824219,23.28125 -30.953125,18.859375 3.773438,-13.914063 7.933594,-29.003906 13.785156,-32.253906 1.5625,-2.082032 -5.203124,-4.941407 -9.234374,-3.382813 z m 0,0"
           id="path6-5-2-7"
           style="fill:#ffffff" />
      </g>
    </g>
  </g>
  <g
     fill="#5271ff"
     fill-opacity="1"
     id="g20-3-9-4"
     transform="matrix(1.040537,0,0,1.2809605,-25.367212,-29.038467)"
     style="fill:#ffffff">
    <g
       transform="translate(122.09771,122.92585)"
       id="g18-5-3-4"
       style="fill:#ffffff">
      <g
         id="g16-6-1-3"
         style="fill:#ffffff">
        <path
           d="m 40.320312,-53.453125 c -2.472656,8.710937 -5.074218,18.207031 -7.804687,26.402344 -3.902344,11.054687 -12.097656,18.726562 -17.167969,18.726562 -4.8125,0 -3.511718,-6.761719 -1.691406,-14.175781 2.339844,-10.40625 5.722656,-21.980469 7.542969,-29.265625 0,-3.511719 -11.964844,-4.679687 -13.527344,-1.429687 -2.988281,11.574218 -7.542969,24.320312 -9.882813,37.328124 -1.691406,9.105469 0.910157,16.90625 11.183594,17.039063 8.714844,0.257813 16.910156,-4.03125 24.453125,-16.519531 -1.953125,7.804687 0.78125,15.996094 7.933594,15.996094 13.527344,0.132812 23.152344,-17.945313 27.574219,-26.789063 0.777344,-1.5625 -3.773438,-4.292969 -4.554688,-2.601563 -4.679687,10.925782 -12.484375,20.546876 -17.425781,20.417969 -6.632813,0 3.511719,-31.214843 6.890625,-43.308593 -0.910156,-3.773438 -11.964844,-4.683594 -13.523438,-1.820313 z m 0,0"
           id="path14-2-9-0"
           style="fill:#ffffff" />
      </g>
    </g>
  </g>
  <g
     fill="#5271ff"
     fill-opacity="1"
     id="g28-9-4-7"
     transform="matrix(1.040537,0,0,1.2809605,-25.367212,-29.038467)"
     style="fill:#ffffff">
    <g
       transform="translate(194.79835,122.92585)"
       id="g26-1-7-8"
       style="fill:#ffffff">
      <g
         id="g24-2-8-6"
         style="fill:#ffffff">
        <path
           d="m 40.449219,-55.40625 c -8.585938,-0.128906 -17.429688,8.324219 -22.109375,13.785156 1.167968,-3.769531 1.6875,-5.980468 2.859375,-10.144531 -1.300781,-4.03125 -11.445313,-4.679687 -13.527344,-1.820313 -5.199219,18.988282 -9.621094,33.816407 -13.785156,51.113282 0.261719,4.292968 13.136719,3.902344 14.566406,1.042968 2.730469,-11.707031 4.164063,-18.339843 7.804687,-30.566406 4.8125,-6.5 11.707032,-12.613281 16.257813,-12.746094 4.421875,-0.128906 3.769531,4.164063 2.859375,8.066407 -1.167969,5.332031 -4.8125,19.507812 -5.589844,23.929687 -1.5625,8.453125 1.429688,14.175782 11.3125,13.917969 12.617188,-0.132813 22.371094,-16 27.574219,-27.3125 0.648437,-1.5625 -3.902344,-4.164063 -4.550781,-2.601563 -4.8125,11.183594 -12.488282,20.808594 -17.820313,20.808594 -3.25,0 -2.601562,-4.941406 -1.558593,-9.753906 1.429687,-6.242188 4.160156,-13.527344 5.589843,-19.507812 2.472657,-10.535157 0,-18.082032 -9.882812,-18.210938 z m 0,0"
           id="path22-7-4-8"
           style="fill:#ffffff" />
      </g>
    </g>
  </g>
  <g
     fill="#5271ff"
     fill-opacity="1"
     id="g36-0-5-8"
     transform="matrix(1.040537,0,0,1.2809605,-25.367212,-29.038467)"
     style="fill:#ffffff">
    <g
       transform="translate(267.10882,122.92585)"
       id="g34-9-0-4"
       style="fill:#ffffff">
      <g
         id="g32-3-3-3"
         style="fill:#ffffff">
        <path
           d="m 15.996094,1.171875 c 13.007812,-0.132813 22.5,-10.925781 29.523437,-27.183594 0.652344,-1.691406 -3.769531,-4.292969 -4.550781,-2.730469 -5.460938,12.355469 -14.695312,20.9375 -22.238281,20.808594 -6.375,-0.128906 -6.375,-8.972656 -3.644531,-20.941406 1.171874,-5.460938 3.121093,-12.355469 5.074218,-19.117188 h 12.226563 c 1.949219,-0.648437 3.511719,-6.761718 1.039062,-8.582031 H 22.5 c 2.992188,-9.886719 5.984375,-19.121093 8.84375,-27.054687 -0.128906,-3.769532 -11.964844,-5.203125 -13.785156,-2.601563 C 14.957031,-79.597656 10.925781,-67.5 7.542969,-56.574219 H 2.339844 c -2.078125,0.777344 -3.640625,7.152344 -1.039063,8.582031 H 5.203125 C -0.78125,-25.230469 -6.761719,1.429688 15.996094,1.171875 Z m 0,0"
           id="path30-6-6-1"
           style="fill:#ffffff" />
      </g>
    </g>
  </g>
  <g
     fill="#5271ff"
     fill-opacity="1"
     id="g44-0-1-4"
     transform="matrix(1.040537,0,0,1.2809605,-25.367212,-29.038467)"
     style="fill:#ffffff">
    <g
       transform="translate(316.26976,122.92585)"
       id="g42-6-0-9"
       style="fill:#ffffff">
      <g
         id="g40-2-6-2"
         style="fill:#ffffff">
        <path
           d="m 32.773438,-55.40625 c -15.34375,0.261719 -29.261719,11.964844 -32.902344,29.914062 -3.902344,19.769532 6.371094,26.792969 18.988281,26.792969 8.582031,0 15.867187,-3.25 21.71875,-8.972656 9.496094,1.949219 20.550781,0 29.003906,-18.46875 0.78125,-1.691406 -3.773437,-4.164063 -4.550781,-2.601563 -5.59375,13.136719 -13.136719,16.257813 -19.511719,15.605469 11.054688,-18.207031 10.40625,-42.660156 -12.746093,-42.269531 z m -1.6875,9.234375 c 9.753906,-0.519531 8.320312,13.917969 3.25,25.882813 -3.640626,-0.78125 -7.023438,4.03125 -4.550782,7.804687 -2.34375,2.730469 -5.59375,4.550781 -8.84375,4.550781 -8.066406,0 -7.675781,-9.363281 -6.113281,-17.429687 1.949219,-9.753907 8.582031,-20.417969 16.257813,-20.808594 z m 0,0"
           id="path38-6-3-0"
           style="fill:#ffffff" />
      </g>
    </g>
  </g>
  <g
     fill="#5271ff"
     fill-opacity="1"
     id="g58-1-2-6"
     transform="matrix(1.040537,0,0,1.2809605,-25.367212,-29.038467)"
     style="fill:#ffffff">
    <g
       transform="translate(423.43529,122.92585)"
       id="g56-8-0-8"
       style="fill:#ffffff">
      <g
         id="g54-7-6-9"
         style="fill:#ffffff">
        <path
           d="m 27.050781,1.171875 c 16.128907,-0.261719 23.800781,-13.007813 31.347657,-31.214844 6.113281,0.648438 12.746093,1.429688 16.644531,1.691407 -2.46875,9.621093 -4.808594,19.117187 -5.851563,26.011718 1.429688,3.640625 12.746094,3.640625 14.699219,0 1.039063,-7.414062 3.640625,-17.300781 5.722656,-26.273437 9.753907,-0.78125 19.378909,-3.902344 25.359379,-11.316407 1.42968,-1.820312 -1.17188,-6.5 -3.51172,-4.160156 -4.67969,4.941406 -12.355471,7.152344 -20.550784,7.671875 2.210938,-8.453125 7.15625,-28.613281 7.285156,-41.226562 0,-13.527344 -15.996093,-16.519531 -27.441406,-4.421875 C 61.648438,-72.445312 55.277344,-57.226562 48.121094,-40.1875 29.652344,-41.75 12.226562,-33.816406 8.972656,-18.339844 6.761719,-6.761719 12.875,1.429688 27.050781,1.171875 Z M 76.867188,-36.675781 C 73.355469,-36.9375 66.980469,-37.71875 61.777344,-38.496094 66.980469,-52.285156 72.832031,-68.410156 80.117188,-77.125 c 3.773437,-4.421875 6.894531,-3.253906 6.113281,1.691406 -2.082031,12.222656 -6.632813,29.003906 -9.363281,38.757813 z M 27.441406,-8.0625 c -5.070312,0 -5.851562,-5.074219 -4.421875,-10.144531 2.863281,-8.976563 11.1875,-13.136719 21.460938,-12.878907 -5.460938,13.398438 -9.625,22.890626 -17.039063,23.023438 z m 0,0"
           id="path52-9-1-2"
           style="fill:#ffffff" />
      </g>
    </g>
  </g>
  <g
     fill="#5271ff"
     fill-opacity="1"
     id="g66-2-5-6"
     transform="matrix(1.040537,0,0,1.2809605,-25.367212,-29.038467)"
     style="fill:#ffffff">
    <g
       transform="translate(540.48423,122.92585)"
       id="g64-0-5-6"
       style="fill:#ffffff">
      <g
         id="g62-2-4-4"
         style="fill:#ffffff">
        <path
           d="m 20.289062,-57.355469 c 4.03125,-19.378906 -18.988281,-11.578125 -9.234374,2.859375 -3.902344,12.617188 -7.414063,19.898438 -12.355469,30.304688 -0.78125,1.5625 3.640625,4.03125 4.550781,2.339844 4.554688,-8.84375 8.585938,-16.90625 12.097656,-27.703126 4.160156,6.113282 13.136719,8.585938 19.636719,7.546876 -6.890625,10.664062 -14.957031,20.417968 -24.96875,30.5625 -15.089844,4.8125 -6.113281,20.679687 7.152344,10.144531 8.195312,-0.910157 10.535156,3.511719 19.507812,3.25 C 48.382812,1.5625 59.699219,-9.882812 66.980469,-26.140625 67.5,-27.574219 63.078125,-30.304688 62.429688,-28.742188 56.445312,-15.347656 48.511719,-8.0625 40.839844,-7.671875 c -6.242188,0.386719 -9.234375,-2.601563 -14.828125,-2.472656 11.054687,-10.925781 18.46875,-22.371094 26.402343,-33.816407 3.511719,-4.8125 -1.949218,-10.535156 -11.574218,-7.414062 -8.324219,1.691406 -16.777344,-0.257812 -20.550782,-5.980469 z m 0,0"
           id="path60-3-7-9"
           style="fill:#ffffff" />
      </g>
    </g>
  </g>
  <g
     fill="#5271ff"
     fill-opacity="1"
     id="g74-7-6-5"
     transform="matrix(1.040537,0,0,1.2809605,-25.367212,-29.038467)"
     style="fill:#ffffff">
    <g
       transform="translate(611.10399,122.92585)"
       id="g72-5-5-0"
       style="fill:#ffffff">
      <g
         id="g70-9-6-4"
         style="fill:#ffffff">
        <path
           d="m 40.320312,-53.453125 c -2.472656,8.710937 -5.074218,18.207031 -7.804687,26.402344 -3.902344,11.054687 -12.097656,18.726562 -17.167969,18.726562 -4.8125,0 -3.511718,-6.761719 -1.691406,-14.175781 2.339844,-10.40625 5.722656,-21.980469 7.542969,-29.265625 0,-3.511719 -11.964844,-4.679687 -13.527344,-1.429687 -2.988281,11.574218 -7.542969,24.320312 -9.882813,37.328124 -1.691406,9.105469 0.910157,16.90625 11.183594,17.039063 8.714844,0.257813 16.910156,-4.03125 24.453125,-16.519531 -1.953125,7.804687 0.78125,15.996094 7.933594,15.996094 13.527344,0.132812 23.152344,-17.945313 27.574219,-26.789063 0.777344,-1.5625 -3.773438,-4.292969 -4.554688,-2.601563 -4.679687,10.925782 -12.484375,20.546876 -17.425781,20.417969 -6.632813,0 3.511719,-31.214843 6.890625,-43.308593 -0.910156,-3.773438 -11.964844,-4.683594 -13.523438,-1.820313 z m 0,0"
           id="path68-2-9-8"
           style="fill:#ffffff" />
      </g>
    </g>
  </g>
  <g
     fill="#5271ff"
     fill-opacity="1"
     id="g82-2-3-7"
     transform="matrix(1.040537,0,0,1.2809605,-25.367212,-29.038467)"
     style="fill:#ffffff">
    <g
       transform="translate(683.80462,122.92585)"
       id="g80-8-7-1"
       style="fill:#ffffff">
      <g
         id="g78-9-4-7"
         style="fill:#ffffff">
        <path
           d="m 25.75,-86.878906 c -10.011719,6.632812 -17.816406,24.320312 -22.238281,43.046875 -5.59375,23.671875 -5.59375,42.921875 11.964843,45.003906 17.6875,1.949219 26.402344,-11.835937 33.945313,-27.3125 0.652344,-1.5625 -3.902344,-4.164063 -4.550781,-2.734375 -5.203125,10.925781 -14.4375,21.851562 -23.929688,21.070312 -8.324218,-0.648437 -9.367187,-10.273437 -6.503906,-23.410156 17.035156,-7.023437 28.09375,-19.636718 32.382812,-34.335937 6.375,-20.027344 -8.453124,-29.785157 -21.070312,-21.328125 z m 8.976562,7.152344 c 3.640626,0.261718 2.339844,8.582031 -1.953124,18.46875 -3.511719,7.933593 -9.492188,16.128906 -16.386719,20.808593 2.210937,-8.324219 5.464843,-17.558593 7.675781,-23.148437 3.640625,-9.367188 7.152344,-16.257813 10.664062,-16.128906 z m 0,0"
           id="path76-7-5-2"
           style="fill:#ffffff" />
      </g>
    </g>
  </g>
  <g
     fill="#5271ff"
     fill-opacity="1"
     id="g12-3-3-2-7"
     transform="matrix(1.040537,0,0,1.2809605,-27.127693,-31.646018)"
     style="fill:#4c9cf0">
    <g
       transform="translate(13.76237,122.92585)"
       id="g10-6-6-5-2"
       style="fill:#4c9cf0">
      <g
         id="g8-7-1-4-2"
         style="fill:#4c9cf0">
        <path
           d="m 56.054688,-74.265625 c -15.734376,6.632813 -21.589844,56.316406 -28.089844,70.492187 -0.914063,4.683594 11.183594,5.335938 13.394531,2.082032 2.210937,-4.941406 4.683594,-16.777344 7.933594,-28.613282 24.449219,7.285157 44.089843,-4.292968 47.601562,-25.882812 3.773439,-22.5 -16.386719,-33.945312 -36.808593,-34.203125 -23.019532,-0.261719 -45.128907,10.925781 -45.128907,30.171875 0,6.113281 2.859375,11.578125 8.0625,15.089844 3.511719,1.558594 9.367188,-2.992188 8.585938,-5.722656 -9.753907,-16.128907 8.324219,-30.695313 28.613281,-30.046876 12.746094,0.519532 24.582031,8.195313 22.238281,23.410157 -2.339843,15.738281 -14.824219,23.28125 -30.953125,18.859375 3.773438,-13.914063 7.933594,-29.003906 13.785156,-32.253906 1.5625,-2.082032 -5.203124,-4.941407 -9.234374,-3.382813 z m 0,0"
           id="path6-5-2-7-6"
           style="fill:#4c9cf0" />
      </g>
    </g>
  </g>
  <g
     fill="#5271ff"
     fill-opacity="1"
     id="g20-3-9-4-1"
     transform="matrix(1.040537,0,0,1.2809605,-27.127693,-31.646018)"
     style="fill:#4c9cf0">
    <g
       transform="translate(122.09771,122.92585)"
       id="g18-5-3-4-0"
       style="fill:#4c9cf0">
      <g
         id="g16-6-1-3-6"
         style="fill:#4c9cf0">
        <path
           d="m 40.320312,-53.453125 c -2.472656,8.710937 -5.074218,18.207031 -7.804687,26.402344 -3.902344,11.054687 -12.097656,18.726562 -17.167969,18.726562 -4.8125,0 -3.511718,-6.761719 -1.691406,-14.175781 2.339844,-10.40625 5.722656,-21.980469 7.542969,-29.265625 0,-3.511719 -11.964844,-4.679687 -13.527344,-1.429687 -2.988281,11.574218 -7.542969,24.320312 -9.882813,37.328124 -1.691406,9.105469 0.910157,16.90625 11.183594,17.039063 8.714844,0.257813 16.910156,-4.03125 24.453125,-16.519531 -1.953125,7.804687 0.78125,15.996094 7.933594,15.996094 13.527344,0.132812 23.152344,-17.945313 27.574219,-26.789063 0.777344,-1.5625 -3.773438,-4.292969 -4.554688,-2.601563 -4.679687,10.925782 -12.484375,20.546876 -17.425781,20.417969 -6.632813,0 3.511719,-31.214843 6.890625,-43.308593 -0.910156,-3.773438 -11.964844,-4.683594 -13.523438,-1.820313 z m 0,0"
           id="path14-2-9-0-1"
           style="fill:#4c9cf0" />
      </g>
    </g>
  </g>
  <g
     fill="#5271ff"
     fill-opacity="1"
     id="g28-9-4-7-5"
     transform="matrix(1.040537,0,0,1.2809605,-27.127693,-31.646018)"
     style="fill:#4c9cf0">
    <g
       transform="translate(194.79835,122.92585)"
       id="g26-1-7-8-9"
       style="fill:#4c9cf0">
      <g
         id="g24-2-8-6-4"
         style="fill:#4c9cf0">
        <path
           d="m 40.449219,-55.40625 c -8.585938,-0.128906 -17.429688,8.324219 -22.109375,13.785156 1.167968,-3.769531 1.6875,-5.980468 2.859375,-10.144531 -1.300781,-4.03125 -11.445313,-4.679687 -13.527344,-1.820313 -5.199219,18.988282 -9.621094,33.816407 -13.785156,51.113282 0.261719,4.292968 13.136719,3.902344 14.566406,1.042968 2.730469,-11.707031 4.164063,-18.339843 7.804687,-30.566406 4.8125,-6.5 11.707032,-12.613281 16.257813,-12.746094 4.421875,-0.128906 3.769531,4.164063 2.859375,8.066407 -1.167969,5.332031 -4.8125,19.507812 -5.589844,23.929687 -1.5625,8.453125 1.429688,14.175782 11.3125,13.917969 12.617188,-0.132813 22.371094,-16 27.574219,-27.3125 0.648437,-1.5625 -3.902344,-4.164063 -4.550781,-2.601563 -4.8125,11.183594 -12.488282,20.808594 -17.820313,20.808594 -3.25,0 -2.601562,-4.941406 -1.558593,-9.753906 1.429687,-6.242188 4.160156,-13.527344 5.589843,-19.507812 2.472657,-10.535157 0,-18.082032 -9.882812,-18.210938 z m 0,0"
           id="path22-7-4-8-9"
           style="fill:#4c9cf0" />
      </g>
    </g>
  </g>
  <g
     fill="#5271ff"
     fill-opacity="1"
     id="g36-0-5-8-0"
     transform="matrix(1.040537,0,0,1.2809605,-27.127693,-31.646018)"
     style="fill:#4c9cf0">
    <g
       transform="translate(267.10882,122.92585)"
       id="g34-9-0-4-9"
       style="fill:#4c9cf0">
      <g
         id="g32-3-3-3-1"
         style="fill:#4c9cf0">
        <path
           d="m 15.996094,1.171875 c 13.007812,-0.132813 22.5,-10.925781 29.523437,-27.183594 0.652344,-1.691406 -3.769531,-4.292969 -4.550781,-2.730469 -5.460938,12.355469 -14.695312,20.9375 -22.238281,20.808594 -6.375,-0.128906 -6.375,-8.972656 -3.644531,-20.941406 1.171874,-5.460938 3.121093,-12.355469 5.074218,-19.117188 h 12.226563 c 1.949219,-0.648437 3.511719,-6.761718 1.039062,-8.582031 H 22.5 c 2.992188,-9.886719 5.984375,-19.121093 8.84375,-27.054687 -0.128906,-3.769532 -11.964844,-5.203125 -13.785156,-2.601563 C 14.957031,-79.597656 10.925781,-67.5 7.542969,-56.574219 H 2.339844 c -2.078125,0.777344 -3.640625,7.152344 -1.039063,8.582031 H 5.203125 C -0.78125,-25.230469 -6.761719,1.429688 15.996094,1.171875 Z m 0,0"
           id="path30-6-6-1-7"
           style="fill:#4c9cf0" />
      </g>
    </g>
  </g>
  <g
     fill="#5271ff"
     fill-opacity="1"
     id="g44-0-1-4-7"
     transform="matrix(1.040537,0,0,1.2809605,-27.127693,-31.646018)"
     style="fill:#4c9cf0">
    <g
       transform="translate(316.26976,122.92585)"
       id="g42-6-0-9-1"
       style="fill:#4c9cf0">
      <g
         id="g40-2-6-2-1"
         style="fill:#4c9cf0">
        <path
           d="m 32.773438,-55.40625 c -15.34375,0.261719 -29.261719,11.964844 -32.902344,29.914062 -3.902344,19.769532 6.371094,26.792969 18.988281,26.792969 8.582031,0 15.867187,-3.25 21.71875,-8.972656 9.496094,1.949219 20.550781,0 29.003906,-18.46875 0.78125,-1.691406 -3.773437,-4.164063 -4.550781,-2.601563 -5.59375,13.136719 -13.136719,16.257813 -19.511719,15.605469 11.054688,-18.207031 10.40625,-42.660156 -12.746093,-42.269531 z m -1.6875,9.234375 c 9.753906,-0.519531 8.320312,13.917969 3.25,25.882813 -3.640626,-0.78125 -7.023438,4.03125 -4.550782,7.804687 -2.34375,2.730469 -5.59375,4.550781 -8.84375,4.550781 -8.066406,0 -7.675781,-9.363281 -6.113281,-17.429687 1.949219,-9.753907 8.582031,-20.417969 16.257813,-20.808594 z m 0,0"
           id="path38-6-3-0-5"
           style="fill:#4c9cf0" />
      </g>
    </g>
  </g>
  <g
     fill="#5271ff"
     fill-opacity="1"
     id="g58-1-2-6-9"
     transform="matrix(1.040537,0,0,1.2809605,-27.127693,-31.646018)"
     style="fill:#4c9cf0">
    <g
       transform="translate(423.43529,122.92585)"
       id="g56-8-0-8-7"
       style="fill:#4c9cf0">
      <g
         id="g54-7-6-9-7"
         style="fill:#4c9cf0">
        <path
           d="m 27.050781,1.171875 c 16.128907,-0.261719 23.800781,-13.007813 31.347657,-31.214844 6.113281,0.648438 12.746093,1.429688 16.644531,1.691407 -2.46875,9.621093 -4.808594,19.117187 -5.851563,26.011718 1.429688,3.640625 12.746094,3.640625 14.699219,0 1.039063,-7.414062 3.640625,-17.300781 5.722656,-26.273437 9.753907,-0.78125 19.378909,-3.902344 25.359379,-11.316407 1.42968,-1.820312 -1.17188,-6.5 -3.51172,-4.160156 -4.67969,4.941406 -12.355471,7.152344 -20.550784,7.671875 2.210938,-8.453125 7.15625,-28.613281 7.285156,-41.226562 0,-13.527344 -15.996093,-16.519531 -27.441406,-4.421875 C 61.648438,-72.445312 55.277344,-57.226562 48.121094,-40.1875 29.652344,-41.75 12.226562,-33.816406 8.972656,-18.339844 6.761719,-6.761719 12.875,1.429688 27.050781,1.171875 Z M 76.867188,-36.675781 C 73.355469,-36.9375 66.980469,-37.71875 61.777344,-38.496094 66.980469,-52.285156 72.832031,-68.410156 80.117188,-77.125 c 3.773437,-4.421875 6.894531,-3.253906 6.113281,1.691406 -2.082031,12.222656 -6.632813,29.003906 -9.363281,38.757813 z M 27.441406,-8.0625 c -5.070312,0 -5.851562,-5.074219 -4.421875,-10.144531 2.863281,-8.976563 11.1875,-13.136719 21.460938,-12.878907 -5.460938,13.398438 -9.625,22.890626 -17.039063,23.023438 z m 0,0"
           id="path52-9-1-2-6"
           style="fill:#4c9cf0" />
      </g>
    </g>
  </g>
  <g
     fill="#5271ff"
     fill-opacity="1"
     id="g66-2-5-6-7"
     transform="matrix(1.040537,0,0,1.2809605,-27.127693,-31.646018)"
     style="fill:#4c9cf0">
    <g
       transform="translate(540.48423,122.92585)"
       id="g64-0-5-6-3"
       style="fill:#4c9cf0">
      <g
         id="g62-2-4-4-6"
         style="fill:#4c9cf0">
        <path
           d="m 20.289062,-57.355469 c 4.03125,-19.378906 -18.988281,-11.578125 -9.234374,2.859375 -3.902344,12.617188 -7.414063,19.898438 -12.355469,30.304688 -0.78125,1.5625 3.640625,4.03125 4.550781,2.339844 4.554688,-8.84375 8.585938,-16.90625 12.097656,-27.703126 4.160156,6.113282 13.136719,8.585938 19.636719,7.546876 -6.890625,10.664062 -14.957031,20.417968 -24.96875,30.5625 -15.089844,4.8125 -6.113281,20.679687 7.152344,10.144531 8.195312,-0.910157 10.535156,3.511719 19.507812,3.25 C 48.382812,1.5625 59.699219,-9.882812 66.980469,-26.140625 67.5,-27.574219 63.078125,-30.304688 62.429688,-28.742188 56.445312,-15.347656 48.511719,-8.0625 40.839844,-7.671875 c -6.242188,0.386719 -9.234375,-2.601563 -14.828125,-2.472656 11.054687,-10.925781 18.46875,-22.371094 26.402343,-33.816407 3.511719,-4.8125 -1.949218,-10.535156 -11.574218,-7.414062 -8.324219,1.691406 -16.777344,-0.257812 -20.550782,-5.980469 z m 0,0"
           id="path60-3-7-9-5"
           style="fill:#4c9cf0" />
      </g>
    </g>
  </g>
  <g
     fill="#5271ff"
     fill-opacity="1"
     id="g74-7-6-5-6"
     transform="matrix(1.040537,0,0,1.2809605,-27.127693,-31.646018)"
     style="fill:#4c9cf0">
    <g
       transform="translate(611.10399,122.92585)"
       id="g72-5-5-0-3"
       style="fill:#4c9cf0">
      <g
         id="g70-9-6-4-9"
         style="fill:#4c9cf0">
        <path
           d="m 40.320312,-53.453125 c -2.472656,8.710937 -5.074218,18.207031 -7.804687,26.402344 -3.902344,11.054687 -12.097656,18.726562 -17.167969,18.726562 -4.8125,0 -3.511718,-6.761719 -1.691406,-14.175781 2.339844,-10.40625 5.722656,-21.980469 7.542969,-29.265625 0,-3.511719 -11.964844,-4.679687 -13.527344,-1.429687 -2.988281,11.574218 -7.542969,24.320312 -9.882813,37.328124 -1.691406,9.105469 0.910157,16.90625 11.183594,17.039063 8.714844,0.257813 16.910156,-4.03125 24.453125,-16.519531 -1.953125,7.804687 0.78125,15.996094 7.933594,15.996094 13.527344,0.132812 23.152344,-17.945313 27.574219,-26.789063 0.777344,-1.5625 -3.773438,-4.292969 -4.554688,-2.601563 -4.679687,10.925782 -12.484375,20.546876 -17.425781,20.417969 -6.632813,0 3.511719,-31.214843 6.890625,-43.308593 -0.910156,-3.773438 -11.964844,-4.683594 -13.523438,-1.820313 z m 0,0"
           id="path68-2-9-8-4"
           style="fill:#4c9cf0" />
      </g>
    </g>
  </g>
  <g
     fill="#5271ff"
     fill-opacity="1"
     id="g82-2-3-7-8"
     transform="matrix(1.040537,0,0,1.2809605,-27.127693,-31.646018)"
     style="fill:#4c9cf0">
    <g
       transform="translate(683.80462,122.92585)"
       id="g80-8-7-1-1"
       style="fill:#4c9cf0">
      <g
         id="g78-9-4-7-2"
         style="fill:#4c9cf0">
        <path
           d="m 25.75,-86.878906 c -10.011719,6.632812 -17.816406,24.320312 -22.238281,43.046875 -5.59375,23.671875 -5.59375,42.921875 11.964843,45.003906 17.6875,1.949219 26.402344,-11.835937 33.945313,-27.3125 0.652344,-1.5625 -3.902344,-4.164063 -4.550781,-2.734375 -5.203125,10.925781 -14.4375,21.851562 -23.929688,21.070312 -8.324218,-0.648437 -9.367187,-10.273437 -6.503906,-23.410156 17.035156,-7.023437 28.09375,-19.636718 32.382812,-34.335937 6.375,-20.027344 -8.453124,-29.785157 -21.070312,-21.328125 z m 8.976562,7.152344 c 3.640626,0.261718 2.339844,8.582031 -1.953124,18.46875 -3.511719,7.933593 -9.492188,16.128906 -16.386719,20.808593 2.210937,-8.324219 5.464843,-17.558593 7.675781,-23.148437 3.640625,-9.367188 7.152344,-16.257813 10.664062,-16.128906 z m 0,0"
           id="path76-7-5-2-9"
           style="fill:#4c9cf0" />
      </g>
    </g>
  </g>
</svg>
