<svg xmlns="http://www.w3.org/2000/svg" xmlns:xlink="http://www.w3.org/1999/xlink" width="750" zoomAndPan="magnify" viewBox="0 0 750 149.999998" height="149.999998" preserveAspectRatio="xMidYMid meet" version="1.0"><defs><filter x="0%" y="0%" width="100%" xlink:type="simple" xlink:actuate="onLoad" height="100%" id="id1" xlink:show="other"><feColorMatrix values="0 0 0 0 1 0 0 0 0 1 0 0 0 0 1 0 0 0 1 0" color-interpolation-filters="sRGB"/></filter><clipPath id="id2"><path d="M 345 64.273438 L 404 64.273438 L 404 86.023438 L 345 86.023438 Z M 345 64.273438 " clip-rule="nonzero"/></clipPath><mask id="id3"><g filter="url(#id1)"><rect x="-75" width="900" fill="rgb(0%, 0%, 0%)" y="-15" height="179.999997" fill-opacity="0.098"/></g></mask><clipPath id="id4"><path d="M 38 0.273438 L 43 0.273438 L 43 22 L 38 22 Z M 38 0.273438 " clip-rule="nonzero"/></clipPath><clipPath id="id5"><path d="M 40 1 L 58.679688 1 L 58.679688 22.023438 L 40 22.023438 Z M 40 1 " clip-rule="nonzero"/></clipPath><clipPath id="id6"><path d="M 0 0.273438 L 39 0.273438 L 39 22 L 0 22 Z M 0 0.273438 " clip-rule="nonzero"/></clipPath><clipPath id="id7"><rect x="0" width="59" y="0" height="23"/></clipPath><clipPath id="id8"><path d="M 359 64.273438 L 369 64.273438 L 369 85 L 359 85 Z M 359 64.273438 " clip-rule="nonzero"/></clipPath><clipPath id="id9"><path d="M 382 64.273438 L 385 64.273438 L 385 86 L 382 86 Z M 382 64.273438 " clip-rule="nonzero"/></clipPath><clipPath id="id10"><path d="M 345 64.273438 L 404 64.273438 L 404 86 L 345 86 Z M 345 64.273438 " clip-rule="nonzero"/></clipPath><clipPath id="id11"><path d="M 361 64.273438 L 384 64.273438 L 384 86 L 361 86 Z M 361 64.273438 " clip-rule="nonzero"/></clipPath><clipPath id="id12"><path d="M 345 64.273438 L 392 64.273438 L 392 67 L 345 67 Z M 345 64.273438 " clip-rule="nonzero"/></clipPath></defs><g clip-path="url(#id2)"><g mask="url(#id3)"><g transform="matrix(1, 0, 0, 1, 345, 64)"><g clip-path="url(#id7)"><path fill="rgb(100%, 100%, 100%)" d="M 19.175781 20.65625 L 22.570312 20.78125 C 19.726562 11.746094 16.589844 2.984375 15.410156 1.515625 C 15.222656 3.417969 17.023438 12.027344 19.175781 20.65625 Z M 19.175781 20.65625 " fill-opacity="1" fill-rule="nonzero"/><g clip-path="url(#id4)"><path fill="rgb(100%, 100%, 100%)" d="M 39.390625 0.925781 C 38.820312 8.746094 38.421875 17.347656 38.558594 21.359375 L 39.308594 21.386719 C 40.207031 17.335938 41.449219 8.660156 42.351562 1.03125 Z M 39.390625 0.925781 " fill-opacity="1" fill-rule="nonzero"/></g><g clip-path="url(#id5)"><path fill="rgb(100%, 100%, 100%)" d="M 58.648438 7.570312 L 57.550781 6.386719 C 57.550781 6.386719 57.621094 6.113281 57.679688 5.785156 L 58.257812 4.984375 L 58.21875 3.984375 L 57.601562 3.640625 C 57.722656 3.128906 57.898438 2.613281 57.898438 2.613281 L 58.371094 2.453125 L 58.574219 2.015625 L 57.78125 1.648438 L 52.765625 1.46875 L 43.242188 1.125 C 43.011719 2.132812 42.457031 6.742188 41.796875 11.410156 C 41.078125 16.496094 40.53125 19.550781 40.113281 21.417969 L 51.992188 21.851562 L 56.820312 22.023438 L 57.628906 21.773438 L 57.628906 20.570312 L 57.03125 19.578125 C 57.039062 19.496094 57.050781 19.382812 57.0625 19.25 L 58.273438 18.117188 L 57.09375 16.839844 C 57.164062 16.710938 57.253906 16.570312 57.347656 16.433594 L 58.367188 15.480469 L 57.339844 14.367188 L 57.335938 14.367188 L 57.824219 14.234375 L 57.984375 13.289062 L 58.460938 12.839844 L 57.425781 11.726562 L 57.917969 11.511719 L 58.523438 11.085938 L 58.550781 10.207031 L 57.285156 8.839844 Z M 58.648438 7.570312 " fill-opacity="1" fill-rule="nonzero"/></g><g clip-path="url(#id6)"><path fill="rgb(100%, 100%, 100%)" d="M 38.6875 0.972656 L 22.753906 0.28125 L 21.859375 0.273438 L 5.929688 0.394531 L 5.457031 0.398438 L 1.414062 0.429688 L 0.734375 0.722656 L 0.246094 1.257812 L 1.050781 1.617188 L 1.335938 2.316406 L 0.421875 3.1875 L 0.0976562 4.007812 L 1.070312 4.253906 L 1.355469 4.953125 L 0.765625 5.554688 L 0.414062 6.339844 L 0.839844 7.0625 L 0.84375 7.78125 L 0.621094 8.359375 L 1.0625 9.140625 L 1.394531 10.226562 L 0.445312 10.714844 L 0.496094 11.523438 L 0.9375 12.398438 L 1.414062 12.863281 L 0.660156 13.632812 L 0.722656 14.160156 L 0.742188 14.824219 L 1.433594 15.503906 L 0.128906 16.832031 L 0.828125 17.09375 L 1.453125 18.140625 L 1.175781 18.832031 L 0.429688 19.296875 L 0.558594 20.027344 L 1.230469 20.183594 L 1.472656 20.777344 L 5.496094 20.746094 L 6.304688 20.742188 L 16.089844 20.667969 L 13.582031 5.683594 L 17.324219 20.65625 L 18.242188 20.648438 C 17.738281 18.621094 17.070312 15.851562 16.445312 13.046875 C 13.933594 1.84375 14.476562 1.019531 14.742188 0.625 C 14.871094 0.433594 15.054688 0.324219 15.265625 0.320312 C 15.777344 0.320312 16.640625 0.3125 20.664062 12.058594 C 21.78125 15.320312 22.835938 18.605469 23.53125 20.8125 L 37.734375 21.328125 C 37.667969 19.375 37.710938 16.25 37.960938 11.195312 C 38.171875 6.890625 38.164062 2.902344 38.6875 0.972656 Z M 38.6875 0.972656 " fill-opacity="1" fill-rule="nonzero"/></g></g></g></g></g><g clip-path="url(#id8)"><path fill="rgb(100%, 100%, 100%)" d="M 360.265625 64.324219 C 360.058594 64.328125 359.871094 64.433594 359.742188 64.628906 C 359.480469 65.023438 358.929688 65.847656 361.445312 77.050781 C 362.070312 79.855469 362.742188 82.625 363.242188 84.652344 L 363.898438 84.648438 L 364.175781 84.660156 C 362.023438 76.03125 360.222656 67.417969 360.40625 65.515625 C 361.589844 66.984375 364.726562 75.746094 367.570312 84.78125 L 368.535156 84.816406 C 367.835938 82.609375 366.78125 79.324219 365.664062 76.0625 C 361.640625 64.316406 360.777344 64.320312 360.265625 64.324219 Z M 360.265625 64.324219 " fill-opacity="0.098" fill-rule="nonzero"/><path fill="rgb(100%, 100%, 100%)" d="M 360.265625 64.324219 C 360.058594 64.328125 359.871094 64.433594 359.742188 64.628906 C 359.480469 65.023438 359.949219 68.226562 362.457031 79.429688 C 363.085938 82.234375 362.738281 82.625 363.242188 84.652344 L 363.894531 84.648438 L 364.175781 84.660156 C 362.023438 76.03125 360.222656 67.417969 360.40625 65.515625 C 361.585938 66.984375 364.722656 75.746094 367.570312 84.78125 L 367.992188 84.796875 L 368.53125 84.816406 C 367.835938 82.609375 366.40625 79.570312 365.289062 76.308594 C 361.265625 64.558594 360.777344 64.320312 360.265625 64.324219 Z M 360.265625 64.324219 " fill-opacity="0.0471" fill-rule="nonzero"/></g><g clip-path="url(#id9)"><path fill="rgb(100%, 100%, 100%)" d="M 384.5625 65 L 383.574219 64.964844 C 383.410156 67.273438 383.171875 70.890625 382.960938 75.199219 C 382.714844 80.253906 382.671875 83.378906 382.734375 85.328125 L 383.558594 85.359375 C 383.425781 81.347656 383.945312 73.457031 384.5625 65 Z M 384.5625 65 " fill-opacity="0.098" fill-rule="nonzero"/><path fill="rgb(100%, 100%, 100%)" d="M 384.382812 64.996094 L 383.574219 64.964844 C 383.464844 66.574219 383.679688 70.855469 383.46875 75.164062 C 383.222656 80.21875 382.65625 83.097656 382.71875 85.046875 L 383.5625 85.359375 C 383.425781 81.347656 383.820312 72.746094 384.382812 64.996094 Z M 384.382812 64.996094 " fill-opacity="0.098" fill-rule="nonzero"/></g><path fill="rgb(100%, 100%, 100%)" d="M 388.242188 65.121094 L 387.292969 65.09375 C 386.34375 73.355469 385.207031 81.335938 384.3125 85.386719 L 385.113281 85.414062 C 385.53125 83.550781 386.078125 80.492188 386.796875 75.410156 C 387.460938 70.738281 388.042969 66.824219 388.242188 65.121094 Z M 388.242188 65.121094 " fill-opacity="0.098" fill-rule="nonzero"/><path fill="rgb(100%, 100%, 100%)" d="M 388.132812 65.125 L 387.324219 65.09375 C 386.742188 70.121094 384.492188 84.574219 384.144531 85.191406 C 383.964844 85.515625 384.609375 84.027344 384.308594 85.386719 L 386.285156 76.542969 L 385.671875 85.378906 C 386.089844 83.507812 386.078125 80.496094 386.796875 75.410156 C 387.460938 70.738281 388.011719 66.128906 388.132812 65.125 Z M 388.132812 65.125 " fill-opacity="0.098" fill-rule="nonzero"/><path fill="rgb(100%, 100%, 100%)" d="M 361.089844 84.667969 L 362.328125 84.660156 L 358.582031 69.6875 Z M 361.089844 84.667969 " fill-opacity="0.098" fill-rule="nonzero"/><path fill="rgb(100%, 100%, 100%)" d="M 361.089844 84.667969 L 362.328125 84.660156 L 361.007812 81.3125 L 358.582031 69.6875 Z M 361.089844 84.667969 " fill-opacity="0.0471" fill-rule="nonzero"/><g clip-path="url(#id10)"><path fill="rgb(100%, 100%, 100%)" d="M 403.648438 71.925781 L 402.554688 70.800781 C 402.554688 70.800781 402.625 70.539062 402.683594 70.226562 L 403.261719 69.460938 L 403.222656 68.507812 L 402.601562 68.175781 C 402.726562 67.691406 402.902344 67.199219 402.902344 67.199219 L 403.375 67.046875 L 403.574219 66.632812 L 402.585938 65.617188 L 397.734375 65.449219 L 367.082031 64.40625 L 367.082031 64.285156 L 351.15625 64.40625 L 350.34375 64.410156 L 346.300781 64.441406 L 345.457031 64.859375 L 345.015625 65.691406 L 346.054688 66.273438 L 346.339844 66.9375 L 345.226562 67.574219 L 345.035156 68.207031 L 346.074219 68.785156 L 346.355469 69.453125 L 345.769531 70.023438 L 345.417969 70.777344 L 345.839844 71.464844 L 345.847656 72.148438 L 345.621094 72.699219 L 346.066406 73.445312 L 346.398438 74.484375 L 345.449219 74.949219 L 345.496094 75.71875 L 345.941406 76.550781 L 346.414062 76.996094 L 345.664062 77.726562 L 345.722656 78.226562 L 345.746094 78.859375 L 346.433594 79.507812 L 345.128906 80.777344 L 345.828125 81.023438 L 346.453125 82.019531 L 346.179688 82.683594 L 345.429688 83.125 L 345.558594 83.820312 L 346.226562 83.972656 L 346.472656 84.539062 L 350.496094 84.507812 L 351.304688 84.5 L 363.898438 84.40625 L 396.988281 85.535156 L 401.820312 85.699219 L 402.628906 85.460938 L 402.628906 84.3125 L 402.03125 83.367188 C 402.039062 83.292969 402.050781 83.183594 402.0625 83.050781 L 403.277344 81.972656 L 402.09375 80.757812 C 402.164062 80.632812 402.257812 80.5 402.351562 80.367188 L 403.371094 79.457031 L 402.339844 78.402344 L 402.824219 78.277344 L 402.984375 77.375 L 403.460938 76.945312 L 402.425781 75.882812 L 402.921875 75.679688 L 403.523438 75.277344 L 403.554688 74.4375 L 402.289062 73.132812 Z M 403.648438 71.925781 " fill-opacity="0.098" fill-rule="nonzero"/></g><path fill="rgb(100%, 100%, 100%)" d="M 364.808594 84.84375 C 364.808594 84.84375 360.777344 68.914062 361.394531 68.964844 C 362.007812 69.019531 367.265625 84.785156 367.265625 84.785156 Z M 364.808594 84.84375 " fill-opacity="0.0275" fill-rule="nonzero"/><g clip-path="url(#id11)"><path fill="rgb(100%, 100%, 100%)" d="M 361.636719 64.324219 C 361.636719 64.324219 368.558594 84.015625 369.699219 84.601562 C 370.839844 85.191406 378.714844 83.941406 378.714844 83.941406 L 381.574219 85.007812 L 383.394531 64.933594 Z M 361.636719 64.324219 " fill-opacity="0.0471" fill-rule="nonzero"/></g><path fill="rgb(100%, 100%, 100%)" d="M 397.480469 65.445312 L 389 65.300781 L 386.351562 85.171875 C 386.351562 85.171875 396.066406 68.359375 400.527344 66.738281 C 404.984375 65.117188 402.589844 65.617188 402.589844 65.617188 Z M 397.480469 65.445312 " fill-opacity="0.0275" fill-rule="nonzero"/><g clip-path="url(#id12)"><path fill="rgb(100%, 100%, 100%)" d="M 345.125 65.996094 L 346.019531 64.601562 L 391.765625 65.652344 L 390.859375 66.574219 L 386.261719 66.625 L 384.257812 66.011719 L 383.898438 65.621094 L 383.054688 66.226562 L 346.90625 65.484375 L 346.503906 65.617188 Z M 345.125 65.996094 " fill-opacity="0.098" fill-rule="nonzero"/></g><path stroke-linecap="butt" transform="matrix(0.75, 0, 0, 0.75, 67.468939, -12.204665)" fill="none" stroke-linejoin="miter" d="M 152.671632 162.002063 C 154.45809 162.002063 155.77059 160.689563 155.77059 158.903105 L 155.77059 158.585396 C 154.973715 145.710395 154.656007 133.356228 154.656007 120.522894 L 154.656007 113.017685 C 185.723717 96.929143 199.390384 79.647892 199.390384 66.496849 C 199.390384 53.627057 186.7133 45.007265 164.390382 45.007265 L 161.645591 45.007265 C 160.812257 45.007265 159.859132 45.007265 158.86434 45.163515 C 159.025799 44.371848 159.187257 43.694764 159.187257 42.580181 C 159.702882 40.595806 158.072674 38.965598 156.088299 38.965598 C 154.296632 38.965598 153.025798 40.116639 152.869548 41.908306 L 152.353923 45.798931 C 147.624756 46.476015 142.937256 47.627056 137.890381 49.059348 C 136.421631 49.574973 135.588297 50.528098 135.588297 52.314557 C 135.588297 52.632265 135.588297 52.99164 135.744547 53.14789 C 136.260172 54.61664 137.374756 55.413515 138.843506 55.413515 C 139.359131 55.413515 139.676839 55.413515 139.838298 55.257265 C 143.728923 54.101015 147.624756 53.14789 151.557048 52.476015 C 149.609132 71.184349 148.45809 89.897892 148.140381 108.965602 C 142.577881 111.705185 136.739339 114.330185 130.541422 116.75206 C 129.10913 117.267685 128.437255 118.382269 128.437255 119.851019 C 128.437255 120.324977 128.437255 120.845811 128.593505 121.002061 C 129.270589 122.470811 130.223714 123.106227 131.692464 123.106227 C 133.322672 123.106227 146.192465 117.111435 147.984131 116.272894 C 147.984131 130.574978 148.140381 144.75727 149.254965 159.059355 C 149.452882 160.845813 150.723715 162.002063 152.510173 162.002063 Z M 154.656007 105.548935 C 155.135174 87.470809 156.286215 69.757266 158.228924 51.67914 C 160.656007 51.52289 162.760174 51.361432 164.906007 51.361432 C 183.260175 51.361432 192.874759 57.67914 192.874759 66.976016 C 192.874759 77.382266 180.676842 91.726017 154.656007 105.548935 Z M 219.385177 141.97602 C 228.046636 141.97602 234.202887 130.772895 237.619553 122.949977 C 238.452887 131.252061 242.031012 136.616645 247.708096 136.616645 C 253.588304 136.616645 261.374763 130.772895 269.676847 115.955185 C 269.838305 115.637477 269.994555 115.121852 269.994555 114.330185 C 269.994555 113.017685 269.520597 112.06456 268.369555 111.387477 C 268.051847 111.231227 267.57268 111.069768 266.739347 111.069768 C 265.307055 111.069768 264.473722 111.548935 263.999763 112.699977 C 255.853929 127.356228 249.499762 131.090603 246.916429 129.783311 C 244.452887 128.632269 243.97372 123.106227 243.97372 117.111435 C 243.97372 110.75206 244.609137 104.236435 244.770595 101.772893 C 244.770595 99.986434 243.338304 98.356226 241.515387 98.356226 C 239.921637 98.356226 238.770595 99.194768 238.296637 100.819768 C 233.56747 120.324977 224.786219 135.621853 219.744552 135.621853 C 217.281011 135.621853 215.96851 132.205186 215.81226 125.533311 C 215.81226 117.903102 217.119552 109.121852 218.270594 104.397893 C 218.588302 102.288518 217.754969 100.981226 215.650802 100.502059 C 213.546635 100.184351 212.234135 100.981226 211.760177 103.085393 C 210.603927 108.965602 209.296635 117.111435 209.296635 124.418728 C 209.296635 133.991645 211.598719 141.97602 219.385177 141.97602 Z M 277.333097 140.189562 C 278.801847 140.189562 279.754972 139.554145 280.275806 138.085395 C 286.270598 121.163519 293.42164 103.403101 297.197682 103.403101 C 297.833099 103.403101 298.312265 103.918726 298.82789 105.03331 C 299.301849 106.50206 299.619557 108.449977 299.619557 110.913518 C 299.619557 116.90831 298.468515 124.574978 305.499766 128.986436 C 307.286224 130.10102 309.234141 130.772895 311.656016 130.772895 C 320.281017 130.772895 328.5831 122.314561 333.468517 114.330185 C 333.786226 113.851019 333.942476 113.335394 333.942476 112.699977 C 333.942476 111.387477 333.468517 110.434352 332.317476 109.918727 C 331.838309 109.601018 331.202892 109.43956 330.525809 109.43956 C 329.416434 109.43956 328.421642 109.918727 327.947684 111.069768 C 324.848725 116.434352 317.697683 124.257269 311.973724 124.257269 C 310.864349 124.257269 309.869558 123.939561 309.077891 123.423936 C 305.301849 121.002061 306.135182 116.116644 306.135182 110.75206 C 306.135182 107.97081 305.978932 105.03331 304.822682 102.449976 C 303.353932 98.715601 300.254974 96.767684 296.838307 96.767684 C 290.004973 96.767684 286.270598 105.387476 282.062264 115.637477 C 282.697681 109.28331 283.171639 103.918726 283.848723 99.351018 C 284.327889 97.564559 282.853931 95.778101 281.067473 95.616643 C 279.281014 95.142684 277.650806 96.569768 277.494556 98.356226 C 275.702889 110.913518 274.551847 126.366644 274.077889 136.772895 C 273.91643 138.559353 275.385181 140.189562 277.333097 140.189562 Z M 343.890393 141.184354 C 345.676851 141.184354 346.989351 139.554145 346.989351 137.767687 C 346.473726 128.788519 346.312268 120.324977 346.312268 112.06456 C 346.312268 92.361434 347.46331 73.9656 349.890393 55.892682 L 387.827895 54.934348 C 389.614354 54.934348 391.083104 53.465598 391.083104 51.67914 C 391.083104 49.892682 389.614354 48.423931 387.666437 48.423931 L 350.723727 49.413515 C 351.874768 42.226014 353.145602 35.231222 354.458102 28.241639 C 354.93206 26.293722 353.504977 24.345805 351.359143 24.345805 C 349.728935 24.345805 348.61956 25.14268 348.098726 26.929139 C 346.629976 34.278097 345.359143 41.746848 344.208101 49.413515 L 314.411225 50.36664 C 312.624766 50.36664 311.353933 51.52289 311.353933 53.309348 L 311.353933 53.627057 C 311.353933 55.413515 312.822683 56.882265 314.609141 56.882265 L 343.21331 56.090599 C 340.947684 73.9656 339.796643 92.679142 339.796643 112.06456 C 339.796643 120.522894 339.994559 128.986436 340.473726 138.085395 C 340.473726 139.871853 341.942476 141.184354 343.728935 141.184354 Z M 405.218521 131.56977 C 407.682063 127.158311 409.150813 122.116644 409.150813 117.111435 C 410.937272 117.429144 412.728939 117.585394 414.833105 117.585394 C 418.567481 117.585394 422.661231 116.90831 427.031023 115.798935 C 428.656023 115.28331 429.489356 114.168727 429.489356 112.382268 L 429.489356 111.705185 C 428.973731 110.434352 427.702898 109.28331 426.234148 109.28331 C 425.718523 109.28331 425.874773 109.43956 425.400814 109.43956 C 421.666439 110.59581 418.249772 111.069768 414.989355 111.069768 C 412.369564 111.069768 410.103938 110.59581 408.16123 110.074977 C 406.84873 104.236435 401.484146 95.460393 395.286229 96.252059 C 394.812271 95.934351 394.176854 95.778101 393.499771 95.778101 C 392.702896 95.778101 391.869562 95.934351 391.395604 96.413518 C 386.666437 100.502059 383.09352 105.705185 381.301853 112.06456 C 380.150812 115.637477 379.676853 119.054144 379.676853 122.314561 C 379.676853 133.356228 385.869562 140.35102 392.864354 140.35102 C 397.275813 140.35102 401.484146 137.606228 405.218521 131.56977 Z M 399.536229 128.153103 C 397.072688 132.043728 394.812271 133.991645 392.702896 133.991645 C 388.968521 133.991645 386.348729 128.632269 386.348729 121.637477 C 386.348729 116.434352 387.978937 110.236435 392.031021 105.03331 C 393.499771 108.804143 397.072688 112.538519 402.478938 114.965602 C 402.478938 115.637477 402.635188 116.272894 402.635188 117.111435 C 402.635188 121.163519 401.327896 125.054144 399.536229 128.153103 Z M 486.254985 162.002063 C 488.046651 162.002063 489.353943 160.528105 489.353943 158.741646 C 488.879985 150.439562 489.83311 136.616645 491.781027 121.002061 C 506.281027 116.116644 515.218528 113.851019 526.458112 112.06456 L 526.458112 118.699977 C 526.458112 129.304144 526.301862 140.189562 525.822695 151.116646 C 525.822695 153.220813 526.781029 154.330188 528.885195 154.533313 C 530.671654 154.533313 532.301862 153.220813 532.301862 151.434354 C 532.817487 140.866645 532.973737 129.465603 532.973737 118.220811 L 532.973737 111.069768 L 540.921654 110.074977 C 542.708113 109.918727 543.702905 108.804143 543.702905 107.017685 L 543.702905 106.50206 C 543.541446 104.715601 542.234154 103.601018 540.442488 103.601018 L 540.124779 103.601018 L 532.817487 104.554143 C 532.301862 75.43435 531.984154 50.845807 518.791445 46.158306 C 517.166445 45.642681 515.895611 45.324973 514.739361 45.324973 C 496.348735 45.324973 488.36436 93.986434 485.781026 115.955185 C 482.999776 117.111435 479.900818 118.06456 476.484151 119.215602 C 475.057067 119.689561 474.218526 120.845811 474.218526 122.314561 C 474.218526 122.788519 474.218526 123.106227 474.379984 123.267686 C 474.853942 124.736436 476.010192 125.533311 477.478942 125.533311 L 477.952901 125.533311 C 478.629984 125.533311 479.744567 125.054144 484.947693 123.106227 C 483.161234 138.085395 482.682068 151.116646 482.838318 158.903105 C 482.838318 160.689563 484.312276 162.002063 486.098735 162.002063 Z M 492.77061 113.851019 C 494.718527 100.184351 502.228944 51.996848 514.90082 51.996848 C 518.635195 51.996848 521.416445 55.731224 523.202903 62.085391 C 524.989362 68.444766 525.822695 85.048934 526.301862 105.387476 C 514.583111 107.179143 505.801861 109.757268 492.77061 113.851019 Z M 542.577904 204.944774 C 544.046655 207.408316 547.62478 209.194774 552.666447 209.194774 C 558.03103 209.194774 564.864364 206.731232 571.37999 199.58019 C 581.78624 188.377065 590.567491 170.939564 590.567491 155.804146 L 590.567491 153.694771 C 590.567491 153.059354 590.567491 152.387479 590.411241 151.752062 C 602.129991 141.184354 614.16645 128.986436 623.937284 114.168727 C 624.254993 113.491644 624.416451 112.856227 624.416451 112.22081 C 624.416451 111.069768 623.937284 110.236435 622.947701 109.601018 C 622.468534 109.28331 621.791451 109.121852 621.156034 109.121852 C 620.004992 109.121852 619.213326 109.601018 618.572701 110.59581 C 609.91645 123.585394 599.187283 134.824978 588.619574 144.60102 C 585.999782 138.877062 581.78624 135.142686 575.749781 133.517686 C 581.114365 127.835394 585.202907 121.319769 587.62999 113.653102 C 588.301865 111.866643 588.463324 110.236435 588.463324 108.449977 C 588.463324 102.606226 584.728949 98.356226 579.00499 98.356226 C 572.494573 98.356226 563.551864 103.918726 555.09353 119.054144 C 554.775822 119.533311 554.614364 120.168727 554.614364 120.684352 C 554.614364 121.955186 555.09353 122.949977 556.244572 123.423936 C 556.71853 123.741644 557.197697 123.939561 557.87478 123.939561 C 559.145614 123.939561 560.135197 123.423936 560.614364 122.314561 C 567.603948 110.074977 574.796656 104.871851 578.84874 104.871851 C 580.952907 104.871851 581.947698 106.022893 581.947698 108.449977 C 581.947698 109.28331 581.78624 110.434352 581.468532 111.705185 C 578.687282 120.324977 573.327906 127.991644 566.333114 133.356228 C 565.499781 133.991645 565.025822 134.824978 565.025822 135.981228 C 565.025822 136.455187 565.025822 136.772895 565.182072 136.934353 C 565.661239 138.720812 566.968531 139.236437 568.760198 139.236437 C 576.06749 139.236437 581.312282 142.293729 583.260199 149.486437 L 569.749781 161.007271 C 555.09353 173.559355 540.114363 185.278106 540.114363 197.158315 C 540.114363 199.741649 540.947696 202.36144 542.577904 204.944774 Z M 547.942488 201.366649 C 547.109155 199.897899 546.629988 198.627065 546.629988 197.158315 C 546.629988 188.538523 560.296656 177.455189 573.801865 166.054147 L 584.051865 157.429146 C 583.260199 168.991647 577.062282 184.288523 566.650823 195.210398 C 560.973739 201.04894 556.083114 202.679149 552.31228 202.679149 C 550.208113 202.679149 548.734155 202.20519 547.942488 201.366649 Z M 638.39041 141.97602 C 647.051869 141.97602 653.208119 130.772895 656.624786 122.949977 C 657.45812 131.252061 661.036245 136.616645 666.718537 136.616645 C 672.593537 136.616645 680.379996 130.772895 688.687288 115.955185 C 688.843538 115.637477 689.004996 115.121852 689.004996 114.330185 C 689.004996 113.017685 688.52583 112.06456 687.374788 111.387477 C 687.05708 111.231227 686.577913 111.069768 685.74458 111.069768 C 684.312288 111.069768 683.478954 111.548935 683.004996 112.699977 C 674.859162 127.356228 668.504995 131.090603 665.921662 129.783311 C 663.45812 128.632269 662.984162 123.106227 662.984162 117.111435 C 662.984162 110.75206 663.619578 104.236435 663.775828 101.772893 C 663.775828 99.986434 662.343536 98.356226 660.52062 98.356226 C 658.932078 98.356226 657.775828 99.194768 657.30187 100.819768 C 652.572703 120.324977 643.791452 135.621853 638.749785 135.621853 C 636.286243 135.621853 634.973743 132.205186 634.817493 125.533311 C 634.817493 117.903102 636.124785 109.121852 637.281035 104.397893 C 637.598743 102.288518 636.760202 100.981226 634.656035 100.502059 C 632.551868 100.184351 631.239368 100.981226 630.76541 103.085393 C 629.60916 108.965602 628.301868 117.111435 628.301868 124.418728 C 628.301868 133.991645 630.603951 141.97602 638.39041 141.97602 Z M 707.900831 140.35102 C 717.989373 140.35102 729.036249 122.949977 733.760207 114.330185 C 733.921666 114.012477 734.077916 113.491644 734.077916 112.699977 C 734.077916 111.387477 733.603957 110.434352 732.452916 109.757268 C 731.817499 109.601018 731.338332 109.43956 730.978957 109.43956 C 729.708124 109.43956 728.71854 110.074977 728.083124 111.231227 C 722.041457 121.955186 712.947706 133.835395 708.057081 133.835395 C 707.583122 133.835395 707.223747 133.673936 706.749789 133.517686 C 704.640414 132.205186 701.223747 130.25727 701.223747 115.28331 C 701.223747 101.772893 703.968539 80.481225 710.322706 49.215598 C 710.640414 47.111431 709.848748 45.798931 707.739372 45.324973 C 705.952914 44.845806 704.484164 46.158306 703.968539 47.944765 C 700.072705 67.611433 694.71333 94.304142 694.71333 113.851019 C 694.71333 129.304144 697.968539 140.35102 707.900831 140.35102 Z M 707.900831 140.35102 " stroke="rgb(17.248535%, 47.839355%, 100%)" stroke-width="11.187612" stroke-opacity="1" stroke-miterlimit="4"/></svg>