<?xml version="1.0" encoding="UTF-8" standalone="no" ?>
<!DOCTYPE svg PUBLIC "-//W3C//DTD SVG 1.1//EN" "http://www.w3.org/Graphics/SVG/1.1/DTD/svg11.dtd">
<svg xmlns="http://www.w3.org/2000/svg" xmlns:xlink="http://www.w3.org/1999/xlink" version="1.1" width="338.100365607997" height="212.99999999999997" viewBox="335.347405268403 -332.62 338.100365607997 212.99999999999997" xml:space="preserve">
<desc>Created with Fabric.js 4.6.0</desc>
<defs>
</defs>
<g transform="matrix(1 0 0 1 633.7 -322.32)" id="nlB8RxSxzDuM7oTYHhVvw"  >
<path style="stroke: none; stroke-width: 1; stroke-dasharray: none; stroke-linecap: butt; stroke-dashoffset: 0; stroke-linejoin: miter; stroke-miterlimit: 4; fill: none; fill-rule: nonzero; opacity: 1;" vector-effect="non-scaling-stroke"  transform=" translate(-932.45, -78)" d="M 932.4 78 C 932.4 78.1 932.4 78.3 932.4 78.4 C 932.5 78.10000000000001 932.5 77.9 932.6 77.60000000000001 C 932.5 77.60000000000001 932.4 77.60000000000001 932.3000000000001 77.60000000000001 C 932.4 77.8 932.4 77.9 932.4 78 z" stroke-linecap="round" />
</g>
<g transform="matrix(1 0 0 1 551.1 -269.12)" id="bgHgPKFO2c8oEQ7FqMoil"  >
<path style="stroke: none; stroke-width: 1; stroke-dasharray: none; stroke-linecap: butt; stroke-dashoffset: 0; stroke-linejoin: miter; stroke-miterlimit: 4; fill: none; fill-rule: nonzero; opacity: 1;" vector-effect="non-scaling-stroke"  transform=" translate(-849.85, -131.2)" d="M 849.8 131.1 C 849.3 131.2 848.9 131.2 848.4 131.29999999999998 C 849.4 131.29999999999998 850.4 131.29999999999998 851.3 131.2 C 850.9 131.1 850.4 131.1 849.8 131.1 z" stroke-linecap="round" />
</g>
<g transform="matrix(1 0 0 1 639.15 -319.58)" id="0YZp09BojmtsmdTV-aQ5T"  >
<path style="stroke: none; stroke-width: 1; stroke-dasharray: none; stroke-linecap: butt; stroke-dashoffset: 0; stroke-linejoin: miter; stroke-miterlimit: 4; fill: none; fill-rule: nonzero; opacity: 1;" vector-effect="non-scaling-stroke"  transform=" translate(-937.9, -80.74)" d="M 937.9 80.7 L 937.9 80.7 C 937.9 80.8 937.9 80.8 937.9 80.7 L 937.9 80.7 L 937.9 80.7 z" stroke-linecap="round" />
</g>
<g transform="matrix(1 0 0 1 459.3 -259.12)" id="3vAncOabFdyRAkcBGbRnK"  >
<path style="stroke: none; stroke-width: 1; stroke-dasharray: none; stroke-linecap: butt; stroke-dashoffset: 0; stroke-linejoin: miter; stroke-miterlimit: 4; fill: none; fill-rule: nonzero; opacity: 1;" vector-effect="non-scaling-stroke"  transform=" translate(-758.05, -141.2)" d="M 760.7 141 C 758.9000000000001 141 757.2 140.9 755.4000000000001 140.9 C 756.9000000000001 141.1 758.4000000000001 141.3 760.0000000000001 141.5 C 760.3 141.3 760.5 141.2 760.7 141 z" stroke-linecap="round" />
</g>
<g transform="matrix(1 0 0 1 614.85 -225.72)" id="Fpeuhx34JkfSzzkTR5y_4"  >
<path style="stroke: none; stroke-width: 1; stroke-dasharray: none; stroke-linecap: butt; stroke-dashoffset: 0; stroke-linejoin: miter; stroke-miterlimit: 4; fill: none; fill-rule: nonzero; opacity: 1;" vector-effect="non-scaling-stroke"  transform=" translate(-913.6, -174.6)" d="M 913.7 174.7 C 913.7 174.6 913.7 174.6 913.7 174.5 C 913.6 174.6 913.6 174.6 913.5 174.7 C 913.6 174.7 913.7 174.7 913.7 174.7 z" stroke-linecap="round" />
</g>
<g transform="matrix(1 0 0 1 513.25 -269.97)" id="XqyheOJFoIc5KbSyAtGnI"  >
<path style="stroke: none; stroke-width: 1; stroke-dasharray: none; stroke-linecap: butt; stroke-dashoffset: 0; stroke-linejoin: miter; stroke-miterlimit: 4; fill: none; fill-rule: nonzero; opacity: 1;" vector-effect="non-scaling-stroke"  transform=" translate(-812, -130.35)" d="M 816.3 129.9 C 813.5999999999999 130 810.8 130.1 808.0999999999999 130.3 C 807.9999999999999 130.5 807.8999999999999 130.70000000000002 807.6999999999999 130.8 C 810.6 130.5 813.5 130.2 816.3 129.9 z" stroke-linecap="round" />
</g>
<g transform="matrix(1 0 0 1 486.2 -235.52)" id="6G7emht5Imvf8yFvZzmFY"  >
<path style="stroke: none; stroke-width: 1; stroke-dasharray: none; stroke-linecap: butt; stroke-dashoffset: 0; stroke-linejoin: miter; stroke-miterlimit: 4; fill: none; fill-rule: nonzero; opacity: 1;" vector-effect="non-scaling-stroke"  transform=" translate(-784.95, -164.8)" d="M 784.2 164.6 C 784 164.6 783.8000000000001 164.6 783.5 164.6 C 783.5 164.7 783.6 164.9 783.6 165 C 784.5 164.9 785.5 164.8 786.4 164.8 C 785.7 164.7 785 164.7 784.2 164.6 z" stroke-linecap="round" />
</g>
<g transform="matrix(1 0 0 1 619.45 -275.02)" id="LmWztlvyd6iiQLWiADtwx"  >
<path style="stroke: none; stroke-width: 1; stroke-dasharray: none; stroke-linecap: butt; stroke-dashoffset: 0; stroke-linejoin: miter; stroke-miterlimit: 4; fill: none; fill-rule: nonzero; opacity: 1;" vector-effect="non-scaling-stroke"  transform=" translate(-918.2, -125.3)" d="M 917.4 125.7 C 918.1 125.7 918.6999999999999 125.8 919.4 125.8 C 919.4 125.5 919.5 125.1 919.5 124.8 C 918.6 124.8 917.8 124.8 916.9 124.8 C 917.1 125.1 917.3 125.4 917.4 125.7 z" stroke-linecap="round" />
</g>
<g transform="matrix(1 0 0 1 418.55 -235.22)" id="dkENu0MFIZ27xqjEKBSAn"  >
<path style="stroke: none; stroke-width: 1; stroke-dasharray: none; stroke-linecap: butt; stroke-dashoffset: 0; stroke-linejoin: miter; stroke-miterlimit: 4; fill: none; fill-rule: nonzero; opacity: 1;" vector-effect="non-scaling-stroke"  transform=" translate(-717.3, -165.1)" d="M 716.9 165.1 C 717.1999999999999 165.1 717.4 165.1 717.6999999999999 165.1 C 717.4 165.1 717.2 165.1 716.9 165.1 L 716.9 165.1 z" stroke-linecap="round" />
</g>
<g transform="matrix(1 0 0 1 610.1 -247.72)" id="DybGUDzSURD1lXdg_gtGV"  >
<path style="stroke: none; stroke-width: 1; stroke-dasharray: none; stroke-linecap: butt; stroke-dashoffset: 0; stroke-linejoin: miter; stroke-miterlimit: 4; fill: none; fill-rule: nonzero; opacity: 1;" vector-effect="non-scaling-stroke"  transform=" translate(-908.85, -152.6)" d="M 907.9 152.7 C 908.5 152.7 909.1 152.79999999999998 909.8 152.79999999999998 C 909.8 152.7 909.8 152.6 909.6999999999999 152.39999999999998 C 909.1 152.6 908.5 152.6 907.9 152.7 L 907.9 152.7 z" stroke-linecap="round" />
</g>
<g transform="matrix(1 0 0 1 545.15 -233.42)" id="aW44JeDu6wyRe7OgQ-D_m"  >
<path style="stroke: none; stroke-width: 1; stroke-dasharray: none; stroke-linecap: butt; stroke-dashoffset: 0; stroke-linejoin: miter; stroke-miterlimit: 4; fill: none; fill-rule: nonzero; opacity: 1;" vector-effect="non-scaling-stroke"  transform=" translate(-843.9, -166.9)" d="M 844.1 166.9 C 844 166.9 843.9 166.9 843.7 166.9 C 843.9 166.9 844 166.9 844.1 166.9 L 844.1 166.9 z" stroke-linecap="round" />
</g>
<g transform="matrix(1 0 0 1 619.2 -258.52)" id="tnm6deHEhdDVH7MC_c3TW"  >
<path style="stroke: none; stroke-width: 1; stroke-dasharray: none; stroke-linecap: butt; stroke-dashoffset: 0; stroke-linejoin: miter; stroke-miterlimit: 4; fill: none; fill-rule: nonzero; opacity: 1;" vector-effect="non-scaling-stroke"  transform=" translate(-917.95, -141.8)" d="M 917.8 141.4 C 917.9 141.70000000000002 917.9 142 918 142.3 C 918 142 918 141.70000000000002 918.1 141.3 C 918 141.4 917.9 141.4 917.8 141.4 z" stroke-linecap="round" />
</g>
<g transform="matrix(1 0 0 1 642 -306.72)" id="ObLMpbkcTaiP_dp1bL56S"  >
<path style="stroke: none; stroke-width: 1; stroke-dasharray: none; stroke-linecap: butt; stroke-dashoffset: 0; stroke-linejoin: miter; stroke-miterlimit: 4; fill: none; fill-rule: nonzero; opacity: 1;" vector-effect="non-scaling-stroke"  transform=" translate(-940.75, -93.6)" d="M 940.5 93.6 C 940.6 93.6 940.8 93.6 941 93.6 C 940.8 93.6 940.7 93.6 940.5 93.6 L 940.5 93.6 z" stroke-linecap="round" />
</g>
<g transform="matrix(1 0 0 1 639.65 -317.59)" id="aw8dPeqMkMr9VFRyuso2u"  >
<path style="stroke: none; stroke-width: 1; stroke-dasharray: none; stroke-linecap: butt; stroke-dashoffset: 0; stroke-linejoin: miter; stroke-miterlimit: 4; fill: none; fill-rule: nonzero; opacity: 1;" vector-effect="non-scaling-stroke"  transform=" translate(-938.4, -82.73)" d="M 938.5 82 C 938.4 82 938.4 81.9 938.5 82 C 938.4 82.5 938.3 83 938.3 83.5 C 938.3 82.9 938.4 82.5 938.5 82 z" stroke-linecap="round" />
</g>
<g transform="matrix(1 0 0 1 639.5 -306.87)" id="11P5AF3mxI6xjmE_A4BBE"  >
<path style="stroke: none; stroke-width: 1; stroke-dasharray: none; stroke-linecap: butt; stroke-dashoffset: 0; stroke-linejoin: miter; stroke-miterlimit: 4; fill: none; fill-rule: nonzero; opacity: 1;" vector-effect="non-scaling-stroke"  transform=" translate(-938.25, -93.45)" d="M 938.5 93.4 C 938.3 93.4 938.1 93.4 937.9 93.5 C 938.1 93.5 938.4 93.5 938.6 93.5 C 938.6 93.5 938.5 93.4 938.5 93.4 z" stroke-linecap="round" />
</g>
<g transform="matrix(1 0 0 1 602.2 -308.94)" id="kPZOsNq94ehqTsKFUmZyN"  >
<path style="stroke: none; stroke-width: 1; stroke-dasharray: none; stroke-linecap: butt; stroke-dashoffset: 0; stroke-linejoin: miter; stroke-miterlimit: 4; fill: none; fill-rule: nonzero; opacity: 1;" vector-effect="non-scaling-stroke"  transform=" translate(-900.95, -91.37)" d="M 901.3 91.4 C 901.0999999999999 91.4 900.8 91.4 900.5999999999999 91.30000000000001 C 900.5999999999999 91.30000000000001 900.5999999999999 91.30000000000001 900.5999999999999 91.4 C 900.8 91.4 901 91.5 901.3 91.4 C 901.3 91.5 901.3 91.4 901.3 91.4 z" stroke-linecap="round" />
</g>
<g transform="matrix(1 0 0 1 635.45 -312.22)" id="2qGgqfv8syizZPYaiVZXr"  >
<path style="stroke: none; stroke-width: 1; stroke-dasharray: none; stroke-linecap: butt; stroke-dashoffset: 0; stroke-linejoin: miter; stroke-miterlimit: 4; fill: none; fill-rule: nonzero; opacity: 1;" vector-effect="non-scaling-stroke"  transform=" translate(-934.2, -88.1)" d="M 934.1 87.3 C 934.1 87.39999999999999 934 87.5 933.9 87.6 C 934 88 934.1 88.39999999999999 934.1 88.69999999999999 C 934.2 88.69999999999999 934.4 88.79999999999998 934.5 88.89999999999999 C 934.4 88.4 934.3 87.8 934.1 87.3 z" stroke-linecap="round" />
</g>
<g transform="matrix(1 0 0 1 600.09 -323.72)" id="eN9WxRIHO30X3e5tX4FbP"  >
<path style="stroke: none; stroke-width: 1; stroke-dasharray: none; stroke-linecap: butt; stroke-dashoffset: 0; stroke-linejoin: miter; stroke-miterlimit: 4; fill: none; fill-rule: nonzero; opacity: 1;" vector-effect="non-scaling-stroke"  transform=" translate(-898.84, -76.6)" d="M 898.8 79.1 L 898.8 79.1 C 898.8 77.39999999999999 898.9 75.8 899.0999999999999 74.1 C 898.8999999999999 74.1 898.8 74.19999999999999 898.8 74.3 C 898.3 74.89999999999999 898.8 77.89999999999999 898.8 78.8 C 898.8 78.8 898.8 79 898.8 79.1 z" stroke-linecap="round" />
</g>
<g transform="matrix(1 0 0 1 637.9 -322.17)" id="a2tl_wRri2V6Swx_39UDf"  >
<path style="stroke: none; stroke-width: 1; stroke-dasharray: none; stroke-linecap: butt; stroke-dashoffset: 0; stroke-linejoin: miter; stroke-miterlimit: 4; fill: none; fill-rule: nonzero; opacity: 1;" vector-effect="non-scaling-stroke"  transform=" translate(-936.65, -78.15)" d="M 936.4 78.5 C 936.6 78.3 936.6999999999999 78.1 936.9 78 C 936.6999999999999 77.9 936.6 77.9 936.4 77.8 C 936.4 78 936.4 78.2 936.4 78.5 z" stroke-linecap="round" />
</g>
<g transform="matrix(1 0 0 1 412.8 -203.17)" id="H5cD1oDLiRuhGLeB6pkMy"  >
<path style="stroke: none; stroke-width: 1; stroke-dasharray: none; stroke-linecap: butt; stroke-dashoffset: 0; stroke-linejoin: miter; stroke-miterlimit: 4; fill: none; fill-rule: nonzero; opacity: 1;" vector-effect="non-scaling-stroke"  transform=" translate(-711.55, -197.15)" d="M 711 195.9 C 711 196.70000000000002 711.1 197.6 711.1 198.4 C 711.4 197.6 711.8000000000001 196.8 712.1 196.1 C 711.8 196.1 711.4 196 711 195.9 z" stroke-linecap="round" />
</g>
<g transform="matrix(1 0 0 1 544.95 -218.27)" id="sXQ0lkBeu4uThSRlRKMwZ"  >
<path style="stroke: none; stroke-width: 1; stroke-dasharray: none; stroke-linecap: butt; stroke-dashoffset: 0; stroke-linejoin: miter; stroke-miterlimit: 4; fill: none; fill-rule: nonzero; opacity: 1;" vector-effect="non-scaling-stroke"  transform=" translate(-843.7, -182.05)" d="M 842.9 182 C 843.4 182 843.9 182.1 844.4 182.1 C 844.4 182.1 844.5 182.1 844.5 182 C 843.9 182 843.4 182 842.9 182 z" stroke-linecap="round" />
</g>
<g transform="matrix(1 0 0 1 619.55 -306.77)" id="ltiU2pxGWR9W4t4xshVNJ"  >
<path style="stroke: none; stroke-width: 1; stroke-dasharray: none; stroke-linecap: butt; stroke-dashoffset: 0; stroke-linejoin: miter; stroke-miterlimit: 4; fill: none; fill-rule: nonzero; opacity: 1;" vector-effect="non-scaling-stroke"  transform=" translate(-918.3, -93.55)" d="M 918 93.7 C 918.2 93.7 918.4 93.7 918.6 93.7 C 918.5 93.60000000000001 918.5 93.5 918.5 93.4 C 918.3 93.5 918.2 93.6 918 93.7 z" stroke-linecap="round" />
</g>
<g transform="matrix(1 0 0 1 630.9 -317.57)" id="i4F2_pD-COYj8uXDJj-t2"  >
<path style="stroke: none; stroke-width: 1; stroke-dasharray: none; stroke-linecap: butt; stroke-dashoffset: 0; stroke-linejoin: miter; stroke-miterlimit: 4; fill: none; fill-rule: nonzero; opacity: 1;" vector-effect="non-scaling-stroke"  transform=" translate(-929.65, -82.75)" d="M 929.4 82.2 C 929.5 82.7 929.6999999999999 83.10000000000001 929.8 83.60000000000001 L 929.9 83.60000000000001 C 929.9 83.00000000000001 929.9 82.50000000000001 929.9 81.9 C 929.8 82 929.6 82.1 929.4 82.2 z" stroke-linecap="round" />
</g>
<g transform="matrix(1 0 0 1 428.1 -253.37)" id="pqcfs8-MOGJ5jMKBtX3EJ"  >
<path style="stroke: none; stroke-width: 1; stroke-dasharray: none; stroke-linecap: butt; stroke-dashoffset: 0; stroke-linejoin: miter; stroke-miterlimit: 4; fill: none; fill-rule: nonzero; opacity: 1;" vector-effect="non-scaling-stroke"  transform=" translate(-726.85, -146.95)" d="M 727.9 147 C 727.1999999999999 146.9 726.5 146.8 725.8 146.7 C 725.8 146.89999999999998 725.8 147 725.9 147.2 C 726.5 147.1 727 147.1 727.6 147 C 727.7 147 727.8 147 727.9 147 z" stroke-linecap="round" />
</g>
<g transform="matrix(1 0 0 1 627.6 -322.87)" id="lshlWqCjm47EK2W4M7Jaw"  >
<path style="stroke: none; stroke-width: 1; stroke-dasharray: none; stroke-linecap: butt; stroke-dashoffset: 0; stroke-linejoin: miter; stroke-miterlimit: 4; fill: none; fill-rule: nonzero; opacity: 1;" vector-effect="non-scaling-stroke"  transform=" translate(-926.35, -77.45)" d="M 926.2 77.9 C 926.3000000000001 77.9 926.3000000000001 77.80000000000001 926.4000000000001 77.80000000000001 C 926.4000000000001 77.60000000000001 926.5000000000001 77.4 926.5000000000001 77.20000000000002 C 926.4000000000001 77.10000000000002 926.3000000000001 77.10000000000002 926.2000000000002 77.00000000000001 C 926.2 77.3 926.2 77.6 926.2 77.9 z" stroke-linecap="round" />
</g>
<g transform="matrix(1 0 0 1 609.56 -182.56)" id="WxM7j9TRv_EpNO2d444Gq"  >
<path style="stroke: none; stroke-width: 1; stroke-dasharray: none; stroke-linecap: butt; stroke-dashoffset: 0; stroke-linejoin: miter; stroke-miterlimit: 4; fill: none; fill-rule: nonzero; opacity: 1;" vector-effect="non-scaling-stroke"  transform=" translate(-908.31, -217.76)" d="M 908.8 217.6 C 908.5 217.6 908.3 217.6 908.0999999999999 217.7 C 907.3 218 908.3999999999999 217.89999999999998 908.6999999999999 217.89999999999998 L 908.8 217.89999999999998 C 908.8 217.8 908.8 217.7 908.8 217.6 z" stroke-linecap="round" />
</g>
<g transform="matrix(1 0 0 1 378.9 -207.02)" id="CQ4hn3ncVQ0sdjKyf-5sX"  >
<path style="stroke: none; stroke-width: 1; stroke-dasharray: none; stroke-linecap: butt; stroke-dashoffset: 0; stroke-linejoin: miter; stroke-miterlimit: 4; fill: none; fill-rule: nonzero; opacity: 1;" vector-effect="non-scaling-stroke"  transform=" translate(-677.65, -193.3)" d="M 677.6 191.6 C 677.5 192.7 677.5 193.9 677.4 195 C 677.6 194.9 677.6999999999999 194.9 677.9 194.8 C 677.8 193.8 677.7 192.7 677.6 191.6 z" stroke-linecap="round" />
</g>
<g transform="matrix(1 0 0 1 560.2 -205.57)" id="2H_SKNTRGc9Ybusvibr45"  >
<path style="stroke: none; stroke-width: 1; stroke-dasharray: none; stroke-linecap: butt; stroke-dashoffset: 0; stroke-linejoin: miter; stroke-miterlimit: 4; fill: none; fill-rule: nonzero; opacity: 1;" vector-effect="non-scaling-stroke"  transform=" translate(-858.95, -194.75)" d="M 859 195.1 C 859.2 194.79999999999998 859.5 194.6 859.8 194.4 C 859.1999999999999 194.4 858.6999999999999 194.4 858.0999999999999 194.4 C 858.4 194.6 858.7 194.8 859 195.1 z" stroke-linecap="round" />
</g>
<g transform="matrix(1 0 0 1 643.05 -309.02)" id="owVlorSbAcbQcgVRSLm3v"  >
<path style="stroke: none; stroke-width: 1; stroke-dasharray: none; stroke-linecap: butt; stroke-dashoffset: 0; stroke-linejoin: miter; stroke-miterlimit: 4; fill: none; fill-rule: nonzero; opacity: 1;" vector-effect="non-scaling-stroke"  transform=" translate(-941.8, -91.3)" d="M 942.1 90 C 942 90.4 941.9 90.8 941.7 91.1 C 941.7 91.39999999999999 941.7 91.69999999999999 941.6 92 C 941.6 92.2 941.5 92.4 941.5 92.5 C 941.7 92.5 941.8 92.5 942 92.6 C 942.1 91.7 942.1 90.8 942.1 90 z" stroke-linecap="round" />
</g>
<g transform="matrix(1 0 0 1 429 -206.77)" id="9urNienScQzaQZnxy_pm3"  >
<path style="stroke: none; stroke-width: 1; stroke-dasharray: none; stroke-linecap: butt; stroke-dashoffset: 0; stroke-linejoin: miter; stroke-miterlimit: 4; fill: none; fill-rule: nonzero; opacity: 1;" vector-effect="non-scaling-stroke"  transform=" translate(-727.75, -193.55)" d="M 726 193.2 C 725.8 193.5 725.5 193.79999999999998 725.3 194 C 726 193.8 726.8 193.6 727.5999999999999 193.4 C 728.3999999999999 193.3 729.3 193.20000000000002 730.1999999999999 193.1 C 728.8 193.2 727.4 193.2 726 193.2 z" stroke-linecap="round" />
</g>
<g transform="matrix(1 0 0 1 671.7 -128.12)" id="YVnGjCswcwHysR_Zm7HSp"  >
<path style="stroke: none; stroke-width: 1; stroke-dasharray: none; stroke-linecap: butt; stroke-dashoffset: 0; stroke-linejoin: miter; stroke-miterlimit: 4; fill: none; fill-rule: nonzero; opacity: 1;" vector-effect="non-scaling-stroke"  transform=" translate(-970.45, -272.2)" d="M 970.3 272.2 C 970.4 272.3 970.5 272.4 970.5999999999999 272.5 C 970.5999999999999 272.3 970.5999999999999 272.1 970.5999999999999 271.9 C 970.5 272 970.4 272.1 970.3 272.2 z" stroke-linecap="round" />
</g>
<g transform="matrix(1 0 0 1 453.35 -207.37)" id="3ZPTJmpC0ssdXy_5SfnYA"  >
<path style="stroke: none; stroke-width: 1; stroke-dasharray: none; stroke-linecap: butt; stroke-dashoffset: 0; stroke-linejoin: miter; stroke-miterlimit: 4; fill: none; fill-rule: nonzero; opacity: 1;" vector-effect="non-scaling-stroke"  transform=" translate(-752.1, -192.95)" d="M 747.5 193 C 748.4 193 749.4 193 750.3 193 C 752.4 193 754.5999999999999 193 756.6999999999999 192.9 C 753.6 193 750.6 193 747.5 193 z" stroke-linecap="round" />
</g>
<g transform="matrix(1 0 0 1 660.45 -221.67)" id="7s6lZ6cxioBoV8uHDVFCa"  >
<path style="stroke: none; stroke-width: 1; stroke-dasharray: none; stroke-linecap: butt; stroke-dashoffset: 0; stroke-linejoin: miter; stroke-miterlimit: 4; fill: none; fill-rule: nonzero; opacity: 1;" vector-effect="non-scaling-stroke"  transform=" translate(-959.2, -178.65)" d="M 957.9 197.3 L 957.9 197.4 C 958.1999999999999 197.4 958.5 197.4 958.8 197.4 C 958.9 196.20000000000002 958.9 194.9 958.9 193.70000000000002 C 959.1 190.4 959.3 187.20000000000002 959.5 183.9 C 960 175.9 960.3 167.9 960.5 159.9 C 960.2 167.1 959.8 174.3 959.3 181.5 C 958.9 186.8 958.5 192.1 957.9 197.3 z" stroke-linecap="round" />
</g>
<g transform="matrix(1 0 0 1 385.15 -136.42)" id="Jxf78OunUYrpTBMT8Y3NK"  >
<path style="stroke: none; stroke-width: 1; stroke-dasharray: none; stroke-linecap: butt; stroke-dashoffset: 0; stroke-linejoin: miter; stroke-miterlimit: 4; fill: none; fill-rule: nonzero; opacity: 1;" vector-effect="non-scaling-stroke"  transform=" translate(-683.9, -263.9)" d="M 683.9 263.9 L 683.9 263.9 L 683.9 263.9 z" stroke-linecap="round" />
</g>
<g transform="matrix(1 0 0 1 671.65 -124.42)" id="zJEpakI4vbN2nEOZHbYwt"  >
<path style="stroke: none; stroke-width: 1; stroke-dasharray: none; stroke-linecap: butt; stroke-dashoffset: 0; stroke-linejoin: miter; stroke-miterlimit: 4; fill: none; fill-rule: nonzero; opacity: 1;" vector-effect="non-scaling-stroke"  transform=" translate(-970.4, -275.9)" d="M 970.3 275.9 C 970.4 276 970.4 276 970.5 276.09999999999997 C 970.5 275.99999999999994 970.5 275.79999999999995 970.5 275.7 C 970.4 275.8 970.3 275.8 970.3 275.9 z" stroke-linecap="round" />
</g>
<g transform="matrix(1 0 0 1 555.75 -218.14)" id="m2E10k_yc_86owguTBgGd"  >
<path style="stroke: none; stroke-width: 1; stroke-dasharray: none; stroke-linecap: butt; stroke-dashoffset: 0; stroke-linejoin: miter; stroke-miterlimit: 4; fill: none; fill-rule: nonzero; opacity: 1;" vector-effect="non-scaling-stroke"  transform=" translate(-854.5, -182.17)" d="M 856.4 182.2 C 855.1 182.2 853.9 182.2 852.6 182.1 C 853.5 182.2 854.4 182.2 855.3000000000001 182.2 C 855.7 182.3 856 182.2 856.4 182.2 z" stroke-linecap="round" />
</g>
<g transform="matrix(1 0 0 1 371.23 -236.27)" id="1fSP2VI3Ud-iAyqYbuk8g"  >
<path style="stroke: none; stroke-width: 1; stroke-dasharray: none; stroke-linecap: butt; stroke-dashoffset: 0; stroke-linejoin: miter; stroke-miterlimit: 4; fill: none; fill-rule: nonzero; opacity: 1;" vector-effect="non-scaling-stroke"  transform=" translate(-669.98, -164.05)" d="M 669.9 164.8 C 670 164.3 670 163.8 670.1 163.4 C 670 163.4 669.9 163.3 669.9 163.3 C 669.8 163.7 669.9 164.2 669.9 164.8 z" stroke-linecap="round" />
</g>
<g transform="matrix(1 0 0 1 378.4 -269.02)" id="QPPQPRyqfwqRH872n2KcI"  >
<path style="stroke: none; stroke-width: 1; stroke-dasharray: none; stroke-linecap: butt; stroke-dashoffset: 0; stroke-linejoin: miter; stroke-miterlimit: 4; fill: none; fill-rule: nonzero; opacity: 1;" vector-effect="non-scaling-stroke"  transform=" translate(-677.15, -131.3)" d="M 676.5 133.3 C 676.9 133.20000000000002 677.3 133.10000000000002 677.7 133.10000000000002 C 677.7 131.90000000000003 677.7 130.60000000000002 677.8000000000001 129.3 C 677.4 130.7 676.9 132 676.5 133.3 z" stroke-linecap="round" />
</g>
<g transform="matrix(1 0 0 1 541 -291.07)" id="Nb1pXpEWxo3EwWK4LFt5B"  >
<path style="stroke: none; stroke-width: 1; stroke-dasharray: none; stroke-linecap: butt; stroke-dashoffset: 0; stroke-linejoin: miter; stroke-miterlimit: 4; fill: none; fill-rule: nonzero; opacity: 1;" vector-effect="non-scaling-stroke"  transform=" translate(-839.75, -109.25)" d="M 843.5 109 C 843.7 108.9 843.8 108.9 844 108.8 C 841.2 109.1 838.3 109.39999999999999 835.5 109.7 C 838.2 109.5 840.9 109.3 843.5 109 z" stroke-linecap="round" />
</g>
<g transform="matrix(1 0 0 1 576.9 -200.37)" id="ugjAUyG7IYKhVtq74yi9Y"  >
<path style="stroke: none; stroke-width: 1; stroke-dasharray: none; stroke-linecap: butt; stroke-dashoffset: 0; stroke-linejoin: miter; stroke-miterlimit: 4; fill: none; fill-rule: nonzero; opacity: 1;" vector-effect="non-scaling-stroke"  transform=" translate(-875.65, -199.95)" d="M 875.6 199.9 C 875.6 200 875.6 200 875.6 199.9 C 875.6 200 875.7 200 875.7 200 C 875.7 200 875.7 200 875.6 199.9 z" stroke-linecap="round" />
</g>
<g transform="matrix(1 0 0 1 569.3 -196.72)" id="scJ1m6lNZY9nIdhQt7PMC"  >
<path style="stroke: none; stroke-width: 1; stroke-dasharray: none; stroke-linecap: butt; stroke-dashoffset: 0; stroke-linejoin: miter; stroke-miterlimit: 4; fill: none; fill-rule: nonzero; opacity: 1;" vector-effect="non-scaling-stroke"  transform=" translate(-868.05, -203.6)" d="M 870.1 204 C 868.7 203.7 867.4 203.5 866 203.2 C 866 203.2 866 203.29999999999998 866.1 203.29999999999998 C 867 203.6 868.1 203.79999999999998 869.4 203.99999999999997 C 869.6 203.9 869.9 203.9 870.1 204 z" stroke-linecap="round" />
</g>
<g transform="matrix(1 0 0 1 403.65 -282.32)" id="9P6MXGGZ7fZwCkdyGY5MR"  >
<path style="stroke: none; stroke-width: 1; stroke-dasharray: none; stroke-linecap: butt; stroke-dashoffset: 0; stroke-linejoin: miter; stroke-miterlimit: 4; fill: none; fill-rule: nonzero; opacity: 1;" vector-effect="non-scaling-stroke"  transform=" translate(-702.4, -118)" d="M 702.3 118.1 C 702.4 118 702.4 118 702.5 117.89999999999999 C 702.4 117.89999999999999 702.4 117.89999999999999 702.3 117.89999999999999 C 702.3 117.9 702.3 118 702.3 118.1 z" stroke-linecap="round" />
</g>
<g transform="matrix(1 0 0 1 346.62 -213.52)" id="x1y8gfTKJ4ug5-xTlP6dt"  >
<path style="stroke: none; stroke-width: 1; stroke-dasharray: none; stroke-linecap: butt; stroke-dashoffset: 0; stroke-linejoin: miter; stroke-miterlimit: 4; fill: rgb(175,127,91); fill-rule: nonzero; opacity: 1;" vector-effect="non-scaling-stroke"  transform=" translate(-645.37, -186.8)" d="M 656.1 179.6 C 656 170.9 656 162.2 655.9 153.5 C 655.6999999999999 153.5 655.5 153.4 655.3 153.4 C 652.5999999999999 153.20000000000002 650 153.3 647.3 153.5 C 647.3 153.6 647.4 153.8 647.4 153.9 C 647.6 164.20000000000002 647.9 174.6 648.1 184.9 C 648.2 188.1 643.2 188.1 643.1 184.9 C 643 181.1 642.9 177.20000000000002 642.8000000000001 173.3 C 640.5000000000001 173.20000000000002 638.1 173 635.8000000000001 172.70000000000002 C 635.1 172.60000000000002 635.4000000000001 171.4 636.1 171.50000000000003 C 638.4 171.80000000000004 640.6 172.00000000000003 642.8000000000001 172.10000000000002 C 642.7 166.00000000000003 642.5000000000001 159.90000000000003 642.4000000000001 153.90000000000003 C 642.3000000000001 152.20000000000005 643.7 151.40000000000003 645.0000000000001 151.50000000000003 C 645.0000000000001 150.70000000000002 645.0000000000001 149.80000000000004 645.0000000000001 149.00000000000003 C 641.6000000000001 149.30000000000004 638.3000000000001 149.00000000000003 635.1000000000001 148.00000000000003 C 635.0000000000001 148.00000000000003 635.0000000000001 147.90000000000003 634.9000000000001 147.90000000000003 C 634.7 172.20000000000005 634.8000000000001 196.50000000000003 634.6000000000001 220.90000000000003 C 634.5000000000001 227.30000000000004 644.5000000000001 227.30000000000004 644.6000000000001 220.90000000000003 C 644.7000000000002 209.90000000000003 644.7000000000002 198.90000000000003 644.8000000000002 187.90000000000003 C 648.1000000000001 187.90000000000003 651.5000000000002 187.90000000000003 654.8000000000002 187.90000000000003 C 655.3000000000002 187.90000000000003 655.7000000000002 187.80000000000004 656.1000000000001 187.70000000000005 C 656.2 185 656.1 182.3 656.1 179.6 z M 636.4 195.6 C 638.5 196.6 640.8 196.9 643.1 196.5 C 643.9 196.4 644.2 197.6 643.4 197.7 C 640.6999999999999 198.1 638.1 197.79999999999998 635.6999999999999 196.6 C 634.9 196.3 635.6 195.2 636.4 195.6 z M 643.9 212.4 C 641.1 212.8 638.3 212.5 635.6999999999999 211.4 C 634.9999999999999 211 635.5999999999999 210 636.4 210.4 C 638.6999999999999 211.4 641.1 211.6 643.6 211.20000000000002 C 644.4 211.1 644.7 212.3 643.9 212.4 z" stroke-linecap="round" />
</g>
<g transform="matrix(1 0 0 1 396.05 -155.67)" id="tc_suXbGssCKPAJK8tELB"  >
<path style="stroke: none; stroke-width: 1; stroke-dasharray: none; stroke-linecap: butt; stroke-dashoffset: 0; stroke-linejoin: miter; stroke-miterlimit: 4; fill: rgb(229,222,209); fill-rule: nonzero; opacity: 1;" vector-effect="non-scaling-stroke"  transform=" translate(-694.8, -244.65)" d="M 683.2 257.6 C 691.2 258.20000000000005 699.1 258.3 707.1 258.1 L 707.1 258 C 707.2 249.2 707.4 240.4 707.5 231.7 C 699 231.5 690.6 231.29999999999998 682.1 231.1 C 682.6 240 683 248.8 683.2 257.6 z" stroke-linecap="round" />
</g>
<g transform="matrix(1 0 0 1 511.89 -220.37)" id="r6Z5cK2KYp0-8TlTg3fgt"  >
<path style="stroke: none; stroke-width: 1; stroke-dasharray: none; stroke-linecap: butt; stroke-dashoffset: 0; stroke-linejoin: miter; stroke-miterlimit: 4; fill: rgb(229,222,209); fill-rule: nonzero; opacity: 1;" vector-effect="non-scaling-stroke"  transform=" translate(-810.64, -179.95)" d="M 964.9 127.4 C 964 115.7 962.6 99.30000000000001 948.3 96.5 C 948.1999999999999 96.5 948 96.5 947.9 96.4 C 947.6 96.2 947.1999999999999 96.10000000000001 946.8 96.10000000000001 C 945.4 96.00000000000001 944.0999999999999 95.80000000000001 942.6999999999999 95.7 C 942.4999999999999 96 942.1999999999999 96.2 941.6999999999999 96.2 C 936.3 95.8 930.8 95.5 925.4 95.10000000000001 C 924.8 95.00000000000001 924.4 94.60000000000001 924.3 94.10000000000001 C 923.1999999999999 94.00000000000001 922.0999999999999 93.9 921 93.9 C 920.7 94.30000000000001 920.1 94.60000000000001 919.6 94.5 C 919.2 94.4 918.9 94.1 918.7 93.8 C 918.5 93.8 918.3000000000001 93.8 918.1 93.8 C 917.8000000000001 93.89999999999999 917.5 93.89999999999999 917.2 93.7 C 913.3000000000001 93.5 909.5 93.3 905.6 93.2 C 905.5 93.3 905.4 93.4 905.2 93.5 C 903.7 94.8 899.8000000000001 93.8 898 93.7 C 897.5 93.7 897.1 93.4 897 93 C 890.6 93 884.2 93.2 877.7 93.8 C 855.5 95.6 835 104.1 813 107 C 790.2 110 767.1 108 744.5 104.2 C 725.1 100.9 703 92.8 683.7 100.7 C 667.1 107.5 655.8000000000001 124.2 655.5 142 C 655.5 142.5 655.6 142.9 655.8 143.2 C 655.8 146.6 655.9 150.1 655.9 153.5 C 656 162.2 656 170.9 656.1 179.6 C 656.1 182.29999999999998 656.2 185 656.2 187.7 C 656.2 191.29999999999998 656.3000000000001 194.89999999999998 656.3000000000001 198.5 C 656.3000000000001 203.5 655.9000000000001 208.9 656.6 214 C 656.7 217.5 657.1 221.7 659.6 223.4 C 662.1 225.20000000000002 665.7 225.4 669.1 225.1 C 671.2 226.5 671.2 229.2 671.2 232 C 671.1 243.6 670.6 255.2 669.9000000000001 266.8 C 676.2 266.8 682.4000000000001 266.8 688.7 266.8 C 699.8000000000001 266.8 710.9000000000001 266.90000000000003 722.1 266.90000000000003 C 721.8000000000001 251.80000000000004 721.5 236.70000000000005 721.2 221.60000000000002 C 721.1 216.00000000000003 720.2 209.60000000000002 722 204.20000000000002 C 724.9 195.70000000000002 737.2 198.20000000000002 744.3 198.10000000000002 C 775.4 197.8 806.5 197.60000000000002 837.6999999999999 197.40000000000003 C 841.6999999999999 197.40000000000003 845.6999999999999 197.20000000000005 849.5999999999999 197.30000000000004 C 851.0999999999999 197.30000000000004 852.6999999999999 197.20000000000005 854.0999999999999 197.80000000000004 C 854.3999999999999 197.90000000000003 854.6999999999999 198.10000000000005 854.8999999999999 198.30000000000004 C 854.8999999999999 198.20000000000005 854.8999999999999 198.20000000000005 854.8999999999999 198.10000000000005 C 855.0999999999999 193.80000000000004 855.1999999999998 189.60000000000005 855.2999999999998 185.30000000000004 C 855.2999999999998 184.50000000000003 856.5999999999998 184.50000000000003 856.4999999999999 185.30000000000004 C 856.2999999999998 189.60000000000005 856.1999999999999 193.80000000000004 856.0999999999999 198.10000000000005 C 856.0999999999999 198.60000000000005 855.6999999999999 198.80000000000004 855.3 198.70000000000005 C 856.4 199.80000000000004 856.6999999999999 201.50000000000006 857.5999999999999 202.90000000000003 C 857.6999999999999 203.10000000000002 857.8 203.20000000000005 857.8999999999999 203.30000000000004 C 860.4999999999999 209.50000000000003 867.3999999999999 212.50000000000003 873.9999999999999 213.10000000000005 C 878.1999999999999 213.50000000000006 882.5999999999999 213.60000000000005 886.8999999999999 213.60000000000005 C 897.2999999999998 213.20000000000005 907.6999999999998 212.80000000000004 918.0999999999999 212.60000000000005 C 925.3 212.40000000000006 933.9999999999999 211.10000000000005 941.1999999999999 213.10000000000005 C 943.3 213.00000000000006 945.4 212.90000000000006 947.4999999999999 212.80000000000004 C 950.4999999999999 212.60000000000005 953.4999999999999 211.70000000000005 955.9999999999999 210.10000000000005 C 956.0999999999999 210.00000000000006 956.2999999999998 210.00000000000006 956.3999999999999 210.00000000000006 C 960.4999999999999 208.50000000000006 962.7999999999998 206.00000000000006 963.4999999999999 201.70000000000005 C 964.5999999999999 194.00000000000006 964.5999999999999 185.90000000000003 964.9999999999999 178.20000000000005 C 965.9 161.3 966.2 144.3 964.9 127.4 z M 849.8 131.1 C 850.3 131.1 850.8 131.2 851.4 131.2 C 850.4 131.2 849.4 131.2 848.5 131.29999999999998 C 848.9 131.2 849.4 131.1 849.8 131.1 z M 844 108.8 C 843.9 108.89999999999999 843.7 109 843.5 109 C 840.8 109.2 838.2 109.5 835.5 109.7 C 838.3 109.4 841.2 109.1 844 108.8 z M 808.1 130.3 C 810.8000000000001 130.10000000000002 813.6 130 816.3000000000001 129.9 C 813.4000000000001 130.20000000000002 810.6 130.5 807.7 130.8 C 807.8 130.6 807.9 130.4 808.1 130.3 z M 760.7 141 C 760.5 141.2 760.2 141.3 760 141.5 C 758.5 141.3 757 141.1 755.4 140.9 C 757.2 140.9 759 141 760.7 141 z M 727.9 147 C 727.8 147 727.6999999999999 147 727.6 147 C 727 147.1 726.5 147.1 725.9 147.2 C 725.9 147 725.9 146.89999999999998 725.8 146.7 C 726.5 146.8 727.2 146.9 727.9 147 z M 702.3 117.9 C 702.4 117.9 702.4 117.9 702.5 117.9 C 702.4 117.9 702.4 118 702.3 118.10000000000001 C 702.3 118 702.3 118 702.3 117.9 z M 677.8 129.5 C 677.6999999999999 130.6 677.6999999999999 131.9 677.6999999999999 133.2 C 677.3 133.2 676.9 133.29999999999998 676.4999999999999 133.39999999999998 C 676.9 132.1 677.3 130.8 677.8 129.5 z M 669.9 164.8 C 669.9 164.3 669.8 163.8 669.8 163.3 C 669.9 163.3 670 163.4 670 163.4 C 670 163.8 669.9 164.3 669.9 164.8 z M 677.4 195 C 677.5 193.9 677.5 192.8 677.6 191.6 C 677.7 192.7 677.8000000000001 193.7 677.9 194.79999999999998 C 677.7 194.8 677.5 194.9 677.4 195 z M 705.8 264.3 C 698.8 264.1 691.8 263.8 684.8 263.6 C 683.9 263.6 683.9 262.40000000000003 684.8 262.40000000000003 C 691.8 262.6 698.8 262.90000000000003 705.8 263.1 C 706.6 263.1 706.6 264.3 705.8 264.3 z M 708.7 231.2 C 708.6 240.2 708.4000000000001 249.1 708.3000000000001 258 C 708.3000000000001 258.1 708.3000000000001 258.2 708.2 258.3 C 708.4000000000001 258.6 708.3000000000001 259.3 707.7 259.3 C 699.3000000000001 259.6 691 259.40000000000003 682.6 258.8 C 682.3000000000001 258.8 682 258.6 682 258.2 C 681.8 249 681.4 239.89999999999998 680.9 230.7 C 680.9 230.29999999999998 681.3 230.1 681.6 230.1 C 681.7 230 681.9 229.9 682.1 229.9 C 690.7 230.1 699.3000000000001 230.3 707.9 230.5 C 708.1 230.5 708.1999999999999 230.6 708.3 230.6 C 708.6 230.6 708.8 230.8 708.7 231.2 z M 711.1 198.4 C 711.1 197.6 711 196.70000000000002 711 195.9 C 711.4 196 711.8 196.1 712.2 196.1 C 711.8 196.9 711.4 197.6 711.1 198.4 z M 727.6 193.5 C 726.8000000000001 193.6 726 193.8 725.3000000000001 194.1 C 725.5000000000001 193.79999999999998 725.8000000000001 193.5 726.0000000000001 193.29999999999998 C 727.4000000000001 193.29999999999998 728.8000000000001 193.29999999999998 730.2000000000002 193.2 C 729.3 193.3 728.5 193.4 727.6 193.5 z M 747.5 193 C 748.5 193 749.6 193 750.6 193 C 750.5 193 750.4 193 750.3000000000001 193 C 749.4 193 748.4 193 747.5 193 z M 783.7 164.9 C 783.6 164.9 783.6 164.70000000000002 783.6 164.6 C 783.8000000000001 164.6 784 164.6 784.3000000000001 164.6 C 785.0000000000001 164.6 785.8000000000001 164.7 786.5000000000001 164.7 C 785.6 164.8 784.6 164.9 783.7 164.9 z M 844.4 182.1 C 843.8 182 843.4 182 842.9 182 C 843.4 182 844 182 844.4 182.1 C 844.5 182 844.4 182 844.4 182.1 z M 851.4 157 C 808.1 157.9 764.8 158.3 721.5 158.2 C 720.7 158.2 720.7 156.89999999999998 721.5 157 C 764.8 157.1 808.1 156.7 851.4 155.8 C 852.2 155.7 852.2 157 851.4 157 z M 855.4 182.3 C 854.5 182.3 853.6 182.20000000000002 852.6999999999999 182.20000000000002 C 853.9 182.20000000000002 855.0999999999999 182.20000000000002 856.4 182.20000000000002 C 856.1 182.2 855.7 182.2 855.4 182.3 z M 859 195.1 C 858.7 194.79999999999998 858.4 194.6 858.1 194.29999999999998 C 858.7 194.29999999999998 859.2 194.29999999999998 859.8000000000001 194.39999999999998 C 859.5 194.6 859.2 194.8 859 195.1 z M 869.4 203.8 C 868.1 203.70000000000002 867 203.5 866.1 203.20000000000002 C 867.4 203.4 868.8000000000001 203.70000000000002 870.1 203.9 C 869.9 203.9 869.6 203.9 869.4 203.8 z M 878.9 148.2 C 806.3 148.6 733.5999999999999 149.1 661 149.5 C 660.2 149.5 660.2 148.2 661 148.3 C 733.6 147.9 806.3 147.4 878.9 147 C 879.7 146.9 879.7 148.2 878.9 148.2 z M 919.5 124.8 C 919.5 125.2 919.4 125.5 919.4 125.8 C 918.6999999999999 125.8 918.1 125.7 917.4 125.7 C 917.3 125.4 917.1 125.10000000000001 916.9 124.8 C 917.8 124.8 918.6 124.8 919.5 124.8 z M 917.9 150 C 917.8 149.2 919 149.2 919.1 150 C 919.4 153 919.5 155.9 919.4 158.8 C 919.4 159.60000000000002 918.1999999999999 159.60000000000002 918.1999999999999 158.8 C 918.4 155.8 918.2 152.9 917.9 150 z M 917.8 141.4 C 917.9 141.4 917.9 141.3 918 141.3 C 918 141.60000000000002 918 141.9 917.9 142.3 C 917.9 142 917.9 141.7 917.8 141.4 z M 907.8 152.7 C 908.4 152.6 909 152.5 909.5999999999999 152.5 C 909.6999999999999 152.6 909.6999999999999 152.7 909.6999999999999 152.8 C 909.1 152.8 908.5 152.7 907.8 152.7 z M 913.7 174.7 C 913.6 174.7 913.6 174.7 913.5 174.7 C 913.6 174.7 913.6 174.6 913.7 174.5 C 913.7 174.6 913.7 174.6 913.7 174.7 z M 927.1 169.4 C 927.1 169.70000000000002 926.8000000000001 170 926.5 170 C 923.1 170.3 918.8 171 915.4 170.2 C 913.5 169.7 914.1 167.6 914.1 166.1 C 913.6 165.9 913.7 164.9 914.4 164.9 C 918.1 164.8 921.6999999999999 164.6 925.4 164.4 C 926.1999999999999 164.3 926.1999999999999 165.6 925.4 165.6 C 922 165.7 918.6999999999999 165.9 915.3 166.1 C 915.3 167 914.9 168.5 915.5999999999999 169 C 915.9999999999999 169.4 918.5999999999999 169.1 919.1999999999999 169.1 C 921.4 169.2 923.6999999999999 169 925.9 168.79999999999998 C 926 167.6 926 166.49999999999997 926 165.29999999999998 C 926 164.49999999999997 927.2 164.49999999999997 927.2 165.29999999999998 C 927.1 166.7 927.1 168 927.1 169.4 z M 943.3 169.1 C 942.3 171.79999999999998 939.5999999999999 172.2 937.1999999999999 171.29999999999998 C 934.8 170.49999999999997 933.4 168.49999999999997 934.4999999999999 165.99999999999997 C 935.4999999999999 163.99999999999997 937.4999999999999 162.99999999999997 939.5999999999999 163.09999999999997 C 939.6999999999999 162.79999999999995 940.0999999999999 162.49999999999997 940.4999999999999 162.69999999999996 C 942.7 164 944.3 166.5 943.3 169.1 z M 938.2 160.1 C 934.7 159.9 931.6 157.4 931.4000000000001 153.79999999999998 C 931.2 150.39999999999998 934.0000000000001 147.7 937.3000000000001 147.89999999999998 C 937.6 147.89999999999998 937.8000000000001 148.2 937.9000000000001 148.39999999999998 C 941.2 148.7 944.5000000000001 150.7 944.8000000000001 154.29999999999998 C 945.1 158.1 941.7 160.3 938.2 160.1 z M 959.5 183.9 C 959.3 187.20000000000002 959.1 190.4 958.9 193.70000000000002 C 958.8 194.9 958.8 196.20000000000002 958.8 197.4 C 958.5 197.3 958.1999999999999 197.3 957.9 197.4 L 957.9 197.3 C 958.5 192.10000000000002 958.9 186.8 959.3 181.5 C 959.8 174.3 960.1999999999999 167.1 960.5 159.9 C 960.3 167.9 960 175.9 959.5 183.9 z" stroke-linecap="round" />
</g>
<g transform="matrix(1 0 0 1 640.17 -232.91)" id="-7mN-xyAFhXJoYVsojhQw"  >
<path style="stroke: none; stroke-width: 1; stroke-dasharray: none; stroke-linecap: butt; stroke-dashoffset: 0; stroke-linejoin: miter; stroke-miterlimit: 4; fill: rgb(229,222,209); fill-rule: nonzero; opacity: 1;" vector-effect="non-scaling-stroke"  transform=" translate(-938.92, -167.41)" d="M 940.6 164.3 C 940.5 164.4 940.4 164.4 940.3000000000001 164.4 C 938.6 164.1 936.7 164.70000000000002 935.8000000000001 166.3 C 934.7 168.3 936.1 169.70000000000002 938.0000000000001 170.3 C 940.0000000000001 170.9 942.1000000000001 170.3 942.4000000000001 168 C 942.6 166.5 941.8 165.2 940.6 164.3 z" stroke-linecap="round" />
</g>
<g transform="matrix(1 0 0 1 639.34 -246.3)" id="2XthKKvev5y1WjdwygumQ"  >
<path style="stroke: none; stroke-width: 1; stroke-dasharray: none; stroke-linecap: butt; stroke-dashoffset: 0; stroke-linejoin: miter; stroke-miterlimit: 4; fill: rgb(229,222,209); fill-rule: nonzero; opacity: 1;" vector-effect="non-scaling-stroke"  transform=" translate(-938.09, -154.01)" d="M 937.6 149.6 C 937.3000000000001 149.6 937.1 149.4 937 149.2 C 934.3 149.1 932.2 151.6 932.7 154.29999999999998 C 933.2 156.89999999999998 935.3000000000001 158.6 937.9000000000001 158.79999999999998 C 941.0000000000001 159.1 944.3000000000001 157.1 943.4000000000001 153.6 C 942.7 151 940.1 149.8 937.6 149.6 z" stroke-linecap="round" />
</g>
<g transform="matrix(1 0 0 1 343.74 -132.96)" id="7TASaVa6KehVBfEMsGvv3"  >
<path style="stroke: none; stroke-width: 1; stroke-dasharray: none; stroke-linecap: butt; stroke-dashoffset: 0; stroke-linejoin: miter; stroke-miterlimit: 4; fill: rgb(190,148,113); fill-rule: nonzero; opacity: 1;" vector-effect="non-scaling-stroke"  transform=" translate(-642.49, -267.35)" d="M 641.8 267.9 C 642.1999999999999 267.9 642.5999999999999 267.9 643 268 C 643.8 268.1 644.1 266.9 643.3 266.8 C 643 266.7 642.6999999999999 266.7 642.4 266.7 C 642.1999999999999 266.7 642 266.7 641.8 266.7 C 641.6999999999999 266.7 641.6999999999999 266.7 641.5999999999999 266.7 C 641 266.9 641.1 267.9 641.8 267.9 z" stroke-linecap="round" />
</g>
<g transform="matrix(1 0 0 1 507.54 -126.97)" id="Kzwjo-5gkS9hLAdjDV8Sd"  >
<path style="stroke: none; stroke-width: 1; stroke-dasharray: none; stroke-linecap: butt; stroke-dashoffset: 0; stroke-linejoin: miter; stroke-miterlimit: 4; fill: rgb(175,127,91); fill-rule: nonzero; opacity: 1;" vector-effect="non-scaling-stroke"  transform=" translate(-806.29, -273.35)" d="M 971.7 268.5 C 971.7 268.4 971.7 268.3 971.7 268.3 C 971.7 268.3 971.7 268.2 971.6 268.2 C 971.6 268.2 971.6 268.09999999999997 971.5 268.09999999999997 C 971.5 268.09999999999997 971.4 268.09999999999997 971.4 267.99999999999994 C 971.4 267.99999999999994 971.3 267.99999999999994 971.3 267.8999999999999 C 971.1999999999999 267.8999999999999 971.0999999999999 267.8999999999999 971.0999999999999 267.8999999999999 L 971.0999999999999 267.8999999999999 C 970.3999999999999 267.8999999999999 969.6999999999999 267.7999999999999 968.9999999999999 267.7999999999999 C 968.8999999999999 267.7999999999999 968.8999999999999 267.7999999999999 968.7999999999998 267.7999999999999 C 968.6999999999998 267.7999999999999 968.5999999999998 267.7999999999999 968.5999999999998 267.7999999999999 C 930.9999999999998 266.8999999999999 893.2999999999998 267.3999999999999 855.6999999999998 267.2999999999999 C 811.0999999999998 267.0999999999999 766.5999999999998 266.9999999999999 722.0999999999998 266.8999999999999 C 710.9999999999998 266.8999999999999 699.8999999999997 266.7999999999999 688.6999999999998 266.7999999999999 C 682.3999999999999 266.7999999999999 676.1999999999998 266.7999999999999 669.8999999999999 266.7999999999999 C 661.0999999999999 266.7999999999999 652.2999999999998 266.7999999999999 643.4999999999999 266.4999999999999 C 643.0999999999999 266.4999999999999 642.6999999999999 266.5999999999999 642.3999999999999 266.6999999999999 C 642.6999999999998 266.6999999999999 642.9999999999999 266.6999999999999 643.2999999999998 266.7999999999999 C 644.0999999999998 266.8999999999999 643.7999999999998 268.0999999999999 642.9999999999999 267.9999999999999 C 642.5999999999999 267.89999999999986 642.1999999999999 267.89999999999986 641.7999999999998 267.89999999999986 C 641.0999999999998 267.89999999999986 640.9999999999999 266.89999999999986 641.5999999999998 266.6999999999999 C 641.1999999999998 266.59999999999985 640.7999999999998 266.7999999999999 640.8999999999997 267.2999999999999 C 640.9999999999998 269.1999999999999 640.9999999999998 271.0999999999999 640.9999999999998 272.9999999999999 C 640.9999999999998 272.9999999999999 640.9999999999998 272.9999999999999 641.0999999999998 272.9999999999999 C 654.6999999999998 272.9999999999999 668.1999999999998 272.9999999999999 681.7999999999998 272.9999999999999 C 682.5999999999998 272.9999999999999 682.5999999999998 274.1999999999999 681.7999999999998 274.1999999999999 C 668.1999999999998 274.1999999999999 654.6999999999998 274.1999999999999 641.0999999999998 274.1999999999999 L 641.0999999999998 274.1999999999999 C 641.0999999999998 274.39999999999986 641.0999999999998 274.59999999999985 641.0999999999998 274.7999999999999 C 641.0999999999998 275.8999999999999 640.9999999999998 276.8999999999999 640.9999999999998 277.9999999999999 L 640.9999999999998 277.9999999999999 C 640.9999999999998 278.39999999999986 641.2999999999997 278.7999999999999 641.7999999999997 278.89999999999986 C 642.3999999999997 278.9999999999999 643.0999999999997 278.89999999999986 643.7999999999997 278.89999999999986 C 681.2999999999997 279.79999999999984 718.8999999999997 279.29999999999984 756.3999999999997 279.39999999999986 C 812.0999999999998 279.59999999999985 867.6999999999997 279.6999999999999 923.3999999999997 279.89999999999986 C 938.4999999999998 279.9999999999999 953.5999999999998 279.79999999999984 968.5999999999998 280.1999999999999 C 968.9999999999998 280.1999999999999 969.3999999999997 280.09999999999985 969.6999999999998 279.9999999999999 C 969.9999999999998 279.9999999999999 970.2999999999998 279.9999999999999 970.5999999999998 279.9999999999999 C 970.6999999999998 279.9999999999999 970.6999999999998 279.9999999999999 970.7999999999998 279.9999999999999 C 971.0999999999998 279.9999999999999 971.4999999999999 279.89999999999986 971.4999999999999 279.39999999999986 C 971.7 275.8 971.7 272.1 971.7 268.5 L 971.7 268.5 z M 970.4 276.1 C 970.3 276 970.3 276 970.1999999999999 275.90000000000003 C 970.3 275.8 970.3 275.8 970.4 275.70000000000005 C 970.5 275.8 970.5 276 970.4 276.1 z M 970.5 272.5 C 970.4 272.4 970.3 272.3 970.2 272.2 C 970.3000000000001 272.09999999999997 970.4000000000001 272 970.5 271.9 C 970.5 272.1 970.5 272.3 970.5 272.5 z M 883.8 276 C 883 276 883 274.7 883.8 274.8 C 911.8 275.1 939.9 275.3 967.9 275.6 C 968.6999999999999 275.6 968.6999999999999 276.8 967.9 276.8 C 939.9 276.5 911.8 276.3 883.8 276 z" stroke-linecap="round" />
</g>
<g transform="matrix(1 0 0 1 341.45 -267.98)" id="CXO18QjOCsc8rJ7SJGKqA"  >
<path style="stroke: none; stroke-width: 1; stroke-dasharray: none; stroke-linecap: butt; stroke-dashoffset: 0; stroke-linejoin: miter; stroke-miterlimit: 4; fill: rgb(175,127,91); fill-rule: nonzero; opacity: 1;" vector-effect="non-scaling-stroke"  transform=" translate(-640.2, -132.34)" d="M 635.6 146.9 C 638.7 147.9 641.8000000000001 148.20000000000002 645.1 147.8 C 645.2 139 645.3000000000001 130.3 645.4 121.50000000000001 C 645.5 115.10000000000001 635.5 115.10000000000001 635.4 121.50000000000001 C 635.4 122.70000000000002 635.4 123.90000000000002 635.3 125.20000000000002 C 635.4 125.20000000000002 635.5 125.20000000000002 635.6999999999999 125.20000000000002 C 638.3 126.10000000000002 640.9999999999999 126.40000000000002 643.8 126.20000000000002 C 644.5999999999999 126.10000000000002 644.5999999999999 127.30000000000001 643.8 127.40000000000002 C 640.9 127.60000000000002 638.0999999999999 127.30000000000003 635.3 126.30000000000003 C 635.1999999999999 133.20000000000002 635.0999999999999 140.10000000000002 635 147.00000000000003 C 635.2 146.9 635.4 146.8 635.6 146.9 z" stroke-linecap="round" />
</g>
<g transform="matrix(1 0 0 1 396.05 -155.65)" id="-l52WWBJ0yqTz9ZNaCKA3"  >
<path style="stroke: none; stroke-width: 1; stroke-dasharray: none; stroke-linecap: butt; stroke-dashoffset: 0; stroke-linejoin: miter; stroke-miterlimit: 4; fill: rgb(206,196,182); fill-rule: nonzero; opacity: 1;" vector-effect="non-scaling-stroke"  transform=" translate(-694.8, -244.67)" d="M 707.7 259.3 C 708.3000000000001 259.3 708.4000000000001 258.7 708.2 258.3 C 708.3000000000001 258.2 708.3000000000001 258.1 708.3000000000001 258 C 708.4000000000001 249.1 708.6 240.2 708.7 231.2 C 708.7 230.89999999999998 708.5 230.7 708.3000000000001 230.6 C 708.2 230.5 708.1 230.5 707.9000000000001 230.5 C 699.3000000000001 230.3 690.7 230.1 682.1000000000001 229.9 C 681.9000000000001 229.9 681.7000000000002 230 681.6000000000001 230.1 C 681.3000000000002 230.1 680.9000000000001 230.2 680.9000000000001 230.7 C 681.4000000000001 239.89999999999998 681.8000000000001 249 682.0000000000001 258.2 C 682.0000000000001 258.59999999999997 682.3000000000001 258.8 682.6000000000001 258.8 L 682.6000000000001 258.8 C 691 259.4 699.3 259.6 707.7 259.3 z M 683.2 257.6 C 683 248.70000000000002 682.6 239.90000000000003 682.1 231.10000000000002 C 690.6 231.3 699 231.50000000000003 707.5 231.70000000000002 C 707.4 240.4 707.2 249.20000000000002 707.1 258 L 707.1 258.1 C 699.1 258.3 691.2 258.2 683.2 257.6 z" stroke-linecap="round" />
</g>
<g transform="matrix(1 0 0 1 396.51 -136.97)" id="Xc0_mv1JekClf9Vsz0WIj"  >
<path style="stroke: none; stroke-width: 1; stroke-dasharray: none; stroke-linecap: butt; stroke-dashoffset: 0; stroke-linejoin: miter; stroke-miterlimit: 4; fill: rgb(206,196,182); fill-rule: nonzero; opacity: 1;" vector-effect="non-scaling-stroke"  transform=" translate(-695.26, -263.35)" d="M 684.8 263.6 C 691.8 263.8 698.8 264.1 705.8 264.3 C 706.5999999999999 264.3 706.5999999999999 263.1 705.8 263.1 C 698.8 262.90000000000003 691.8 262.6 684.8 262.40000000000003 C 683.9 262.4 683.9 263.6 684.8 263.6 z" stroke-linecap="round" />
</g>
<g transform="matrix(1 0 0 1 556.95 -208.63)" id="mSFQQQGQLkoaiGpe7-s-M"  >
<path style="stroke: none; stroke-width: 1; stroke-dasharray: none; stroke-linecap: butt; stroke-dashoffset: 0; stroke-linejoin: miter; stroke-miterlimit: 4; fill: rgb(206,196,182); fill-rule: nonzero; opacity: 1;" vector-effect="non-scaling-stroke"  transform=" translate(-855.7, -191.69)" d="M 856.1 198.1 C 856.2 193.79999999999998 856.3000000000001 189.6 856.5 185.29999999999998 C 856.6 184.49999999999997 855.3 184.49999999999997 855.3 185.29999999999998 C 855.1999999999999 189.6 855.0999999999999 193.79999999999998 854.9 198.1 C 854.9 198.2 854.9 198.29999999999998 854.9 198.29999999999998 C 855 198.49999999999997 855.1 198.6 855.3 198.6 C 855.7 198.8 856.1 198.6 856.1 198.1 z" stroke-linecap="round" />
</g>
<g transform="matrix(1 0 0 1 639.35 -246.31)" id="1IRMp0r-YsUoYNd0yp8Ub"  >
<path style="stroke: none; stroke-width: 1; stroke-dasharray: none; stroke-linecap: butt; stroke-dashoffset: 0; stroke-linejoin: miter; stroke-miterlimit: 4; fill: rgb(206,196,182); fill-rule: nonzero; opacity: 1;" vector-effect="non-scaling-stroke"  transform=" translate(-938.1, -154)" d="M 937.9 148.4 C 937.8 148.1 937.6999999999999 147.9 937.3 147.9 C 934 147.70000000000002 931.1999999999999 150.4 931.4 153.8 C 931.6 157.4 934.6999999999999 159.9 938.1999999999999 160.10000000000002 C 941.6999999999999 160.30000000000004 945.0999999999999 158.10000000000002 944.8 154.3 C 944.5 150.7 941.2 148.7 937.9 148.4 z M 943.4 153.6 C 944.3 157.1 941 159.1 937.9 158.79999999999998 C 935.3 158.6 933.1999999999999 156.89999999999998 932.6999999999999 154.29999999999998 C 932.1999999999999 151.6 934.3 149.1 936.9999999999999 149.2 C 937.0999999999999 149.39999999999998 937.2999999999998 149.6 937.5999999999999 149.6 C 940.1 149.8 942.7 151 943.4 153.6 z" stroke-linecap="round" />
</g>
<g transform="matrix(1 0 0 1 619.92 -245.92)" id="wQQR3kHxw6IubjsyOn_DX"  >
<path style="stroke: none; stroke-width: 1; stroke-dasharray: none; stroke-linecap: butt; stroke-dashoffset: 0; stroke-linejoin: miter; stroke-miterlimit: 4; fill: rgb(206,196,182); fill-rule: nonzero; opacity: 1;" vector-effect="non-scaling-stroke"  transform=" translate(-918.67, -154.4)" d="M 919.1 150 C 919 149.2 917.8000000000001 149.2 917.9 150 C 918.1999999999999 152.9 918.4 155.8 918.1999999999999 158.8 C 918.1999999999999 159.60000000000002 919.4 159.60000000000002 919.4 158.8 C 919.5 155.9 919.4 153 919.1 150 z" stroke-linecap="round" />
</g>
<g transform="matrix(1 0 0 1 621.74 -232.83)" id="NQ2pZRdacUweHLCmD7WFJ"  >
<path style="stroke: none; stroke-width: 1; stroke-dasharray: none; stroke-linecap: butt; stroke-dashoffset: 0; stroke-linejoin: miter; stroke-miterlimit: 4; fill: rgb(206,196,182); fill-rule: nonzero; opacity: 1;" vector-effect="non-scaling-stroke"  transform=" translate(-920.49, -167.48)" d="M 926 165.3 C 926 166.5 926 167.70000000000002 925.9 168.8 C 923.6999999999999 169 921.4 169.10000000000002 919.1999999999999 169.10000000000002 C 918.5999999999999 169.10000000000002 915.9999999999999 169.40000000000003 915.5999999999999 169.00000000000003 C 914.8999999999999 168.40000000000003 915.3 167.00000000000003 915.3 166.10000000000002 C 918.6999999999999 165.90000000000003 922 165.70000000000002 925.4 165.60000000000002 C 926.1999999999999 165.60000000000002 926.1999999999999 164.3 925.4 164.40000000000003 C 921.6999999999999 164.60000000000002 918.1 164.80000000000004 914.4 164.90000000000003 C 913.6999999999999 164.90000000000003 913.6 165.80000000000004 914.1 166.10000000000002 C 914.1 167.70000000000002 913.5 169.8 915.4 170.20000000000002 C 918.8 171.00000000000003 923.1 170.3 926.5 170.00000000000003 C 926.8 170.00000000000003 927.1 169.70000000000002 927.1 169.40000000000003 C 927.1 168.00000000000003 927.1 166.70000000000005 927.2 165.30000000000004 C 927.2 164.5 926 164.5 926 165.3 z" stroke-linecap="round" />
</g>
<g transform="matrix(1 0 0 1 640.11 -233.14)" id="sEylcgokQYGyeYuqaL6Uu"  >
<path style="stroke: none; stroke-width: 1; stroke-dasharray: none; stroke-linecap: butt; stroke-dashoffset: 0; stroke-linejoin: miter; stroke-miterlimit: 4; fill: rgb(206,196,182); fill-rule: nonzero; opacity: 1;" vector-effect="non-scaling-stroke"  transform=" translate(-938.86, -167.18)" d="M 940.5 162.7 C 940.1 162.5 939.7 162.7 939.6 163.1 C 937.5 163 935.4 164 934.5 166 C 933.4 168.5 934.8 170.5 937.2 171.3 C 939.6 172.20000000000002 942.3000000000001 171.8 943.3000000000001 169.10000000000002 C 944.3 166.5 942.7 164 940.5 162.7 z M 942.4 168 C 942.1 170.3 940 170.9 938 170.3 C 936.1 169.70000000000002 934.7 168.3 935.8 166.3 C 936.6999999999999 164.70000000000002 938.5999999999999 164.10000000000002 940.3 164.4 C 940.4 164.4 940.5 164.4 940.5999999999999 164.3 C 941.8 165.2 942.6 166.5 942.4 168 z" stroke-linecap="round" />
</g>
<g transform="matrix(1 0 0 1 471.2 -252.07)" id="x0IJ1hDPq-msikbCgkK_d"  >
<path style="stroke: none; stroke-width: 1; stroke-dasharray: none; stroke-linecap: butt; stroke-dashoffset: 0; stroke-linejoin: miter; stroke-miterlimit: 4; fill: rgb(206,196,182); fill-rule: nonzero; opacity: 1;" vector-effect="non-scaling-stroke"  transform=" translate(-769.95, -148.25)" d="M 661 149.5 C 733.6 149.1 806.3 148.6 878.9 148.2 C 879.6999999999999 148.2 879.6999999999999 146.89999999999998 878.9 147 C 806.3 147.4 733.5999999999999 147.9 661 148.3 C 660.2 148.2 660.2 149.5 661 149.5 z" stroke-linecap="round" />
</g>
<g transform="matrix(1 0 0 1 487.7 -243.31)" id="cpLA-mPYzazGzZYfc6huz"  >
<path style="stroke: none; stroke-width: 1; stroke-dasharray: none; stroke-linecap: butt; stroke-dashoffset: 0; stroke-linejoin: miter; stroke-miterlimit: 4; fill: rgb(206,196,182); fill-rule: nonzero; opacity: 1;" vector-effect="non-scaling-stroke"  transform=" translate(-786.45, -157)" d="M 721.5 158.2 C 764.8 158.29999999999998 808.1 157.89999999999998 851.4 157 C 852.1999999999999 157 852.1999999999999 155.7 851.4 155.8 C 808.1 156.70000000000002 764.8 157.10000000000002 721.5 157 C 720.7 156.9 720.7 158.2 721.5 158.2 z" stroke-linecap="round" />
</g>
<g transform="matrix(1 0 0 1 602.36 -317.33)" id="LZ-d0qv8cLmL8k99GmFqd"  >
<path style="stroke: none; stroke-width: 1; stroke-dasharray: none; stroke-linecap: butt; stroke-dashoffset: 0; stroke-linejoin: miter; stroke-miterlimit: 4; fill: rgb(183,170,154); fill-rule: nonzero; opacity: 1;" vector-effect="non-scaling-stroke"  transform=" translate(-901.11, -82.99)" d="M 898 93.6 C 899.8 93.69999999999999 903.7 94.69999999999999 905.2 93.39999999999999 C 905.3000000000001 93.3 905.4000000000001 93.19999999999999 905.6 93.1 C 906.6 91.89999999999999 906.1 90.1 906.1 88.6 C 906 85.19999999999999 905.9 81.89999999999999 905.8000000000001 78.5 C 905.8000000000001 77 906.3000000000001 73.9 905.1 72.7 C 904.1 71.60000000000001 901.2 72 900 72 C 898.8 71.9 897.4 71.7 896.6 72.8 C 895.5 74.3 896.2 77.2 896.3000000000001 78.89999999999999 C 896.5000000000001 82.89999999999999 896.8000000000001 86.89999999999999 897.2 90.89999999999999 L 897.2 90.89999999999999 L 897.2 91 C 897.2 91.1 897.2 91.2 897.2 91.3 C 896.7 91.7 896.6 92.39999999999999 896.9000000000001 92.89999999999999 C 897.1 93.3 897.5 93.6 898 93.6 z M 900.5 91.3 C 900.7 91.39999999999999 901 91.39999999999999 901.2 91.39999999999999 L 901.2 91.39999999999999 C 901 91.5 900.8 91.4 900.5 91.3 C 900.5 91.4 900.5 91.4 900.5 91.3 z M 898.8 74.2 C 898.9 74.10000000000001 899 74.10000000000001 899.0999999999999 74 C 898.8999999999999 75.7 898.8999999999999 77.4 898.8999999999999 79 L 898.7999999999998 79 C 898.7999999999998 78.9 898.7999999999998 78.7 898.7999999999998 78.6 C 898.8 77.8 898.3 74.8 898.8 74.2 z" stroke-linecap="round" />
</g>
<g transform="matrix(1 0 0 1 619.98 -309.41)" id="ICHKho1IFP1v0tuxvgcgw"  >
<path style="stroke: none; stroke-width: 1; stroke-dasharray: none; stroke-linecap: butt; stroke-dashoffset: 0; stroke-linejoin: miter; stroke-miterlimit: 4; fill: rgb(183,170,154); fill-rule: nonzero; opacity: 1;" vector-effect="non-scaling-stroke"  transform=" translate(-918.73, -90.91)" d="M 918 93.7 C 918.2 93.7 918.3 93.60000000000001 918.5 93.5 C 918.5 93.6 918.6 93.7 918.6 93.8 C 918.8000000000001 94.1 919.1 94.39999999999999 919.5 94.5 C 920.1 94.6 920.6 94.4 920.9 93.9 C 921.1 93.60000000000001 921.1 93.30000000000001 921 93 C 920.9 92.9 920.9 92.7 920.9 92.6 L 920.9 92.6 C 921.1 92.89999999999999 921 92.5 921 92.3 C 921 92 921 91.8 920.9 91.6 L 920.9 91.6 C 921 90.8 921.1999999999999 90 920.9 89.19999999999999 C 920.6 88.19999999999999 919.6 87.19999999999999 918.5 87.29999999999998 C 917.3 87.39999999999998 916.5 88.29999999999998 916.4 89.39999999999998 C 916.4 89.59999999999998 916.4 89.89999999999998 916.4 90.09999999999998 C 916.4 90.89999999999998 916.4 91.69999999999997 916.4 92.59999999999998 C 916.4 93.19999999999997 916.6999999999999 93.49999999999999 917.1 93.69999999999997 C 917.4 93.7 917.7 93.7 918 93.7 z" stroke-linecap="round" />
</g>
<g transform="matrix(1 0 0 1 626.9 -322.67)" id="sp50ArI6vN1Ei_FhIGh3T"  >
<path style="stroke: none; stroke-width: 1; stroke-dasharray: none; stroke-linecap: butt; stroke-dashoffset: 0; stroke-linejoin: miter; stroke-miterlimit: 4; fill: rgb(183,170,154); fill-rule: nonzero; opacity: 1;" vector-effect="non-scaling-stroke"  transform=" translate(-925.65, -77.65)" d="M 924.5 80.5 C 924.9 81.2 925.3 81.9 925.7 82.5 C 925.8000000000001 80.9 926 79.3 926.4000000000001 77.7 C 926.3000000000001 77.7 926.3000000000001 77.8 926.2 77.8 C 926.2 77.5 926.2 77.2 926.2 76.89999999999999 C 926.3000000000001 76.99999999999999 926.4000000000001 76.99999999999999 926.5 77.1 C 926.6 76.69999999999999 926.7 76.39999999999999 926.8 76 C 926.5999999999999 75.8 926.4 75.5 926.1999999999999 75.3 C 925.6999999999999 74.7 926.5999999999999 73.8 927.0999999999999 74.39999999999999 L 927.1999999999999 74.49999999999999 C 927.3 73.99999999999999 927.4999999999999 73.49999999999999 927.6999999999999 72.89999999999999 C 927.4 72.89999999999999 927.0999999999999 72.89999999999999 926.6999999999999 72.8 C 925.9999999999999 72.8 925.5999999999999 73.2 925.4999999999999 73.8 C 925.2999999999998 73.89999999999999 925.0999999999999 74.2 924.9999999999999 74.5 C 924.2999999999998 74.5 923.5999999999999 74.8 923.5999999999999 75.7 C 923.6999999999999 77.2 923.6999999999999 78.7 923.8 80.3 C 924 80.1 924.4 80.2 924.5 80.5 z" stroke-linecap="round" />
</g>
<g transform="matrix(1 0 0 1 635.5 -311.42)" id="bZFMxZBnyVJCjab_IXet6"  >
<path style="stroke: none; stroke-width: 1; stroke-dasharray: none; stroke-linecap: butt; stroke-dashoffset: 0; stroke-linejoin: miter; stroke-miterlimit: 4; fill: rgb(183,170,154); fill-rule: nonzero; opacity: 1;" vector-effect="non-scaling-stroke"  transform=" translate(-934.25, -88.9)" d="M 925.4 95.1 C 930.8 95.5 936.3 95.8 941.6999999999999 96.19999999999999 C 942.1999999999999 96.19999999999999 942.4999999999999 95.99999999999999 942.6999999999999 95.69999999999999 C 942.6999999999999 95.6 942.8 95.6 942.8 95.49999999999999 C 943.5 95.69999999999999 944.5 95.39999999999999 944.5 94.39999999999999 C 944.5 92.99999999999999 944.6 91.6 944.6 90.19999999999999 C 943.5 89.6 942.4 88.99999999999999 941.3000000000001 88.39999999999999 C 941.2 89.8 941.0000000000001 91.1 940.8000000000001 92.49999999999999 C 941.1 92.49999999999999 941.4000000000001 92.59999999999998 941.6 92.59999999999998 C 941.7 92.39999999999998 941.7 92.29999999999998 941.7 92.09999999999998 C 941.7 91.79999999999998 941.7 91.49999999999999 941.8000000000001 91.19999999999997 C 941.9000000000001 90.89999999999996 942.1 90.49999999999997 942.2 90.09999999999998 C 942.2 90.99999999999999 942.2 91.79999999999998 942.1 92.69999999999997 C 942.1 92.69999999999997 942.1 92.69999999999997 942.2 92.69999999999997 C 943 92.69999999999997 943 93.99999999999997 942.2 93.89999999999998 C 941.8000000000001 93.89999999999998 941.4000000000001 93.79999999999998 941.1 93.69999999999997 C 941 93.69999999999997 940.8000000000001 93.69999999999997 940.6 93.69999999999997 C 940.6 93.89999999999998 940.5 94.09999999999998 940.5 94.29999999999997 C 940.3 95.09999999999997 939.1 94.79999999999997 939.3 93.99999999999997 C 939.3 93.79999999999997 939.4 93.59999999999997 939.4 93.39999999999998 C 937.5 92.99999999999997 935.6999999999999 92.29999999999998 934 91.49999999999997 C 934.3 92.29999999999997 934.6 93.09999999999997 935 93.79999999999997 C 935.3 94.49999999999997 934.2 95.09999999999997 933.9 94.39999999999996 C 933.5 93.49999999999996 933.1999999999999 92.59999999999997 932.9 91.69999999999996 C 931.1999999999999 92.29999999999995 929.4 92.69999999999996 927.5 92.89999999999996 C 927.6 93.69999999999996 926.4 93.99999999999996 926.3 93.19999999999996 C 926.3 93.09999999999997 926.3 92.99999999999996 926.3 92.89999999999996 C 926.0999999999999 92.69999999999996 926.0999999999999 92.49999999999996 926.1999999999999 92.19999999999996 C 925.9 89.89999999999996 925.6999999999999 87.59999999999997 925.6999999999999 85.29999999999995 C 924.9999999999999 85.39999999999995 924.9 84.39999999999995 925.4999999999999 84.09999999999995 C 924.8999999999999 83.29999999999995 924.3999999999999 82.49999999999996 923.8999999999999 81.59999999999995 C 923.9999999999999 85.49999999999996 924.1999999999998 89.29999999999995 924.2999999999998 93.29999999999995 C 924.2999999999998 93.39999999999995 924.2999999999998 93.39999999999995 924.2999999999998 93.39999999999995 C 924.2999999999998 93.59999999999995 924.2999999999998 93.79999999999995 924.2999999999998 93.99999999999994 C 924.4 94.6 924.8 95 925.4 95.1 z M 938.5 93.4 C 938.5 93.4 938.5 93.5 938.5 93.4 C 938.4 93.5 938.1 93.5 937.9 93.5 C 938.1 93.4 938.3 93.4 938.5 93.4 z" stroke-linecap="round" />
</g>
<g transform="matrix(1 0 0 1 631.05 -313.67)" id="TTtfnZrQmID6aXXyDjD3n"  >
<path style="stroke: none; stroke-width: 1; stroke-dasharray: none; stroke-linecap: butt; stroke-dashoffset: 0; stroke-linejoin: miter; stroke-miterlimit: 4; fill: rgb(183,170,154); fill-rule: nonzero; opacity: 1;" vector-effect="non-scaling-stroke"  transform=" translate(-929.8, -86.65)" d="M 927.6 85.1 C 928.9 86.6 930.4 87.89999999999999 932 88.89999999999999 C 931.7 87.39999999999999 931.5 85.89999999999999 931.6 84.39999999999999 C 930.3 84.8 929 85 927.6 85.1 z" stroke-linecap="round" />
</g>
<g transform="matrix(1 0 0 1 630.6 -319.67)" id="W0BT4ZQVy_FJKZ-bMBNg7"  >
<path style="stroke: none; stroke-width: 1; stroke-dasharray: none; stroke-linecap: butt; stroke-dashoffset: 0; stroke-linejoin: miter; stroke-miterlimit: 4; fill: rgb(183,170,154); fill-rule: nonzero; opacity: 1;" vector-effect="non-scaling-stroke"  transform=" translate(-929.35, -80.65)" d="M 926.9 84 C 927.9 83.9 928.9 83.8 929.8 83.6 C 929.6999999999999 83.1 929.5 82.69999999999999 929.4 82.19999999999999 C 929.6 82.1 929.8 81.99999999999999 929.9 81.89999999999999 C 929.9 82.49999999999999 929.9 82.99999999999999 929.9 83.6 C 930.5 83.5 931 83.39999999999999 931.6 83.19999999999999 C 931.6 82.6 931.7 81.99999999999999 931.8000000000001 81.39999999999999 C 930.4000000000001 80.1 929.0000000000001 78.69999999999999 927.8000000000001 77.3 C 927.3 79.5 927 81.7 926.9 84 z" stroke-linecap="round" />
</g>
<g transform="matrix(1 0 0 1 637.25 -313.52)" id="nmW_pTEMds5ClM3me2Yvu"  >
<path style="stroke: none; stroke-width: 1; stroke-dasharray: none; stroke-linecap: butt; stroke-dashoffset: 0; stroke-linejoin: miter; stroke-miterlimit: 4; fill: rgb(183,170,154); fill-rule: nonzero; opacity: 1;" vector-effect="non-scaling-stroke"  transform=" translate(-936, -86.8)" d="M 934.4 83.6 C 933.9 83.8 933.4 84 932.8 84.1 C 932.8 86 933 87.89999999999999 933.5 89.8 C 933.6 89.89999999999999 933.7 89.89999999999999 933.9 90 C 935.8 89.2 937.6 88.2 939.1999999999999 87 C 937.5 86 935.9 84.8 934.4 83.6 z M 934 87.6 C 934.1 87.5 934.1 87.39999999999999 934.2 87.3 C 934.4000000000001 87.8 934.5 88.39999999999999 934.7 88.89999999999999 C 934.6 88.8 934.5 88.8 934.3000000000001 88.69999999999999 C 934.1 88.3 934 88 934 87.6 z" stroke-linecap="round" />
</g>
<g transform="matrix(1 0 0 1 634.35 -317.67)" id="70Qh9GhnLkdD3gcjjTaKM"  >
<path style="stroke: none; stroke-width: 1; stroke-dasharray: none; stroke-linecap: butt; stroke-dashoffset: 0; stroke-linejoin: miter; stroke-miterlimit: 4; fill: rgb(183,170,154); fill-rule: nonzero; opacity: 1;" vector-effect="non-scaling-stroke"  transform=" translate(-933.1, -82.65)" d="M 932.9 82.4 C 932.9 82.60000000000001 932.9 82.7 932.9 82.9 C 933 82.9 933.1999999999999 82.80000000000001 933.3 82.80000000000001 C 933.2 82.6 933 82.5 932.9 82.4 z" stroke-linecap="round" />
</g>
<g transform="matrix(1 0 0 1 639.17 -316.77)" id="84gsDFP4qfl3h_wZVph2f"  >
<path style="stroke: none; stroke-width: 1; stroke-dasharray: none; stroke-linecap: butt; stroke-dashoffset: 0; stroke-linejoin: miter; stroke-miterlimit: 4; fill: rgb(183,170,154); fill-rule: nonzero; opacity: 1;" vector-effect="non-scaling-stroke"  transform=" translate(-937.92, -83.55)" d="M 940.1 86.2 C 940.2 84.4 940.1 82.7 940 80.9 C 938.6 81.7 937.2 82.5 935.7 83 C 937.2 84.2 938.6 85.3 940.1 86.2 z M 938.5 82 C 938.5 82.5 938.4 83 938.3 83.5 C 938.3 82.9 938.3 82.4 938.5 82 C 938.4 81.9 938.4 82 938.5 82 z" stroke-linecap="round" />
</g>
<g transform="matrix(1 0 0 1 630.9 -311.47)" id="P-_riKdkt1s3mZ25Ahm8O"  >
<path style="stroke: none; stroke-width: 1; stroke-dasharray: none; stroke-linecap: butt; stroke-dashoffset: 0; stroke-linejoin: miter; stroke-miterlimit: 4; fill: rgb(183,170,154); fill-rule: nonzero; opacity: 1;" vector-effect="non-scaling-stroke"  transform=" translate(-929.65, -88.85)" d="M 932.4 90.6 C 930.4 89.39999999999999 928.5 87.8 926.9 86 C 926.9 87.9 927 89.8 927.3 91.7 C 929 91.5 930.7 91.2 932.4 90.6 z" stroke-linecap="round" />
</g>
<g transform="matrix(1 0 0 1 635.2 -325.12)" id="buYhC2maX_ZFfsIsXLUlR"  >
<path style="stroke: none; stroke-width: 1; stroke-dasharray: none; stroke-linecap: butt; stroke-dashoffset: 0; stroke-linejoin: miter; stroke-miterlimit: 4; fill: rgb(183,170,154); fill-rule: nonzero; opacity: 1;" vector-effect="non-scaling-stroke"  transform=" translate(-933.95, -75.2)" d="M 928.1 75.7 C 929.3000000000001 77.2 930.7 78.60000000000001 932 79.9 C 932.1 79.4 932.2 78.9 932.4 78.4 C 932.4 78.30000000000001 932.4 78.10000000000001 932.4 78 C 932.4 77.89999999999999 932.4 77.8 932.3 77.7 C 932.4 77.7 932.5 77.7 932.5999999999999 77.7 C 932.8999999999999 76.8 933.1999999999999 75.8 933.6999999999999 74.9 C 933.9999999999999 74.2 935.0999999999999 74.80000000000001 934.8 75.5 C 934 77.3 933.4 79.1 933.0999999999999 80.9 C 933.5999999999999 81.30000000000001 934.0999999999999 81.80000000000001 934.5999999999999 82.2 C 935.6999999999999 81.8 936.8 81.3 937.8 80.7 L 937.8 80.60000000000001 L 937.8 80.60000000000001 C 937.8 80.60000000000001 937.8 80.60000000000001 937.8 80.7 C 938.5 80.3 939.1999999999999 79.9 939.8 79.5 C 939.5999999999999 77.6 939.3 75.6 938.8 73.7 L 938.8 73.60000000000001 C 938 73.50000000000001 937.0999999999999 73.50000000000001 936.3 73.4 C 936.3 72.10000000000001 936.3 70.7 936.3 69.4 C 936.3 67.80000000000001 933.8 67.80000000000001 933.8 69.4 C 933.8 70.7 933.8 72 933.8 73.30000000000001 C 932.0999999999999 73.20000000000002 930.5 73.10000000000001 928.8 73.00000000000001 C 928.6 73.9 928.4 74.8 928.1 75.7 z M 936.4 78.5 C 936.4 78.3 936.4 78 936.4 77.8 C 936.6 77.8 936.6999999999999 77.89999999999999 936.9 78 C 936.7 78.1 936.6 78.3 936.4 78.5 z" stroke-linecap="round" />
</g>
<g transform="matrix(1 0 0 1 643.95 -320.92)" id="ImvwDEl47IAzG7iYu6TXM"  >
<path style="stroke: none; stroke-width: 1; stroke-dasharray: none; stroke-linecap: butt; stroke-dashoffset: 0; stroke-linejoin: miter; stroke-miterlimit: 4; fill: rgb(183,170,154); fill-rule: nonzero; opacity: 1;" vector-effect="non-scaling-stroke"  transform=" translate(-942.7, -79.4)" d="M 941.1 78.8 C 942 78.2 942.8000000000001 77.5 943.6 76.8 C 944.2 76.3 945.1 77.1 944.5 77.7 C 943.5 78.60000000000001 942.4 79.4 941.2 80.2 C 941.4000000000001 81.8 941.4000000000001 83.5 941.4000000000001 85.10000000000001 C 942.3000000000001 84.2 943.1000000000001 83.30000000000001 943.9000000000001 82.30000000000001 C 944.1000000000001 82.00000000000001 944.5000000000001 82.00000000000001 944.8000000000001 82.10000000000001 C 944.9000000000001 80.30000000000001 945.8000000000001 76.10000000000001 944.5000000000001 74.7 C 943.5000000000001 73.60000000000001 941.6000000000001 73.7 940.2000000000002 73.7 C 940.6 75.4 940.9 77.1 941.1 78.8 z" stroke-linecap="round" />
</g>
<g transform="matrix(1 0 0 1 644.35 -314.32)" id="YAQbUIJEDnx_F-t_s8gMv"  >
<path style="stroke: none; stroke-width: 1; stroke-dasharray: none; stroke-linecap: butt; stroke-dashoffset: 0; stroke-linejoin: miter; stroke-miterlimit: 4; fill: rgb(183,170,154); fill-rule: nonzero; opacity: 1;" vector-effect="non-scaling-stroke"  transform=" translate(-943.1, -86)" d="M 941.4 86.8 C 941.4 86.89999999999999 941.4 86.89999999999999 941.4 87 C 942.5 87.6 943.6 88.2 944.6999999999999 88.8 C 944.6999999999999 86.89999999999999 944.8 85.1 944.8 83.2 C 943.7 84.5 942.6 85.7 941.4 86.8 z" stroke-linecap="round" />
</g>
<g transform="matrix(1 0 0 1 638.85 -310.27)" id="ijPgmEeXTtoFS3jOmCc7t"  >
<path style="stroke: none; stroke-width: 1; stroke-dasharray: none; stroke-linecap: butt; stroke-dashoffset: 0; stroke-linejoin: miter; stroke-miterlimit: 4; fill: rgb(183,170,154); fill-rule: nonzero; opacity: 1;" vector-effect="non-scaling-stroke"  transform=" translate(-937.6, -90.05)" d="M 940 87.9 C 938.5 89 936.9 90 935.2 90.80000000000001 C 936.6 91.4 938 91.9 939.5 92.20000000000002 C 939.8 90.7 939.9 89.3 940 87.9 z" stroke-linecap="round" />
</g>
<g transform="matrix(1 0 0 1 616.31 -167.16)" id="E5Fgko-0ibawP_rwXtXuv"  >
<path style="stroke: none; stroke-width: 1; stroke-dasharray: none; stroke-linecap: butt; stroke-dashoffset: 0; stroke-linejoin: miter; stroke-miterlimit: 4; fill: rgb(183,170,154); fill-rule: nonzero; opacity: 1;" vector-effect="non-scaling-stroke"  transform=" translate(-915.06, -233.16)" d="M 918.1 212.6 C 907.7 212.79999999999998 897.3000000000001 213.2 886.9 213.6 L 886.9 213.6 C 885.6999999999999 213.7 885.1999999999999 215.29999999999998 886.3 215.9 C 888.5999999999999 217.3 891.3 216.9 893.9 216.8 C 895.1999999999999 216.8 896.6 216.8 897.9 216.8 C 897.5 219.60000000000002 897.5 222.4 898.1 225.10000000000002 C 898.4 226.70000000000002 900.8000000000001 226.00000000000003 900.5 224.40000000000003 C 900 221.90000000000003 899.9 219.40000000000003 900.4 216.90000000000003 C 900.4 216.80000000000004 900.4 216.80000000000004 900.4 216.80000000000004 C 901.8 216.80000000000004 903.3 216.80000000000004 904.6999999999999 216.80000000000004 C 904.4999999999999 217.10000000000005 904.4999999999999 217.50000000000003 904.4999999999999 218.00000000000003 C 904.6999999999999 219.60000000000002 906.1999999999999 220.40000000000003 907.5999999999999 220.50000000000003 C 908.3 220.50000000000003 908.8999999999999 220.60000000000002 909.5999999999999 220.60000000000002 C 909.8 220.70000000000002 909.9999999999999 220.90000000000003 910.1999999999999 220.90000000000003 C 910.1999999999999 230.70000000000005 910.1999999999999 240.50000000000003 910.1999999999999 250.30000000000004 C 909.8 250.40000000000003 909.4999999999999 250.70000000000005 909.4 251.10000000000005 C 909 252.10000000000005 908.9 253.20000000000005 909.1 254.30000000000004 C 910.4 254.00000000000003 911.6 253.60000000000005 912.7 252.90000000000003 C 912.7 242.40000000000003 912.7 231.90000000000003 912.7 221.50000000000003 C 912.8000000000001 221.50000000000003 912.8000000000001 221.50000000000003 912.9000000000001 221.50000000000003 C 915.7 221.80000000000004 918.9000000000001 219.90000000000003 918.1000000000001 216.70000000000002 C 919.7000000000002 216.70000000000002 921.3000000000002 216.70000000000002 923.0000000000001 216.70000000000002 C 923.4000000000001 216.70000000000002 923.8000000000001 216.70000000000002 924.2000000000002 216.70000000000002 C 924.2000000000002 216.8 924.1000000000001 217.00000000000003 924.1000000000001 217.10000000000002 C 924.3000000000002 222.70000000000002 924.1000000000001 228.60000000000002 924.8000000000002 234.20000000000002 C 925.1000000000001 236.4 926.0000000000002 238.20000000000002 928.4000000000002 237.4 C 928.9000000000002 237.20000000000002 929.4000000000002 236.70000000000002 929.3000000000002 236.20000000000002 C 929.2000000000002 235.00000000000003 929.1000000000001 233.8 929.0000000000002 232.70000000000002 C 929.1000000000003 227.4 929.2000000000003 222.00000000000003 929.3000000000002 216.70000000000002 C 930.6000000000001 216.70000000000002 931.8000000000002 216.70000000000002 933.1000000000001 216.60000000000002 C 933.6000000000001 216.60000000000002 934.0000000000001 216.60000000000002 934.5000000000001 216.60000000000002 C 934.6000000000001 216.60000000000002 934.7000000000002 216.60000000000002 934.7000000000002 216.60000000000002 C 937.5000000000001 216.50000000000003 940.3000000000002 216.50000000000003 943.2000000000002 216.40000000000003 C 944.3000000000002 216.40000000000003 945.0000000000001 214.60000000000002 943.8000000000002 214.10000000000002 C 943.6000000000001 214.00000000000003 943.4000000000002 214.00000000000003 943.3000000000002 213.90000000000003 L 943.3000000000002 213.80000000000004 C 943.2000000000002 213.80000000000004 943.1000000000001 213.80000000000004 943.0000000000002 213.80000000000004 C 942.4000000000002 213.60000000000005 941.9000000000002 213.40000000000003 941.3000000000002 213.20000000000005 C 934 211.1 925.3 212.4 918.1 212.6 z M 908.1 217.7 C 908.3000000000001 217.6 908.6 217.6 908.8000000000001 217.6 C 908.8000000000001 217.7 908.8000000000001 217.79999999999998 908.8000000000001 217.9 L 908.7 217.9 C 908.4 217.9 907.3 218 908.1 217.7 z" stroke-linecap="round" />
</g>
<g transform="matrix(1 0 0 1 612.41 -143.62)" id="cqapq-zzX_4m3aG2r42hk"  >
<path style="stroke: none; stroke-width: 1; stroke-dasharray: none; stroke-linecap: butt; stroke-dashoffset: 0; stroke-linejoin: miter; stroke-miterlimit: 4; fill: rgb(183,170,154); fill-rule: nonzero; opacity: 1;" vector-effect="non-scaling-stroke"  transform=" translate(-911.16, -256.7)" d="M 911.5 255 C 910.8 255.3 910.1 255.5 909.4 255.7 C 909.6 256.2 909.9 256.8 910.1999999999999 257.3 C 910.1999999999999 257.5 910.1999999999999 257.7 910.1999999999999 257.8 C 910.1999999999999 259.40000000000003 912.6999999999999 259.40000000000003 912.6999999999999 257.8 L 912.6999999999999 257.7 C 912.9999999999999 257.4 912.9999999999999 256.9 912.6999999999999 256.4 C 912.6999999999999 255.7 912.6999999999999 255.09999999999997 912.6999999999999 254.39999999999998 C 912.3 254.6 911.9 254.8 911.5 255 z" stroke-linecap="round" />
</g>
<g transform="matrix(1 0 0 1 343 -230.88)" id="8qXP81J0FmQH-5OLLwiTj"  >
<path style="stroke: none; stroke-width: 1; stroke-dasharray: none; stroke-linecap: butt; stroke-dashoffset: 0; stroke-linejoin: miter; stroke-miterlimit: 4; fill: rgb(155,109,79); fill-rule: nonzero; opacity: 1;" vector-effect="non-scaling-stroke"  transform=" translate(-641.75, -169.43)" d="M 642.4 153.9 C 642.5 160 642.6999999999999 166 642.8 172.1 C 640.5999999999999 172 638.4 171.79999999999998 636.0999999999999 171.5 C 635.3999999999999 171.4 635.0999999999999 172.6 635.8 172.7 C 638.1999999999999 173 640.5 173.2 642.8 173.29999999999998 C 642.9 177.2 643 180.99999999999997 643.0999999999999 184.89999999999998 C 643.1999999999999 188.09999999999997 648.1999999999999 188.09999999999997 648.0999999999999 184.89999999999998 C 647.8999999999999 174.59999999999997 647.5999999999999 164.2 647.3999999999999 153.89999999999998 C 647.3999999999999 153.7 647.3999999999999 153.59999999999997 647.2999999999998 153.49999999999997 C 647.0999999999998 152.29999999999998 646.0999999999998 151.59999999999997 644.9999999999999 151.59999999999997 C 643.7 151.4 642.3 152.2 642.4 153.9 z" stroke-linecap="round" />
</g>
<g transform="matrix(1 0 0 1 635.49 -317)" id="TUnagc_3MtU5-dLnIM6Qm"  >
<path style="stroke: none; stroke-width: 1; stroke-dasharray: none; stroke-linecap: butt; stroke-dashoffset: 0; stroke-linejoin: miter; stroke-miterlimit: 4; fill: rgb(155,109,79); fill-rule: nonzero; opacity: 1;" vector-effect="non-scaling-stroke"  transform=" translate(-934.24, -83.32)" d="M 925.4 84.1 C 924.8 84.3 924.9 85.3 925.6 85.3 C 925.6 87.6 925.7 89.89999999999999 926.1 92.2 C 926 92.4 926 92.7 926.2 92.9 C 926.2 93 926.2 93.10000000000001 926.2 93.2 C 926.3000000000001 94 927.5 93.7 927.4000000000001 92.9 C 929.3000000000001 92.7 931.0000000000001 92.30000000000001 932.8000000000001 91.7 C 933.1 92.60000000000001 933.4000000000001 93.5 933.8000000000001 94.4 C 934.1 95.10000000000001 935.2 94.5 934.9000000000001 93.80000000000001 C 934.5000000000001 93.00000000000001 934.2 92.20000000000002 933.9000000000001 91.50000000000001 C 935.6000000000001 92.30000000000001 937.4000000000001 93.00000000000001 939.3000000000001 93.40000000000002 C 939.3000000000001 93.60000000000002 939.2 93.80000000000003 939.2 94.00000000000001 C 939 94.80000000000001 940.2 95.10000000000001 940.4000000000001 94.30000000000001 C 940.4000000000001 94.10000000000001 940.5000000000001 93.9 940.5000000000001 93.70000000000002 L 940.5000000000001 93.70000000000002 C 940.6000000000001 93.70000000000002 940.8000000000001 93.70000000000002 940.9000000000001 93.80000000000001 C 941.3000000000001 93.9 941.7 93.9 942.0000000000001 94.00000000000001 C 942.8000000000001 94.10000000000001 942.8000000000001 92.80000000000001 942.0000000000001 92.80000000000001 C 942.0000000000001 92.80000000000001 942.0000000000001 92.80000000000001 941.9000000000001 92.80000000000001 C 941.7 92.80000000000001 941.6000000000001 92.80000000000001 941.4000000000001 92.70000000000002 C 941.1000000000001 92.70000000000002 940.8000000000001 92.60000000000002 940.6000000000001 92.60000000000002 C 940.8000000000002 91.20000000000002 941.0000000000001 89.90000000000002 941.1000000000001 88.50000000000003 C 942.2000000000002 89.10000000000002 943.3000000000002 89.70000000000003 944.4000000000001 90.30000000000003 L 944.5000000000001 90.30000000000003 C 945.2000000000002 90.60000000000002 945.9000000000001 89.60000000000002 945.1000000000001 89.20000000000003 C 944.9000000000001 89.10000000000004 944.7000000000002 89.00000000000003 944.4000000000001 88.90000000000003 C 943.3000000000001 88.30000000000004 942.2 87.70000000000003 941.1000000000001 87.10000000000004 C 941.1000000000001 87.00000000000004 941.1000000000001 87.00000000000004 941.1000000000001 86.90000000000003 C 942.3000000000002 85.80000000000004 943.5000000000001 84.60000000000004 944.5000000000001 83.30000000000004 C 944.6000000000001 83.20000000000005 944.6000000000001 83.10000000000004 944.7000000000002 83.00000000000004 C 945.0000000000001 82.70000000000005 944.8000000000002 82.40000000000005 944.5000000000001 82.20000000000005 C 944.2000000000002 82.00000000000004 943.8000000000001 82.10000000000005 943.6000000000001 82.40000000000005 C 942.8000000000002 83.40000000000005 942.0000000000001 84.30000000000005 941.1000000000001 85.20000000000005 C 941.1000000000001 83.60000000000005 941.1000000000001 81.90000000000005 940.9000000000001 80.30000000000004 C 942.0000000000001 79.50000000000004 943.1000000000001 78.70000000000005 944.2 77.80000000000004 C 944.8000000000001 77.20000000000005 943.9000000000001 76.40000000000003 943.3000000000001 76.90000000000003 C 942.5000000000001 77.60000000000004 941.7 78.30000000000004 940.8000000000001 78.90000000000003 C 940.6 77.20000000000003 940.3000000000001 75.50000000000003 939.9000000000001 73.90000000000003 C 939.9000000000001 73.80000000000004 939.9000000000001 73.70000000000003 939.8000000000001 73.60000000000004 C 939.6 72.90000000000003 938.6 73.20000000000003 938.6 73.90000000000003 L 938.6 74 C 939.1 75.9 939.4 77.9 939.6 79.8 C 938.9 80.2 938.3000000000001 80.6 937.6 81 L 937.6 81 C 936.6 81.6 935.5 82 934.4 82.5 C 933.9 82.1 933.4 81.6 932.9 81.2 C 933.1999999999999 79.4 933.8 77.60000000000001 934.6 75.8 C 934.9 75.1 933.8000000000001 74.5 933.5 75.2 C 933.1 76.10000000000001 932.7 77 932.4 78 C 932.3 78.3 932.1999999999999 78.5 932.1999999999999 78.8 C 932.0999999999999 79.3 931.9 79.8 931.8 80.3 C 930.4 79 929.0999999999999 77.6 927.9 76.1 C 928.1 75.19999999999999 928.4 74.3 928.6 73.39999999999999 C 928.7 73.19999999999999 928.7 72.89999999999999 928.8000000000001 72.69999999999999 C 929.0000000000001 71.89999999999999 927.8000000000001 71.49999999999999 927.6 72.29999999999998 C 927.5 72.69999999999999 927.4 72.99999999999999 927.3000000000001 73.39999999999998 C 927.1 73.89999999999998 927.0000000000001 74.39999999999998 926.8000000000001 74.99999999999997 L 926.7 74.89999999999998 C 926.2 74.29999999999998 925.3000000000001 75.19999999999997 925.8000000000001 75.79999999999998 C 926.0000000000001 76.09999999999998 926.2 76.29999999999998 926.4000000000001 76.49999999999999 C 926.3000000000001 76.89999999999999 926.2 77.19999999999999 926.1000000000001 77.59999999999998 C 926.1000000000001 77.79999999999998 926.0000000000001 77.99999999999999 926.0000000000001 78.19999999999997 C 925.7000000000002 79.79999999999997 925.5000000000001 81.39999999999998 925.3000000000001 82.99999999999997 C 924.9000000000001 82.29999999999997 924.5000000000001 81.69999999999997 924.1 80.99999999999997 C 924 80.69999999999997 923.6 80.59999999999997 923.4 80.79999999999997 C 923.1 80.89999999999996 922.9 81.29999999999997 923.1 81.59999999999997 C 923.2 81.79999999999997 923.3000000000001 81.99999999999997 923.4 82.09999999999997 C 924.3 82.5 924.8 83.4 925.4 84.1 z M 931.8 81.4 C 931.6999999999999 82 931.6999999999999 82.60000000000001 931.5999999999999 83.2 C 930.9999999999999 83.3 930.4999999999999 83.5 929.8999999999999 83.60000000000001 L 929.7999999999998 83.60000000000001 C 928.7999999999998 83.80000000000001 927.8999999999999 83.9 926.8999999999999 84.00000000000001 C 926.9999999999999 81.80000000000001 927.2999999999998 79.50000000000001 927.6999999999998 77.30000000000001 C 929 78.7 930.4 80.1 931.8 81.4 z M 939.1 87 C 937.5 88.2 935.7 89.2 933.8000000000001 90 C 933.7 89.9 933.6 89.9 933.4000000000001 89.8 C 932.9000000000001 87.89999999999999 932.7 86 932.7 84.1 C 933.2 83.89999999999999 933.8000000000001 83.8 934.3000000000001 83.6 C 935.9 84.8 937.5 86 939.1 87 z M 931.6 84.4 C 931.6 85.9 931.7 87.4 932 88.9 C 930.4 87.80000000000001 928.9 86.5 927.6 85.10000000000001 C 929 85 930.3 84.8 931.6 84.4 z M 926.9 86.1 C 928.5 87.89999999999999 930.3 89.39999999999999 932.4 90.69999999999999 C 930.8 91.19999999999999 929.1 91.6 927.3 91.79999999999998 C 927 89.8 926.9 87.9 926.9 86.1 z M 935.2 90.8 C 936.9000000000001 90 938.5 89.1 940 87.89999999999999 C 939.9 89.3 939.7 90.8 939.5 92.19999999999999 C 938 91.8 936.6 91.4 935.2 90.8 z M 932.9 82.9 C 932.9 82.7 932.9 82.60000000000001 932.9 82.4 C 933 82.5 933.1999999999999 82.60000000000001 933.3 82.7 C 933.1 82.8 933 82.8 932.9 82.9 z M 940 81 C 940.1 82.8 940.2 84.5 940.1 86.3 C 938.6 85.3 937.1 84.3 935.7 83.2 C 937.2 82.5 938.7 81.8 940 81 z" stroke-linecap="round" />
</g>
<g transform="matrix(1 0 0 1 609.14 -160.24)" id="cdTzc7df9c_ka1qrjCwI4"  >
<path style="stroke: none; stroke-width: 1; stroke-dasharray: none; stroke-linecap: butt; stroke-dashoffset: 0; stroke-linejoin: miter; stroke-miterlimit: 4; fill: rgb(155,109,79); fill-rule: nonzero; opacity: 1;" vector-effect="non-scaling-stroke"  transform=" translate(-907.89, -240.08)" d="M 909.1 254.2 C 906.8000000000001 254.7 904.3000000000001 254.79999999999998 902 255.79999999999998 C 899.1 257 897.1 259.4 895.8 262.2 C 895.5 262.9 896.5999999999999 263.59999999999997 896.9 262.8 C 899.6999999999999 256.5 904.3 257.1 909.4 255.70000000000002 C 910.1 255.50000000000003 910.8 255.3 911.5 255.00000000000003 C 911.9 254.80000000000004 912.3 254.60000000000002 912.7 254.40000000000003 C 914.6 253.30000000000004 915.9000000000001 251.60000000000002 916.8000000000001 249.50000000000003 C 918.5000000000001 245.60000000000002 918.8000000000001 241.10000000000002 919.2 236.90000000000003 C 919.9000000000001 230.50000000000003 920.1 224.00000000000003 920 217.60000000000002 C 920 216.8 918.7 216.8 918.8 217.60000000000002 C 918.9 223.10000000000002 918.8 228.60000000000002 918.3 234.00000000000003 C 917.9 239.20000000000002 917.8 245.60000000000002 915.0999999999999 250.20000000000002 C 914.3999999999999 251.4 913.5999999999999 252.20000000000002 912.6999999999999 252.8 C 911.6 253.5 910.4 253.9 909.1 254.2 z" stroke-linecap="round" />
</g>
<g transform="matrix(1 0 0 1 340.86 -273.99)" id="GfqpTWwTMAa9xAf_hFUUE"  >
<path style="stroke: none; stroke-width: 1; stroke-dasharray: none; stroke-linecap: butt; stroke-dashoffset: 0; stroke-linejoin: miter; stroke-miterlimit: 4; fill: rgb(155,109,79); fill-rule: nonzero; opacity: 1;" vector-effect="non-scaling-stroke"  transform=" translate(-639.61, -126.33)" d="M 643.8 127.4 C 644.5999999999999 127.30000000000001 644.5999999999999 126.10000000000001 643.8 126.2 C 641 126.4 638.3 126.10000000000001 635.6999999999999 125.2 C 635.5999999999999 125.2 635.4 125.2 635.3 125.2 C 634.6999999999999 125.3 634.5999999999999 126.2 635.3 126.3 L 635.3 126.3 C 638.1 127.3 640.9 127.6 643.8 127.4 z" stroke-linecap="round" />
</g>
<g transform="matrix(1 0 0 1 341.64 -252.3)" id="tpYKO5Ugni9yUNa22bzc9"  >
<path style="stroke: none; stroke-width: 1; stroke-dasharray: none; stroke-linecap: butt; stroke-dashoffset: 0; stroke-linejoin: miter; stroke-miterlimit: 4; fill: rgb(155,109,79); fill-rule: nonzero; opacity: 1;" vector-effect="non-scaling-stroke"  transform=" translate(-640.39, -148.01)" d="M 645.1 149 C 645.2 149 645.3000000000001 149 645.4 149 C 646.1999999999999 148.9 646.1999999999999 147.6 645.4 147.8 C 645.3 147.8 645.1999999999999 147.8 645.1 147.8 C 641.8000000000001 148.10000000000002 638.7 147.8 635.6 146.9 C 635.4 146.8 635.2 146.9 635 147 C 634.7 147.2 634.7 147.7 635 147.9 C 635.1 147.9 635.1 148 635.2 148 C 638.4 149.1 641.7 149.4 645.1 149 z" stroke-linecap="round" />
</g>
<g transform="matrix(1 0 0 1 340.86 -203.62)" id="aDe-38ZL8c229_pko-4uC"  >
<path style="stroke: none; stroke-width: 1; stroke-dasharray: none; stroke-linecap: butt; stroke-dashoffset: 0; stroke-linejoin: miter; stroke-miterlimit: 4; fill: rgb(155,109,79); fill-rule: nonzero; opacity: 1;" vector-effect="non-scaling-stroke"  transform=" translate(-639.61, -196.69)" d="M 635.7 196.6 C 638.1 197.79999999999998 640.7 198.1 643.4000000000001 197.7 C 644.2 197.6 643.9000000000001 196.39999999999998 643.1000000000001 196.5 C 640.8000000000002 196.9 638.5000000000001 196.6 636.4000000000001 195.6 C 635.6 195.2 634.9 196.3 635.7 196.6 z" stroke-linecap="round" />
</g>
<g transform="matrix(1 0 0 1 341.13 -188.88)" id="IS_d9ggmhJ8IY_D9l_Z2H"  >
<path style="stroke: none; stroke-width: 1; stroke-dasharray: none; stroke-linecap: butt; stroke-dashoffset: 0; stroke-linejoin: miter; stroke-miterlimit: 4; fill: rgb(155,109,79); fill-rule: nonzero; opacity: 1;" vector-effect="non-scaling-stroke"  transform=" translate(-639.88, -211.44)" d="M 643.6 211.2 C 641.1 211.6 638.7 211.39999999999998 636.4 210.39999999999998 C 635.6 209.99999999999997 635 210.99999999999997 635.6999999999999 211.39999999999998 C 638.3 212.49999999999997 641.0999999999999 212.79999999999998 643.9 212.39999999999998 C 644.7 212.3 644.4 211.1 643.6 211.2 z" stroke-linecap="round" />
</g>
<g transform="matrix(1 0 0 1 362.65 -126.72)" id="6XYzKheAjyuHEyJAH-8VN"  >
<path style="stroke: none; stroke-width: 1; stroke-dasharray: none; stroke-linecap: butt; stroke-dashoffset: 0; stroke-linejoin: miter; stroke-miterlimit: 4; fill: rgb(155,109,79); fill-rule: nonzero; opacity: 1;" vector-effect="non-scaling-stroke"  transform=" translate(-661.4, -273.6)" d="M 681.8 274.2 C 682.5999999999999 274.2 682.5999999999999 273 681.8 273 C 668.1999999999999 273 654.6999999999999 273 641.0999999999999 273 C 641.0999999999999 273 641.0999999999999 273 640.9999999999999 273 C 640.1999999999999 273.1 640.1999999999999 274.2 640.9999999999999 274.2 L 640.9999999999999 274.2 C 654.7 274.2 668.2 274.2 681.8 274.2 z" stroke-linecap="round" />
</g>
<g transform="matrix(1 0 0 1 627.1 -124.52)" id="mSp0-w8P7ojTqBekMiA5y"  >
<path style="stroke: none; stroke-width: 1; stroke-dasharray: none; stroke-linecap: butt; stroke-dashoffset: 0; stroke-linejoin: miter; stroke-miterlimit: 4; fill: rgb(155,109,79); fill-rule: nonzero; opacity: 1;" vector-effect="non-scaling-stroke"  transform=" translate(-925.85, -275.8)" d="M 967.9 275.6 C 939.9 275.3 911.8 275.1 883.8 274.8 C 883 274.7 883 276 883.8 276 C 911.8 276.3 939.9 276.5 967.9 276.8 C 968.7 276.8 968.7 275.6 967.9 275.6 z" stroke-linecap="round" />
</g>
</svg>