<svg xmlns="http://www.w3.org/2000/svg" width="375" viewBox="0 0 375 375" height="375" version="1.0"><path d="M 227.25 202.433594 C 224.8125 201.007812 221.820312 201.035156 219.394531 202.476562 L 207.121094 209.789062 C 204.371094 211.429688 200.941406 211.234375 198.421875 209.269531 C 194.0625 205.867188 187.050781 200.140625 180.949219 194.039062 C 174.847656 187.9375 169.121094 180.925781 165.71875 176.566406 C 163.753906 174.046875 163.558594 170.617188 165.199219 167.867188 L 172.511719 155.59375 C 173.957031 153.167969 173.96875 150.148438 172.542969 147.714844 L 154.53125 116.945312 C 152.785156 113.96875 149.316406 112.507812 145.960938 113.328125 C 142.703125 114.121094 138.472656 116.050781 134.039062 120.492188 C 120.15625 134.375 112.78125 157.792969 164.992188 210.007812 C 217.207031 262.21875 240.617188 254.851562 254.507812 240.960938 C 258.953125 236.515625 260.878906 232.277344 261.679688 229.015625 C 262.488281 225.664062 261.046875 222.222656 258.078125 220.480469 C 250.660156 216.144531 234.664062 206.777344 227.25 202.433594 Z M 227.25 202.433594"/></svg>