<?xml version="1.0" encoding="UTF-8" standalone="no" ?>
<!DOCTYPE svg PUBLIC "-//W3C//DTD SVG 1.1//EN" "http://www.w3.org/Graphics/SVG/1.1/DTD/svg11.dtd">
<svg xmlns="http://www.w3.org/2000/svg" xmlns:xlink="http://www.w3.org/1999/xlink" version="1.1" width="404.87875222015333" height="121.08555088835146" viewBox="-237.6975718622025 -109.84789959558037 404.87875222015333 121.08555088835146" xml:space="preserve">
<desc>Created with Fabric.js 4.6.0</desc>
<defs>
</defs>
<g transform="matrix(1 0 0 1 -64.35 -38.28)" id="oWpZXax3fR7rJJCogl-cy"  >
<path style="stroke: none; stroke-width: 1; stroke-dasharray: none; stroke-linecap: butt; stroke-dashoffset: 0; stroke-linejoin: miter; stroke-miterlimit: 4; fill: none; fill-rule: nonzero; opacity: 1;" vector-effect="non-scaling-stroke"  transform=" translate(-242.25, -374.8)" d="M 219.7 374.8 C 234.7 374.8 249.79999999999998 374.90000000000003 264.8 374.90000000000003 C 249.7 374.6 234.7 374.7 219.7 374.8 z" stroke-linecap="round" />
</g>
<g transform="matrix(1 0 0 1 -147.8 -56.63)" id="TX9VivE8IrM584QH9tC2R"  >
<path style="stroke: none; stroke-width: 1; stroke-dasharray: none; stroke-linecap: butt; stroke-dashoffset: 0; stroke-linejoin: miter; stroke-miterlimit: 4; fill: none; fill-rule: nonzero; opacity: 1;" vector-effect="non-scaling-stroke"  transform=" translate(-158.8, -356.45)" d="M 154.1 361.5 C 157.29999999999998 357.9 160.7 354.5 164.29999999999998 351.4 C 160.6 354.29999999999995 156.89999999999998 357.29999999999995 153.29999999999998 360.29999999999995 C 153.6 360.7 153.9 361.1 154.1 361.5 z" stroke-linecap="round" />
</g>
<g transform="matrix(1 0 0 1 -98.45 -59.51)" id="e7u80EKWEuxtLC257BGxS"  >
<path style="stroke: none; stroke-width: 1; stroke-dasharray: none; stroke-linecap: butt; stroke-dashoffset: 0; stroke-linejoin: miter; stroke-miterlimit: 4; fill: none; fill-rule: nonzero; opacity: 1;" vector-effect="non-scaling-stroke"  transform=" translate(-208.15, -353.57)" d="M 250.6 347.7 C 239.7 337.7 226.9 335.2 212.5 335.7 C 205.2 336 197.6 336.2 190.7 338.4 C 183.7 340.7 177.7 345.2 172.1 349.59999999999997 C 164.2 355.79999999999995 156.9 363.29999999999995 150.7 371.2 C 157.2 371.4 163.7 371.5 170.2 371.5 C 170.1 371.2 170 370.9 170 370.7 C 170.1 366.2 178 367.59999999999997 180.7 367.59999999999997 C 184.5 367.59999999999997 188.39999999999998 367.79999999999995 192.2 368.09999999999997 C 194 368.29999999999995 196.29999999999998 368.2 197.5 369.79999999999995 C 197.9 370.29999999999995 198.1 370.79999999999995 198.1 371.29999999999995 C 201.6 371.29999999999995 205.1 371.19999999999993 208.6 371.19999999999993 C 208.79999999999998 370.69999999999993 209.1 370.29999999999995 209.79999999999998 370.0999999999999 C 209.99999999999997 369.9999999999999 210.29999999999998 369.8999999999999 210.6 369.8999999999999 C 212.4 369.5999999999999 214.2 369.8999999999999 215.79999999999998 370.7999999999999 C 215.89999999999998 370.7999999999999 215.99999999999997 370.8999999999999 216.1 370.9999999999999 C 222.1 370.89999999999986 228.1 370.89999999999986 234.1 370.7999999999999 C 234.4 370.1999999999999 234.9 369.7999999999999 235.7 369.7999999999999 C 236.49999999999997 369.7999999999999 237 370.1999999999999 237.29999999999998 370.7999999999999 C 246.7 370.7999999999999 256.2 370.7999999999999 265.59999999999997 371.0999999999999 C 263.1 362 257.8 354.3 250.6 347.7 z" stroke-linecap="round" />
</g>
<g transform="matrix(1 0 0 1 -40.05 -49.78)" id="jthzWCBhpul9l0KVWVhap"  >
<path style="stroke: none; stroke-width: 1; stroke-dasharray: none; stroke-linecap: butt; stroke-dashoffset: 0; stroke-linejoin: miter; stroke-miterlimit: 4; fill: none; fill-rule: nonzero; opacity: 1;" vector-effect="non-scaling-stroke"  transform=" translate(-266.55, -363.3)" d="M 268.4 367.5 C 268.2 366.4 268 365.3 267.79999999999995 364.1 C 267.09999999999997 362.90000000000003 266.4 361.6 265.59999999999997 360.40000000000003 C 265.29999999999995 359.90000000000003 264.99999999999994 359.50000000000006 264.7 359.1 C 266.2 361.8 267.4 364.6 268.4 367.5 z" stroke-linecap="round" />
</g>
<g transform="matrix(1 0 0 1 -22.9 -1.33)" id="Usui5qpjT-s-RmzHa4vPG"  >
<path style="stroke: none; stroke-width: 1; stroke-dasharray: none; stroke-linecap: butt; stroke-dashoffset: 0; stroke-linejoin: miter; stroke-miterlimit: 4; fill: none; fill-rule: nonzero; opacity: 1;" vector-effect="non-scaling-stroke"  transform=" translate(-283.7, -411.75)" d="M 283.5 411.8 C 283.6 411.90000000000003 283.6 412 283.7 412.1 C 283.8 411.90000000000003 283.8 411.6 283.9 411.40000000000003 C 283.8 411.5 283.7 411.7 283.5 411.8 z" stroke-linecap="round" />
</g>
<g transform="matrix(1 0 0 1 -126.2 -41.63)" id="LsREGM36ubWE7uhk9E9W7"  >
<path style="stroke: none; stroke-width: 1; stroke-dasharray: none; stroke-linecap: butt; stroke-dashoffset: 0; stroke-linejoin: miter; stroke-miterlimit: 4; fill: none; fill-rule: nonzero; opacity: 1;" vector-effect="non-scaling-stroke"  transform=" translate(-180.4, -371.45)" d="M 178.8 371.4 C 177.8 371.4 176.9 371.5 175.9 371.5 C 177.3 371.5 178.70000000000002 371.5 180.1 371.5 C 181.7 371.5 183.29999999999998 371.5 184.9 371.5 C 184.4 371.5 184 371.4 183.6 371.4 C 182 371.4 180.4 371.4 178.8 371.4 z" stroke-linecap="round" />
</g>
<g transform="matrix(1 0 0 1 -66.97 -93.78)" id="Uy1FWFvQ2yqK4E18W-W93"  >
<path style="stroke: none; stroke-width: 1; stroke-dasharray: none; stroke-linecap: butt; stroke-dashoffset: 0; stroke-linejoin: miter; stroke-miterlimit: 4; fill: none; fill-rule: nonzero; opacity: 1;" vector-effect="non-scaling-stroke"  transform=" translate(-239.63, -319.3)" d="M 239.5 319.3 C 239.6 319.3 239.7 319.3 239.8 319.3 C 239.6 319.3 239.5 319.3 239.5 319.3 C 239.4 319.3 239.5 319.3 239.5 319.3 z" stroke-linecap="round" />
</g>
<g transform="matrix(1 0 0 1 -222.1 2.62)" id="9TrZmvmfg6QgyIggPtJ8q"  >
<path style="stroke: none; stroke-width: 1; stroke-dasharray: none; stroke-linecap: butt; stroke-dashoffset: 0; stroke-linejoin: miter; stroke-miterlimit: 4; fill: none; fill-rule: nonzero; opacity: 1;" vector-effect="non-scaling-stroke"  transform=" translate(-84.5, -415.7)" d="M 84.5 415.7 L 84.5 415.7 L 84.5 415.7 L 84.5 415.7 z" stroke-linecap="round" />
</g>
<g transform="matrix(1 0 0 1 -132.05 -28.33)" id="TiUnlR62r9qRl835WpPSA"  >
<path style="stroke: none; stroke-width: 1; stroke-dasharray: none; stroke-linecap: butt; stroke-dashoffset: 0; stroke-linejoin: miter; stroke-miterlimit: 4; fill: none; fill-rule: nonzero; opacity: 1;" vector-effect="non-scaling-stroke"  transform=" translate(-174.55, -384.75)" d="M 176 385.1 C 176.1 384.90000000000003 176.1 384.6 176.2 384.40000000000003 C 175.1 384.40000000000003 174 384.40000000000003 172.89999999999998 384.40000000000003 C 173.9 384.6 174.9 384.9 176 385.1 z" stroke-linecap="round" />
</g>
<g transform="matrix(1 0 0 1 -158.44 -38.48)" id="p5KXNY6bGu2NU6m34V-Qr"  >
<path style="stroke: none; stroke-width: 1; stroke-dasharray: none; stroke-linecap: butt; stroke-dashoffset: 0; stroke-linejoin: miter; stroke-miterlimit: 4; fill: none; fill-rule: nonzero; opacity: 1;" vector-effect="non-scaling-stroke"  transform=" translate(-148.16, -374.6)" d="M 148.2 374.6 C 148.1 374.6 148.1 374.6 148.2 374.6 C 148.1 374.6 148.2 374.6 148.2 374.6 L 148.2 374.6 z" stroke-linecap="round" />
</g>
<g transform="matrix(1 0 0 1 -171.35 5.91)" id="qnbqydPFZ3WeBa2wAPSBj"  >
<path style="stroke: none; stroke-width: 1; stroke-dasharray: none; stroke-linecap: butt; stroke-dashoffset: 0; stroke-linejoin: miter; stroke-miterlimit: 4; fill: none; fill-rule: nonzero; opacity: 1;" vector-effect="non-scaling-stroke"  transform=" translate(-135.25, -418.98)" d="M 101.5 419.3 C 127.2 419 152.9 418.90000000000003 178.6 418.90000000000003 C 149.7 418.50000000000006 120.8 418.6 91.89999999999999 419.3 C 95.1 419.3 98.3 419.3 101.5 419.3 z" stroke-linecap="round" />
</g>
<g transform="matrix(1 0 0 1 -132.1 -41.73)" id="Xyx_-1QZRC0MevU_6hw_z"  >
<path style="stroke: none; stroke-width: 1; stroke-dasharray: none; stroke-linecap: butt; stroke-dashoffset: 0; stroke-linejoin: miter; stroke-miterlimit: 4; fill: none; fill-rule: nonzero; opacity: 1;" vector-effect="non-scaling-stroke"  transform=" translate(-174.5, -371.35)" d="M 174.2 371.2 C 174.2 371.3 174.1 371.4 174.1 371.5 C 174.4 371.5 174.6 371.5 174.9 371.5 C 174.6 371.4 174.4 371.3 174.2 371.2 z" stroke-linecap="round" />
</g>
<g transform="matrix(1 0 0 1 -40.15 -38.08)" id="vC4vcO0f-MFTJ24M6YzFf"  >
<path style="stroke: none; stroke-width: 1; stroke-dasharray: none; stroke-linecap: butt; stroke-dashoffset: 0; stroke-linejoin: miter; stroke-miterlimit: 4; fill: none; fill-rule: nonzero; opacity: 1;" vector-effect="non-scaling-stroke"  transform=" translate(-266.45, -375)" d="M 266.4 375 L 266.5 375 L 266.5 375 L 266.4 375 z" stroke-linecap="round" />
</g>
<g transform="matrix(1 0 0 1 -54.3 -16.53)" id="TAQc8b6M6YG0yGMXYb6eH"  >
<path style="stroke: none; stroke-width: 1; stroke-dasharray: none; stroke-linecap: butt; stroke-dashoffset: 0; stroke-linejoin: miter; stroke-miterlimit: 4; fill: none; fill-rule: nonzero; opacity: 1;" vector-effect="non-scaling-stroke"  transform=" translate(-252.3, -396.55)" d="M 252.6 396.4 C 252.4 396.4 252.2 396.4 252 396.4 C 252 396.5 252 396.59999999999997 252 396.7 C 252.2 396.6 252.4 396.5 252.6 396.4 z" stroke-linecap="round" />
</g>
<g transform="matrix(1 0 0 1 -166.25 -28.23)" id="wacjnRATuc4EgD_EmVvn3"  >
<path style="stroke: none; stroke-width: 1; stroke-dasharray: none; stroke-linecap: butt; stroke-dashoffset: 0; stroke-linejoin: miter; stroke-miterlimit: 4; fill: none; fill-rule: nonzero; opacity: 1;" vector-effect="non-scaling-stroke"  transform=" translate(-140.35, -384.85)" d="M 138.3 385.3 C 139.70000000000002 385 141 384.6 142.4 384.40000000000003 C 141 384.40000000000003 139.70000000000002 384.40000000000003 138.3 384.40000000000003 C 138.3 384.6 138.3 384.9 138.3 385.3 z" stroke-linecap="round" />
</g>
<g transform="matrix(1 0 0 1 -7.6 -35.48)" id="3ION2NTruzbtTwPNPhgON"  >
<path style="stroke: none; stroke-width: 1; stroke-dasharray: none; stroke-linecap: butt; stroke-dashoffset: 0; stroke-linejoin: miter; stroke-miterlimit: 4; fill: none; fill-rule: nonzero; opacity: 1;" vector-effect="non-scaling-stroke"  transform=" translate(-299, -377.6)" d="M 298.8 377.3 C 298.7 377.5 298.7 377.7 298.6 377.90000000000003 L 298.6 377.90000000000003 C 298.90000000000003 377.8 299.1 377.6 299.40000000000003 377.50000000000006 C 299.2 377.5 298.9 377.4 298.8 377.3 z" stroke-linecap="round" />
</g>
<g transform="matrix(1 0 0 1 -10.85 -34.03)" id="uWGkBHo9uqNcZvEGwW8W3"  >
<path style="stroke: none; stroke-width: 1; stroke-dasharray: none; stroke-linecap: butt; stroke-dashoffset: 0; stroke-linejoin: miter; stroke-miterlimit: 4; fill: none; fill-rule: nonzero; opacity: 1;" vector-effect="non-scaling-stroke"  transform=" translate(-295.75, -379.05)" d="M 295.9 379 C 295.79999999999995 379 295.79999999999995 379.1 295.7 379.1 L 295.7 379.1 L 295.7 379.1 C 295.7 379.1 295.7 379.1 295.59999999999997 379.1 L 295.59999999999997 379.1 C 295.7 379.1 295.8 379.1 295.9 379 L 295.9 379 z" stroke-linecap="round" />
</g>
<g transform="matrix(1 0 0 1 160.15 -48.48)" id="eb2lnu4IUMjQJEPziAKs5"  >
<path style="stroke: none; stroke-width: 1; stroke-dasharray: none; stroke-linecap: butt; stroke-dashoffset: 0; stroke-linejoin: miter; stroke-miterlimit: 4; fill: none; fill-rule: nonzero; opacity: 1;" vector-effect="non-scaling-stroke"  transform=" translate(-466.75, -364.6)" d="M 467 364.7 C 466.8 364.59999999999997 466.7 364.5 466.5 364.4 C 466.5 364.5 466.5 364.7 466.5 364.79999999999995 C 466.7 364.8 466.8 364.7 467 364.7 z" stroke-linecap="round" />
</g>
<g transform="matrix(1 0 0 1 -21.45 -7.63)" id="VA-XkKyd-XiI5lCyUwICV"  >
<path style="stroke: none; stroke-width: 1; stroke-dasharray: none; stroke-linecap: butt; stroke-dashoffset: 0; stroke-linejoin: miter; stroke-miterlimit: 4; fill: none; fill-rule: nonzero; opacity: 1;" vector-effect="non-scaling-stroke"  transform=" translate(-285.15, -405.45)" d="M 284.2 406.3 C 284.3 406.6 284.4 406.90000000000003 284.5 407.2 C 284.6 407.59999999999997 284.7 407.9 284.7 408.3 C 285.2 406.40000000000003 285.7 404.5 286.09999999999997 402.6 C 285.6 403.8 284.9 405.1 284.2 406.3 z" stroke-linecap="round" />
</g>
<g transform="matrix(1 0 0 1 -10.35 -46.58)" id="l3ejwJv1wz7VbD_EnrEOy"  >
<path style="stroke: none; stroke-width: 1; stroke-dasharray: none; stroke-linecap: butt; stroke-dashoffset: 0; stroke-linejoin: miter; stroke-miterlimit: 4; fill: none; fill-rule: nonzero; opacity: 1;" vector-effect="non-scaling-stroke"  transform=" translate(-296.25, -366.5)" d="M 295.1 367 C 295.40000000000003 367 295.70000000000005 367 296 367.2 C 296.4 367.09999999999997 296.9 367.2 297.3 367.4 C 297.40000000000003 366.79999999999995 297.6 366.2 297.7 365.59999999999997 C 296.7 365.99999999999994 295.8 366.4 294.8 366.79999999999995 C 294.9 366.9 295 367 295.1 367 z" stroke-linecap="round" />
</g>
<g transform="matrix(1 0 0 1 163.67 -46.23)" id="yNFJ2JaSeO-r7Nroi6ZPr"  >
<path style="stroke: none; stroke-width: 1; stroke-dasharray: none; stroke-linecap: butt; stroke-dashoffset: 0; stroke-linejoin: miter; stroke-miterlimit: 4; fill: none; fill-rule: nonzero; opacity: 1;" vector-effect="non-scaling-stroke"  transform=" translate(-470.27, -366.85)" d="M 470 366.7 C 470.1 366.9 470.1 367.2 470 367.4 C 470.3 367.2 470.5 367.09999999999997 470.5 367 C 470.6 366.8 470.5 366.6 470.4 366.3 C 470.4 366.5 470.2 366.6 470 366.7 z" stroke-linecap="round" />
</g>
<g transform="matrix(1 0 0 1 -187.09 -46.58)" id="6jYG-GbdNN_Jby4W3Y29k"  >
<path style="stroke: none; stroke-width: 1; stroke-dasharray: none; stroke-linecap: butt; stroke-dashoffset: 0; stroke-linejoin: miter; stroke-miterlimit: 4; fill: none; fill-rule: nonzero; opacity: 1;" vector-effect="non-scaling-stroke"  transform=" translate(-119.51, -366.5)" d="M 119.3 366.9 L 119.3 366.9 C 119.5 366.59999999999997 119.6 366.4 119.8 366.09999999999997 C 119.7 366.2 119.7 366.29999999999995 119.6 366.29999999999995 C 119.5 366.5 119.3 366.7 119.3 366.9 C 119.2 366.9 119.2 366.9 119.3 366.9 z" stroke-linecap="round" />
</g>
<g transform="matrix(1 0 0 1 -127.15 -91.53)" id="5udd0DOSOXKsUyu3hskm_"  >
<path style="stroke: none; stroke-width: 1; stroke-dasharray: none; stroke-linecap: butt; stroke-dashoffset: 0; stroke-linejoin: miter; stroke-miterlimit: 4; fill: none; fill-rule: nonzero; opacity: 1;" vector-effect="non-scaling-stroke"  transform=" translate(-179.45, -321.55)" d="M 177 322.4 C 177.8 322.09999999999997 178.5 322.09999999999997 179.2 322.2 C 181 321.4 182.79999999999998 320.5 184.7 319.7 C 184.79999999999998 319.7 184.79999999999998 319.59999999999997 184.89999999999998 319.59999999999997 C 181.2 320.7 177.49999999999997 321.99999999999994 173.99999999999997 323.49999999999994 C 175 323.1 176 322.7 177 322.4 z" stroke-linecap="round" />
</g>
<g transform="matrix(1 0 0 1 -77.45 -96.08)" id="6HIJcKNbIv2kIlS2DpwXD"  >
<path style="stroke: none; stroke-width: 1; stroke-dasharray: none; stroke-linecap: butt; stroke-dashoffset: 0; stroke-linejoin: miter; stroke-miterlimit: 4; fill: none; fill-rule: nonzero; opacity: 1;" vector-effect="non-scaling-stroke"  transform=" translate(-229.15, -317)" d="M 228 317.1 C 229 317.1 230 317.20000000000005 231 317.3 C 229.9 317.1 228.7 316.90000000000003 227.6 316.7 C 227.5 316.7 227.4 316.7 227.29999999999998 316.7 C 227.5 316.8 227.7 316.9 228 317.1 z" stroke-linecap="round" />
</g>
<g transform="matrix(1 0 0 1 -97.7 2.67)" id="Zytnsedu7KCTcwKXWuroD"  >
<path style="stroke: none; stroke-width: 1; stroke-dasharray: none; stroke-linecap: butt; stroke-dashoffset: 0; stroke-linejoin: miter; stroke-miterlimit: 4; fill: none; fill-rule: nonzero; opacity: 1;" vector-effect="non-scaling-stroke"  transform=" translate(-208.9, -415.75)" d="M 206.7 415.7 C 208.2 415.7 209.7 415.8 211.1 415.8 C 210.2 415.8 209.29999999999998 415.7 208.4 415.7 C 207.8 415.7 207.2 415.7 206.7 415.7 z" stroke-linecap="round" />
</g>
<g transform="matrix(1 0 0 1 -17.05 -43.43)" id="Dnid_zQLyvfJu5i9JJa0I"  >
<path style="stroke: none; stroke-width: 1; stroke-dasharray: none; stroke-linecap: butt; stroke-dashoffset: 0; stroke-linejoin: miter; stroke-miterlimit: 4; fill: none; fill-rule: nonzero; opacity: 1;" vector-effect="non-scaling-stroke"  transform=" translate(-289.55, -369.65)" d="M 289.4 369.1 C 289.5 369.6 289.59999999999997 370.1 289.7 370.6 C 289.7 370 289.7 369.40000000000003 289.59999999999997 368.70000000000005 C 289.5 368.9 289.4 369 289.4 369.1 z" stroke-linecap="round" />
</g>
<g transform="matrix(1 0 0 1 -120.5 -47.39)" id="3DxbaAXAtRsb12UGJeX13"  >
<path style="stroke: none; stroke-width: 1; stroke-dasharray: none; stroke-linecap: butt; stroke-dashoffset: 0; stroke-linejoin: miter; stroke-miterlimit: 4; fill: rgb(229,222,209); fill-rule: nonzero; opacity: 1;" vector-effect="non-scaling-stroke"  transform=" translate(-186.1, -365.68)" d="M 292.4 380.9 C 292.5 380.79999999999995 292.59999999999997 380.79999999999995 292.7 380.7 C 292.2 380.4 291.8 379.9 291.8 379.09999999999997 C 291.8 375.4 291.8 371.79999999999995 291.8 368.2 C 291.8 367.7 291.90000000000003 367.4 292.1 367.09999999999997 C 291.20000000000005 366.29999999999995 291.1 364.29999999999995 292.70000000000005 363.7 C 292.80000000000007 363.7 292.80000000000007 363.59999999999997 292.90000000000003 363.59999999999997 C 292.40000000000003 359.59999999999997 291.50000000000006 355.7 290.00000000000006 351.99999999999994 C 282.30000000000007 332.8999999999999 259.80000000000007 321.29999999999995 241.20000000000005 315.8999999999999 C 224.90000000000003 311.0999999999999 207.60000000000005 310.49999999999994 191.10000000000005 313.99999999999994 C 190.10000000000005 314.69999999999993 189.00000000000006 315.3999999999999 187.90000000000006 315.8999999999999 C 187.70000000000007 315.99999999999994 187.60000000000005 316.0999999999999 187.40000000000006 316.19999999999993 C 187.10000000000005 316.3999999999999 186.80000000000007 316.3999999999999 186.50000000000006 316.3999999999999 C 185.20000000000005 316.7999999999999 183.80000000000007 317.0999999999999 182.30000000000007 317.19999999999993 C 182.20000000000007 317.19999999999993 182.10000000000008 317.19999999999993 182.00000000000006 317.19999999999993 C 181.90000000000006 317.3999999999999 181.80000000000007 317.5999999999999 181.70000000000005 317.79999999999995 C 181.00000000000006 319.4 179.10000000000005 318.79999999999995 178.50000000000006 317.59999999999997 C 178.20000000000005 317.7 177.90000000000006 317.79999999999995 177.60000000000005 317.9 C 157.20000000000005 325.4 139.60000000000005 338.79999999999995 125.00000000000006 354.59999999999997 C 115.50000000000006 364.9 106.50000000000006 375.9 98.20000000000006 387.4 C 98.50000000000006 388 98.40000000000006 388.9 97.90000000000006 389.5 C 96.90000000000006 391.7 95.70000000000006 393.7 94.10000000000007 395.6 C 93.60000000000007 396.20000000000005 92.90000000000006 396.3 92.30000000000007 396 C 87.90000000000006 402.6 83.70000000000007 409.4 79.90000000000006 416.3 C 79.00000000000006 417.2 79.10000000000007 418.90000000000003 80.20000000000006 419.40000000000003 C 84.10000000000007 419.3 88.00000000000006 419.3 92.00000000000006 419.3 C 120.90000000000006 418.6 149.80000000000007 418.40000000000003 178.70000000000005 418.90000000000003 C 189.80000000000004 418.90000000000003 200.90000000000003 418.90000000000003 212.00000000000006 418.90000000000003 C 228.50000000000006 418.90000000000003 245.00000000000006 418.90000000000003 261.50000000000006 419.1 C 269.40000000000003 419.20000000000005 277.30000000000007 418.90000000000003 285.20000000000005 419.6 C 289.00000000000006 408.40000000000003 291.6 396.90000000000003 292.80000000000007 385.1 C 292.80000000000007 384.70000000000005 292.9000000000001 384.20000000000005 292.9000000000001 383.8 C 291.9 383.2 291.3 381.8 292.4 380.9 z M 176 385.1 C 175 384.8 173.9 384.6 172.9 384.40000000000003 C 174 384.40000000000003 175.1 384.40000000000003 176.20000000000002 384.40000000000003 C 176.1 384.6 176 384.9 176 385.1 z M 148.1 374.6 L 148.1 374.6 C 148.2 374.6 148.2 374.6 148.2 374.6 C 148.2 374.6 148.1 374.6 148.1 374.6 z M 142.4 384.3 C 141 384.6 139.70000000000002 384.90000000000003 138.3 385.2 C 138.3 384.9 138.4 384.59999999999997 138.3 384.2 C 139.7 384.3 141 384.3 142.4 384.3 z M 252.6 396.4 C 252.4 396.5 252.2 396.59999999999997 252 396.59999999999997 C 252 396.49999999999994 252 396.4 252 396.29999999999995 C 252.2 396.4 252.4 396.4 252.6 396.4 z M 266.4 375 L 266.5 375 L 266.5 375 L 266.4 375 z M 237.3 370.9 C 237.8 372 237.3 373.7 235.70000000000002 373.7 C 234.10000000000002 373.7 233.60000000000002 372 234.10000000000002 370.9 C 228.10000000000002 370.9 222.10000000000002 371 216.10000000000002 371.09999999999997 C 216.90000000000003 371.7 217.10000000000002 373.09999999999997 216.20000000000002 373.79999999999995 C 214.20000000000002 375.49999999999994 211.3 375.4 209.50000000000003 373.49999999999994 C 208.70000000000002 372.99999999999994 208.40000000000003 371.99999999999994 208.70000000000002 371.19999999999993 C 205.20000000000002 371.19999999999993 201.70000000000002 371.29999999999995 198.20000000000002 371.29999999999995 C 198.4 373.19999999999993 196.3 374.69999999999993 194.4 375.19999999999993 C 191.5 375.8999999999999 187.70000000000002 375.29999999999995 184.70000000000002 375.29999999999995 C 180.70000000000002 375.19999999999993 176.60000000000002 375.19999999999993 172.50000000000003 375.19999999999993 C 170.80000000000004 375.19999999999993 170.30000000000004 373.3999999999999 171.00000000000003 372.29999999999995 C 170.70000000000002 372.19999999999993 170.50000000000003 371.9 170.30000000000004 371.49999999999994 C 163.80000000000004 371.49999999999994 157.30000000000004 371.3999999999999 150.80000000000004 371.19999999999993 C 157.00000000000003 363.19999999999993 164.30000000000004 355.79999999999995 172.20000000000005 349.5999999999999 C 177.80000000000004 345.19999999999993 183.80000000000004 340.69999999999993 190.80000000000004 338.3999999999999 C 197.70000000000005 336.19999999999993 205.30000000000004 335.99999999999994 212.60000000000005 335.69999999999993 C 227.00000000000006 335.19999999999993 239.80000000000004 337.69999999999993 250.70000000000005 347.69999999999993 C 257.90000000000003 354.29999999999995 263.20000000000005 361.99999999999994 265.70000000000005 371.19999999999993 C 256.2 370.9 246.7 370.9 237.3 370.9 z M 264.8 375 C 249.8 375 234.70000000000002 374.9 219.70000000000002 374.9 C 234.7 374.7 249.7 374.6 264.8 375 z M 154.1 361.5 C 153.9 361.1 153.7 360.6 153.29999999999998 360.3 C 156.89999999999998 357.3 160.6 354.3 164.29999999999998 351.40000000000003 C 160.7 354.6 157.3 358 154.1 361.5 z M 267.8 364.2 C 268 365.3 268.2 366.4 268.40000000000003 367.59999999999997 C 267.40000000000003 364.7 266.20000000000005 361.9 264.70000000000005 359.2 C 265.00000000000006 359.59999999999997 265.30000000000007 360.09999999999997 265.6 360.5 C 266.4 361.7 267.1 362.9 267.8 364.2 z M 118.2 380 C 120.10000000000001 378.5 122.7 381.2 120.8 382.6 C 120.5 382.8 120.3 383.1 120 383.3 C 120 385.7 118.9 387.7 116.9 389 C 116.5 389.3 116.10000000000001 389.4 115.7 389.3 C 115.60000000000001 389.40000000000003 115.60000000000001 389.6 115.5 389.7 C 114.6 391.59999999999997 111.3 390.3 112.1 388.3 C 113.4 385 115.4 382.2 118.2 380 z M 239.5 319.3 C 239.5 319.3 239.4 319.3 239.5 319.3 C 239.5 319.3 239.7 319.3 239.8 319.3 C 239.7 319.3 239.6 319.3 239.5 319.3 z M 84.5 415.7 L 84.5 415.7 L 84.5 415.7 L 84.5 415.7 z M 283.5 411.8 C 283.6 411.7 283.8 411.5 283.9 411.40000000000003 C 283.79999999999995 411.6 283.79999999999995 411.90000000000003 283.7 412.1 C 283.6 412 283.6 411.9 283.5 411.8 z M 284.5 407.2 C 284.4 406.9 284.3 406.59999999999997 284.2 406.3 C 284.9 405.1 285.5 403.8 286.09999999999997 402.5 C 285.7 404.4 285.2 406.3 284.7 408.2 C 284.7 407.9 284.6 407.6 284.5 407.2 z M 289.4 369.1 C 289.5 369 289.59999999999997 368.90000000000003 289.7 368.8 C 289.7 369.40000000000003 289.8 370 289.8 370.7 C 289.6 370.2 289.5 369.7 289.4 369.1 z M 230.9 317.3 C 229.9 317.2 228.9 317.2 227.9 317.1 C 227.70000000000002 316.90000000000003 227.4 316.8 227.1 316.6 C 227.2 316.6 227.29999999999998 316.6 227.4 316.6 C 228.6 316.9 229.8 317.1 230.9 317.3 z M 184.9 319.6 C 184.8 319.6 184.8 319.70000000000005 184.70000000000002 319.70000000000005 C 182.9 320.50000000000006 181.10000000000002 321.40000000000003 179.20000000000002 322.20000000000005 C 178.50000000000003 322.1 177.8 322.1 177.00000000000003 322.40000000000003 C 176.00000000000003 322.70000000000005 175.00000000000003 323.1 174.00000000000003 323.50000000000006 C 177.6 322 181.2 320.7 184.9 319.6 z M 119.8 366.2 C 119.6 366.4 119.5 366.7 119.3 366.9 L 119.3 366.9 L 119.2 366.9 C 119.3 366.7 119.5 366.5 119.60000000000001 366.4 C 119.7 366.3 119.7 366.2 119.8 366.2 z M 206.7 415.7 C 207.29999999999998 415.7 207.79999999999998 415.7 208.39999999999998 415.7 C 209.29999999999998 415.7 210.2 415.8 211.09999999999997 415.8 C 209.6 415.7 208.2 415.7 206.7 415.7 z" stroke-linecap="round" />
</g>
<g transform="matrix(1 0 0 1 -24.35 10.24)" id="bhzSRo6Ic8XxzSXP5idym"  >
<path style="stroke: none; stroke-width: 1; stroke-dasharray: none; stroke-linecap: butt; stroke-dashoffset: 0; stroke-linejoin: miter; stroke-miterlimit: 4; fill: rgb(229,222,209); fill-rule: nonzero; opacity: 1;" vector-effect="non-scaling-stroke"  transform=" translate(-282.25, -423.32)" d="M 283.2 423.3 C 282.59999999999997 423.3 281.9 423.2 281.3 423.2 C 281.9 423.5 282.6 423.5 283.2 423.3 z" stroke-linecap="round" />
</g>
<g transform="matrix(1 0 0 1 -113.8 -41.48)" id="QwZcXljfiLE4D1WAF6KMN"  >
<path style="stroke: none; stroke-width: 1; stroke-dasharray: none; stroke-linecap: butt; stroke-dashoffset: 0; stroke-linejoin: miter; stroke-miterlimit: 4; fill: rgb(229,222,209); fill-rule: nonzero; opacity: 1;" vector-effect="non-scaling-stroke"  transform=" translate(-192.8, -371.6)" d="M 193.1 371.5 C 192.9 371.6 192.7 371.6 192.5 371.7 C 192.7 371.6 192.9 371.6 193.1 371.5 z" stroke-linecap="round" />
</g>
<g transform="matrix(1 0 0 1 -122.65 -41.43)" id="smk6qzknWAZUUl1NlsnNn"  >
<path style="stroke: none; stroke-width: 1; stroke-dasharray: none; stroke-linecap: butt; stroke-dashoffset: 0; stroke-linejoin: miter; stroke-miterlimit: 4; fill: rgb(229,222,209); fill-rule: nonzero; opacity: 1;" vector-effect="non-scaling-stroke"  transform=" translate(-183.95, -371.65)" d="M 183.7 371.5 C 184.7 371.5 186.2 371.7 187.79999999999998 371.8 C 186.79999999999998 371.7 185.79999999999998 371.6 184.89999999999998 371.5 C 183.29999999999998 371.5 181.7 371.5 180.09999999999997 371.5 C 181.3 371.5 182.5 371.5 183.7 371.5 z" stroke-linecap="round" />
</g>
<g transform="matrix(1 0 0 1 -127.85 8.28)" id="YeBWHSXTwGZWWAJGA183r"  >
<path style="stroke: none; stroke-width: 1; stroke-dasharray: none; stroke-linecap: butt; stroke-dashoffset: 0; stroke-linejoin: miter; stroke-miterlimit: 4; fill: rgb(183,170,154); fill-rule: nonzero; opacity: 1;" vector-effect="non-scaling-stroke"  transform=" translate(-178.75, -421.35)" d="M 261.4 419.1 C 244.89999999999998 418.90000000000003 228.39999999999998 418.90000000000003 211.89999999999998 418.90000000000003 C 200.79999999999998 418.90000000000003 189.7 418.90000000000003 178.59999999999997 418.90000000000003 C 152.89999999999998 418.90000000000003 127.19999999999996 419.00000000000006 101.49999999999997 419.3 C 98.29999999999997 419.3 95.09999999999997 419.3 91.89999999999998 419.3 C 87.99999999999997 419.3 84.09999999999998 419.3 80.09999999999998 419.40000000000003 C 77.09999999999998 419.50000000000006 74.19999999999997 419.70000000000005 71.19999999999997 420.00000000000006 C 68.79999999999997 420.20000000000005 68.79999999999997 424.00000000000006 71.19999999999997 423.80000000000007 C 79.49999999999997 423.00000000000006 87.89999999999998 423.30000000000007 96.19999999999997 423.20000000000005 C 112.69999999999997 423.00000000000006 129.2 422.90000000000003 145.7 422.80000000000007 C 182.5 422.70000000000005 219.29999999999998 422.6000000000001 256.1 422.9000000000001 C 264.40000000000003 423.0000000000001 272.90000000000003 422.7000000000001 281.20000000000005 423.2000000000001 C 281.80000000000007 423.2000000000001 282.50000000000006 423.3000000000001 283.1 423.3000000000001 C 284.20000000000005 423.40000000000015 285.20000000000005 423.40000000000015 286.3 423.5000000000001 C 288.7 423.7000000000001 288.7 420.0000000000001 286.3 419.7000000000001 C 285.90000000000003 419.7000000000001 285.40000000000003 419.6000000000001 285 419.6000000000001 C 277.2 418.9 269.3 419.2 261.4 419.1 z" stroke-linecap="round" />
</g>
<g transform="matrix(1 0 0 1 -7.94 -41.28)" id="imHOm__BNV3EgNzsNqEZ5"  >
<path style="stroke: none; stroke-width: 1; stroke-dasharray: none; stroke-linecap: butt; stroke-dashoffset: 0; stroke-linejoin: miter; stroke-miterlimit: 4; fill: rgb(183,170,154); fill-rule: nonzero; opacity: 1;" vector-effect="non-scaling-stroke"  transform=" translate(-298.66, -371.8)" d="M 304.9 361.4 C 304.79999999999995 360.29999999999995 303.79999999999995 359.09999999999997 302.5 359.59999999999997 C 299.3 360.99999999999994 296.1 362.2 292.9 363.59999999999997 C 292.79999999999995 363.59999999999997 292.79999999999995 363.7 292.7 363.7 C 291.2 364.3 291.2 366.3 292.09999999999997 367.09999999999997 C 291.9 367.4 291.79999999999995 367.7 291.79999999999995 368.2 C 291.79999999999995 371.8 291.79999999999995 375.4 291.79999999999995 379.09999999999997 C 291.79999999999995 379.9 292.19999999999993 380.4 292.69999999999993 380.7 C 292.5999999999999 380.8 292.49999999999994 380.8 292.3999999999999 380.9 C 291.2999999999999 381.79999999999995 291.8999999999999 383.2 292.7999999999999 383.79999999999995 C 293.4999999999999 384.19999999999993 294.2999999999999 384.29999999999995 295.0999999999999 383.59999999999997 C 297.9999999999999 380.99999999999994 302.7999999999999 381.7 304.69999999999993 377.7 C 305.79999999999995 375.5 305.8999999999999 372.59999999999997 305.79999999999995 369.59999999999997 C 305.79999999999995 368.9 305.69999999999993 368.2 305.59999999999997 367.59999999999997 C 305.4 365.3 305.1 363.2 304.9 361.4 z M 297.3 367.4 C 296.90000000000003 367.2 296.40000000000003 367.09999999999997 296 367.2 C 295.7 367.09999999999997 295.4 367 295.1 367 C 295 366.9 295 366.9 294.90000000000003 366.8 C 295.90000000000003 366.40000000000003 296.8 366 297.8 365.6 C 297.6 366.2 297.4 366.8 297.3 367.4 z M 295.6 379.1 L 295.6 379.1 C 295.70000000000005 379.1 295.70000000000005 379.1 295.70000000000005 379.1 L 295.70000000000005 379.1 C 295.80000000000007 379.1 295.80000000000007 379 295.90000000000003 379 C 295.90000000000003 379 295.90000000000003 379 296.00000000000006 379 C 295.8 379.1 295.7 379.1 295.6 379.1 L 295.6 379.1 z M 298.6 377.9 C 298.70000000000005 377.7 298.70000000000005 377.5 298.8 377.29999999999995 C 299 377.4 299.2 377.49999999999994 299.40000000000003 377.49999999999994 C 299.1 377.7 298.9 377.8 298.6 377.9 L 298.6 377.9 z" stroke-linecap="round" />
</g>
<g transform="matrix(1 0 0 1 -212.26 -21.8)" id="4KP309td5G2g6FtdaNhtL"  >
<path style="stroke: none; stroke-width: 1; stroke-dasharray: none; stroke-linecap: butt; stroke-dashoffset: 0; stroke-linejoin: miter; stroke-miterlimit: 4; fill: rgb(183,170,154); fill-rule: nonzero; opacity: 1;" vector-effect="non-scaling-stroke"  transform=" translate(-94.34, -391.27)" d="M 94.1 395.6 C 95.69999999999999 393.70000000000005 96.89999999999999 391.70000000000005 97.89999999999999 389.5 C 98.39999999999999 388.9 98.49999999999999 388.1 98.19999999999999 387.4 C 97.99999999999999 387.09999999999997 97.79999999999998 386.79999999999995 97.29999999999998 386.7 C 97.19999999999999 386.59999999999997 96.99999999999999 386.5 96.89999999999998 386.5 C 96.39999999999998 386.3 95.99999999999997 386.4 95.69999999999997 386.5 C 93.89999999999998 386.6 92.39999999999998 387.5 91.29999999999997 389.1 C 90.09999999999997 390.90000000000003 89.89999999999996 393.40000000000003 91.19999999999997 395.20000000000005 C 91.49999999999997 395.50000000000006 91.79999999999997 395.80000000000007 92.29999999999997 396.00000000000006 C 92.9 396.3 93.6 396.2 94.1 395.6 z" stroke-linecap="round" />
</g>
<g transform="matrix(1 0 0 1 -119.59 -100.7)" id="u0P3hyRVgzj4PWnW_K_yV"  >
<path style="stroke: none; stroke-width: 1; stroke-dasharray: none; stroke-linecap: butt; stroke-dashoffset: 0; stroke-linejoin: miter; stroke-miterlimit: 4; fill: rgb(183,170,154); fill-rule: nonzero; opacity: 1;" vector-effect="non-scaling-stroke"  transform=" translate(-187.01, -312.38)" d="M 181.7 317.8 C 181.79999999999998 317.6 181.89999999999998 317.40000000000003 182 317.2 C 182.1 317.2 182.2 317.2 182.3 317.2 C 183.70000000000002 317.09999999999997 185.10000000000002 316.9 186.5 316.4 C 186.8 316.4 187.1 316.29999999999995 187.4 316.2 C 187.6 316.09999999999997 187.70000000000002 316 187.9 315.9 C 189 315.4 190.1 314.79999999999995 191.1 314 C 192.5 312.9 193.79999999999998 311.6 194.79999999999998 310.1 C 194.89999999999998 310 194.99999999999997 309.90000000000003 194.99999999999997 309.8 C 195.19999999999996 309.5 195.29999999999998 309.3 195.39999999999998 309 C 195.39999999999998 308.9 195.49999999999997 308.9 195.49999999999997 308.8 C 196.09999999999997 307.7 195.39999999999998 305.8 193.89999999999998 306 C 191.49999999999997 306.3 189.09999999999997 306.6 186.59999999999997 306.9 C 185.39999999999998 307 184.79999999999995 308 184.79999999999995 308.9 C 182.09999999999997 310.59999999999997 179.79999999999995 313 178.49999999999994 316.09999999999997 C 178.19999999999993 316.59999999999997 178.29999999999995 317.2 178.49999999999994 317.59999999999997 C 179.1 318.8 181 319.4 181.7 317.8 z" stroke-linecap="round" />
</g>
<g transform="matrix(1 0 0 1 -122.44 -41.61)" id="YU5mb-U2NUCEXHgHDs-Qw"  >
<path style="stroke: none; stroke-width: 1; stroke-dasharray: none; stroke-linecap: butt; stroke-dashoffset: 0; stroke-linejoin: miter; stroke-miterlimit: 4; fill: rgb(183,169,72); fill-rule: nonzero; opacity: 1;" vector-effect="non-scaling-stroke"  transform=" translate(-184.16, -371.47)" d="M 192.3 368.1 C 188.5 367.8 184.60000000000002 367.6 180.8 367.6 C 178.10000000000002 367.6 170.20000000000002 366.20000000000005 170.10000000000002 370.70000000000005 C 170.10000000000002 371.00000000000006 170.20000000000002 371.20000000000005 170.3 371.50000000000006 C 170.4 371.80000000000007 170.70000000000002 372.1000000000001 171 372.30000000000007 C 170.4 373.4000000000001 170.9 375.20000000000005 172.5 375.20000000000005 C 176.6 375.20000000000005 180.7 375.20000000000005 184.7 375.30000000000007 C 187.7 375.30000000000007 191.5 375.9000000000001 194.39999999999998 375.20000000000005 C 196.29999999999998 374.70000000000005 198.39999999999998 373.20000000000005 198.2 371.30000000000007 C 198.2 370.80000000000007 198 370.30000000000007 197.6 369.80000000000007 C 196.4 368.2 194.1 368.3 192.3 368.1 z M 174.1 371.5 C 174.2 371.4 174.2 371.3 174.2 371.2 C 174.39999999999998 371.4 174.6 371.5 174.79999999999998 371.5 C 174.6 371.5 174.3 371.5 174.1 371.5 z M 192.5 371.7 C 192.7 371.59999999999997 192.9 371.59999999999997 193.1 371.5 C 192.9 371.6 192.7 371.6 192.5 371.7 z M 187.8 371.8 C 186.20000000000002 371.7 184.70000000000002 371.5 183.70000000000002 371.5 C 182.50000000000003 371.5 181.3 371.5 180.10000000000002 371.5 C 178.70000000000002 371.5 177.3 371.5 175.90000000000003 371.5 C 176.90000000000003 371.5 177.80000000000004 371.4 178.80000000000004 371.4 C 180.40000000000003 371.4 182.00000000000003 371.4 183.60000000000005 371.4 C 184.00000000000006 371.4 184.40000000000006 371.4 184.90000000000006 371.5 C 185.8 371.6 186.8 371.7 187.8 371.8 z" stroke-linecap="round" />
</g>
<g transform="matrix(1 0 0 1 -94 -40.62)" id="zGPzze7zJMOBrxIB2gR2S"  >
<path style="stroke: none; stroke-width: 1; stroke-dasharray: none; stroke-linecap: butt; stroke-dashoffset: 0; stroke-linejoin: miter; stroke-miterlimit: 4; fill: rgb(183,169,72); fill-rule: nonzero; opacity: 1;" vector-effect="non-scaling-stroke"  transform=" translate(-212.6, -372.45)" d="M 210.6 370 C 210.29999999999998 370 210.1 370.1 209.79999999999998 370.2 C 209.2 370.4 208.79999999999998 370.8 208.6 371.3 C 208.29999999999998 372.1 208.7 373.2 209.4 373.6 C 211.20000000000002 375.40000000000003 214 375.5 216.1 373.90000000000003 C 217 373.20000000000005 216.79999999999998 371.8 216 371.20000000000005 C 215.9 371.1 215.8 371.1 215.7 371.00000000000006 C 214.2 369.9 212.4 369.7 210.6 370 z" stroke-linecap="round" />
</g>
<g transform="matrix(1 0 0 1 -70.92 -41.28)" id="8B_hbY73y25S9Y4Cvs0do"  >
<path style="stroke: none; stroke-width: 1; stroke-dasharray: none; stroke-linecap: butt; stroke-dashoffset: 0; stroke-linejoin: miter; stroke-miterlimit: 4; fill: rgb(183,169,72); fill-rule: nonzero; opacity: 1;" vector-effect="non-scaling-stroke"  transform=" translate(-235.68, -371.8)" d="M 235.7 369.9 C 234.89999999999998 369.9 234.39999999999998 370.4 234.1 370.9 C 233.5 372 234.1 373.7 235.7 373.7 C 237.29999999999998 373.7 237.79999999999998 372 237.29999999999998 370.9 C 237 370.3 236.5 369.9 235.7 369.9 z" stroke-linecap="round" />
</g>
<g transform="matrix(1 0 0 1 -189.88 -27.98)" id="VrCGw76zEcqxRP5wLlHtL"  >
<path style="stroke: none; stroke-width: 1; stroke-dasharray: none; stroke-linecap: butt; stroke-dashoffset: 0; stroke-linejoin: miter; stroke-miterlimit: 4; fill: rgb(183,169,72); fill-rule: nonzero; opacity: 1;" vector-effect="non-scaling-stroke"  transform=" translate(-116.72, -385.09)" d="M 115.5 389.7 C 115.6 389.59999999999997 115.6 389.4 115.7 389.3 C 116.10000000000001 389.40000000000003 116.5 389.3 116.9 389 C 118.9 387.7 120 385.7 120 383.3 C 120.3 383.1 120.5 382.8 120.8 382.6 C 122.7 381.20000000000005 120.1 378.5 118.2 380 C 115.4 382.2 113.4 385 112.10000000000001 388.3 C 111.3 390.3 114.6 391.6 115.5 389.7 z" stroke-linecap="round" />
</g>
<g transform="matrix(1 0 0 1 82.84 -72.87)" id="GDLX8-v7i_y3qHQFQqjTQ"  >
<path style="stroke: none; stroke-width: 1; stroke-dasharray: none; stroke-linecap: butt; stroke-dashoffset: 0; stroke-linejoin: miter; stroke-miterlimit: 4; fill: rgb(206,196,182); fill-rule: nonzero; opacity: 1;" vector-effect="non-scaling-stroke"  transform=" translate(-389.44, -340.2)" d="M 472.5 369.1 C 472.9 368.90000000000003 473.1 368.5 473.1 368.1 L 473.1 368.1 C 474.20000000000005 365.70000000000005 469.90000000000003 362.1 468.1 361.20000000000005 C 466.20000000000005 360.30000000000007 464.20000000000005 360.50000000000006 462.6 361.50000000000006 C 459.3 353.20000000000005 462.5 344.30000000000007 463.1 335.70000000000005 C 463.6 329.00000000000006 462.20000000000005 322.80000000000007 458 317.50000000000006 C 448.2 304.90000000000003 430.9 303.30000000000007 416.1 303.80000000000007 C 386.40000000000003 304.80000000000007 357.40000000000003 316.20000000000005 334.5 334.9000000000001 C 323.2 344.1000000000001 313.3 355.1000000000001 305.6 367.6000000000001 C 305.70000000000005 368.30000000000007 305.70000000000005 369.00000000000006 305.8 369.6000000000001 C 319.90000000000003 346.6000000000001 340.90000000000003 328.30000000000007 365.5 317.1000000000001 C 378.9 311.00000000000006 393.3 307.00000000000006 408 305.6000000000001 C 423.5 304.1000000000001 442.9 303.9000000000001 454.7 315.6000000000001 C 462.4 323.30000000000007 462.5 332.6000000000001 461 342.7000000000001 C 460 349.3000000000001 459 355.8000000000001 461.5 362.1000000000001 C 459.7 362.9000000000001 458.1 364.6000000000001 457.8 366.30000000000007 C 457.3 368.70000000000005 458.2 373.4000000000001 460.8 374.50000000000006 C 462.2 375.1000000000001 463.6 374.30000000000007 464.90000000000003 373.50000000000006 C 465.70000000000005 374.30000000000007 466.40000000000003 375.20000000000005 467.1 376.1000000000001 C 467.5 376.6000000000001 468.20000000000005 376.9000000000001 468.8 376.50000000000006 C 469.3 376.20000000000005 469.7 375.30000000000007 469.2 374.80000000000007 C 468.59999999999997 373.9000000000001 467.8 373.1000000000001 467.09999999999997 372.20000000000005 C 467.7 371.90000000000003 468.29999999999995 371.50000000000006 468.9 371.20000000000005 C 469.4 371.90000000000003 469.9 372.6 470.5 373.30000000000007 C 471.4 374.6000000000001 473.6 373.30000000000007 472.7 372.00000000000006 C 472.2 371.30000000000007 471.7 370.6000000000001 471.2 369.90000000000003 C 471.4 369.8 471.5 369.70000000000005 471.59999999999997 369.6 C 471.9 369.5 472.2 369.3 472.5 369.1 z M 470.6 367 C 470.5 367.1 470.3 367.3 470.1 367.4 C 470.20000000000005 367.2 470.1 366.9 470.1 366.7 C 470.3 366.59999999999997 470.5 366.5 470.6 366.3 C 470.6 366.6 470.7 366.8 470.6 367 z M 467 364.7 C 466.8 364.7 466.7 364.8 466.5 364.8 C 466.5 364.7 466.5 364.5 466.5 364.40000000000003 C 466.7 364.5 466.8 364.6 467 364.7 z" stroke-linecap="round" />
</g>
</svg>